<?xml version="1.0" encoding="utf-8"?>
<!-- Generator: Adobe Illustrator 19.1.0, SVG Export Plug-In . SVG Version: 6.00 Build 0)  -->
<svg version="1.1" id="Layer_1" xmlns="http://www.w3.org/2000/svg" xmlns:xlink="http://www.w3.org/1999/xlink" x="0px" y="0px"
	 viewBox="900 -211 2200 622" style="enable-background:new 900 -211 2200 622;" xml:space="preserve">
<style type="text/css">
	.st0{fill:#020202;}
</style>
<g>
	<path class="st0" d="M2170.8-10.8c3.8,1.5,9.1,1.3,13,1c10.6-0.8,27-4.7,33.7-13.8c6.1-8.2,2.8-20.3-6.4-24.6
		c-4.6-2.4-11.8-2.2-17-1.8c-7,0.6-10.6,3.5-16.4,7c-5.9,3.6-12,5.7-15.1,12.6C2159.1-23.2,2163.7-13.9,2170.8-10.8z"/>
	<path class="st0" d="M2951.8,147.5c-11,4.4-22.9,7-34.4,10.2c-6.7,1.9-13.3,4.5-20.1,2.6c2.6-5.6,7.9-11.1,7.2-17.8
		c-1.3-14.4-15.1-23.3-26.9-12.4c-5,4.5-5.9,12.2-3.8,18.4c1.1,3.3,4.4,7.5,2.6,11.1c-1.5,3.1-5,5.5-7.4,7.8
		c-6.6,6-12.9,10.1-20.5,14.6c-7.7,4.6-14.6,10.8-22.5,14.9c-14.5,7.3-32.4,9.8-48.2,5.6c-3.2-0.8-8.2-2-9.5-5.4
		c-0.9-2.5,0.5-5.4,1.2-7.9c1.3-4.8,3.1-10.1,3.9-14.9c1.3-8.7-6.1-24-13.7-28.3c-3.1-1.7-7.6-1.6-11-1.5
		c-7.8,0.5-16.6,6.6-18.9,14.3c-1.7,5.5-1,12.3-1.2,18c-0.3,8.4-0.8,17.3,7.3,22.3c-4.1,5.2-8.3,5.6-14.3,7.5
		c-9.6,3.1-19.6,4.3-29.2,7.1c-9.3,2.8-19,3.4-28.2,6c-6.9,2-13.1,3.7-20.2,4.9c-3.7,0.7-7.3,2.2-11,1.2
		c-21.6-5.1-20.8-31.6-22.4-48.9c-0.7-7.1-1.1-14.8-0.1-22c0.6-4.5,4.6-6.8,5.8-10.8c0.9-3.3-0.2-6.6,0.1-10
		c0.4-4.1,1.7-8.8,2.9-12.9c0.9-3,3.1-5.1,4.3-8c1.9-4.2,2.6-9.3,3.5-13.9c1.1-5.9,2.8-18.4,8.9-21.1c6.3-2.8,14.3-1.4,20.8-1
		c8.8,0.5,17.5-2.2,26.1-2.1c6.8,0.1,10.1,2.3,17,0.2c7.4-2.4,14.9-1.3,18.1-9.9c2-4.9,1.8-10.7,2.8-15.9c1.1-5.3,6.4-12.3,4.7-17.8
		c-2.3-7.5-13.9-3.6-19.1-3.1c-6.6,0.6-13.4,0.2-20,1c-7.8,1-15.2,3.2-23.1,3.3c-4.4,0.1-10.6,3-14.6-0.1c-1.9-1.5-1.7-3.8-1.1-5.8
		c1.4-5,4.6-9.8,6.3-14.8c5.7-17,10.1-34.1,19.9-49.4c2.5-3.9,3.7-7.8,7.2-10.8c-1.3-8.3,7.9-13.2,10.7-20.7
		c-9.7-3.4-18.9-1.9-29-0.9c-10.1,1.2-19.9,3.2-30.1,4c-4,0.3-10.5,0.9-13.4,4c-3.7,4.1-3.6,13.1-5.1,18.2
		c-4.8,16.7-11.1,32.5-13.7,49.6c-1,6.8-3.1,13.3-5.1,19.8c-0.7,2.5-1,5.4-3.3,6.9c-5.8,3.9-14.4,1.6-20.8,1.8
		c-10.4,0.3-20.7,1.3-31.1,1.4c-9.3,0.1-18.7-1.1-28-0.5c-5.7,0.4-14.6-2.4-19.6,1.6c-6.2,5-5.9,17-7.7,24.2c-1.1,4.3-0.7,8.7-1,13
		c-0.2,2.2-1.5,4.7-1.1,6.9c0.8,6.1,12.5,4.5,16.8,4.7c6.9,0.2,14.1,0.7,21,0.4c10.1-0.5,19.9-2.8,30.1-2.9
		c4.4-0.1,8.7-1.5,13.1-1.6c1.6,0,3.9-0.2,4.5,1.7c1,2.8-2.6,7.2-4,9.5c-5.4,9.6-13.5,18.2-22.7,24.2c-12.4,8.1-25,16.8-38.8,22.3
		c-12.4,4.9-25,9.8-37.5,14.2c-6.3,2.2-13.2,2.6-19.2,5.4c-9.2,4.4-18.7,6.2-28.3,9.5c-3.1,1.1-9.4,3.9-12.7,2
		c-2.6-1.6-0.6-6.4-0.2-8.7c1.3-8.1,2.6-15.8,2.7-23.9c0.1-8.7-1.5-17.4-1.4-26.1c0.5-25.6,1.3-51.5-0.1-77
		c-0.3-6.3-5.9-7.9-10.6-10.8c-8-4.8-15.3-9.9-23.5-14.2c-3.5-1.8-7.5-5.6-11.8-5.2c-4.1,0.6-5.5,5-6.6,8.4
		c-2.7,8.1-6.6,15.3-8.4,23.7c-1.4,6.9-6.2,12.4-8.9,18.7c-5.4,12-9.7,25.3-16.4,36.6c-2.9,6.2-5.5,14-11.8,16.9
		c-0.6,5.8-4.5,9.2-7.8,13.8c-4.9,7-9.2,13.9-14.7,20.5c-11.6,13.8-22,28.3-38,37.7c-5.3,3.2-10.4,3.7-16.2,5.5
		c-7.2,2.3-13.8,5.3-21.2,6.9c-9.7,2.1-20.1,5.2-30.1,2c-14.8-4.8-23.2-24-22.8-38.3c0.6-19.1,5-36.6,10.3-54.7
		c3.7-12.8,7.6-25.6,13.8-37.6c4.5-8.7,11.1-19.9,12.8-29.6c0.9-5.1,2-10.7-4.5-12.1c-11.8-2.3-25.2,3.7-37.2,4.5
		c-3.9,0.3-10.3-1.5-13.5,1.4c-4,3.6-3.7,12.5-6.1,17.2c-2.7,5.4-6.5,10.2-9.3,15.7c-4.4,8.8-7.7,18.1-12.5,26.6
		c-5.5,9.9-14.3,17.8-21.5,26.5c-7.3,8.8-12.7,19.6-20.5,28c-6.4,7.1-14.6,12.8-21.6,19.5c-4.9,4.7-9.9,10.8-15.2,14.8
		c-7.2,5.5-14.9,8.5-23.3,11.4c-7.6,2.7-14,5.5-22.2,5.7c-4.9,0.1-10.3,1.7-15-0.3c-10.9-4.5-14.2-17.3-12.5-27.7
		c3.4-20.1,8.6-39.2,14.9-58.5c2.4-7.5,4.6-18.8,10.6-24.4c6.2-5.8,16.1-5.1,23.8-5.7c4.1-0.3,8-2,12.1-2.3
		c12.7-0.8,28.4,0,40.2-5.4c5.9-2.7,5.3-8.8,6.6-14.2c1.2-4.6,3-9.4,4.7-13.9c1.2-3.2,3.6-6.5,4.1-9.9c0.5-2.9-1.5-4.7-4-5.5
		c-5.1-1.9-9.8,1-15,1.1c-15.9,0.4-31.2,3.7-47.1,3.2c2.5-13.6,10-27,15.8-39.5c7-15,12.9-30.3,19.4-45.4c2.5-5.9,4.9-12.3,8.4-17.7
		c1.6-2.3,5.2-4.9,5.3-7.9c0.3-7-12-5.9-16-5.6c-4.8,0.2-9.3-0.8-14-1c-9.3-0.3-18.8,0.3-28.1,1.3c-4.4,0.5-12.1-0.1-14.7,4.1
		c-3.3,5.4-3.1,13.6-4.2,19.7c-0.9,5-3.1,10-4.6,14.9c-5.4,17.3-10,35.7-16.9,52.5c-1.6,3.9-5,6.8-6.8,10.8
		c-2.7,6.4-2.3,16.1-7.4,21.5c-2.4,2.5-5.4,1.4-8.5,1.4c-5-0.1-10.1,1.4-15.1,1.6c-6.7,0.4-13.3,2.6-20.1,2.6
		c-13.7,0.1-28.6-1.7-42.1,1.2c-5.7,1.2-19.1-1.4-21.6,5.1c-4.4,10.9-8.3,23.9-9.7,35.6c-0.4,4.3-0.9,10.3,3.6,12.5
		c2.7,1.3,5.3,0.1,7.9-0.5c5.7-1.4,10.7-2.9,16.2-5c3.9-1.5,8-0.7,12-1.3c5.8-0.8,11.3-2.9,17.1-3.7c10.4-1.3,20.7-3.4,31.2-4.7
		c2.9-0.3,10.4-2.1,9.9,2.9c-0.3,3.4-3.5,7-5.3,9.7c-4.3,6.8-9.2,13.3-12.8,20.6c-6.4,13.2-16,23.3-25.6,34.2
		c-12.8,14.4-25.8,27.1-41.6,38.2c-2.6,1.8-4.8,4.5-7.5,6.1c-3.3,1.9-7.4,2.5-10.8,4.2c-16.1,8.1-30.8,15.6-49.4,11.7
		c-3.4-0.7-6-2.9-8.8-4.8c-3.6-2.3-8.4-4.2-11-7.8c-5.1-7.2,0-20.1,1.7-27.9c2.1-9.6,4-19.5,7.2-28.8c3.1-8.8,7.8-17,10.8-25.7
		c2.1-5.7,2.2-12,4.1-17.9c1.9-6,5.7-11.9,8.4-17.7c4.6-10.5,8.5-20.9,12.4-31.6c1.4-3.9,1-9.9-4.3-10.4c-2.5-0.3-5.4,0.9-8,1
		c-6.9,0.6-14.1,0.9-21.1,1.2c-6,0.2-12-0.7-18-0.3c-20.5,1.3-40.9,4.6-61.2,6.5c-8.4,0.8-16.7,2-25.1,2.9c-4,0.5-8.6,0.1-11.5,3.4
		c-3.9,4.5-3.5,13-4.8,18.7c-0.9,4.5-3.1,8.5-4.3,12.9c-2.2,8.1-3.1,16.6-5.6,24.7c-1.4,4.7-5,8.4-7,12.9
		c-5.2,11.9-10.9,23-16.9,34.5c-1.7,3.1-2.6,6.8-4.7,9.8c-2.8,4-6.8,7.1-10.1,10.8c-9.8,11.2-19.1,21.5-30.2,31.3
		c-8.9,7.9-15.9,15.4-27.7,18.9c-3,0.9-6,0.6-9,1c-4.7,0.7-8.3,1.6-13,0.2c-6.4-1.8-8-8.6-9.4-14.3c-1.8-7.8-0.8-14.2-0.6-22
		c0.3-8.3-0.3-15.6,1.4-24c1.9-10.1,3.2-19.9,6.3-29.8c1.6-5.1,4.9-8.9,6.9-13.8c2.4-5.7,3.4-12.8,4.7-18.9c1.2-6,5.5-11.5,4.8-17.9
		c-1.2-12.1-12.2-23.7-18.4-33.7c-6.5-10.3-16.9-21.9-29.1-25.1c-28.3-7.4-56.7,5.1-77.8,23.8c-5,4.4-8.5,10.2-13.1,15.1
		c-5.1,5.3-10.7,10.1-15.4,15.8c-4.6,5.6-7.8,12.1-12.3,17.6c-7,8.9-15.6,16.9-23.2,25.3c-6.3,6.9-11.8,14.7-18.6,21.1
		c-4.2,4.1-9.4,6.8-13.7,11.1c-12,12.1-23,26.3-37.4,35.5c-4.7,2.9-10.3,4.6-15.2,6.9c-11.7,5.4-23.4,10.8-35.5,15.2
		c-5.9,2.1-12.9,1.3-19,1.2c-2.7-0.1-5.3,0.8-8,0.6c-4.8-0.4-9.3-2.3-13.9-3.8c-3-0.9-11.5-1-12.3-4.7c-0.5-2.4,2.1-5.3,2.9-7.6
		c1.3-4,1.7-8.8,2.1-12.9c1.8-17.8-12.1-38.2-31.7-36.6c-3.7,0.3-7,1.6-10.1,3.6c-2.5,1.5-4.9,3.2-6.8,5.5
		c-11.1,13,2.4,31.1,9.2,43.3c-12,2.4-23,4.5-35.1,3.1c-3.4-0.4-8.7,0.6-11.6-1.6c-3.3-2.5-0.5-9.4-1.4-13.1
		c-2.7-11.4-13.6-16-24.1-14.7c-10.6,1.4-12.3,18.5-7.4,25.7c1.9,2.8,7.4,7.3,6,11.1c-1.2,3.6-7.8,5.9-11,7.1
		c-5.8,2.1-13.9,3.8-20.1,2.6c-6.5-1.2-12.3-4.9-18.8-6.1c-4.3-0.7-12.5,1.4-6.8,6.8c7.4,7,23,13.7,33.2,13.6c2.7,0,5.3-1,8-1.3
		c4.6-0.4,9.7-0.6,14.1-2.5c7.1-3.3,11.8-10.9,18.7-14.5c3.8-1.9,9.7-0.8,13.8-0.5c6.5,0.4,12.5,3.9,18.9,4.1
		c11.5,0.4,23.5-1.1,35.1-1.5c3-0.1,6-1.3,9-0.7c8.4,1.8,14.9,11.1,22.5,15c3,1.5,5.9,1.2,8.9,2.1c11.1,3.4,21.2,4.1,32.9,2.8
		c3.9-0.5,7.3-2.3,11.1-2.9c4.3-0.8,8.7-0.5,13.1-1.6c12.5-2.9,24.8-7.8,36.4-13c4.3-1.9,9.1-1.9,13.1-4.3c3.2-1.9,4.7-5.1,7.5-7.4
		c8.3-6.1,18.1-10.3,26.3-16.9c6.3-5.1,11-11.1,18.6-14.6c-4.2,11.8-9.3,22.3-12,34.6c-1.5,6.7-3,15.1-2.5,21.9
		c1,15.3,13.8,25.8,27.8,29.4c24.7,6.5,50.4-5.6,70.7-19.4c7.8-5.2,15.4-11.2,22.3-17.6c2.5-2.3,5.7-7.2,9.4-7.6
		c3.9-0.5,3.6,8.1,4.1,10.5c2,10.5,6.1,21.1,15.8,26.7c5.7,3.3,12.2,6.9,18.7,8.2c11.1,2.2,23-0.8,34.1-1.5c16.8-1,32.7-2,48.3-9.2
		c11.7-5.3,20.7-13.9,29.6-22.8c20.9-20.8,36-44.8,49.3-71c4-7.8,5.1-18.2,7.3-26.8c1.1-4.3,1.7-8.5,5.4-11.5
		c4.1-3.3,10.1-1.9,15-1.8c9.1,0.1,18-1.2,27.1-2.1c-1,26.3-13.1,51.3-13.3,77.6c0,6.4,1.5,12.8,2,19.1c0.3,4.1-0.4,8.1,0.9,12
		c1.4,4.3,4.3,7.5,6.7,11.2c7.2,10.4,17.9,21,31,23.4c4.1,0.7,7.2-1.7,11.1-1.4c2.4,0.2,4.5,1.6,6.9,2.2c4,0.9,8.9,1,13,0.7
		c3.1-0.2,6-1.5,9.1-1.8c12-1.1,23.7-1.4,35.2-5.7c17.6-6.6,33.8-19.2,49-30.1c10.1-7.3,18.9-18,27-27.5c3.6-4.2,6.2-9.9,11.3-12.4
		c0.7,6.3,2.5,13.3,5,19.2c5.6,12.7,22.1,25.7,35.4,29.7c8.3,2.5,16.5,1.7,25,1.6c6.6-0.1,13.3,1.8,20,1.2
		c15.7-1.6,29.8-8.5,43.5-15.7c3.3-1.7,7-2.3,10.1-4.3c10-6.2,17.7-15.9,26.1-24.2c5.4-5.3,11.4-10,17-15.2
		c8.2-7.6,15.2-16.6,21.7-25.6c4-5.5,7.3-11.7,12.8-15.6c-1.3,17.1-4,34,0.3,51c1.9,7.3,5.7,13.6,8.9,20.3
		c4.5,9.1,9.2,17.7,18.7,22.6c9,4.7,23.1,4.5,32.8,4.3c6-0.1,11.8,2,18,1c12.2-1.9,26.3-3.5,37.3-9.4c4-2.1,8.5-4.3,12-7
		c3.3-2.5,7.7-7.3,12.3-6.9c5,0.5,5.6,12.2,6.8,15.9c2.7,8.8,8.5,14.6,14.5,21.3c3.4,3.7,6.3,8,10.3,11c5.9,4.6,12.9,4.7,19.8,6.3
		c8.7,1.8,18.2,3.5,27,1.3c4.7-1.1,8.9-4.5,13.2-6.7c23-11.6,41.3-34,46-59.8c6.1,0.2,11.1-1,17.1-1.9c3.3-0.5,6.8,0,10-0.9
		c8.2-2.2,16-6.3,24.3-8.6c7.7-2.1,15.6-3.5,23.2-5.8c6-1.8,11.5-5.3,17.3-7.6c16.9-6.8,33.9-14.1,49.8-23.2
		c10-5.7,16.6-16.1,26.7-21.4c2.6,12.6-3.4,24.7-5.9,36.8c-1.3,6.2-0.5,12.8-1,19c-1.4,18.3-2.4,35.7,7.5,52.3c2.1,3.5,5.1,6,7.8,9
		c2.5,2.8,4.2,5.9,7.4,7.9c18.5,11.7,40.3,6.8,60,2c28.3-7,57.6-14.3,83-29.6c6.7-4.1,14.2-8.1,20.2-13.1c3.8-3.2,6.9-7.7,11.5-9.8
		c6.2-2.8,15.6,0.7,22,1.8c4,0.7,7.9,0.1,12,0.2c6.7,0.1,13.5,1,20-0.5c24.5-5.8,44.7-19.4,65.1-33.4c4.4-3,7.7-7.7,12.3-10.2
		c4.9-2.6,11.6,0.1,17-1.1c4.2-1,8-3,12.1-4.3c3.9-1.2,8.1-0.9,12.1-1.9c6.2-1.5,12-4.3,18.2-6c7.8-2.2,19.8-5.8,21.5-14.8
		C2963.8,141,2957.6,145.2,2951.8,147.5z M1061.5,192.5l2,0.1c0.5,1.8,0.7,3.1,0.8,5C1062.1,196.1,1061.8,195.2,1061.5,192.5z
		 M1149.3,200.6c-3.9,0.5-6.7-3.4-8.4-6.5c-4.1-7.3-4.4-21.4,6.4-23.2c4.5-0.8,6,3.1,7.2,6.6C1156.8,184,1159.8,199.2,1149.3,200.6z
		 M1482,123.3c-2.5,10.3-4.1,22-8.2,31.7c-2.9,7-7.9,12.9-11.3,19.6c-8.7,16.8-16.4,30.3-33.4,39.7c-5.7,3.1-12.6,8.3-19.3,8.8
		c-6.3,0.5-10.5-5.1-12.1-10.6c-3.1-11.3-2.1-23.7,0.3-35c2.8-12.7,5.3-28,11.4-39.6c6.9-13.1,17.8-24.1,28-34.3
		c8.2-8.1,14.6-17.5,26.9-20.3c3.7-0.9,9.6-1.2,12.6,1.4c2.9,2.4,3,6.2,3.7,9.5C1482.6,103.7,1484.4,113.7,1482,123.3z M2315,234.9
		c-3.8-1.8-6.9-11.4-3.1-14.5c3.3-2.6,12.4-3.6,16.5-3.9c3.9-0.3,8.2,0.1,12,0.9C2337.6,225.1,2324.7,239.6,2315,234.9z
		 M2362.9,143.1c-0.7,6.7-2.2,13.2-2.6,19.9c-0.2,3.8-0.7,12.4-4.8,14.3c-6.4,2.9-16.9,0.8-23.7,0.3c-9-0.8-17.9-0.4-27-1.4
		c1.7-5.1,6.2-6.6,9.3-10.8c8-10.9,18.2-18.6,27.9-28c3.9-4,7.2-8.6,11-12.6c3.8-4.1,7.7-6.9,10.8-11.7c3.1,4.5-0.3,9.1-0.7,14
		C2362.7,132.4,2363.4,137.9,2362.9,143.1z M2747.6,186.8c-10.5-3.7-8.2-21,0.8-25c1.4,3.7,3.5,8.1,3.3,12.1
		C2751.5,178.4,2748.6,182.4,2747.6,186.8z M2884.8,152.3c-1.9-3.2-4.5-7.3-3.8-11.1c0.5-3.8,6.4-8.1,10.1-5.6
		C2896,138.7,2887.8,149.9,2884.8,152.3z"/>
</g>
</svg>
