<?xml version="1.0" encoding="utf-8"?>
<!-- Generator: Adobe Illustrator 19.1.0, SVG Export Plug-In . SVG Version: 6.00 Build 0)  -->
<svg version="1.1" id="Layer_1" xmlns="http://www.w3.org/2000/svg" xmlns:xlink="http://www.w3.org/1999/xlink" x="0px" y="0px"
	 viewBox="0 0 200 200" style="enable-background:new 0 0 200 200;" xml:space="preserve">
<style type="text/css">
	.st0{fill:#010101;}
</style>
<path class="st0" d="M171.6,173.7c-1.1,1-1.3,2.2-0.8,3.5c0.4,1,0.7,2,1.1,3.1c0.1,0.3,0.4,0.5,0.6,0.8c0.1,0.1,0.3,0.2,0.4,0.3
	c0.6,0.5,1.1,1,2,0.7c-0.2,0.5-0.7,0.7-1.1,0.5c-1.1-0.3-2-0.7-2.6-1.8c-0.9-1.4-1.4-2.9-1.5-4.5c-0.1-0.8-0.1-1.7,0.1-2.5
	c0.1-0.5,0.3-1.1,0.5-1.6c0.1-0.3,0.2-0.6,0.1-1c-0.3-0.9-0.6-1.7-0.9-2.6c-0.4-1.4-0.9-2.7-1.2-4c-0.2-0.9-0.6-1.8-0.8-2.7
	c-0.1-0.7-0.2-1.5-0.3-2.2c-0.1-0.7-0.2-1.5-0.4-2.2c-0.1-0.2-0.1-0.5-0.1-0.7c0.2-1.7-0.2-3.3-0.2-5c0-1.2-0.1-2.4-0.1-3.6
	c0-0.4,0.1-0.7,0.1-1.2c0.1-1.9,0.8-3.7,1.4-5.4c0.1-0.3,0.2-0.5,0.4-0.7c0.3-0.4,0.3-0.8,0.1-1.2c-0.1-0.4-0.2-0.7-0.4-1.2
	c-0.4-1.2-0.5-2.4-0.4-3.7c0.1-0.3,0.2-0.7,0.2-1c0.2-0.7,0.4-1.3,0.6-2c0.3-1.2,0.9-2.2,1.5-3.3c0.2-0.4,0.6-0.9,0.4-1.5
	c-0.7-0.1-1.3,0.1-1.9,0.3c-0.4,0.1-0.7,0.1-1.1-0.2c-0.1,0.2-0.3,0.4-0.6,0.3c-0.2-0.1-0.6-0.1-0.8-0.2c-0.9-0.3-1.8-0.5-2.5-1.4
	c-0.6-0.6-1.1-1.2-1.5-1.9c-0.6-1.1-1.2-2.2-1.6-3.3c-0.3-1-0.5-2-0.2-3.1c0.4-1.4,1.2-2.5,2.7-2.9c0.2-0.1,0.4-0.1,0.6-0.1
	c0.7-0.4,1.4-0.3,2.1-0.3c1,0.1,1.9,0.5,2.7,1c0.7,0.4,1.4,0.7,2,1.3c1.2,1.1,2.1,2.4,2.5,4.1c0.1,0.1,0.1,0.3,0.1,0.4
	c0,0,0.1,0,0.1,0.1c0.1-0.1,0.2-0.3,0.2-0.4c0.4-1.3,0.6-2.6,0.7-3.9c0-1.2,0.1-2.4,0.2-3.5c0.1-1.3,0.2-2.6,0.1-3.9
	c-0.1-0.3,0-0.5,0-0.8c-0.1-0.6-0.1-1.2-0.1-1.8c0-0.1,0-0.3,0-0.4c0-1,0.1-2.1,0.1-3.1c-0.1-1.6,0.2-3.1,0-4.6c-0.1-1-0.1-2-0.1-3
	c-0.1-1.2-0.1-2.2-0.2-3.4c-0.1-0.7-0.2-1.3-0.4-1.9c-0.2-1-0.5-2-0.7-3c0-0.1-0.1-0.2-0.2-0.4c-0.2,0.2-0.4,0.4-0.5,0.5
	c-0.7,0.7-1.3,1.4-2,2.2c-0.1,0.1-0.2,0.2-0.4,0.3c-0.6,0.3-1.1,0.7-1.7,1c-0.5,0.3-1.1,0.5-1.6,0.7c-1.6,0.5-3.3,0.7-5,0.7
	c-0.2,0-0.4-0.1-0.7-0.1c-0.2-0.1-0.4-0.1-0.7-0.1c-0.9,0.1-1.8-0.1-2.7-0.3c-0.3-0.1-0.7-0.3-1-0.3c-0.1,0-0.2-0.1-0.2-0.1
	c-0.8,0-1.4-0.5-2.2-0.8c-0.1,0-0.1-0.1-0.2-0.1c-0.4-0.9-1.3-1.1-1.9-1.8c-0.3-0.4-0.6-0.9-0.9-1.4c-0.1-0.2-0.2-0.5-0.3-0.7
	c-0.4-0.9-0.4-1.8-0.4-2.9c0-1.2,0.2-2.2,0.6-3.2c0.5-1.4,1.2-2.8,2.3-3.8c0.8-0.8,1.6-1.6,2.5-2.2c0.9-0.6,1.9-1.2,3-1.3
	c0.7-0.1,1.4-0.3,2.1-0.3c1.7-0.2,3.3,0,5,0.7c1.4,0.6,2.7,1.6,3.9,2.6c0.4,0.4,0.8,0.8,1.2,1.3c0.1,0.1,0.2,0.2,0.4,0.3
	c0.1-0.1,0.2-0.1,0.2-0.1c0.1-0.9,0.6-1.6,0.5-2.6c-0.1-0.5,0.2-1,0.2-1.6c0.1-0.8,0.2-1.6,0.2-2.5c0.1-1.2,0.2-2.5,0.2-3.7
	c-0.1-1.2,0.1-2.5,0.2-3.6c0.1-1.2,0.2-2.5,0.2-3.7c0-0.1,0-0.2,0-0.3c0-1.1,0-1-0.9-1.4c-0.4-0.1-0.7-0.4-1.1-0.6
	c-0.7-0.4-1.3-0.8-2-1.2c-1.1-0.5-2-1.2-2.9-2c-0.7-0.7-1.5-1.6-1.7-2.8c-0.1-0.7-0.4-1.5-0.3-2.2c0-0.5-0.1-1-0.2-1.5
	c-0.1-1-0.4-1.8-0.2-2.9c0.1-0.4-0.1-0.9-0.1-1.4c-1.1,0.2-2,0.3-3,0.5c-0.1,0-0.1,0.1-0.2,0.1c-1.1,0.1-2.1,0.1-3.2,0.2
	c-0.2,0-0.6-0.1-0.8-0.1c-1.2-0.1-2.3-0.3-3.5-0.3c-0.4,0-0.8-0.2-1.2-0.3c-0.8-0.3-1.6-0.5-2.4-0.9c-0.2-0.1-0.6-0.1-0.6-0.5
	c0-0.1-0.1-0.1-0.2-0.1c-0.2-0.1-0.6-0.2-0.8-0.4c-0.5-0.3-1-0.6-1.5-1c-0.5-0.3-0.9-0.7-1.4-1.1c-0.1-0.1-0.2-0.1-0.2-0.3
	c-0.9-1.4-2.2-2.5-2.8-4.2c-0.2-0.4-0.3-0.8-0.5-1.3c-0.2-0.4-0.3-0.8-0.4-1.2c-0.1-0.1-0.1-0.1-0.2-0.1c-1.5,0.2-2.9-0.3-4.3-0.5
	c-1.2-0.1-2.5-0.5-3.7-1.1c-0.6-0.3-0.9-0.3-1.3,0.3c-0.9,1-1.6,2-2.5,3c-0.6,0.6-1.4,1.2-2.2,1.5c-0.9,0.4-1.8,0.6-2.7,0.9
	c-1.1,0.3-2.2,0.3-3.3,0.1c-0.6-0.1-1.1-0.1-1.7-0.3c-1.1-0.2-2.2-0.7-3.1-1.3c-0.2-0.1-0.4-0.1-0.7-0.3c-0.6-0.3-1.3-0.6-1.9-1.1
	c-0.4-0.4-1-0.6-1.5-1c-0.4-0.2-0.7-0.5-1-0.9c-0.4-0.5-1-0.8-1.5-1.2c-0.6-0.4-1.2-0.8-1.6-1.4c-0.2-0.3-0.6-0.7-0.9-1
	c-1.1-0.9-2.2-1.6-3.4-2.3c-0.5-0.3-0.9-0.7-1.4-1c-0.3-0.3-0.7-0.4-1.1-0.3c-0.1,0-0.3,0-0.4-0.1c-0.8-0.3-1.7-0.3-2.5-0.3
	c-0.9,0-1.7,0.2-2.5,0.5c-0.2,0.1-0.5,0.2-0.9,0.4c0.1,0.2,0.2,0.4,0.4,0.6c1,1.2,1.7,2.6,2.2,4.1c0.2,0.7,0.7,1.4,0.7,2.3
	c0,1.3,0.2,2.5,0,3.8c-0.1,1.3-0.7,2.4-1.1,3.5c-0.3,1-0.9,1.7-1.7,2.2c-0.6,0.4-1.1,0.8-1.6,1.2C93,44,92.2,44,91.4,44
	c-0.4-0.1-0.9-0.1-1.3-0.1c-1.2-0.2-2.4-0.6-3.3-1.5c-0.4-0.5-0.7-1.2-1.1-1.7c-0.7-0.9-0.9-2-0.9-3.1c0.1-1.6,0.2-3.3,0.6-5
	c0.2-0.8,0.6-1.6,0.9-2.5c0.6-1.6,1.6-2.9,2.7-3.9c0.1-0.1,0.2-0.2,0.4-0.3c0.2-0.3,0.1-0.5-0.2-0.6c-0.2-0.1-0.6-0.1-0.8-0.1
	c-0.1,0-0.3,0-0.4,0c-1.3-0.5-2.6-0.1-3.9-0.4c-0.1,0-0.2,0.1-0.4,0.1c-0.6,0.1-1.1,0.1-1.7,0.1c-0.6-0.1-1.3,0-1.9,0
	c-0.5,0-1,0.1-1.4,0.1c-1.5,0.1-2.9,0.6-4.3,1c-0.1,0-0.2,0.1-0.2,0.1c-1.1-0.1-2,0.6-2.9,1.2c-0.6,0.4-1.2,0.7-1.8,1.2
	c-0.4,0.3-0.7,0.5-1,0.8c-0.1,0.1-0.2,0.1-0.3,0.2c-0.4,0.1-0.7,0.2-1.1,0.4c-1.2,0.6-2.5,1.2-3.7,1.8c-0.9,0.4-1.8,1-2.7,1.3
	c-0.9,0.4-1.9,0.7-2.9,1c-0.9,0.3-1.8,0.3-2.6,0.8c-0.1,0.1-0.1,0.1-0.2,0.1c-1,0.1-2,0.1-2.9,0.2c-0.7,0.1-1.5,0.2-2.2,0.2
	c-0.9,0.1-1.8,0-2.7,0c-0.2,0-0.4-0.1-0.6-0.2c-0.2-0.1-0.6-0.2-0.7-0.1c-1.2,0.6-2.4,1-3.7,1.2c-0.9,0.2-1.8,0.2-2.7,0.2
	c-0.7,0-1.5-0.1-2.3-0.1c-1.2-0.1-2.4-0.6-3.5-1.2c-0.4-0.2-0.7-0.5-1-0.7c-0.6-0.5-1.2-1-1.7-1.4c-0.1-0.1-0.4-0.1-0.6,0
	c-0.4,0.2-0.9,0.5-1.3,0.7c-0.7,0.4-1.5,0.7-2.4,0.6c-0.4,0-0.7,0.1-1.1-0.2c-0.3,0.3-0.6,0.5-0.9,0.1c-0.1-0.1-0.2-0.1-0.2-0.1
	c-0.9,0.3-1.9,0.2-2.8,0.3c-0.2,0-0.4,0.1-0.5,0.2c-0.1,0.1-0.2,0.4-0.2,0.6c0.2,0.9,0.1,1.8,0.1,2.7c0,0.2-0.1,0.5-0.2,0.5
	c-0.3,0.1-0.4,0.3-0.4,0.6c-0.1,0.5-0.3,0.7-0.7,0.7c-0.6-0.1-1.1-0.2-1.6-0.4c-0.2-0.1-0.4-0.3-0.3-0.6c0-0.1,0-0.2-0.1-0.2
	c-0.7-0.1-0.6-0.8-0.6-1.3c-0.1-0.5,0.1-1.1,0.2-1.6c0.1-0.3,0.2-0.5,0.4-0.8c-0.1-0.4-0.4-0.3-0.7-0.4c-1.2-0.1-2.4-0.2-3.5,0.2
	c-0.7,0.3-1.4,0.2-2.1,0.4c-0.9,0.3-1.9,0.8-2.8,1.2c-0.2,0.1-0.3,0.2-0.5,0.3c-0.1,0-0.4-0.1-0.4-0.1c-0.1-0.1,0-0.3,0.1-0.4
	c0.9-0.7,1.7-1.4,2.8-1.8c0.6-0.3,1.3-0.3,1.9-0.4c0.8-0.2,1.5-0.3,2.4-0.5c1-0.2,2-0.1,3-0.1c0.2,0,0.4,0.3,0.6,0.4
	c0.4-0.2,0.9-0.4,1.3-0.6c0.6-0.3,1.2-0.5,1.9-0.4c0.8,0.1,1.7,0.1,2.5,0.3c1.1,0.3,2.2,0.3,3.3,0.2c0.7-0.1,1.5-0.5,2.1-1
	c0.2-0.2,0.2-0.5,0.1-0.7c-0.1-0.2-0.2-0.4-0.4-0.5c-0.6-0.7-0.7-1.8-0.6-2.7c0.2-1.6,1.8-2.3,2.8-1.5c0.2,0.1,0.4,0.3,0.6,0.5
	c0.1,0.1,0.2,0.3,0.2,0.5c0,1.3-0.1,2.6-0.6,3.7c2,2.7,4.6,3.4,7.6,3.5c1.3,0.1,3.5-0.5,4-1.1c-0.1-0.1-0.2-0.2-0.3-0.3
	c-1-0.7-1.9-1.4-2.6-2.5c-0.5-0.8-0.9-1.7-1.1-2.7c-0.2-1.3-0.6-2.5-0.4-3.9c0-0.1-0.1-0.3-0.1-0.5c0-0.3,0-0.5,0.1-0.7
	c0.2-0.4,0.6-0.8,0.9-1.2c0.3-0.4,0.7-0.6,0.9-1.2c0.1-0.1,0.2-0.3,0.4-0.4c0.6-0.1,1.1-0.7,1.8-0.4c0.1,0,0.2,0,0.3-0.1
	c0.3-0.5,0.7-0.3,1.1-0.1c0.3,0.1,0.6,0.1,0.9,0.2c0.2,0.1,0.4,0.2,0.5,0.4c0.2,0.2,0.3,0.3,0.6,0.3c0.2,0,0.4,0.1,0.6,0.3
	c0.1,0.1,0.1,0.1,0.2,0.2c0.8,0.1,1.2,0.9,1.9,1.3c0.2,0.1,0.4,0.4,0.6,0.7c0.6,0.9,1.2,1.7,1.2,2.9c0,0.4,0.1,0.7,0.2,1.2
	c0.1,0.7,0.2,1.3-0.2,1.9c-0.1,0.1-0.1,0.1-0.1,0.2c0.2,1.4-0.4,2.3-1.3,3.2c-0.1,0.1-0.3,0.3-0.6,0.5c0.2,0.1,0.4,0.2,0.5,0.2
	c1.4-0.1,2.7-0.1,4-0.5c0.7-0.2,1.5-0.3,2.2-0.6c0.7-0.4,1.5-0.9,2.3-1.3c0.9-0.5,1.6-1.1,2.4-1.8c0.8-0.7,1.7-1.4,2.7-2
	c0.3-0.2,0.6-0.5,0.8-0.7c0.5-0.4,1.1-0.7,1.5-1.1c0.6-0.5,1.2-1.1,1.9-1.6c0.2-0.2,0.4-0.4,0.7-0.5c1.1-0.8,2.2-1.7,3.3-2.5
	c0.7-0.5,1.4-1.2,2.3-1.5c0.5-0.2,1.1-0.4,1.3-0.8c0.4-0.5,0.9-0.5,1.3-0.7c0.4-0.3,0.9-0.5,1.4-0.7c0.3-0.2,0.6-0.4,0.9-0.5
	c0.2-0.1,0.4-0.2,0.6-0.3c0.6-0.1,1.1-0.4,1.7-0.4c0.4,0.1,0.9-0.2,1.3-0.2c0.3,0,0.7,0.1,1,0.2c0.1,0,0.1,0.1,0.2,0.1
	c0.7-0.3,1.3,0.3,1.9,0.7c0.6,0.3,1.2,0.9,1.8,1.2c0.9,0.5,1.5,1.2,2.2,1.9c0.6,0.7,1.2,1.4,1.9,2c0.6,0.5,1.1,1.1,1.7,1.6
	c0.8-0.3,1.4-0.8,2.4-0.7c0-0.3,0.1-0.6,0.5-0.7c0.3-0.1,0.6-0.3,0.9-0.5c0.2-0.1,0.4-0.1,0.6-0.2c0.1,0,0.2,0,0.2,0
	c0.6-0.6,1.3-0.5,2-0.7c0.9-0.2,1.9-0.4,2.9-0.4c1,0,1.9,0.1,2.9,0.5c1.9,0.7,3.4,2.1,5,3.3c0.7,0.5,1.3,1.2,2,1.7
	c0.7,0.5,1.4,0.9,2,1.3c0.6,0.3,1.1,0.7,1.7,1c0.4,0.2,0.7,0.3,1.1,0.5c0.2,0.1,0.5,0.3,0.8,0.5c0.2,0.1,0.5,0.3,0.7,0.3
	s0.5,0.1,0.7,0.2c0.9,0.4,1.8,0.7,2.7,0.8c0.4,0.1,0.9,0.2,1.3,0.2c0.6,0,1.2,0.2,1.9,0.1c0.6-0.1,1.2-0.1,1.8-0.3
	c0.5-0.2,0.9-0.3,1.4-0.5c0.4-0.1,0.5-0.3,0.1-0.7c-0.4-0.4-0.9-0.7-1.2-1.2c-0.4-0.4-0.9-0.9-1.2-1.4c-0.1-0.1-0.2-0.3-0.4-0.5
	c-0.9-0.7-1.4-1.8-1.9-2.9c-0.4-1.2-0.9-2.3-1.2-3.5c-0.3-1-0.7-2-0.7-3.1c0-1,0-2,0.2-2.9c0.3-1.7,0.9-3.3,1.9-4.7
	c0.6-0.9,1.4-1.6,2.2-2.3c0.7-0.6,1.7-0.7,2.5-0.7c1.1-0.1,2,0,3.1,0.1c1.1,0.1,2,0.5,2.9,1.4c0.6,0.5,1.1,1,1.6,1.6
	c0.2,0.3,0.4,0.5,0.6,0.9c0.4,0.9,0.9,1.8,1.1,2.7c0.1,0.4,0.1,0.7,0.2,1.2c0,0.2,0,0.4,0.1,0.5c0.4,1,0.2,2,0.3,3.1
	c0,0.2-0.1,0.4-0.1,0.6c-0.3,1.2-0.6,2.2-1,3.3c-0.4,1.2-0.9,2.2-1.4,3.3c-0.4,1-0.9,2-1.4,3c0,0.1-0.1,0.1-0.1,0.1
	c0,0.5-0.2,0.8-0.6,1c1.1,0.7,3.6,1.1,6.1,0.9c0.2-0.5,0.2-1,0.1-1.4c-0.1-0.6-0.1-1.2-0.2-1.8c0-1,0-1.8,0-2.8
	c0-0.3,0.1-0.7,0.1-1.1c0.1-0.7,0.1-1.4,0.1-2c0.1-0.3,0.1-0.6,0.2-1c0.1-0.7,0.3-1.4,0.4-2.2c0.1-0.3,0.2-0.7,0.2-1.1
	c0.4-1.5,0.9-3,1.5-4.4c0.1-0.3,0.4-0.4,0.6-0.7c-0.1-0.3-0.1-0.7,0.4-1c0.1,0,0.1-0.1,0.1-0.1c0.4-1.4,1.3-2.2,2.1-3.3
	c1.3-1.5,3-2,4.8-1.9c1.1,0.1,2.2,0.1,3.3,0.3c1.3,0.1,2.7,0.4,3.8,1.1c0.9,0.5,1.5,1.2,2.3,1.8c0.6,0.5,1.1,1.1,1.6,1.7
	c0.4,0.5,0.6,1,0.9,1.6c0.7,1.4,0.7,2.9,0.9,4.4c0.1,0.7-0.1,1.5-0.2,2.2c-0.4,1.4-0.8,2.7-1.3,4.1c-0.1,0.4-0.4,0.8-0.6,1.2
	c-0.5,0.9-1,1.8-1.5,2.7c-0.2,0.4-0.4,0.7-0.7,1.1c-1.2,1.5-2.5,2.8-4,3.8c-0.9,0.6-1.9,0.9-2.9,1.3c-1.2,0.5-2.5,0.7-3.7,0.8
	c-0.5,0.1-1,0.3-1.4,0.2c-0.5-0.1-1,0.1-1.5,0.1c-0.1,0-0.1,0.1-0.2,0.2c0.2,0.6,0.7,1.1,1.1,1.6c0.3,0.3,0.7,0.6,0.6,1.2
	c0.5,0,0.9,0.3,1.3,0.5c0.9,0.5,1.7,1.2,2.7,1.4c0.1,0.1,0.3,0.2,0.4,0.2c0.3,0.1,0.6,0.2,0.9,0.3c0.2,0.1,0.4,0,0.6,0.1
	c1,0.3,2,0.4,3.1,0.3c0.1,0,0.1,0,0.1,0c1.4,0.4,2.6,0.1,3.9-0.3c0.2-0.1,0.3-0.1,0.5-0.1c0.4-0.1,0.7-0.1,1.2-0.2
	c0.4-0.1,0.8-0.2,1.2-0.3c0.6-0.1,0.7-0.3,0.7-1c0-0.7,0-1.4,0.2-2c-0.3-0.5,0.2-1,0.1-1.6c-0.1-0.5,0.1-1.1,0.1-1.6
	c0.1-0.5,0.2-1,0.4-1.5c0.6-1.8,1.1-3.6,1.7-5.4c0.4-1.3,1-2.5,1.5-3.8c0.5-1,1-2,1.6-3c1.2-1.7,2.3-3.5,3.8-4.9
	c0.7-0.6,1.2-1.3,1.9-1.9c1-0.9,2.1-1.4,3.3-1.9c0.4-0.1,0.8-0.3,1.2-0.5c0.9-0.3,1.7-0.2,2.6-0.2c1.3,0,2.6,0,3.8,0.1
	c1.1,0.1,2,0.3,2.9,1c0.2,0.1,0.3,0.2,0.5,0.3c1.3,0.3,1.9,1.4,2.4,2.5c0.4,0.8,0.7,1.7,0.9,2.7c0.1,0.5,0,0.9-0.1,1.3
	c-0.1,0.7-0.2,1.4-0.3,2c-0.2,2.2-1.2,4.1-2.1,6.1c-0.5,1.2-1.2,2.1-2,3c-0.7,0.7-1.2,1.6-1.9,2.4c-0.9,1-1.8,1.9-2.9,2.6
	c-0.6,0.4-1.3,0.8-1.9,1.4c-0.7,0.7-1.5,1.3-2.2,2c-0.2,0.2-0.5,0.4-0.7,0.6c-0.7,0.5-1.4,0.9-2,1.4c-0.1,0.1-0.2,0.1-0.3,0.1
	c-0.2,0.1-0.4,0.1-0.5,0.2c-0.6,0.8-1.5,1.1-2.2,1.6c-0.6,0.4-1.3,0.8-2,1c-0.6,0.1-1.1,0.6-1.5,0.6c-0.7,0.1-1.2,0.7-2,1
	c-0.1,0-0.2,0.3-0.2,0.5c0,1,0.3,1.8,0.9,2.5c0.1,0.1,0.2,0.3,0.2,0.4c0.2,0.5,0.2,1.2,0.7,1.6c0.1,0,0.1,0.1,0.1,0.1
	c0.1,0.8,0.7,1.2,1.1,1.8c0.4,0.5,0.9,1,1.5,1.4c0.4,0.3,0.8,0.5,1.3,0.8c0.4,0.2,0.7,0.1,0.9-0.3c0.3-0.9,0.9-1.6,1.2-2.4
	c0.6-1.4,1.7-2.3,2.7-3.3c0.2-0.3,0.6-0.5,0.9-0.7c0.1-0.1,0.2-0.1,0.3-0.2c0.9-0.7,1.9-1.5,2.9-2.2c1.3-1.1,2.7-1.9,4.3-2.5
	c0.6-0.3,1.4-0.1,2.1,0c1,0.1,2,0.4,3,0.6c0.4,0.1,0.9,0.2,1.2,0.5c0.6,0.5,1.2,1,1.9,1.4c0.6,0.4,1,1,1.4,1.7
	c0.1,0.3,0.3,0.5,0.5,0.8c0.4,0.5,0.7,1,0.9,1.6c0.2,0.7,0.6,1.3,0.6,2c0,1,0.1,1.8-0.1,2.8c-0.2,0.7-0.2,1.6-0.4,2.3
	c-0.1,0.3-0.2,0.5-0.4,0.8c-0.9,1.2-1.9,2.4-3,3.4c-0.7,0.6-1.4,1.1-2,1.6c-0.9,0.7-1.9,1-2.9,1.4c-0.1,0.1-0.2,0.1-0.3,0.1
	c-1.2,0.4-2.5,0.5-3.8,0.4c-0.6-0.1-1.2,0.1-1.9,0c-0.9-0.1-1.9-0.3-2.8-0.5c-0.9-0.2-1.8-0.5-2.8-0.3c-0.4,0.1-0.9-0.3-1.4-0.4
	c-0.1-0.1-0.3-0.1-0.6-0.2c-0.1,0.3-0.2,0.5-0.2,0.7c0,1.4,0,2.7,0.1,4c0.1,2,0.2,3.9,0.4,5.9c0.1,1,0.2,1.9,0.1,2.8
	c-0.2,1,0.2,2.1-0.3,3.1c0.1,0.6,0.1,1.2-0.1,1.7c-0.3,1.5-0.6,3-1,4.5c-0.1,0.5-0.1,0.9,0.1,1.3c0.7,1.5,1.5,2.9,2.3,4.4
	c0.1,0.1,0.1,0.3,0.1,0.4c0,0.1-0.1,0.3,0,0.4c0.3,0.3,0.2,0.8,0.4,1.2c0.5,1.2,0.7,2.3,1.1,3.5c0.3,1.2,0.6,2.5,0.7,3.7
	c0.1,0.9,0.3,1.7,0.5,2.5c0.1,0.5,0.1,1,0.1,1.4c0,1,0.4,2,0.4,2.9c0.1,1.4,0.1,2.9,0.2,4.4c0.1,1.9-0.4,3.7-0.7,5.6
	c-0.1,1.1-0.4,2.2-0.7,3.2c-0.2,1.1-0.7,2.1-1.2,3.1c-0.1,0.2-0.2,0.4-0.2,0.6c-0.4,1.2-1.2,2.2-2.2,3c-0.7,0.7-1.5,1.3-2.2,2
	c-0.2,0.2-0.3,0.7-0.4,1.1c-0.1,0.6-0.2,1.2-0.4,1.8c-0.1,0.5-0.2,1,0,1.5c0.2,0.3-0.1,0.7-0.6,1.1c0.1,0.5,0,1-0.2,1.4
	c-0.4,1-0.6,2.2-0.8,3.3c-0.1,0.4-0.1,0.8-0.2,1.4c0.2-0.1,0.4-0.1,0.5-0.1c0.1-0.1,0.2-0.1,0.2-0.3c1-1.1,2.2-1.4,3.5-1.4
	c0.4,0,0.9-0.1,1.2,0c1.2,0.3,2.2,1,3,1.8c0.5,0.5,0.6,1.2,0.7,1.8c0.2,0.9,0.4,1.8,0.3,2.7c-0.1,0.5-0.1,0.9-0.3,1.4
	c-0.2,0.6-0.6,1.2-0.8,1.8c-0.1,0.2-0.2,0.3-0.4,0.5c-1.1,0.6-2.1,1.2-3.3,1.4c-0.1,0-0.1,0-0.2,0c-0.3,0-0.5-0.5-1-0.3
	c-0.2,0.1-0.6-0.2-1-0.3c-0.4-0.1-0.9-0.3-1.2-0.5c-0.5-0.2-1-0.5-1.5-0.7c-0.2,0.5-0.3,1-0.4,1.6c-0.1,1-0.2,1.9-0.4,2.9
	c-0.1,0.5,0,1-0.1,1.4c-0.1,1.4-0.2,2.8-0.1,4.2c0.1,1.3,0.1,2.5,0.1,3.8c0.1,2,0.4,3.9,0.9,5.9c0.4,1.2,0.6,2.5,0.9,3.8
	c0.1,0.3,0.1,0.6,0.1,1s0.2,0.5,0.5,0.5c1.1-0.1,1.8,0.6,2.5,1.4c0.3,0.3,0.4,1,0.6,1.5c0.1,0.5-0.2,0.9-0.7,1.1
	c-0.4,0.2-0.8,0.3-1.2,0.5c-0.6,0.2-1,0-1.4-0.4C172.2,174.2,171.9,173.9,171.6,173.7z M168.5,36.3c0.5-0.1,0.9-0.2,1.2-0.2
	c0.7,0,1.2-0.6,1.9-0.4c0.8-0.4,1.5-0.9,2.4-1.3c0.6-0.3,1.2-0.8,1.9-1c1.3-0.5,2.3-1.5,3.3-2.3c1.4-1.2,2.6-2.5,3.7-4
	c0.3-0.4,0.6-0.8,0.9-1.2c0.4-0.5,0.9-1,1.2-1.6c0.6-1.2,1.1-2.5,1.2-3.9c0.1-0.8-0.1-1.6-0.5-2.2c-0.2-0.4-0.6-0.6-1-0.6
	c-0.4,0-0.9,0-1.2,0c-1.8,0.2-3.3,1-4.8,2c-0.1,0.1-0.2,0.1-0.2,0.3c-0.7,0.8-1.5,1.6-2.2,2.4c-0.2,0.2-0.4,0.5-0.7,0.7
	c-1.2,1-2.1,2.2-2.9,3.5c-0.2,0.4-0.4,0.8-0.7,1.2c-0.7,1.1-1.3,2.3-1.7,3.6c-0.5,1.4-0.8,2.7-1.2,4.1
	C168.7,35.4,168.7,35.8,168.5,36.3z M144.2,28.5c0.6-0.1,1.2-0.3,1.7-0.3c0.6-0.1,1.1-0.3,1.6-0.5c0.7-0.4,1.5-0.9,2.3-1.4
	c0.5-0.3,1-0.6,1.4-1.1c0.8-1,1.6-2,2.3-3c0.9-1.2,1.6-2.5,1.5-4.2c0-1.2,0-2.3-0.2-3.5c-0.1-0.7-0.3-1.2-0.9-1.6
	c-0.1-0.1-0.2-0.3-0.4-0.4c-0.8-0.9-1.7-1.6-2.9-2c-0.7-0.2-1.3-0.1-1.9,0.3c-0.4,0.3-0.7,0.6-1.1,0.9c-0.7,0.5-1.2,1.3-1.5,2.2
	c-0.5,1.5-0.8,3.1-1,4.6c-0.1,0.5-0.2,1-0.2,1.4c-0.2,1.3-0.3,2.5-0.6,3.8c-0.2,1.4-0.3,2.7-0.3,4.2
	C144.1,28.1,144.2,28.3,144.2,28.5z M164.4,89c0.8,0.1,1.2-0.1,1.8-0.7c0.4-0.3,0.7-0.7,1.2-1c1-0.8,1.7-1.8,2.2-3.1
	c0.2-0.7,0.5-1.4,0.9-2.1c0.3-0.6,0.4-1.1-0.1-1.6c-0.1-0.1-0.1-0.1-0.1-0.2c-0.3-1-1.1-1.6-1.7-2.2c-0.3-0.3-0.7-0.5-1.1-0.7
	c-0.9-0.4-1.9-0.6-2.9-0.7c-0.9-0.1-1.7,0.1-2.5,0.4c-0.6,0.3-1.2,0.5-1.7,0.9c-1.2,0.7-2,1.8-2.2,3.4c-0.1,0.2-0.1,0.4-0.1,0.6
	c-0.2,1.2,0.1,2.3,0.5,3.4c0.1,0.2,0.2,0.3,0.4,0.5c0.3,0.3,0.6,0.7,1,1c0.5,0.4,1,0.9,1.5,1.2C162.2,88.6,163.3,89,164.4,89z
	 M177.4,53.1c0.5,0.1,0.9,0.3,1.4,0.3c0.7,0.1,1.5,0.3,2.2,0.3c0.7,0,1.4-0.1,2.1-0.2c0.8-0.1,1.6-0.3,2.4-0.5
	c0.4-0.1,0.8-0.2,1.2-0.3c0.5-0.2,1-0.4,1.5-0.7c0.4-0.2,0.7-0.5,1.1-0.8c0.9-0.7,1.4-1.8,1.4-3.1c0-0.3-0.1-0.7,0-1.1
	c0.1-0.5-0.1-0.8-0.4-1.1c-0.2-0.2-0.3-0.4-0.5-0.5c-1.4-1.4-2.4-1.6-3.9-1c-0.5,0.2-1,0.4-1.5,0.6c-0.7,0.3-1.4,0.5-2,1
	c-1.5,1-2.8,2.3-3.7,4C178,50.9,177.6,51.9,177.4,53.1z M131.1,26c0.4-1,0.9-2,1.3-3.1c0.6-1.6,1-3.1,1.2-4.8
	c0.3-1.8,0.6-3.5-0.3-5.2c-0.2-0.4-0.4-0.8-0.6-1.2c-0.4-0.7-1.1-0.8-1.6-0.5c-1.2,0.5-1.8,1.6-2.2,2.8c-0.1,0.4-0.2,0.9-0.3,1.4
	c-0.6,1.8-0.7,3.6-0.5,5.4c0.1,0.6,0,1.3,0.3,1.9c0.6,1.3,1.4,2.3,2.4,3.2C130.8,26,130.9,26,131.1,26z M94.6,31.6
	C94.6,31.6,94.5,31.6,94.6,31.6c-0.1-0.3,0-0.7-0.1-1c-0.4-1-0.7-1.9-0.9-2.9c-0.2-0.7-0.9-1.4-1.4-1.4c-0.6,0.1-1.1,0.5-1.3,1.2
	c-0.5,1-0.7,2.1-0.9,3.1c-0.4,1.7,0.1,3.3,0.8,4.7c0.1,0.2,0.3,0.4,0.4,0.6c0.4,0.7,0.9,0.9,1.5,0.4c0.7-0.5,1.2-1.2,1.4-2.1
	C94.3,33.4,94.4,32.5,94.6,31.6z M43.3,28.6c0,0.3,0,0.5,0.1,0.7c0.4,1,0.9,1.8,1.6,2.5c0.2,0.3,0.6,0.3,0.9,0.1
	c0.4-0.3,0.8-0.5,1.1-0.8c0.5-0.5,0.7-2,0.1-2.6c-0.7-0.7-1.2-1.4-2.3-1.5c-0.8-0.1-1.3,0.2-1.4,1C43.4,28.3,43.4,28.5,43.3,28.6z
	 M171,123.5c-0.3-0.5,0-1.1-0.3-1.6c-0.5-1-1.4-1.6-2.2-2.4c-0.1-0.1-0.4-0.1-0.5-0.1c-1,0.1-1.6,1.7-1.1,2.5c0.4,0.7,1,1.3,1.7,1.7
	C169.4,124,170.1,124.2,171,123.5z M172.4,141.7c0.1,0.1,0.1,0.2,0.1,0.2c0.1,0.1,0.1,0.1,0.2,0.1c0.7,0.4,1.5,0.3,2.2,0
	c0.6-0.2,0.7-1.3,0.2-1.7c-0.4-0.3-1.7-0.3-2,0.1C172.9,140.8,172.6,141.3,172.4,141.7z M19.2,35.1c-0.1,0.1-0.2,0.1-0.2,0.1
	c-0.2,0.5-0.5,1-0.7,1.5c-0.1,0.4,0.2,0.6,0.4,0.9c0.2,0.4,0.6,0.4,0.9,0c0.1-0.2,0.2-0.5,0.4-0.7c0.2-0.6,0-1.4-0.5-1.7
	C19.3,35.2,19.3,35.2,19.2,35.1z M30.8,30.3c0.7-1.1,0.5-2.5-0.5-2.7c-0.1,0.2-0.4,0.4-0.4,0.5C30,29,30,29.9,30.8,30.3z M173,172.5
	c0.1,0.1,0.1,0.3,0.1,0.4c0.2,0.3,1.2,0.7,1.5,0.7c0.1,0,0.2-0.1,0.2-0.2c0.2-0.5-0.1-1.1-0.6-1.2S173.4,172.2,173,172.5z"/>
</svg>
