<?xml version="1.0" encoding="utf-8"?>
<!-- Generator: Adobe Illustrator 19.1.0, SVG Export Plug-In . SVG Version: 6.00 Build 0)  -->
<svg version="1.1" id="Layer_1" xmlns="http://www.w3.org/2000/svg" xmlns:xlink="http://www.w3.org/1999/xlink" x="0px" y="0px"
	 viewBox="20 100 800 400" style="enable-background:new 20 100 800 400;" xml:space="preserve">
<path d="M63.9,295.6c-1.4,0.8-2.6,1.7-3.9,2.5c-0.6,0.4-1.4,0.6-2.2,1c-0.3,0.1-0.6,0.3-0.9,0.4c-0.2,0.1-0.4,0.2-0.5,0.2
	c-0.8,0.1-1.7,0.2-2.5,0.2c-1.1-0.1-2.2,0.2-3.2-0.2c-1.1-0.3-2.2-0.6-3.2-0.9c-1.5-0.4-2.8-1.1-4.2-1.7c-1-0.5-1.9-1.1-2.8-1.8
	c-0.4-0.3-0.7-0.6-1.1-0.9c-0.2-0.2-0.5-0.4-0.5-0.6c-0.5-0.7-0.9-1.5-1.3-2.3c-0.4-1-0.6-2.1-0.8-3.2c-0.1-0.7-0.2-1.6-0.1-2.3
	c0.1-0.7,0.4-1.4,0.5-2c0.2-0.6,0.4-1.4,0.7-2c0.5-0.8,1-1.6,1.8-2.1c0.5-0.4,1-0.9,1.5-1.3c0.6-0.5,1.4-1,2.1-1.3
	c1.6-0.6,3.3-1.2,5-1.8c0.1,0,0.2-0.1,0.3-0.1c2.1,0,4.2-0.6,6.3-0.2c0.4,0.1,0.8,0,1.3,0c0.6,0.1,1.4,0.2,2,0.4
	c0.6,0.2,1.4,0.3,1.7,0.9c0,0.1,0.2,0.1,0.3,0.1c1.4,0.5,2.3,1.7,3.1,2.9c0.1,0.2,0.3,0.4,0.4,0.6c1.4,1.5,2.3,3.2,2.7,5.2
	c0.1,0.4,0.3,0.7,0.5,1.1c0.1,0,0.2,0,0.3,0c0.2-0.7,0.4-1.4,0.4-2.1c0-1.2-0.2-2.4-0.2-3.6c-0.1-0.8-0.1-1.7-0.1-2.5
	c0-1.1-0.5-2.2-0.6-3.3c-0.2-1.3-1-2.5-1.4-3.7c-0.1-0.3-0.3-0.5-0.5-0.6c-0.5-0.5-0.8-1-0.9-1.7c-0.1-0.8-0.5-1.5-0.8-2.1
	c-0.8-1.4-1.4-2.9-2.1-4.3c-0.3-0.7-0.7-1.5-1.2-2.1c-1.5-2.1-2.5-4.5-3.6-6.8c-0.5-1.1-1.2-2.1-1.4-3.4c-0.1-0.3-0.2-0.6-0.4-0.7
	c-1.2-1.8-1.9-3.6-2.5-5.6c0-0.1,0-0.2-0.1-0.3c-0.6-1.1-0.7-2.3-1-3.5c-0.1-0.4-0.1-0.8-0.3-1.1c-0.9-1.3-0.5-2.8-0.5-4.2
	c0-0.6,0-1.2,0.1-1.8c0.1-0.6,0.3-1.2,0.4-1.8c0.1-0.4,0.2-0.8,0.2-1.2c0-0.8,0-1.6,0.5-2.3c0.4-0.6,0.1-1.3-0.6-1.9
	c-1-0.7-2-1.5-2.9-2.2c-0.9-0.6-1.8-1.3-2.5-2.2c-0.4-0.5-0.9-0.9-1.4-1.3c-1.8-1.5-3.1-3.3-4-5.4c-0.6-1.4-1.4-2.7-2.2-4.1
	c-0.4-0.8-0.6-1.8-0.9-2.7c-0.1-0.4-0.2-0.8-0.4-1.3c-0.1-0.4-0.1-0.7-0.1-1.2c0-0.9-0.1-1.8-0.4-2.8c-0.5-1.3-0.3-2.5-0.2-3.8
	c0.1-1.3,0.3-2.5,0.5-3.8c0.1-0.5,0.2-1,0.3-1.5c0.3-1.1,0.5-2.3,0.8-3.4c0.1-0.6,0.3-1.1,0.4-1.8c0.2-0.6,0.4-1.3,0.5-1.9
	s0.4-1.2,0.5-1.8c0.3-1.6,0.9-3,1.5-4.4c0.2-0.4,0.3-0.6,0.4-1c0.1-0.4,0.2-0.8-0.4-1c-0.1-0.1-0.3-0.2-0.3-0.4
	c-0.1-0.9-0.9-1.7-1.2-2.5c-0.4-0.9-0.6-1.8-1-2.8c-0.2-0.6-0.3-1.1-0.4-1.7c-0.3-1.2,0-2.3,0-3.5c0.1-1.1,0.2-2.2,0.2-3.4
	c0-0.1,0-0.2,0.1-0.3c0.5-1.3,0.9-2.6,1.4-3.8c0.1-0.4,0.3-0.7,0.3-1.1c0.1-1.2,0.6-2.2,1.1-3.3c0.3-0.6,0.5-1.2,0.7-1.8
	c0.4-0.9,0.8-1.8,1.3-2.8c0.4-0.6,0.7-1.3,1.2-1.9c0.5-0.6,0.5-0.6-0.2-1.2c-1.2-0.8-2.1-1.8-3-3c-1.8-2-3.3-4.3-4.9-6.6
	c-0.8-1.2-1.5-2.4-1.9-3.9c-0.1-0.5-0.4-0.8-0.5-1.3c-0.7-1.2-0.8-2.5-1.1-3.8c-0.3-1-0.5-2-0.5-3.1c-0.1-0.7,0.1-1.4,0.2-2.1
	c0.3-1.1,0.5-2.3,0.8-3.4c0.4-1.1,0.8-2.2,1.7-3c0.4-0.3,0.6-0.8,0.9-1.3s0.5-0.9,1-1.3c0.5-0.3,0.9-0.7,1.3-1.2
	c0.5-0.7,1.4-0.7,2.2-1.1c0.3-0.1,0.6-0.1,0.9-0.3c1.2-0.6,2.3-0.5,3.6-0.6c1-0.1,2,0,2.9,0c1.2,0.1,2.2,0.6,3.2,1.1
	c0.5,0.3,0.8,0.6,1.2,0.9c0.7,0.6,1.5,1.1,2.3,1.7c0.9,0.6,1.4,1.6,2,2.5c0.8,1.3,1.4,2.7,1.9,4.2c0.4,1.1,0.7,2.2,0.7,3.4
	c0,0.9,0.1,1.9,0.2,2.9c0.3,1.7-0.3,3.2-0.4,4.9c-0.1,1.2-0.5,2.3-0.8,3.5c-0.1,0.4-0.2,0.7-0.3,1.1c-0.2,1.2-0.7,2.1-1.2,3.2
	c-0.6,1.4-1.1,2.9-1.4,4.3c-0.1,0.3-0.2,0.5-0.4,0.6c-0.2,0.4-0.4,0.7-0.5,1.1c0.7,0.6,1.4,0.7,2.3,1c1.2,0.4,2.3,0.6,3.3,1.3
	c0.6,0.4,1.3,0.5,2,0.6c2,0.5,4,0.9,6,1.3c1.3,0.3,2.6,0.3,4,0.2c1.2,0,2.4,0.2,3.6,0.1c1.7-0.1,3.4-0.1,5-0.7
	c0.7-0.3,1.5-0.6,2.3-1c0.2-0.1,0.3-0.4,0.3-0.6c0-0.3,0-0.6-0.1-0.9c-0.5-1.1-1-2.2-1.4-3.3c-0.2-0.5-0.5-1-0.5-1.6
	c-0.4-1.3-0.6-2.7-0.9-4c-0.1-0.6-0.1-1.4-0.1-2c0-2.3,0.3-4.6,0.6-6.9c0.2-0.9,0.2-1.9,0.7-2.8c0.1-0.1,0.1-0.3,0.1-0.5
	c0-0.8,0.5-1.5,0.9-2c0.2-0.3,0.5-0.6,0.6-0.8c0.4-0.7,0.9-1.4,1.6-1.8c1-0.6,2-1.3,2.9-1.8c0.2-0.1,0.4-0.2,0.5-0.2
	c0.9-0.1,1.7-0.5,2.5-0.8c1.8-0.9,3.8-0.8,5.7-0.4c1.4,0.3,2.6,1,3.7,1.8c0.7,0.6,1.4,1,2,1.7c0.5,0.5,0.8,1.1,1.1,1.7
	c0.6,1.3,1.4,2.7,1.9,4.1c0.4,0.8,0.4,1.8,0.5,2.8c0.1,1.4,0.2,2.9,0.3,4.2c0,0.1,0,0.1,0,0.2c-0.1,1.8-0.1,3.6-0.7,5.4
	c-0.4,0.9-0.6,1.9-1,2.9c-0.3,0.6-0.8,1.1-1.3,1.7c-0.5,0.6-1.1,1.2-1.5,1.8c-0.1,0.1-0.1,0.3-0.3,0.3c-0.9,0.4-1.4,1.2-2.2,1.7
	c-0.4,0.2-0.7,0.4-1,0.6c-2.2,1.1-4.4,1.9-6.9,2.1c-0.2,0-0.5,0.1-0.7,0.2c0.1,0.5,0.4,0.7,0.6,1c0.5,0.5,0.9,0.8,1.3,1.3
	c0.5,0.6,1.3,1,2,1.3c1.5,0.6,3.1,1.3,4.5,1.8c1,0.4,2.1,0.8,3.1,1.1c1.4,0.5,2.7,0.7,4.1,1.1c0.6,0.2,1.2,0.4,1.8,0.5
	c2.7,0.6,5.2-0.2,7.8-0.8c0.6-0.2,1.3-0.3,1.8-0.6c1.3-0.5,2.5-0.8,3.7-1.4c1.2-0.6,2.3-1.3,3.3-2c0.8-0.6,1.5-1.2,2.3-1.8
	c1.3-1.3,2.3-2.6,3.4-4c0.6-0.8,1.2-1.8,2.1-2.6c0.5-0.4,0.8-0.9,1.3-1.4c1.2-1.4,2.3-2.7,3.7-3.9c0.8-0.7,1.8-1.4,2.3-2.3
	c0.5-0.8,1.3-1.4,1.8-2.1c0.2-0.3,0.5-0.4,0.7-0.6c1.4-1.3,3-2.5,4.5-3.6c0.6-0.5,1.2-1.1,1.8-1.6c0.8-0.6,1.7-1.2,2.6-1.8
	c2.6-1.7,5.4-3,8.2-4.3c1-0.5,2.1-0.9,3.1-1.3c1.3-0.6,2.4-1,3.7-1.6c0.4-0.2,0.8-0.2,1.2-0.3c0.7-0.1,1.4-0.3,2.3-0.4
	c0.5-0.1,1.1-0.1,1.7-0.2c0.2,0,0.5,0,0.6,0c0.9-0.4,1.8-0.2,2.8,0c0.1,0,0.3,0,0.4,0c2.3-0.1,4.5,0.6,6.8,0.9
	c1.7,0.3,3.3,0.6,5,1.2c1.3,0.5,2.6,0.9,3.8,1.7c1.3,0.8,2.6,1.4,4,2.1c0.4,0.2,0.7,0.6,1.2,0.7c1.1,0.6,1.8,0.7,3,0.2
	c1-0.6,2.2-0.9,3.2-1.3c0.3-0.1,0.5-0.2,0.7-0.4c0.5-0.4,0.9-0.4,1.4-0.5c0.8-0.1,1.5-0.4,2.3-0.6c0.7-0.2,1.4-0.6,2.1-0.6
	c2.4-0.3,4.9-0.5,7.3-0.1c0.4,0.1,0.6,0,1,0c1.2,0.1,2.2,0.5,3.2,0.8c0.9,0.3,1.7,0.5,2.6,0.8c0.5,0.2,1.1,0.5,1.5,0.7
	c0.8,0.6,1.7,1.1,2.7,1.4c0.3,0.1,0.5,0.2,0.8,0.4c1.1,0.6,2.2,1.2,3.3,1.6c0.5,0.2,1.1,0.6,1.6,1c0.6,0.3,1.3,0.6,1.9,0.8
	c0.1,0,0.3,0,0.4,0.1c0.6,0.7,1.6,1.1,2.4,1.6c1.6,0.7,3.2,1.6,5,1.6c0.6,0,1.3,0.3,2,0.5c0.6,0.2,1.3,0.4,2,0.1
	c0.2-0.1,0.4,0,0.5,0c1.6,0.3,3.2,0,4.7-0.6c0.4-0.2,0.8-0.2,1.1-0.6c0-0.5-0.4-0.6-0.6-0.6c-1.8-0.6-3.2-1.8-4.2-3.4
	c-0.5-0.6-0.5-1.4-0.7-2s-0.2-1.4-0.3-2c-0.3-1.7,1.1-3.8,2.6-4.2c0.3-0.1,0.6-0.1,0.9-0.1c0.5,0,0.8,0,1.3,0c0.1,0,0.2,0,0.3,0
	c0.9,0.3,1.8,0.4,2.7,0.7c1.4,0.6,2.3,1.7,3.2,2.8c0.4,0.6,0.7,1,0.7,1.8c0,0.6,0.1,1,0.2,1.6c0.2,1.2-0.1,2.3-0.5,3.6
	c0.4,0.1,0.7,0.2,1.1,0.2c0.6,0,1.4,0,2-0.1c0.5,0,0.9-0.2,1.4-0.1c0.5,0.1,1-0.1,1.5-0.3c0.8-0.3,1.5-0.6,2.3-0.9
	c1-0.4,2-0.6,2.8-1.3c0.4-0.3,0.7-0.6,1.2-0.8c-0.2-0.3-0.2-0.5-0.4-0.6c-0.7-1-1.2-2.2-1.4-3.4c-0.3-0.9,0-1.7,0.7-2.3
	c0.5-0.5,1.2-0.8,1.9-1.1c0.6-0.2,1.2-0.2,1.7,0.3c1.1,0.8,1.5,1.8,1.5,3.2c0,0.2,0,0.5,0,0.6c0,1.3-0.1,2.6-0.9,3.8
	c0.4,0.2,0.6,0.3,0.9,0.4c1.9,0.6,3.9,0.6,5.9,0.4c1.4-0.2,2.8-0.2,4.2,0.2c0.6,0.2,1.2,0.1,1.7-0.4c0.4-0.3,0.9-0.4,1.4-0.6
	c0.5-0.1,0.8-0.2,1.2-0.5c0.2-0.2,0.5-0.3,0.8-0.3c0.9-0.1,1.9-0.1,2.8-0.2c0.3,0,0.5-0.1,0.8-0.1c0.3,0,0.5,0,0.8-0.1h0.1
	c1.2,0.1,2.3,0.2,3.5,0.3c0.5,0,0.7,0.1,1.4,0.6c-0.4,0.1-0.7,0.2-1,0.2c-0.5,0-0.9,0-1.4,0c-2,0-4,0.1-5.9,0.2
	c-1.3,0-2.3,0.7-3.4,1.5c0.4,0.2,0.5,0.3,0.7,0.4c0.6,0.3,1,0.6,1,1.3c0,0.6,0.2,1.4-0.6,1.8c-0.4,0.2-0.6,0.4-1,0.6
	c-0.8,0.5-1.7,0-2.2-0.6c-0.2-0.3-0.4-0.5-0.3-0.8c0-0.6,0-1.4,0-2.1c-0.5-0.1-0.9-0.3-1.4-0.3c-1.4,0-2.8-0.2-4.1,0.1
	c-1.7,0.3-3.4,0.1-5-0.5c-1.2-0.4-1.8-0.2-2.5,0.7c-0.5,0.8-1.4,1.3-2.3,1.6c-0.5,0.2-1.1,0.6-1.6,0.8c-0.5,0.3-1.1,0.5-1.6,0.6
	c-1.4,0.6-2.9,0.6-4.3,0.9c-0.7,0.1-1.5-0.1-2.3-0.1c-0.5,0-0.8,0-1.3-0.1c-0.4,0-0.6-0.1-1-0.1s-0.6-0.1-1-0.1
	c-1-0.2-1.4,0.5-1.8,1.2s-0.8,1.5-1.6,1.8c-0.4,0.1-0.5,0.5-0.9,0.6c-3.1,1.7-6.4,1.8-9.8,1.5c-0.5-0.1-1-0.3-1.4-0.5
	c-2.6-0.7-5-2-7.1-3.8c-1.5-1.2-3.2-2.3-5-3.2c-1.1-0.5-2-1.2-2.8-2c-0.4-0.4-0.8-0.6-1.4-0.7c-1.5-0.4-2.8-1.2-4.1-2
	c-0.5-0.3-1.1-0.6-1.7-0.6c-1.3-0.1-2.5-0.2-3.7,0.2c-0.2,0.1-0.5,0.1-0.6,0.1c-2.1,0-3.9,0.8-5.8,1.6c-1.5,0.6-2.8,1.5-4.1,2.3
	c-0.3,0.2-0.5,0.4-0.9,0.6c0.2,0.2,0.3,0.4,0.5,0.6c0.3,0.3,0.6,0.4,0.9,0.6c1.1,1,2.2,2.1,3.1,3.3c1,1.3,1.6,2.8,2.4,4.2
	c0.2,0.4,0.3,0.9,0.4,1.4c0.1,1.3,0.3,2.7,0.3,4c0,0.8-0.2,1.7-0.5,2.4c-0.6,1.4-1.4,2.7-2.6,3.8c-1.1,1.1-2.4,1.9-3.6,3
	c-1.1,0.9-2.3,1.3-3.6,1.8c-1.1,0.5-2.3,0.6-3.4,0.9c-2.5,0.5-5,0.6-7.6,0.4c-1.2-0.1-2.3-0.5-3.4-1.1c-0.9-0.6-1.7-1.1-2.6-1.7
	s-1.4-1.5-1.9-2.4c-0.5-0.8-0.8-1.8-1.1-2.8c-0.2-0.5-0.1-1-0.1-1.5c0.2-1.6,0.5-3,1.1-4.5c0.3-0.7,0.6-1.4,1-2
	c0-0.1,0.1-0.2,0.2-0.3c0.6-1.7,1.8-3,2.8-4.5c0.5-0.7,1-1.5,1.6-2.1c0.4-0.4,0.8-0.7,1.4-1.1c-0.3,0-0.5-0.1-0.6-0.1
	c-1.1,0.1-2.3,0.3-3.3,0.4c-0.4,0-0.7,0.1-1.1,0.1c-1.7,0-3.3,0.7-5.1,0.6c-0.1,0-0.1,0-0.2,0c-1.3,0.6-2.7,0.4-4.1,0.8
	c-1.1,0.4-2.3,0.5-3.3,0.7c-0.8,0.2-1.6,0.4-2.3,0.6c-1.7,0.6-3.5,1.1-5.2,1.8c-1.5,0.6-3,1.5-4.3,2.3c-1.3,0.7-2.5,1.5-3.8,2.3
	c-1.2,0.8-2.3,1.7-3.5,2.5c-1.4,0.9-2.7,1.8-4,2.8c-1.3,0.9-2.5,1.7-3.9,2.5c-1.4,0.8-2.6,1.8-3.9,2.5c-1,0.6-2,1-3.1,1.5
	c-2.5,1.1-5,2.1-7.7,3.1c-2.2,0.8-4.2,1.6-6.5,2.2c-2,0.6-4,1.1-5.9,1.6c-0.9,0.2-1.9,0.2-2.9,0.4c-1,0.1-2,0.2-3,0.4
	c-0.3,0-0.5,0.1-0.7,0c-1.4-0.2-3,0.1-4.4-0.4c-0.1,0-0.2,0-0.3,0c-1.3,0.1-2.3-0.4-3.5-0.7c-0.7-0.3-1.4-0.7-2.3-1
	c-0.9-0.4-1.8-0.6-2.8-0.9c-1.2-0.3-2.3-1-3.3-1.5c-0.1,0-0.2-0.1-0.2-0.2c-0.7-0.9-1.7-1.3-2.7-1.9c-0.6-0.5-1.2-1.1-1.7-1.7
	c-0.2-0.2-0.4-0.4-0.5-0.6c-0.5-0.6-1-1.4-1.5-2c-0.5-0.7-0.7-0.7-1.5-0.5c-2.2,0.8-4.3,1.6-6.6,2c-1.2,0.3-2.3,0.5-3.5,0.6
	c-1.6,0.1-3.2,0-4.8,0c-0.5,0-1,0-1.4,0c-1.7-0.1-3.5-0.1-5.2-0.4c-3.2-0.6-6.5-1.3-9.5-2.8c-0.4-0.2-0.7-0.3-1-0.4
	c-0.2,0-0.3,0-0.5,0c-0.2,0.6-0.4,1.1-0.5,1.7c-0.1,0.2-0.1,0.5-0.2,0.6c-0.4,1.2-0.9,2.4-1.1,3.6c-0.3,1.3-0.3,2.7-0.5,4.1
	c0,0.3-0.1,0.5-0.1,0.7c-0.1,1.6-0.3,3.1-0.4,4.7c0,0.5,0.1,0.9,0.2,1.5c1.3-0.4,2.4-0.7,3.6-1c0.8-0.2,1.7-0.3,2.6-0.5
	c0.7-0.1,1.4-0.3,2.1-0.4c0.5-0.1,1-0.1,1.5-0.2c0.6,0,1.2,0,1.8-0.2c0.5-0.2,1-0.3,1.4-0.2c1.1,0.2,2.2-0.2,3.2-0.4
	c2.7-0.5,5.4-0.6,8.1,0c1.6,0.3,3.3,0.7,5,1.1c0.5,0.1,1.2,0.2,1.7,0.3c1.4,0.3,2.9,0.6,4.1,1.5c0.5,0.4,1.3,0.5,1.8,0.7
	c1.6,0.8,3.2,1.8,4.4,3c0.4,0.4,0.6,0.7,0.8,1.2c0.6,1.1,1.4,2.1,1.9,3.2c0.5,1.2,1,2.4,0.9,3.8c-0.1,1,0.2,2.1-0.2,3.1
	c-0.1,0.3-0.1,0.6-0.2,0.7c-0.5,0.6-0.7,1.3-0.9,2.1c0,0.1,0,0.1-0.1,0.2c-0.6,1-1.2,2.1-2,3c-0.8,0.8-1.9,1.4-2.8,2
	c-0.5,0.3-0.9,0.6-1.4,0.8c-0.8,0.5-1.5,1-2.4,1.2c-0.9,0.2-1.7,0.6-2.6,1c-0.3,0.1-0.6,0.2-1,0.2c-0.7,0.1-1.4,0.2-2.2,0.2
	c-1.6,0.1-3.3,0.3-5,0.1c-1.1-0.2-2.3,0-3.3-0.1c-1.8-0.2-3.6-0.6-5.3-1.3c-0.2-0.1-0.4-0.2-0.5-0.2c-2.3-0.4-4.2-1.3-6.1-2.4
	c-1.3-0.7-2.6-1.3-3.9-2.1c-0.8-0.5-1.5-0.9-2.3-1.4c-0.3-0.2-0.5-0.5-0.6-0.7c-0.4-0.6-0.4-0.6-1.2-0.8c-0.1,0.4-0.2,0.7-0.4,1.1
	c-0.7,1.6-0.8,3.2-1.1,4.9c-0.2,1.4-0.4,2.8-0.4,4.2c0,2.1,0.1,4.2,0.2,6.3c0.1,1.6,0.5,3,0.7,4.6c0.4,2.3,1.4,4.2,2.2,6.4
	c0.5,1.2,1.2,2.2,1.9,3.2c0.1,0.2,0.3,0.3,0.5,0.5c0.4-0.8,0.5-1.5,0.9-2.2c0.6-1.2,1.3-2.4,1.9-3.6c0-0.1,0.1-0.1,0.1-0.1
	c1.4-0.6,2.1-1.9,3.2-2.7c0.2-0.1,0.4-0.3,0.5-0.4c1.2-0.5,2.3-1.2,3.3-1.8c0.5-0.3,1.3-0.5,1.9-0.6c2.2-0.6,4.4-1.2,6.8-1.5
	c1.1-0.1,2.3-0.3,3.3-0.3c0.7,0,1.4,0.2,2.2,0.4c0.7,0.1,1.5,0.2,2.3,0.4c1.3,0.3,2.5,0.6,3.8,0.9c0.7,0.2,1.4,0.3,2.3,0.5
	c1.6,0.4,3.2,1,4.6,1.8c0.2,0.1,0.4,0.3,0.6,0.5c0.6,0.6,1.4,1,2,1.6c0.1,0.1,0.2,0.1,0.3,0.2c0.5,0.6,1.1,1.2,1.5,1.8
	c1.6,2,2.4,4.4,2.6,7.1c0.1,1.4,0.3,2.7,0,4.1c-0.5,2.3-1.1,4.5-2.1,6.6c-0.7,1.6-1.7,3-3.2,4.2c-0.6,0.5-1.3,0.9-2,1.3
	c-0.9,0.4-1.7,0.9-2.5,1.4c-1.5,0.9-3.2,1.3-5,1.6c-0.7,0.1-1.4,0.1-2.1,0.1c-0.6,0-1.4-0.1-2-0.1c-2.1-0.1-4.1-0.3-6-1
	c-0.1,0-0.1-0.1-0.2-0.1c-1.4,0-2.5-0.9-3.8-1.4c-0.7-0.3-1.4-0.6-2.1-0.8c-1.3-0.6-2.5-1.3-3.8-1.9c-0.5-0.3-1.1-0.6-1.6-1
	c-1.3-0.8-2.4-1.7-3.7-2.4c-0.4-0.3-0.9-0.4-1.4-0.6c0.1,0.8,0.1,1.6,0.1,2.3c0.2,1.8,0.5,3.8,1.3,5.5c0.6,1.4,1.3,3,2.6,3.9
	c0.2,0.1,0.4,0.3,0.5,0.6c0.5,0.7,1,1.5,1.5,2.1c0.2,0.3,0.4,0.5,0.6,0.6c2.2,1.8,4.1,3.9,6,5.9c0.5,0.5,1,0.9,1.4,1.5
	c0.6,0.7,1.2,1.5,1.7,2.3s1.2,1.6,1.7,2.3c1.1,1.3,2.1,2.7,2.7,4.2c0.5,1.2,1,2.3,1.4,3.5c0.4,1.2,0.5,2.6,0.6,3.8
	c0.1,0.6,0.1,1.2,0.2,1.8c0.2,2.1,0,4.2-0.5,6.4c-0.2,0.7-0.1,1.5-0.4,2.1c-0.7,2.2-2,4.2-3.2,6.3c-0.6,1.1-1.4,2.1-1.8,3.3
	c-0.6,1.3-1.4,2.3-2.5,3.2c-0.5,0.4-0.5,0.7-0.4,1.3c0.4,1.4,0.5,2.8,0.4,4.2c-0.1,1.8-0.4,3.3-0.9,5c-0.3,1-0.3,2.1-0.4,3.1
	c-0.1,0.6-0.2,1.4-0.3,2c-0.4,1.6-0.6,3.2-1,4.8c-0.1,0.4-0.3,0.6-0.4,1c-0.3,1.1-0.5,2.2-0.9,3.3c-0.5,1.4-0.8,2.8-1.4,4.2
	c-0.5,1.1-0.5,2.3-0.5,3.4c0.7,0,1.3-0.1,1.9,0c1.4,0.1,2.6,0.5,3.6,1.6c0.9,0.9,1.5,1.9,1.8,3.2c0.2,1-0.6,2.5-1.4,3
	c-1.4,0.7-2.6,0.6-4,0.1c-1.1-0.4-2.2-0.8-2.9-1.8c-0.8,0.8-1.2,3.3-0.7,4.9c0.2,0,0.3,0,0.5,0c1.2-0.6,2.3-0.5,3.3,0.1
	c0.7,0.4,1.4,0.9,1.8,1.6c0.7,1,0.5,2.4-0.6,3.2c-0.2,0.1-0.5,0.2-0.7,0.2c-1,0-1.9-0.2-2.7-0.8c-0.6-0.5-1.4-0.8-2.2-1.2
	c-0.8,1.1-1.6,2.1-2.3,3.2c-0.7,1.2-0.6,2.5-0.1,3.7c0.4,0.7,0.5,1.8,1.1,2.3c1.1,0.8,1.8,2.1,3.2,2.6c0.3,0.1,0.5,0.3,0.4,0.6
	c-0.1,0.2-0.5,0.5-0.6,0.4c-0.9-0.4-2-0.3-2.6-1.1c-0.1-0.1-0.2-0.3-0.4-0.3c-1.1-0.6-1.4-1.6-2-2.6c-0.7-1.6-0.8-3.1-0.8-4.8
	c0.1-1.8,0.8-3.3,2-4.5c0.9-0.9,1.4-1.8,0.9-3c-0.4-0.8-0.4-1.8-0.5-2.8c-0.2-1,0.1-2,0.5-3c0.2-0.6,0.6-1.1,0.8-1.8
	c0.1-0.3,0.2-0.6,0.1-0.9c-0.1-0.5-0.1-0.9,0-1.4c0.1-1,0.2-2,0.2-3s0-2,0.2-3c0.4-1.5,0.6-3,0.9-4.5c0.2-1.4,0.3-2.8,0.5-4.2
	c0.1-1,0.3-1.9,0.3-3c0.1-1.6,0.5-3.1,0.5-4.8c0.1-1.3,0-2.5,0-3.8c0.1-0.8,0.2-1.6,0.2-2.4C63.9,296,63.9,295.9,63.9,295.6z
	 M71.1,192.5c1.7-0.1,3.4-0.2,5.1-0.5c1.4-0.2,2.6-0.6,3.9-0.9c1-0.3,1.9-0.8,2.8-1.4c1.4-0.8,2.3-2,3.2-3.3
	c0.2-0.4,0.3-0.8,0.3-1.3c0-0.7-0.2-1.5-0.1-2.2c0.1-1.2-0.5-2.2-1.2-3.1c-0.7-1.1-1.6-2-2.5-3c-0.5-0.5-0.9-1-1.4-1.4
	c-1.7-1.2-3.5-2-5.4-2.8c-2.3-0.9-4.7-1.2-7.1-1.4c-0.5,0-1.1,0-1.6,0c-1.8,0.2-3.6,0.7-5.4,1.3c-2.5,0.6-4.7,1.9-6.6,3.8
	c-1.1,1-2,2.1-3,3.2c-0.3,0.3-0.2,0.6,0,0.8c0.7,1,1.4,2,2.1,3c0.6,0.8,1.4,1.5,2.3,2.1c1.3,1.1,2.5,2.1,3.7,3.2
	c1.4,1.3,3.1,2.3,5,2.9c0.3,0.1,0.6,0.1,0.9,0.2C67.7,192.3,69.3,192.6,71.1,192.5z M90.1,225c0-0.4,0.1-0.9-0.1-1.4
	c-0.8-1.8-2-3.3-3.4-4.6c-1.6-1.5-3.5-2.5-5.5-3.4c-1.7-0.7-3.6-0.9-5.4-1.2c-0.4,0-0.6-0.1-1,0c-1.5,0.2-3,0.4-4.5,0.6
	c-1.1,0.2-2.2,0.2-3.2,0.8c-1.2,0.7-2.3,1.6-3.4,2.5c-0.9,0.6-1.7,1.4-2.4,2.2c-1.2,1.2-2.2,2.5-3.1,3.9c-0.3,0.4-0.3,0.6,0.1,1
	c0.7,0.7,1.4,1.5,2.3,2.1c1.9,1.5,3.9,2.9,5.9,4c1.4,0.7,2.6,1.5,4.1,2.1c1.1,0.5,2.2,0.8,3.3,1.2c1.5,0.5,3.1,0.6,4.7,0.6
	c0.7,0,1.4,0.2,2.1,0c0.6-0.2,1.2-0.4,1.8-0.6c1.1-0.3,2.3-0.4,3.2-1c0.7-0.5,1.4-0.8,2.2-1.3c0.2-0.1,0.4-0.4,0.5-0.6
	c0.5-0.9,0.9-1.8,1.2-2.9C89.8,227.8,89.9,226.5,90.1,225z M52.8,295.2c1.5-0.1,2.9-0.2,4.1-0.3c1-0.1,2-0.4,2.9-0.7
	c0.8-0.4,1.6-0.7,2.5-1.1c0.5-0.2,1-0.5,1.4-0.7c0.2-0.1,0.4-0.5,0.4-0.6c-0.3-0.6-0.5-1.4-0.9-2c-0.5-0.7-1.3-1.3-1.9-2
	c-1.4-1.7-3-3-5-3.9c-2.3-0.8-4.5-1.7-6.9-1.8c-0.6,0-1.4-0.2-1.9,0.4c-0.6,0.6-1.4,1.1-1.9,1.8c-1.2,1.5-2.2,3-2.3,5
	c0,0.2-0.1,0.5-0.1,0.6c-0.2,0.6-0.1,1,0.3,1.4c0.5,0.5,0.9,0.9,1.4,1.4c0.5,0.4,0.9,0.6,1.4,0.9c1.1,0.5,2.2,1,3.3,1.3
	C50.6,295.2,51.9,295.1,52.8,295.2z M47.3,143.5c0.7-1.1,1.4-2,2-3c0.4-0.6,0.8-1.2,1.1-1.8c0.5-1.1,1.1-2.2,1.4-3.4
	c0.5-1.6,0.5-3.1,0.3-4.7c0-0.3-0.2-0.6-0.4-0.7c-0.5-0.6-0.9-1-1.4-1.5c-0.1-0.1-0.3-0.3-0.5-0.4c-0.9-0.4-1.9-0.8-3-0.7
	c-0.6,0-1.3-0.2-1.9,0c-1.2,0.3-2.3,0.6-3.3,1.3c-0.8,0.6-1.3,1.4-1.4,2.3c-0.1,0.7,0,1.6,0.1,2.3c0.1,0.9,0.3,1.8,0.5,2.7
	c0,0.2,0.2,0.4,0.3,0.6c0.5,0.8,1.1,1.6,1.4,2.4c0.8,1.9,2.3,3.2,3.9,4.4C46.8,143.3,47.1,143.4,47.3,143.5z M195,137.6
	c-1.7,0.9-3.3,2-4.8,3.5c-1,1.1-1.6,2.3-2.3,3.5c-0.2,0.3-0.2,0.7-0.3,1.1c0,0.5,0,0.9,0.1,1.4c0.1,0.3,0.1,0.7,0.4,0.8
	c0.8,0.5,1.2,1.6,2.2,1.9c0.3,0.1,0.6,0.2,0.8,0.5c0.6,0.6,1.4,0.3,2.1,0.5c1.8-0.5,3.5-1,5-2.4c0.6-0.6,1.1-1.2,1.2-2.2
	c0.2-1.8-0.2-3.3-1-4.8c-0.1-0.2-0.1-0.4-0.3-0.5c-0.3-0.4-0.5-0.7-0.7-1s-0.6-0.5-0.8-0.8C196.1,138.3,195.5,137.9,195,137.6z
	 M86,147.9c0.3-0.2,0.5-0.3,0.7-0.4c0.4-0.2,0.6-0.5,1-0.6c1-0.7,1.9-1.6,2.5-2.7c0.7-1.2,1.3-2.4,1.9-3.6c0.5-0.9,0.6-2,0.7-3
	c0.1-0.6-0.1-1.1-0.4-1.6c-0.6-1.2-1.2-1.3-2.3-0.6c-0.1,0-0.1,0.1-0.2,0.1c-0.9,0.6-1.9,1.3-2,2.6c-0.1,0.6-0.4,1-0.5,1.6
	c-0.4,1-0.9,1.9-1.2,3C85.9,144.2,86,146,86,147.9z M253.9,130.8c0-1.4-0.4-2.4-1.1-3.2c-1-1.1-2.4-1.1-3.3,0.2
	c-0.2,0.3-0.5,0.6-0.6,0.8c-0.5,0.8-0.5,1.8,0.1,2.7c0.6,1,1.6,1.6,2.6,2.1c0.7,0.4,1.3,0.3,1.6-0.5
	C253.6,132.2,253.8,131.4,253.9,130.8z M63.8,328.5c0.2,0.3,0.4,0.6,0.6,0.6c0.8,0.4,1.7,0.7,2.6,1.1c0.5,0.2,0.8-0.1,1-0.5
	c0.3-0.4,0.5-0.8,0.6-1.3c-0.4-0.5-0.6-0.9-1.1-1.3c-1.3-1.2-2.3-0.9-3.2,0.3C64.1,327.8,64,328.1,63.8,328.5z M269.4,129.6
	c0.2-0.4,0.3-0.5,0.4-0.6c0.2-0.6,0.2-1.4,0.5-2c0.3-0.7-0.1-1.3-0.4-1.9c-0.3-0.5-0.8-0.5-1.1,0c-0.7,0.8-0.7,2.7,0,3.8
	C268.8,129,269.1,129.3,269.4,129.6z M63.1,337.4c0.5,0.3,0.9,0.6,1.4,0.7s1-0.3,0.9-0.8c-0.1-0.4-0.7-0.7-1.3-0.7
	C63.5,336.6,63.3,336.7,63.1,337.4z M284.2,135.9c0.8-0.8,0.7-1.4-0.2-1.8C283.4,135,283.4,135.4,284.2,135.9z"/>
<path d="M778.3,361.1c-1.4,1.5-1.8,3.2-1.1,5.1c0.5,1.5,1,3,1.5,4.5c0.2,0.4,0.5,0.8,0.8,1.2c0.2,0.2,0.4,0.3,0.6,0.4
	c0.8,0.8,1.5,1.5,2.7,1c-0.3,0.8-0.9,1-1.5,0.8c-1.4-0.4-2.7-1.1-3.5-2.6c-1.2-2-1.9-4.2-2-6.6c-0.1-1.2-0.1-2.5,0.1-3.7
	c0.1-0.8,0.4-1.6,0.7-2.3c0.2-0.5,0.3-0.9,0.2-1.4c-0.4-1.3-0.8-2.5-1.2-3.8c-0.6-2-1.2-3.9-1.6-5.9c-0.3-1.3-0.8-2.6-1.1-3.9
	c-0.2-1.1-0.3-2.2-0.4-3.2c-0.2-1.1-0.3-2.2-0.5-3.2c-0.1-0.3-0.2-0.7-0.1-1c0.3-2.5-0.3-4.9-0.3-7.3c0-1.8-0.1-3.5-0.1-5.3
	c0-0.6,0.1-1.1,0.2-1.7c0.2-2.8,1.1-5.4,1.9-8c0.1-0.4,0.3-0.7,0.6-1c0.4-0.6,0.4-1.2,0.2-1.8c-0.2-0.6-0.3-1.1-0.5-1.7
	c-0.5-1.7-0.7-3.5-0.5-5.4c0.1-0.5,0.3-1,0.3-1.5c0.3-1,0.5-1.9,0.8-2.9c0.4-1.8,1.3-3.3,2.1-4.8c0.3-0.6,0.8-1.3,0.5-2.2
	c-0.9-0.1-1.8,0.1-2.5,0.4c-0.6,0.2-1,0.2-1.5-0.3c-0.2,0.3-0.4,0.6-0.8,0.4c-0.3-0.2-0.8-0.2-1.1-0.3c-1.3-0.4-2.4-0.8-3.4-2
	c-0.8-0.9-1.5-1.8-2-2.8c-0.8-1.6-1.7-3.2-2.2-4.9c-0.4-1.4-0.7-3-0.3-4.5c0.6-2.1,1.7-3.7,3.6-4.2c0.3-0.1,0.5-0.1,0.8-0.2
	c0.9-0.6,1.9-0.5,2.9-0.4c1.3,0.2,2.5,0.8,3.6,1.5c0.9,0.6,1.9,1.1,2.8,1.9c1.7,1.6,2.9,3.5,3.4,6c0.1,0.2,0.1,0.4,0.2,0.6
	c0,0,0.1,0,0.2,0.1c0.1-0.2,0.3-0.4,0.3-0.6c0.5-1.9,0.8-3.8,0.9-5.8c0-1.7,0.2-3.5,0.3-5.2c0.1-1.9,0.3-3.8,0.1-5.8
	c-0.1-0.4,0-0.8,0-1.2c-0.1-0.9-0.1-1.7-0.2-2.6c0-0.2,0-0.4,0-0.6c0-1.5,0.2-3.1,0.1-4.6c-0.2-2.3,0.3-4.5,0-6.8
	c-0.2-1.4-0.1-2.9-0.1-4.4c-0.1-1.7-0.1-3.3-0.3-5c-0.1-1-0.3-1.9-0.6-2.8c-0.3-1.5-0.7-2.9-1-4.4c0-0.2-0.2-0.3-0.3-0.6
	c-0.3,0.3-0.5,0.6-0.7,0.8c-0.9,1.1-1.8,2.1-2.7,3.2c-0.2,0.2-0.3,0.3-0.6,0.4c-0.8,0.5-1.5,1-2.3,1.5c-0.7,0.4-1.4,0.8-2.2,1
	c-2.2,0.8-4.5,1.1-6.8,1c-0.3,0-0.6-0.2-0.9-0.2c-0.3-0.1-0.6-0.2-0.9-0.2c-1.3,0.1-2.4-0.2-3.6-0.4c-0.4-0.1-0.9-0.4-1.3-0.5
	c-0.1,0-0.3-0.1-0.3-0.1c-1.1,0-1.9-0.8-2.9-1.2c-0.1,0-0.2-0.1-0.3-0.2c-0.5-1.3-1.8-1.6-2.5-2.6c-0.4-0.6-0.8-1.3-1.2-2
	c-0.2-0.3-0.3-0.7-0.4-1.1c-0.5-1.3-0.6-2.7-0.6-4.2c0-1.7,0.3-3.3,0.8-4.7c0.7-2.1,1.6-4.1,3.1-5.6c1.1-1.2,2.2-2.4,3.4-3.3
	c1.2-0.9,2.5-1.7,4-1.9c0.9-0.1,1.8-0.4,2.9-0.5c2.4-0.3,4.5,0,6.8,1c1.9,0.9,3.6,2.3,5.3,3.8c0.6,0.6,1.1,1.2,1.7,1.9
	c0.2,0.2,0.3,0.3,0.5,0.5c0.1-0.1,0.3-0.1,0.3-0.1c0.2-1.3,0.8-2.4,0.7-3.8c-0.1-0.8,0.3-1.5,0.3-2.3c0.2-1.2,0.3-2.4,0.3-3.6
	c0.1-1.8,0.3-3.6,0.3-5.4c-0.1-1.8,0.1-3.6,0.3-5.3c0.2-1.8,0.3-3.6,0.3-5.4c0-0.2,0-0.3,0-0.5c0-1.6,0-1.5-1.2-2.1
	c-0.5-0.2-1-0.6-1.5-0.9c-0.9-0.6-1.8-1.2-2.7-1.7c-1.4-0.8-2.8-1.7-3.9-3c-1-1.1-2-2.3-2.4-4.1c-0.2-1.1-0.5-2.2-0.4-3.3
	c0-0.7-0.2-1.5-0.3-2.2c-0.2-1.4-0.5-2.7-0.3-4.2c0.1-0.6-0.1-1.3-0.2-2.1c-1.4,0.3-2.8,0.5-4.1,0.8c-0.1,0-0.2,0.1-0.3,0.1
	c-1.4,0.1-2.9,0.2-4.3,0.3c-0.3,0-0.8-0.1-1.1-0.1c-1.6-0.2-3.1-0.4-4.7-0.4c-0.6,0-1.1-0.3-1.7-0.5c-1.1-0.4-2.2-0.8-3.3-1.3
	c-0.3-0.1-0.8-0.1-0.8-0.8c0-0.1-0.2-0.1-0.3-0.2c-0.3-0.2-0.8-0.3-1.1-0.6c-0.7-0.5-1.3-0.9-2-1.4c-0.7-0.4-1.3-1.1-1.8-1.6
	c-0.1-0.1-0.3-0.2-0.3-0.4c-1.3-2-2.9-3.7-3.8-6.1c-0.3-0.6-0.4-1.2-0.7-1.9c-0.3-0.6-0.4-1.2-0.6-1.7c-0.2-0.1-0.2-0.1-0.3-0.1
	c-2,0.3-3.9-0.5-5.8-0.7c-1.7-0.2-3.4-0.7-5-1.6c-0.8-0.5-1.2-0.4-1.8,0.4c-1.2,1.4-2.2,3-3.4,4.4c-0.8,0.9-1.9,1.7-2.9,2.2
	c-1.2,0.6-2.4,0.9-3.6,1.3c-1.4,0.5-2.9,0.5-4.5,0.2c-0.8-0.1-1.5-0.2-2.3-0.4c-1.5-0.3-2.9-1-4.2-1.9c-0.3-0.2-0.6-0.2-0.9-0.4
	c-0.8-0.5-1.8-0.9-2.5-1.6c-0.6-0.6-1.3-0.9-2-1.4c-0.5-0.3-0.9-0.8-1.3-1.3c-0.6-0.7-1.3-1.2-2.1-1.7c-0.8-0.6-1.6-1.2-2.2-2.1
	c-0.3-0.5-0.8-1-1.3-1.4c-1.4-1.3-2.9-2.4-4.6-3.4c-0.7-0.4-1.3-1-1.9-1.5c-0.4-0.4-0.9-0.6-1.5-0.5c-0.2,0-0.4,0-0.6-0.1
	c-1.1-0.5-2.3-0.5-3.4-0.5c-1.2,0-2.3,0.3-3.4,0.8c-0.3,0.2-0.7,0.3-1.2,0.6c0.2,0.3,0.3,0.6,0.5,0.9c1.3,1.7,2.3,3.8,2.9,6
	c0.3,1.1,0.9,2.1,1,3.4c0,1.9,0.3,3.7,0,5.6c-0.2,1.9-0.9,3.5-1.4,5.2c-0.4,1.4-1.3,2.5-2.3,3.3c-0.8,0.6-1.4,1.2-2.2,1.8
	c-1,0.8-2.1,0.8-3.2,0.7c-0.6-0.1-1.2-0.1-1.8-0.2c-1.7-0.3-3.3-0.9-4.5-2.2c-0.6-0.7-0.9-1.7-1.4-2.5c-1-1.3-1.3-2.9-1.2-4.5
	c0.2-2.4,0.3-4.9,0.8-7.3c0.3-1.2,0.8-2.4,1.2-3.6c0.8-2.3,2.2-4.2,3.7-5.8c0.2-0.2,0.3-0.3,0.5-0.5c0.3-0.4,0.1-0.7-0.3-0.9
	c-0.3-0.1-0.8-0.2-1.1-0.2c-0.2,0-0.4,0-0.6,0c-1.8-0.7-3.5-0.1-5.3-0.6c-0.2,0-0.3,0.1-0.6,0.1c-0.8,0.1-1.5,0.2-2.3,0.1
	c-0.8-0.2-1.8,0-2.6,0c-0.7,0-1.3,0.1-1.9,0.2c-2,0.2-4,0.9-5.8,1.5c-0.1,0-0.3,0.2-0.3,0.2c-1.5-0.1-2.7,0.9-4,1.8
	c-0.8,0.6-1.7,1.1-2.4,1.7c-0.5,0.4-0.9,0.8-1.3,1.2c-0.1,0.1-0.3,0.2-0.4,0.3c-0.5,0.2-0.9,0.3-1.4,0.6c-1.7,0.9-3.4,1.7-5,2.6
	c-1.3,0.6-2.4,1.4-3.7,1.9c-1.3,0.6-2.6,1-3.9,1.5c-1.2,0.5-2.4,0.4-3.5,1.2c-0.1,0.1-0.2,0.1-0.3,0.1c-1.3,0.1-2.7,0.2-4,0.3
	c-1,0.1-2,0.3-3,0.3c-1.3,0.1-2.4,0-3.7,0c-0.3,0-0.5-0.2-0.8-0.3c-0.3-0.1-0.8-0.3-1-0.1c-1.6,0.9-3.3,1.4-5,1.8
	c-1.2,0.3-2.4,0.3-3.6,0.3c-1,0-2.1-0.1-3.1-0.2c-1.7-0.1-3.3-0.9-4.8-1.8c-0.5-0.3-0.9-0.7-1.3-1.1c-0.8-0.7-1.6-1.4-2.4-2.1
	c-0.2-0.2-0.6-0.2-0.8,0c-0.6,0.3-1.2,0.7-1.8,1.1c-1,0.6-2,1-3.2,0.9c-0.5,0-0.9,0.2-1.4-0.3c-0.4,0.4-0.8,0.8-1.3,0.2
	c-0.1-0.1-0.3-0.1-0.3-0.1c-1.3,0.5-2.5,0.3-3.8,0.4c-0.3,0-0.5,0.1-0.7,0.3c-0.2,0.2-0.3,0.6-0.3,0.9c0.3,1.3,0.1,2.7,0.2,4
	c0,0.3-0.2,0.7-0.3,0.7c-0.4,0.2-0.5,0.5-0.5,0.9c-0.1,0.7-0.4,1.1-0.9,1c-0.8-0.1-1.5-0.3-2.2-0.6c-0.3-0.1-0.6-0.4-0.4-0.9
	c0-0.1,0-0.3-0.1-0.3c-0.9-0.2-0.8-1.2-0.8-1.9c-0.1-0.8,0.2-1.6,0.3-2.4c0.1-0.4,0.3-0.8,0.5-1.2c-0.2-0.6-0.6-0.5-0.9-0.6
	c-1.6-0.1-3.2-0.3-4.7,0.3c-0.9,0.4-1.9,0.3-2.9,0.6c-1.3,0.4-2.5,1.2-3.8,1.8c-0.3,0.1-0.4,0.3-0.7,0.4c-0.2,0-0.5-0.1-0.6-0.2
	c-0.1-0.1,0-0.5,0.2-0.6c1.2-1,2.4-2,3.8-2.7c0.8-0.4,1.8-0.4,2.6-0.6c1.1-0.3,2.1-0.5,3.2-0.8c1.3-0.3,2.7-0.2,4-0.1
	c0.3,0,0.6,0.4,0.8,0.6c0.6-0.3,1.2-0.6,1.8-0.9c0.8-0.5,1.7-0.7,2.6-0.6c1.1,0.1,2.3,0.1,3.4,0.4c1.4,0.4,2.9,0.4,4.5,0.3
	c1-0.1,2-0.8,2.9-1.5c0.3-0.3,0.3-0.7,0.2-1.1c-0.2-0.3-0.3-0.6-0.5-0.8c-0.8-1.1-1-2.6-0.8-3.9c0.3-2.4,2.4-3.4,3.8-2.2
	c0.3,0.2,0.6,0.5,0.8,0.8c0.2,0.2,0.3,0.5,0.3,0.8c0,1.9-0.2,3.8-0.8,5.5c2.7,3.9,6.3,5,10.3,5.1c1.8,0.1,4.8-0.8,5.5-1.6
	c-0.2-0.1-0.3-0.3-0.4-0.4c-1.3-1-2.6-2-3.5-3.6c-0.7-1.2-1.3-2.5-1.5-4c-0.3-1.9-0.8-3.7-0.5-5.7c0-0.2-0.1-0.4-0.1-0.7
	c0-0.4,0-0.8,0.2-1.1c0.3-0.6,0.8-1.2,1.3-1.8c0.4-0.6,1-0.9,1.2-1.7c0.1-0.2,0.3-0.5,0.6-0.6c0.8-0.2,1.5-1,2.4-0.6
	c0.2,0,0.3,0,0.4-0.1c0.4-0.7,1-0.4,1.5-0.2c0.4,0.1,0.8,0.1,1.2,0.3c0.3,0.1,0.5,0.3,0.7,0.6c0.3,0.3,0.4,0.5,0.8,0.5
	c0.3,0,0.5,0.2,0.8,0.4c0.1,0.1,0.2,0.2,0.3,0.3c1.1,0.2,1.7,1.3,2.5,1.9c0.3,0.2,0.6,0.6,0.8,1c0.8,1.3,1.6,2.5,1.7,4.2
	c0,0.6,0.2,1.1,0.3,1.7c0.2,1,0.3,1.9-0.3,2.8c-0.1,0.1-0.1,0.2-0.1,0.3c0.3,2.1-0.6,3.4-1.8,4.7c-0.2,0.2-0.4,0.4-0.8,0.8
	c0.3,0.1,0.5,0.3,0.7,0.3c1.8-0.1,3.6-0.1,5.5-0.7c0.9-0.3,2-0.4,2.9-0.9c1-0.6,2.1-1.3,3.1-1.9c1.2-0.7,2.2-1.6,3.2-2.6
	c1.1-1.1,2.4-2,3.6-2.9c0.4-0.3,0.8-0.7,1.1-1c0.7-0.6,1.4-1,2.1-1.6c0.8-0.7,1.7-1.6,2.5-2.4c0.3-0.3,0.6-0.6,0.9-0.8
	c1.5-1.2,3-2.5,4.5-3.6c1-0.8,1.9-1.8,3.1-2.2c0.7-0.3,1.4-0.6,1.8-1.2c0.5-0.8,1.2-0.7,1.8-1.1c0.6-0.4,1.3-0.7,1.8-1.1
	c0.4-0.3,0.8-0.6,1.3-0.8c0.3-0.2,0.5-0.3,0.8-0.4c0.8-0.2,1.5-0.6,2.4-0.6c0.6,0.1,1.2-0.3,1.8-0.3c0.4,0,0.9,0.2,1.3,0.3
	c0.1,0,0.2,0.1,0.3,0.1c1-0.4,1.8,0.5,2.5,1c0.8,0.5,1.6,1.3,2.4,1.8c1.2,0.7,2.1,1.8,2.9,2.8c0.8,1,1.7,2,2.5,2.9
	c0.8,0.8,1.5,1.6,2.3,2.4c1.1-0.4,1.9-1.2,3.2-1c0-0.5,0.2-0.9,0.7-1c0.4-0.2,0.8-0.5,1.3-0.8c0.3-0.1,0.6-0.2,0.8-0.3
	c0.1,0,0.3,0,0.3,0c0.8-0.9,1.8-0.8,2.7-1c1.3-0.3,2.6-0.6,3.9-0.6c1.3,0,2.6,0.2,4,0.7c2.6,1,4.6,3.1,6.8,4.9
	c0.9,0.8,1.8,1.7,2.7,2.5c0.9,0.7,1.8,1.3,2.8,1.9c0.8,0.5,1.5,1,2.4,1.5c0.5,0.3,1,0.5,1.5,0.8c0.3,0.2,0.7,0.5,1.1,0.7
	c0.3,0.2,0.7,0.4,1,0.5c0.3,0.1,0.7,0.2,1,0.3c1.2,0.6,2.4,1,3.7,1.2c0.6,0.1,1.2,0.3,1.8,0.3c0.8,0,1.7,0.3,2.5,0.2
	c0.8-0.2,1.6-0.1,2.4-0.5c0.7-0.3,1.3-0.5,1.9-0.8c0.6-0.2,0.7-0.5,0.2-1c-0.5-0.6-1.2-1.1-1.7-1.7c-0.6-0.6-1.2-1.3-1.7-2
	c-0.2-0.2-0.3-0.5-0.5-0.7c-1.3-1.1-1.9-2.7-2.5-4.3c-0.6-1.7-1.2-3.4-1.7-5.2c-0.4-1.5-1-2.9-0.9-4.5c0-1.4,0-2.9,0.3-4.3
	c0.4-2.5,1.3-4.8,2.6-6.9c0.8-1.3,1.8-2.4,2.9-3.4c1-0.9,2.3-1,3.4-1.1c1.4-0.1,2.8,0,4.2,0.2c1.4,0.2,2.8,0.8,3.9,2
	c0.8,0.8,1.5,1.5,2.2,2.4c0.3,0.4,0.6,0.8,0.8,1.3c0.5,1.3,1.3,2.6,1.4,4c0.1,0.6,0.2,1.1,0.3,1.7c0,0.3,0,0.6,0.1,0.8
	c0.6,1.4,0.3,3,0.4,4.5c0,0.3-0.1,0.6-0.2,0.9c-0.4,1.7-0.8,3.3-1.3,4.9c-0.6,1.7-1.3,3.3-1.9,4.9c-0.6,1.5-1.3,3-1.9,4.4
	c0,0.1-0.1,0.1-0.1,0.2c0,0.7-0.3,1.2-0.8,1.5c1.4,1,4.9,1.6,8.3,1.3c0.3-0.7,0.3-1.4,0.1-2.1c-0.1-0.9-0.2-1.8-0.3-2.7
	c0-1.4,0-2.7,0-4.1c0-0.5,0.1-1,0.2-1.6c0.1-1,0.1-2,0.2-3c0.1-0.5,0.2-0.9,0.3-1.4c0.2-1.1,0.4-2.1,0.6-3.2
	c0.1-0.5,0.3-1.1,0.3-1.6c0.5-2.2,1.3-4.4,2-6.5c0.2-0.4,0.5-0.6,0.8-1.1c-0.1-0.4-0.1-1.1,0.6-1.4c0.1,0,0.1-0.1,0.1-0.2
	c0.5-2,1.8-3.3,2.9-4.8c1.8-2.2,4-3,6.5-2.8c1.5,0.1,3,0.2,4.5,0.4c1.8,0.2,3.6,0.6,5.2,1.6c1.2,0.7,2.1,1.7,3.1,2.7
	c0.8,0.8,1.5,1.6,2.2,2.5c0.5,0.7,0.8,1.5,1.2,2.3c0.9,2,1,4.3,1.3,6.5c0.2,1.1-0.1,2.2-0.3,3.3c-0.5,2-1.1,4-1.8,6
	c-0.2,0.6-0.5,1.2-0.8,1.8c-0.7,1.3-1.3,2.6-2,3.9c-0.3,0.6-0.6,1.1-1,1.6c-1.6,2.2-3.4,4.1-5.5,5.6c-1.2,0.9-2.5,1.3-3.9,1.9
	c-1.6,0.7-3.4,1.1-5,1.2c-0.7,0.1-1.3,0.4-1.9,0.3c-0.7-0.1-1.3,0.1-2,0.1c-0.1,0-0.2,0.2-0.3,0.3c0.3,0.9,0.9,1.6,1.5,2.3
	c0.4,0.5,1,0.9,0.8,1.7c0.7,0,1.3,0.4,1.8,0.7c1.2,0.8,2.3,1.7,3.6,2c0.2,0.1,0.4,0.3,0.6,0.3c0.4,0.2,0.8,0.3,1.3,0.4
	c0.3,0.1,0.6,0,0.8,0.1c1.3,0.5,2.8,0.6,4.2,0.5c0.1,0,0.2,0,0.2,0c1.8,0.6,3.5,0.1,5.3-0.4c0.3-0.1,0.4-0.1,0.7-0.1
	c0.5-0.1,1-0.2,1.6-0.3c0.5-0.1,1.1-0.3,1.6-0.4c0.8-0.2,1-0.4,1-1.4s0-2,0.3-3c-0.4-0.8,0.3-1.5,0.2-2.4c-0.2-0.7,0.1-1.6,0.2-2.3
	c0.1-0.7,0.3-1.5,0.5-2.2c0.8-2.7,1.4-5.3,2.3-7.9c0.6-1.9,1.3-3.7,2.1-5.6c0.7-1.5,1.3-3,2.2-4.4c1.6-2.5,3.1-5.2,5.2-7.2
	c0.9-0.9,1.7-1.9,2.6-2.8c1.3-1.3,2.9-2,4.5-2.8c0.5-0.2,1.1-0.5,1.6-0.7c1.2-0.4,2.4-0.3,3.5-0.3c1.8,0,3.5,0,5.2,0.2
	c1.4,0.1,2.8,0.5,4,1.4c0.3,0.2,0.4,0.3,0.7,0.4c1.8,0.4,2.5,2,3.3,3.6c0.5,1.2,1,2.5,1.2,3.9c0.1,0.7,0,1.3-0.1,1.9
	c-0.2,1-0.3,2-0.4,3c-0.3,3.3-1.7,6-2.9,8.9c-0.7,1.7-1.6,3.1-2.8,4.4c-0.9,1.1-1.7,2.3-2.6,3.5c-1.2,1.5-2.4,2.8-4,3.8
	c-0.8,0.6-1.8,1.2-2.5,2c-0.9,1.1-2,1.9-2.9,2.9c-0.3,0.3-0.7,0.6-1,0.9c-0.9,0.7-1.8,1.3-2.8,2c-0.2,0.1-0.3,0.1-0.4,0.2
	c-0.3,0.1-0.5,0.1-0.7,0.3c-0.8,1.2-2,1.6-3,2.3c-0.8,0.6-1.8,1.2-2.7,1.4c-0.8,0.2-1.4,0.9-2.1,0.9c-1,0.1-1.7,1.1-2.7,1.4
	c-0.2,0-0.3,0.5-0.3,0.7c0,1.4,0.4,2.6,1.2,3.7c0.1,0.2,0.3,0.4,0.3,0.6c0.3,0.8,0.3,1.8,1,2.4c0.1,0,0.1,0.1,0.1,0.2
	c0.1,1.2,0.9,1.8,1.5,2.6c0.6,0.8,1.3,1.5,2,2c0.6,0.4,1.1,0.8,1.8,1.2c0.6,0.3,0.9,0.2,1.2-0.5c0.4-1.3,1.2-2.3,1.7-3.5
	c0.8-2.1,2.4-3.4,3.7-4.9c0.3-0.4,0.8-0.7,1.3-1c0.2-0.1,0.3-0.2,0.4-0.3c1.3-1.1,2.6-2.2,3.9-3.3c1.8-1.6,3.7-2.8,5.8-3.7
	c0.8-0.4,1.8-0.1,2.9,0c1.3,0.2,2.7,0.6,4,0.9c0.6,0.1,1.2,0.3,1.7,0.8c0.8,0.8,1.7,1.5,2.5,2.1c0.8,0.6,1.3,1.5,1.8,2.5
	c0.2,0.4,0.4,0.8,0.7,1.2c0.5,0.7,0.9,1.5,1.2,2.4c0.3,1,0.8,1.9,0.8,3c0,1.4,0.2,2.7-0.2,4.1c-0.3,1.1-0.3,2.3-0.6,3.4
	c-0.1,0.4-0.3,0.8-0.6,1.2c-1.3,1.8-2.6,3.5-4.1,5c-0.9,0.9-1.8,1.6-2.8,2.4c-1.2,1-2.6,1.4-4,2c-0.2,0.1-0.3,0.1-0.4,0.1
	c-1.7,0.6-3.4,0.7-5.1,0.6c-0.8-0.1-1.7,0.1-2.5,0c-1.3-0.2-2.5-0.4-3.8-0.7c-1.3-0.3-2.4-0.7-3.8-0.5c-0.6,0.1-1.3-0.4-1.9-0.6
	c-0.2-0.1-0.4-0.2-0.8-0.3c-0.1,0.4-0.3,0.8-0.3,1.1c0,2,0,3.9,0.1,5.9c0.2,2.9,0.3,5.7,0.5,8.6c0.1,1.4,0.3,2.8,0.1,4.1
	c-0.3,1.5,0.3,3.1-0.4,4.6c0.2,0.9,0.1,1.7-0.1,2.5c-0.4,2.2-0.8,4.4-1.3,6.6c-0.2,0.7-0.1,1.3,0.2,1.9c1,2.2,2.1,4.3,3.1,6.5
	c0.1,0.2,0.1,0.4,0.1,0.6s-0.1,0.5,0,0.6c0.4,0.5,0.3,1.2,0.6,1.7c0.7,1.7,1,3.4,1.4,5.2c0.4,1.8,0.8,3.7,1,5.5
	c0.2,1.3,0.4,2.5,0.7,3.7c0.2,0.7,0.1,1.4,0.1,2.1c0,1.5,0.5,2.9,0.6,4.3c0.2,2.1,0.1,4.3,0.3,6.5c0.2,2.8-0.6,5.4-0.9,8.2
	c-0.2,1.6-0.6,3.2-0.9,4.7c-0.3,1.6-0.9,3.1-1.6,4.5c-0.2,0.3-0.3,0.6-0.3,0.9c-0.6,1.8-1.7,3.2-2.9,4.4c-1,1-2,1.9-3,2.9
	c-0.3,0.3-0.4,1-0.6,1.6c-0.2,0.9-0.3,1.7-0.5,2.6c-0.1,0.7-0.3,1.4,0,2.2c0.3,0.5-0.1,1.1-0.8,1.6c0.2,0.7,0,1.4-0.3,2
	c-0.6,1.5-0.8,3.2-1.1,4.8c-0.2,0.6-0.2,1.2-0.3,2.1c0.3-0.1,0.5-0.1,0.7-0.2c0.2-0.1,0.3-0.2,0.3-0.4c1.3-1.6,3-2,4.8-2.1
	c0.6,0,1.2-0.1,1.7,0c1.6,0.4,2.9,1.4,4.1,2.6c0.7,0.7,0.8,1.7,1,2.6c0.3,1.3,0.5,2.6,0.4,3.9c-0.1,0.7-0.2,1.3-0.4,2
	c-0.3,0.9-0.8,1.7-1.1,2.6c-0.1,0.3-0.3,0.5-0.5,0.7c-1.4,0.9-2.9,1.7-4.5,2.1c-0.1,0-0.2,0-0.3,0c-0.4,0-0.7-0.7-1.3-0.4
	c-0.3,0.2-0.8-0.3-1.3-0.5c-0.6-0.2-1.2-0.4-1.7-0.7c-0.7-0.3-1.3-0.7-2-1.1c-0.3,0.7-0.4,1.5-0.5,2.3c-0.2,1.4-0.3,2.8-0.5,4.3
	c-0.1,0.7,0,1.4-0.1,2.1c-0.2,2.1-0.3,4.1-0.1,6.2c0.2,1.9,0.2,3.7,0.2,5.6c0.1,2.9,0.5,5.8,1.2,8.6c0.5,1.8,0.8,3.7,1.3,5.6
	c0.1,0.4,0.1,0.9,0.1,1.4s0.3,0.8,0.7,0.7c1.5-0.2,2.4,0.9,3.4,2c0.4,0.5,0.6,1.4,0.8,2.2c0.1,0.7-0.3,1.3-0.9,1.6
	c-0.5,0.3-1.1,0.5-1.7,0.7c-0.8,0.3-1.3,0-1.9-0.6C779.2,361.9,778.7,361.5,778.3,361.1z M774.1,159.4c0.7-0.1,1.2-0.3,1.6-0.3
	c0.9,0,1.7-0.9,2.6-0.6c1.1-0.6,2.1-1.3,3.2-1.9c0.8-0.5,1.7-1.2,2.5-1.5c1.8-0.7,3.1-2.2,4.5-3.4c1.8-1.7,3.5-3.7,5-5.9
	c0.4-0.6,0.8-1.2,1.2-1.8c0.5-0.8,1.2-1.5,1.6-2.4c0.8-1.8,1.5-3.7,1.6-5.8c0.1-1.2-0.2-2.3-0.7-3.3c-0.3-0.6-0.8-0.9-1.3-0.9
	s-1.2,0-1.7,0c-2.4,0.3-4.5,1.5-6.6,2.9c-0.2,0.1-0.3,0.2-0.3,0.4c-1,1.2-2,2.3-3,3.5c-0.3,0.3-0.6,0.7-0.9,1
	c-1.6,1.4-2.9,3.2-4,5.2c-0.3,0.6-0.6,1.2-0.9,1.7c-1,1.6-1.8,3.4-2.4,5.3c-0.7,2-1.1,4-1.7,6C774.5,158.1,774.4,158.6,774.1,159.4z
	 M741.2,147.9c0.8-0.2,1.6-0.5,2.4-0.5c0.8-0.1,1.5-0.4,2.2-0.8c1-0.6,2.1-1.3,3.1-2c0.7-0.5,1.3-0.9,1.8-1.6
	c1.1-1.4,2.2-2.9,3.1-4.4c1.2-1.8,2.2-3.7,2.1-6.2c0-1.7,0-3.4-0.3-5.1c-0.2-1-0.4-1.8-1.3-2.3c-0.2-0.1-0.3-0.4-0.5-0.6
	c-1.1-1.3-2.4-2.4-4-2.9c-0.9-0.3-1.8-0.2-2.5,0.5c-0.5,0.5-1,0.9-1.5,1.3c-1,0.8-1.6,1.9-2,3.2c-0.7,2.2-1.1,4.5-1.3,6.8
	c-0.1,0.7-0.3,1.4-0.3,2.1c-0.3,1.9-0.4,3.7-0.8,5.6c-0.3,2-0.4,4-0.4,6.1C741.1,147.3,741.2,147.6,741.2,147.9z M768.7,236.7
	c1.1,0.1,1.6-0.2,2.4-1c0.5-0.5,1-1,1.6-1.5c1.3-1.2,2.3-2.7,2.9-4.6c0.3-1,0.7-2.1,1.2-3.1c0.4-0.9,0.6-1.6-0.2-2.3
	c-0.1-0.1-0.1-0.2-0.2-0.3c-0.4-1.5-1.4-2.3-2.4-3.3c-0.4-0.5-1-0.8-1.5-1.1c-1.3-0.6-2.6-0.9-4-1c-1.2-0.1-2.3,0.1-3.4,0.6
	c-0.8,0.4-1.6,0.8-2.4,1.3c-1.6,1.1-2.7,2.7-3,5c-0.1,0.3-0.1,0.6-0.1,0.9c-0.3,1.7,0.1,3.4,0.7,5c0.1,0.3,0.3,0.5,0.5,0.7
	c0.4,0.5,0.8,1,1.3,1.5c0.7,0.6,1.3,1.3,2,1.8C765.6,236.2,767.1,236.8,768.7,236.7z M786.2,184c0.7,0.2,1.3,0.4,1.8,0.5
	c1,0.2,2,0.4,3,0.4c0.9,0,1.9-0.1,2.9-0.3c1.1-0.2,2.2-0.5,3.3-0.8c0.5-0.1,1.1-0.3,1.6-0.5c0.7-0.3,1.3-0.6,2-1
	c0.5-0.3,0.9-0.8,1.4-1.2c1.3-1.1,1.8-2.6,1.9-4.5c0-0.5-0.1-1.1,0-1.6c0.1-0.7-0.1-1.2-0.5-1.6c-0.3-0.3-0.4-0.6-0.7-0.8
	c-1.8-2-3.3-2.3-5.3-1.4c-0.7,0.3-1.3,0.6-2,0.9c-0.9,0.4-1.8,0.8-2.7,1.4c-2.1,1.4-3.8,3.4-5,5.9
	C787.1,180.8,786.5,182.3,786.2,184z M723.4,144.3c0.6-1.5,1.3-3,1.8-4.5c0.8-2.3,1.3-4.6,1.7-7c0.4-2.6,0.8-5.2-0.4-7.7
	c-0.3-0.6-0.5-1.2-0.8-1.8c-0.6-1.1-1.4-1.2-2.2-0.8c-1.6,0.8-2.4,2.3-3,4.1c-0.2,0.6-0.3,1.3-0.4,2c-0.8,2.6-1,5.3-0.7,8
	c0.1,0.9,0,1.9,0.4,2.8c0.8,1.9,1.9,3.4,3.3,4.7C723,144.2,723.2,144.2,723.4,144.3z M673.9,152.5
	C673.9,152.5,673.8,152.5,673.9,152.5c-0.1-0.5,0-1.1-0.2-1.5c-0.5-1.4-0.9-2.8-1.3-4.3c-0.3-1.1-1.2-2-1.9-2
	c-0.8,0.1-1.4,0.7-1.8,1.7c-0.7,1.5-0.9,3.1-1.3,4.6c-0.5,2.5,0.1,4.8,1.1,6.9c0.2,0.3,0.4,0.6,0.6,0.9c0.6,1.1,1.2,1.3,2,0.6
	c1-0.7,1.7-1.7,1.9-3.1C673.5,155.1,673.7,153.8,673.9,152.5z M604.4,148.1c0,0.4,0,0.8,0.1,1c0.5,1.4,1.3,2.6,2.2,3.6
	c0.3,0.4,0.8,0.5,1.3,0.2c0.5-0.4,1.1-0.7,1.5-1.2c0.7-0.8,1-2.9,0.1-3.8c-0.9-1-1.7-2.1-3.1-2.2c-1.1-0.1-1.8,0.3-1.9,1.5
	C604.5,147.6,604.5,147.9,604.4,148.1z M777.6,287.4c-0.4-0.7,0-1.6-0.4-2.4c-0.7-1.5-1.8-2.4-2.9-3.5c-0.2-0.2-0.5-0.2-0.7-0.1
	c-1.3,0.2-2.2,2.5-1.4,3.7c0.6,1,1.3,1.9,2.3,2.5C775.4,288.2,776.4,288.4,777.6,287.4z M779.4,314.1c0.1,0.2,0.1,0.3,0.2,0.3
	c0.1,0.1,0.2,0.2,0.3,0.2c1,0.6,2,0.5,3,0c0.8-0.3,0.9-1.9,0.3-2.5c-0.5-0.5-2.3-0.5-2.7,0.1C780.1,312.9,779.8,313.6,779.4,314.1z
	 M571.6,157.6c-0.1,0.1-0.3,0.1-0.3,0.2c-0.3,0.7-0.7,1.4-0.9,2.2c-0.2,0.6,0.3,0.9,0.6,1.3c0.3,0.6,0.8,0.6,1.3,0
	c0.2-0.3,0.3-0.7,0.5-1.1c0.3-0.9,0-2.1-0.7-2.5C571.8,157.7,571.8,157.7,571.6,157.6z M587.4,150.6c0.9-1.6,0.7-3.6-0.7-4
	c-0.2,0.3-0.6,0.6-0.5,0.8C586.3,148.6,586.3,149.9,587.4,150.6z M780.3,359.4c0.1,0.2,0.1,0.5,0.2,0.6c0.3,0.4,1.6,1.1,2,1
	c0.2,0,0.3-0.2,0.3-0.3c0.3-0.7-0.1-1.6-0.8-1.8C781.4,358.7,780.8,358.9,780.3,359.4z"/>
</svg>
