<?xml version="1.0" encoding="utf-8"?>
<!-- Generator: Adobe Illustrator 19.1.0, SVG Export Plug-In . SVG Version: 6.00 Build 0)  -->
<svg version="1.1" id="Layer_1" xmlns="http://www.w3.org/2000/svg" xmlns:xlink="http://www.w3.org/1999/xlink" x="0px" y="0px"
	 viewBox="20 -100 800 800" style="enable-background:new 20 -100 800 800;" xml:space="preserve">
<path d="M65.8,94.5c-1.4,0.8-2.6,1.7-3.9,2.5c-0.6,0.4-1.4,0.6-2.2,1c-0.3,0.1-0.6,0.3-0.9,0.4c-0.2,0.1-0.4,0.2-0.5,0.2
	c-0.8,0.1-1.7,0.2-2.5,0.2c-1.1-0.1-2.2,0.2-3.2-0.2c-1.1-0.3-2.2-0.6-3.2-0.9c-1.5-0.4-2.8-1.1-4.2-1.7c-1-0.5-1.9-1.1-2.8-1.8
	c-0.4-0.3-0.7-0.6-1.1-0.9c-0.2-0.2-0.5-0.4-0.5-0.6c-0.5-0.7-0.9-1.5-1.3-2.3c-0.4-1-0.6-2.1-0.8-3.2c-0.1-0.7-0.2-1.6-0.1-2.3
	c0.1-0.7,0.4-1.4,0.5-2c0.2-0.6,0.4-1.4,0.7-2c0.5-0.8,1-1.6,1.8-2.1c0.5-0.4,1-0.9,1.5-1.3c0.6-0.5,1.4-1,2.1-1.3
	c1.6-0.6,3.3-1.2,5-1.8c0.1,0,0.2-0.1,0.3-0.1c2.1,0,4.2-0.6,6.3-0.2c0.4,0.1,0.8,0,1.3,0c0.6,0.1,1.4,0.2,2,0.4s1.4,0.3,1.7,0.9
	c0,0.1,0.2,0.1,0.3,0.1c1.4,0.5,2.3,1.7,3.1,2.9c0.1,0.2,0.3,0.4,0.4,0.6c1.4,1.5,2.3,3.2,2.7,5.2c0.1,0.4,0.3,0.7,0.5,1.1
	c0.1,0,0.2,0,0.3,0c0.2-0.7,0.4-1.4,0.4-2.1c0-1.2-0.2-2.4-0.2-3.6c-0.1-0.8-0.1-1.7-0.1-2.5c0-1.1-0.5-2.2-0.6-3.3
	c-0.2-1.3-1-2.5-1.4-3.7c-0.1-0.3-0.3-0.5-0.5-0.6c-0.5-0.5-0.8-1-0.9-1.7c-0.1-0.8-0.5-1.5-0.8-2.1c-0.8-1.4-1.4-2.9-2.1-4.3
	c-0.3-0.7-0.7-1.5-1.2-2.1c-1.5-2.1-2.5-4.5-3.6-6.8c-0.5-1.1-1.2-2.1-1.4-3.4c-0.1-0.3-0.2-0.6-0.4-0.7c-1.2-1.8-1.9-3.6-2.5-5.6
	c0-0.1,0-0.2-0.1-0.3c-0.6-1.1-0.7-2.3-1-3.5c-0.1-0.4-0.1-0.8-0.3-1.1c-0.9-1.3-0.5-2.8-0.5-4.2c0-0.6,0-1.2,0.1-1.8
	c0.1-0.6,0.3-1.2,0.4-1.8c0.1-0.4,0.2-0.8,0.2-1.2c0-0.8,0-1.6,0.5-2.3c0.4-0.6,0.1-1.3-0.6-1.9c-1-0.7-2-1.5-2.9-2.2
	c-0.9-0.6-1.8-1.3-2.5-2.2c-0.4-0.5-0.9-0.9-1.4-1.3c-1.8-1.5-3.1-3.3-4-5.4c-0.6-1.4-1.4-2.7-2.2-4.1c-0.4-0.8-0.6-1.8-0.9-2.7
	c-0.1-0.4-0.2-0.8-0.4-1.3C38,4.7,38,4.4,38,3.9c0-0.9-0.1-1.8-0.4-2.8c-0.5-1.3-0.3-2.5-0.2-3.8c0.1-1.3,0.3-2.5,0.5-3.8
	c0.1-0.5,0.2-1,0.3-1.5c0.3-1.1,0.5-2.3,0.8-3.4c0.1-0.6,0.3-1.1,0.4-1.8c0.2-0.6,0.4-1.3,0.5-1.9s0.4-1.2,0.5-1.8
	c0.3-1.6,0.9-3,1.5-4.4c0.2-0.4,0.3-0.6,0.4-1c0.1-0.4,0.2-0.8-0.4-1c-0.1-0.1-0.3-0.2-0.3-0.4c-0.1-0.9-0.9-1.7-1.2-2.5
	c-0.4-0.9-0.6-1.8-1-2.8c-0.2-0.6-0.3-1.1-0.4-1.7c-0.3-1.2,0-2.3,0-3.5c0.1-1.1,0.2-2.2,0.2-3.4c0-0.1,0-0.2,0.1-0.3
	c0.5-1.3,0.9-2.6,1.4-3.8c0.1-0.4,0.3-0.7,0.3-1.1c0.1-1.2,0.6-2.2,1.1-3.3c0.3-0.6,0.5-1.2,0.7-1.8c0.4-0.9,0.8-1.8,1.3-2.8
	c0.4-0.6,0.7-1.3,1.2-1.9s0.5-0.6-0.2-1.2c-1.2-0.8-2.1-1.8-3-3c-1.8-2-3.3-4.3-4.9-6.6c-0.8-1.2-1.5-2.4-1.9-3.9
	c-0.1-0.5-0.4-0.8-0.5-1.3c-0.7-1.2-0.8-2.5-1.1-3.8c-0.3-1-0.5-2-0.5-3.1c-0.1-0.7,0.1-1.4,0.2-2.1c0.3-1.1,0.5-2.3,0.8-3.4
	c0.4-1.1,0.8-2.2,1.7-3c0.4-0.3,0.6-0.8,0.9-1.3s0.5-0.9,1-1.3c0.5-0.3,0.9-0.7,1.3-1.2c0.5-0.7,1.4-0.7,2.2-1.1
	c0.3-0.1,0.6-0.1,0.9-0.3c1.2-0.6,2.3-0.5,3.6-0.6c1-0.1,2,0,2.9,0c1.2,0.1,2.2,0.6,3.2,1.1c0.5,0.3,0.8,0.6,1.2,0.9
	c0.7,0.6,1.5,1.1,2.3,1.7c0.9,0.6,1.4,1.6,2,2.5c0.8,1.3,1.4,2.7,1.9,4.2c0.4,1.1,0.7,2.2,0.7,3.4c0,0.9,0.1,1.9,0.2,2.9
	c0.3,1.7-0.3,3.2-0.4,4.9c-0.1,1.2-0.5,2.3-0.8,3.5c-0.1,0.4-0.2,0.7-0.3,1.1c-0.2,1.2-0.7,2.1-1.2,3.2c-0.6,1.4-1.1,2.9-1.4,4.3
	c-0.1,0.3-0.2,0.5-0.4,0.6c-0.2,0.4-0.4,0.7-0.5,1.1c0.7,0.6,1.4,0.7,2.3,1c1.2,0.4,2.3,0.6,3.3,1.3c0.6,0.4,1.3,0.5,2,0.6
	c2,0.5,4,0.9,6,1.3c1.3,0.3,2.6,0.3,4,0.2c1.2,0,2.4,0.2,3.6,0.1c1.7-0.1,3.4-0.1,5-0.7c0.7-0.3,1.5-0.6,2.3-1
	c0.2-0.1,0.3-0.4,0.3-0.6c0-0.3,0-0.6-0.1-0.9c-0.5-1.1-1-2.2-1.4-3.3c-0.2-0.5-0.5-1-0.5-1.6c-0.4-1.3-0.6-2.7-0.9-4
	c-0.1-0.6-0.1-1.4-0.1-2c0-2.3,0.3-4.6,0.6-6.9c0.2-0.9,0.2-1.9,0.7-2.8c0.1-0.1,0.1-0.3,0.1-0.5c0-0.8,0.5-1.5,0.9-2
	c0.2-0.3,0.5-0.6,0.6-0.8c0.4-0.7,0.9-1.4,1.6-1.8c1-0.6,2-1.3,2.9-1.8c0.2-0.1,0.4-0.2,0.5-0.2c0.9-0.1,1.7-0.5,2.5-0.8
	c1.8-0.9,3.8-0.8,5.7-0.4c1.4,0.3,2.6,1,3.7,1.8c0.7,0.6,1.4,1,2,1.7c0.5,0.5,0.8,1.1,1.1,1.7c0.6,1.3,1.4,2.7,1.9,4.1
	c0.4,0.8,0.4,1.8,0.5,2.8c0.1,1.4,0.2,2.9,0.3,4.2c0,0.1,0,0.1,0,0.2c-0.1,1.8-0.1,3.6-0.7,5.4c-0.4,0.9-0.6,1.9-1,2.9
	c-0.3,0.6-0.8,1.1-1.3,1.7c-0.5,0.6-1.1,1.2-1.5,1.8c-0.1,0.1-0.1,0.3-0.3,0.3c-0.9,0.4-1.4,1.2-2.2,1.7c-0.4,0.2-0.7,0.4-1,0.6
	c-2.2,1.1-4.4,1.9-6.9,2.1c-0.2,0-0.5,0.1-0.7,0.2c0.1,0.5,0.4,0.7,0.6,1c0.5,0.5,0.9,0.8,1.3,1.3c0.5,0.6,1.3,1,2,1.3
	c1.5,0.6,3.1,1.3,4.5,1.8c1,0.4,2.1,0.8,3.1,1.1c1.4,0.5,2.7,0.7,4.1,1.1c0.6,0.2,1.2,0.4,1.8,0.5c2.7,0.6,5.2-0.2,7.8-0.8
	c0.6-0.2,1.3-0.3,1.8-0.6c1.3-0.5,2.5-0.8,3.7-1.4c1.2-0.6,2.3-1.3,3.3-2c0.8-0.6,1.5-1.2,2.3-1.8c1.3-1.3,2.3-2.6,3.4-4
	c0.6-0.8,1.2-1.8,2.1-2.6c0.5-0.4,0.8-0.9,1.3-1.4c1.2-1.4,2.3-2.7,3.7-3.9c0.8-0.7,1.8-1.4,2.3-2.3c0.5-0.8,1.3-1.4,1.8-2.1
	c0.2-0.3,0.5-0.4,0.7-0.6c1.4-1.3,3-2.5,4.5-3.6c0.6-0.5,1.2-1.1,1.8-1.6c0.8-0.6,1.7-1.2,2.6-1.8c2.6-1.7,5.4-3,8.2-4.3
	c1-0.5,2.1-0.9,3.1-1.3c1.3-0.6,2.4-1,3.7-1.6c0.4-0.2,0.8-0.2,1.2-0.3c0.7-0.1,1.4-0.3,2.3-0.4c0.5-0.1,1.1-0.1,1.7-0.2
	c0.2,0,0.5,0,0.6,0c0.9-0.4,1.8-0.2,2.8,0c0.1,0,0.3,0,0.4,0c2.3-0.1,4.5,0.6,6.8,0.9c1.7,0.3,3.3,0.6,5,1.2
	c1.3,0.5,2.6,0.9,3.8,1.7c1.3,0.8,2.6,1.4,4,2.1c0.4,0.2,0.7,0.6,1.2,0.7c1.1,0.6,1.8,0.7,3,0.2c1-0.6,2.2-0.9,3.2-1.3
	c0.3-0.1,0.5-0.2,0.7-0.4c0.5-0.4,0.9-0.4,1.4-0.5c0.8-0.1,1.5-0.4,2.3-0.6c0.7-0.2,1.4-0.6,2.1-0.6c2.4-0.3,4.9-0.5,7.3-0.1
	c0.4,0.1,0.6,0,1,0c1.2,0.1,2.2,0.5,3.2,0.8c0.9,0.3,1.7,0.5,2.6,0.8c0.5,0.2,1.1,0.5,1.5,0.7c0.8,0.6,1.7,1.1,2.7,1.4
	c0.3,0.1,0.5,0.2,0.8,0.4c1.1,0.6,2.2,1.2,3.3,1.6c0.5,0.2,1.1,0.6,1.6,1c0.6,0.3,1.3,0.6,1.9,0.8c0.1,0,0.3,0,0.4,0.1
	c0.6,0.7,1.6,1.1,2.4,1.6c1.6,0.7,3.2,1.6,5,1.6c0.6,0,1.3,0.3,2,0.5c0.6,0.2,1.3,0.4,2,0.1c0.2-0.1,0.4,0,0.5,0
	c1.6,0.3,3.2,0,4.7-0.6c0.4-0.2,0.8-0.2,1.1-0.6c0-0.5-0.4-0.6-0.6-0.6c-1.8-0.6-3.2-1.8-4.2-3.4c-0.5-0.6-0.5-1.4-0.7-2
	s-0.2-1.4-0.3-2c-0.3-1.7,1.1-3.8,2.6-4.2c0.3-0.1,0.6-0.1,0.9-0.1c0.5,0,0.8,0,1.3,0c0.1,0,0.2,0,0.3,0c0.9,0.3,1.8,0.4,2.7,0.7
	c1.4,0.6,2.3,1.7,3.2,2.8c0.4,0.6,0.7,1,0.7,1.8c0,0.6,0.1,1,0.2,1.6c0.2,1.2-0.1,2.3-0.5,3.6c0.4,0.1,0.7,0.2,1.1,0.2
	c0.6,0,1.4,0,2-0.1c0.5,0,0.9-0.2,1.4-0.1c0.5,0.1,1-0.1,1.5-0.3c0.8-0.3,1.5-0.6,2.3-0.9c1-0.4,2-0.6,2.8-1.3
	c0.4-0.3,0.7-0.6,1.2-0.8c-0.2-0.3-0.2-0.5-0.4-0.6c-0.7-1-1.2-2.2-1.4-3.4c-0.3-0.9,0-1.7,0.7-2.3c0.5-0.5,1.2-0.8,1.9-1.1
	c0.6-0.2,1.2-0.2,1.7,0.3c1.1,0.8,1.5,1.8,1.5,3.2c0,0.2,0,0.5,0,0.6c0,1.3-0.1,2.6-0.9,3.8c0.4,0.2,0.6,0.3,0.9,0.4
	c1.9,0.6,3.9,0.6,5.9,0.4c1.4-0.2,2.8-0.2,4.2,0.2c0.6,0.2,1.2,0.1,1.7-0.4c0.4-0.3,0.9-0.4,1.4-0.6c0.5-0.1,0.8-0.2,1.2-0.5
	c0.2-0.2,0.5-0.3,0.8-0.3c0.9-0.1,1.9-0.1,2.8-0.2c0.3,0,0.5-0.1,0.8-0.1c0.3,0,0.5,0,0.8-0.1h0.1c1.2,0.1,2.3,0.2,3.5,0.3
	c0.5,0,0.7,0.1,1.4,0.6c-0.4,0.1-0.7,0.2-1,0.2c-0.5,0-0.9,0-1.4,0c-2,0-4,0.1-5.9,0.2c-1.3,0-2.3,0.7-3.4,1.5
	c0.4,0.2,0.5,0.3,0.7,0.4c0.6,0.3,1,0.6,1,1.3s0.2,1.4-0.6,1.8c-0.4,0.2-0.6,0.4-1,0.6c-0.8,0.5-1.7,0-2.2-0.6
	c-0.2-0.3-0.4-0.5-0.3-0.8c0-0.6,0-1.4,0-2.1c-0.5-0.1-0.9-0.3-1.4-0.3c-1.4,0-2.8-0.2-4.1,0.1c-1.7,0.3-3.4,0.1-5-0.5
	c-1.2-0.4-1.8-0.2-2.5,0.7c-0.5,0.8-1.4,1.3-2.3,1.6c-0.5,0.2-1.1,0.6-1.6,0.8c-0.5,0.3-1.1,0.5-1.6,0.6c-1.4,0.6-2.9,0.6-4.3,0.9
	c-0.7,0.1-1.5-0.1-2.3-0.1c-0.5,0-0.8,0-1.3-0.1c-0.4,0-0.6-0.1-1-0.1s-0.6-0.1-1-0.1c-1-0.2-1.4,0.5-1.8,1.2
	c-0.4,0.7-0.8,1.5-1.6,1.8c-0.4,0.1-0.5,0.5-0.9,0.6c-3.1,1.7-6.4,1.8-9.8,1.5c-0.5-0.1-1-0.3-1.4-0.5c-2.6-0.7-5-2-7.1-3.8
	c-1.5-1.2-3.2-2.3-5-3.2c-1.1-0.5-2-1.2-2.8-2c-0.4-0.4-0.8-0.6-1.4-0.7c-1.5-0.4-2.8-1.2-4.1-2c-0.5-0.3-1.1-0.6-1.7-0.6
	c-1.3-0.1-2.5-0.2-3.7,0.2c-0.2,0.1-0.5,0.1-0.6,0.1c-2.1,0-3.9,0.8-5.8,1.6c-1.5,0.6-2.8,1.5-4.1,2.3c-0.3,0.2-0.5,0.4-0.9,0.6
	c0.2,0.2,0.3,0.4,0.5,0.6c0.3,0.3,0.6,0.4,0.9,0.6c1.1,1,2.2,2.1,3.1,3.3c1,1.3,1.6,2.8,2.4,4.2c0.2,0.4,0.3,0.9,0.4,1.4
	c0.1,1.3,0.3,2.7,0.3,4c0,0.8-0.2,1.7-0.5,2.4c-0.6,1.4-1.4,2.7-2.6,3.8c-1.1,1.1-2.4,1.9-3.6,3c-1.1,0.9-2.3,1.3-3.6,1.8
	c-1.1,0.5-2.3,0.6-3.4,0.9c-2.5,0.5-5,0.6-7.6,0.4c-1.2-0.1-2.3-0.5-3.4-1.1c-0.9-0.6-1.7-1.1-2.6-1.7c-0.9-0.6-1.4-1.5-1.9-2.4
	c-0.5-0.8-0.8-1.8-1.1-2.8c-0.2-0.5-0.1-1-0.1-1.5c0.2-1.6,0.5-3,1.1-4.5c0.3-0.7,0.6-1.4,1-2c0-0.1,0.1-0.2,0.2-0.3
	c0.6-1.7,1.8-3,2.8-4.5c0.5-0.7,1-1.5,1.6-2.1c0.4-0.4,0.8-0.7,1.4-1.1c-0.3,0-0.5-0.1-0.6-0.1c-1.1,0.1-2.3,0.3-3.3,0.4
	c-0.4,0-0.7,0.1-1.1,0.1c-1.7,0-3.3,0.7-5.1,0.6c-0.1,0-0.1,0-0.2,0c-1.3,0.6-2.7,0.4-4.1,0.8c-1.1,0.4-2.3,0.5-3.3,0.7
	c-0.8,0.2-1.6,0.4-2.3,0.6c-1.7,0.6-3.5,1.1-5.2,1.8c-1.5,0.6-3,1.5-4.3,2.3c-1.3,0.7-2.5,1.5-3.8,2.3c-1.2,0.8-2.3,1.7-3.5,2.5
	c-1.4,0.9-2.7,1.8-4,2.8c-1.3,0.9-2.5,1.7-3.9,2.5c-1.4,0.8-2.6,1.8-3.9,2.5c-1,0.6-2,1-3.1,1.5c-2.5,1.1-5,2.1-7.7,3.1
	c-2.2,0.8-4.2,1.6-6.5,2.2c-2,0.6-4,1.1-5.9,1.6c-0.9,0.2-1.9,0.2-2.9,0.4c-1,0.1-2,0.2-3,0.4c-0.3,0-0.5,0.1-0.7,0
	c-1.4-0.2-3,0.1-4.4-0.4c-0.1,0-0.2,0-0.3,0c-1.3,0.1-2.3-0.4-3.5-0.7c-0.7-0.3-1.4-0.7-2.3-1c-0.9-0.4-1.8-0.6-2.8-0.9
	c-1.2-0.3-2.3-1-3.3-1.5c-0.1,0-0.2-0.1-0.2-0.2c-0.7-0.9-1.7-1.3-2.7-1.9c-0.6-0.5-1.2-1.1-1.7-1.7c-0.2-0.2-0.4-0.4-0.5-0.6
	c-0.5-0.6-1-1.4-1.5-2c-0.5-0.7-0.7-0.7-1.5-0.5c-2.2,0.8-4.3,1.6-6.6,2c-1.2,0.3-2.3,0.5-3.5,0.6c-1.6,0.1-3.2,0-4.8,0
	c-0.5,0-1,0-1.4,0c-1.7-0.1-3.5-0.1-5.2-0.4c-3.2-0.6-6.5-1.3-9.5-2.8c-0.4-0.2-0.7-0.3-1-0.4c-0.2,0-0.3,0-0.5,0
	c-0.2,0.6-0.4,1.1-0.5,1.7c-0.1,0.2-0.1,0.5-0.2,0.6c-0.4,1.2-0.9,2.4-1.1,3.6c-0.3,1.3-0.3,2.7-0.5,4.1c0,0.3-0.1,0.5-0.1,0.7
	c-0.1,1.6-0.3,3.1-0.4,4.7c0,0.5,0.1,0.9,0.2,1.5c1.3-0.4,2.4-0.7,3.6-1c0.8-0.2,1.7-0.3,2.6-0.5c0.7-0.1,1.4-0.3,2.1-0.4
	c0.5-0.1,1-0.1,1.5-0.2c0.6,0,1.2,0,1.8-0.2c0.5-0.2,1-0.3,1.4-0.2c1.1,0.2,2.2-0.2,3.2-0.4c2.7-0.5,5.4-0.6,8.1,0
	c1.6,0.3,3.3,0.7,5,1.1c0.5,0.1,1.2,0.2,1.7,0.3c1.4,0.3,2.9,0.6,4.1,1.5c0.5,0.4,1.3,0.5,1.8,0.7c1.6,0.8,3.2,1.8,4.4,3
	c0.4,0.4,0.6,0.7,0.8,1.2c0.6,1.1,1.4,2.1,1.9,3.2c0.5,1.2,1,2.4,0.9,3.8c-0.1,1,0.2,2.1-0.2,3.1c-0.1,0.3-0.1,0.6-0.2,0.7
	c-0.5,0.6-0.7,1.3-0.9,2.1c0,0.1,0,0.1-0.1,0.2c-0.6,1-1.2,2.1-2,3c-0.8,0.8-1.9,1.4-2.8,2c-0.5,0.3-0.9,0.6-1.4,0.8
	c-0.8,0.5-1.5,1-2.4,1.2c-0.9,0.2-1.7,0.6-2.6,1c-0.3,0.1-0.6,0.2-1,0.2c-0.7,0.1-1.4,0.2-2.2,0.2c-1.6,0.1-3.3,0.3-5,0.1
	c-1.1-0.2-2.3,0-3.3-0.1C69.8-5.6,68-6,66.3-6.7c-0.2-0.1-0.4-0.2-0.5-0.2c-2.3-0.4-4.2-1.3-6.1-2.4c-1.3-0.7-2.6-1.3-3.9-2.1
	c-0.8-0.5-1.5-0.9-2.3-1.4c-0.3-0.2-0.5-0.5-0.6-0.7c-0.4-0.6-0.4-0.6-1.2-0.8c-0.1,0.4-0.2,0.7-0.4,1.1c-0.7,1.6-0.8,3.2-1.1,4.9
	C50-7,49.8-5.6,49.8-4.2c0,2.1,0.1,4.2,0.2,6.3c0.1,1.6,0.5,3,0.7,4.6c0.4,2.3,1.4,4.2,2.2,6.4c0.5,1.2,1.2,2.2,1.9,3.2
	c0.1,0.2,0.3,0.3,0.5,0.5c0.4-0.8,0.5-1.5,0.9-2.2c0.6-1.2,1.3-2.4,1.9-3.6c0-0.1,0.1-0.1,0.1-0.1c1.4-0.6,2.1-1.9,3.2-2.7
	c0.2-0.1,0.4-0.3,0.5-0.4c1.2-0.5,2.3-1.2,3.3-1.8c0.5-0.3,1.3-0.5,1.9-0.6c2.2-0.6,4.4-1.2,6.8-1.5c1.1-0.1,2.3-0.3,3.3-0.3
	c0.7,0,1.4,0.2,2.2,0.4c0.7,0.1,1.5,0.2,2.3,0.4c1.3,0.3,2.5,0.6,3.8,0.9c0.7,0.2,1.4,0.3,2.3,0.5c1.6,0.4,3.2,1,4.6,1.8
	c0.2,0.1,0.4,0.3,0.6,0.5c0.6,0.6,1.4,1,2,1.6c0.1,0.1,0.2,0.1,0.3,0.2c0.5,0.6,1.1,1.2,1.5,1.8c1.6,2,2.4,4.4,2.6,7.1
	c0.1,1.4,0.3,2.7,0,4.1c-0.5,2.3-1.1,4.5-2.1,6.6c-0.7,1.6-1.7,3-3.2,4.2c-0.6,0.5-1.3,0.9-2,1.3c-0.9,0.4-1.7,0.9-2.5,1.4
	c-1.5,0.9-3.2,1.3-5,1.6c-0.7,0.1-1.4,0.1-2.1,0.1c-0.6,0-1.4-0.1-2-0.1c-2.1-0.1-4.1-0.3-6-1c-0.1,0-0.1-0.1-0.2-0.1
	c-1.4,0-2.5-0.9-3.8-1.4c-0.7-0.3-1.4-0.6-2.1-0.8c-1.3-0.6-2.5-1.3-3.8-1.9c-0.5-0.3-1.1-0.6-1.6-1c-1.3-0.8-2.4-1.7-3.7-2.4
	c-0.4-0.3-0.9-0.4-1.4-0.6C58,29.3,58,30,58,30.8c0.2,1.8,0.5,3.8,1.3,5.5c0.6,1.4,1.3,3,2.6,3.9c0.2,0.1,0.4,0.3,0.5,0.6
	c0.5,0.7,1,1.5,1.5,2.1c0.2,0.3,0.4,0.5,0.6,0.6c2.2,1.8,4.1,3.9,6,5.9c0.5,0.5,1,0.9,1.4,1.5c0.6,0.7,1.2,1.5,1.7,2.3
	s1.2,1.6,1.7,2.3c1.1,1.3,2.1,2.7,2.7,4.2c0.5,1.2,1,2.3,1.4,3.5c0.4,1.2,0.5,2.6,0.6,3.8c0.1,0.6,0.1,1.2,0.2,1.8
	c0.2,2.1,0,4.2-0.5,6.4c-0.2,0.7-0.1,1.5-0.4,2.1c-0.7,2.2-2,4.2-3.2,6.3c-0.6,1.1-1.4,2.1-1.8,3.3c-0.6,1.3-1.4,2.3-2.5,3.2
	c-0.5,0.4-0.5,0.7-0.4,1.3c0.4,1.4,0.5,2.8,0.4,4.2c-0.1,1.8-0.4,3.3-0.9,5c-0.3,1-0.3,2.1-0.4,3.1c-0.1,0.6-0.2,1.4-0.3,2
	c-0.4,1.6-0.6,3.2-1,4.8c-0.1,0.4-0.3,0.6-0.4,1c-0.3,1.1-0.5,2.2-0.9,3.3c-0.5,1.4-0.8,2.8-1.4,4.2c-0.5,1.1-0.5,2.3-0.5,3.4
	c0.7,0,1.3-0.1,1.9,0c1.4,0.1,2.6,0.5,3.6,1.6c0.9,0.9,1.5,1.9,1.8,3.2c0.2,1-0.6,2.5-1.4,3c-1.4,0.7-2.6,0.6-4,0.1
	c-1.1-0.4-2.2-0.8-2.9-1.8c-0.8,0.8-1.2,3.3-0.7,4.9c0.2,0,0.3,0,0.5,0c1.2-0.6,2.3-0.5,3.3,0.1c0.7,0.4,1.4,0.9,1.8,1.6
	c0.7,1,0.5,2.4-0.6,3.2c-0.2,0.1-0.5,0.2-0.7,0.2c-1,0-1.9-0.2-2.7-0.8c-0.6-0.5-1.4-0.8-2.2-1.2c-0.8,1.1-1.6,2.1-2.3,3.2
	c-0.7,1.2-0.6,2.5-0.1,3.7c0.4,0.7,0.5,1.8,1.1,2.3c1.1,0.8,1.8,2.1,3.2,2.6c0.3,0.1,0.5,0.3,0.4,0.6c-0.1,0.2-0.5,0.5-0.6,0.4
	c-0.9-0.4-2-0.3-2.6-1.1c-0.1-0.1-0.2-0.3-0.4-0.3c-1.1-0.6-1.4-1.6-2-2.6c-0.7-1.6-0.8-3.1-0.8-4.8c0.1-1.8,0.8-3.3,2-4.5
	c0.9-0.9,1.4-1.8,0.9-3c-0.4-0.8-0.4-1.8-0.5-2.8c-0.2-1,0.1-2,0.5-3c0.2-0.6,0.6-1.1,0.8-1.8c0.1-0.3,0.2-0.6,0.1-0.9
	c-0.1-0.5-0.1-0.9,0-1.4c0.1-1,0.2-2,0.2-3s0-2,0.2-3c0.4-1.5,0.6-3,0.9-4.5c0.2-1.4,0.3-2.8,0.5-4.2c0.1-1,0.3-1.9,0.3-3
	c0.1-1.6,0.5-3.1,0.5-4.8c0.1-1.3,0-2.5,0-3.8c0.1-0.8,0.2-1.6,0.2-2.4C65.8,94.9,65.8,94.8,65.8,94.5z M73-8.6
	c1.7-0.1,3.4-0.2,5.1-0.5c1.4-0.2,2.6-0.6,3.9-0.9c1-0.3,1.9-0.8,2.8-1.4c1.4-0.8,2.3-2,3.2-3.3c0.2-0.4,0.3-0.8,0.3-1.3
	c0-0.7-0.2-1.5-0.1-2.2c0.1-1.2-0.5-2.2-1.2-3.1c-0.7-1.1-1.6-2-2.5-3c-0.5-0.5-0.9-1-1.4-1.4c-1.7-1.2-3.5-2-5.4-2.8
	c-2.3-0.9-4.7-1.2-7.1-1.4c-0.5,0-1.1,0-1.6,0c-1.8,0.2-3.6,0.7-5.4,1.3c-2.5,0.6-4.7,1.9-6.6,3.8c-1.1,1-2,2.1-3,3.2
	c-0.3,0.3-0.2,0.6,0,0.8c0.7,1,1.4,2,2.1,3c0.6,0.8,1.4,1.5,2.3,2.1c1.3,1.1,2.5,2.1,3.7,3.2c1.4,1.3,3.1,2.3,5,2.9
	c0.3,0.1,0.6,0.1,0.9,0.2C69.5-8.8,71.2-8.5,73-8.6z M91.9,23.9c0-0.4,0.1-0.9-0.1-1.4c-0.8-1.8-2-3.3-3.4-4.6
	c-1.6-1.5-3.5-2.5-5.5-3.4c-1.7-0.7-3.6-0.9-5.4-1.2c-0.4,0-0.6-0.1-1,0c-1.5,0.2-3,0.4-4.5,0.6c-1.1,0.2-2.2,0.2-3.2,0.8
	c-1.2,0.7-2.3,1.6-3.4,2.5c-0.9,0.6-1.7,1.4-2.4,2.2c-1.2,1.2-2.2,2.5-3.1,3.9c-0.3,0.4-0.3,0.6,0.1,1c0.7,0.7,1.4,1.5,2.3,2.1
	c1.9,1.5,3.9,2.9,5.9,4c1.4,0.7,2.6,1.5,4.1,2.1c1.1,0.5,2.2,0.8,3.3,1.2c1.5,0.5,3.1,0.6,4.7,0.6c0.7,0,1.4,0.2,2.1,0
	c0.6-0.2,1.2-0.4,1.8-0.6c1.1-0.3,2.3-0.4,3.2-1c0.7-0.5,1.4-0.8,2.2-1.3c0.2-0.1,0.4-0.4,0.5-0.6c0.5-0.9,0.9-1.8,1.2-2.9
	C91.6,26.7,91.7,25.4,91.9,23.9z M54.6,94.1c1.5-0.1,2.9-0.2,4.1-0.3c1-0.1,2-0.4,2.9-0.7c0.8-0.4,1.6-0.7,2.5-1.1
	c0.5-0.2,1-0.5,1.4-0.7c0.2-0.1,0.4-0.5,0.4-0.6c-0.3-0.6-0.5-1.4-0.9-2c-0.5-0.7-1.3-1.3-1.9-2c-1.4-1.7-3-3-5-3.9
	c-2.3-0.8-4.5-1.7-6.9-1.8c-0.6,0-1.4-0.2-1.9,0.4c-0.6,0.6-1.4,1.1-1.9,1.8c-1.2,1.5-2.2,3-2.3,5c0,0.2-0.1,0.5-0.1,0.6
	c-0.2,0.6-0.1,1,0.3,1.4c0.5,0.5,0.9,0.9,1.4,1.4c0.5,0.4,0.9,0.6,1.4,0.9c1.1,0.5,2.2,1,3.3,1.3C52.4,94.1,53.7,94,54.6,94.1z
	 M49.1-57.6c0.7-1.1,1.4-2,2-3c0.4-0.6,0.8-1.2,1.1-1.8c0.5-1.1,1.1-2.2,1.4-3.4c0.5-1.6,0.5-3.1,0.3-4.7c0-0.3-0.2-0.6-0.4-0.7
	c-0.5-0.6-0.9-1-1.4-1.5c-0.1-0.1-0.3-0.3-0.5-0.4c-0.9-0.4-1.9-0.8-3-0.7c-0.6,0-1.3-0.2-1.9,0c-1.2,0.3-2.3,0.6-3.3,1.3
	c-0.8,0.6-1.3,1.4-1.4,2.3c-0.1,0.7,0,1.6,0.1,2.3c0.1,0.9,0.3,1.8,0.5,2.7c0,0.2,0.2,0.4,0.3,0.6c0.5,0.8,1.1,1.6,1.4,2.4
	c0.8,1.9,2.3,3.2,3.9,4.4C48.6-57.8,48.9-57.7,49.1-57.6z M196.8-63.5c-1.7,0.9-3.3,2-4.8,3.5c-1,1.1-1.6,2.3-2.3,3.5
	c-0.2,0.3-0.2,0.7-0.3,1.1c0,0.5,0,0.9,0.1,1.4c0.1,0.3,0.1,0.7,0.4,0.8c0.8,0.5,1.2,1.6,2.2,1.9c0.3,0.1,0.6,0.2,0.8,0.5
	c0.6,0.6,1.4,0.3,2.1,0.5c1.8-0.5,3.5-1,5-2.4c0.6-0.6,1.1-1.2,1.2-2.2c0.2-1.8-0.2-3.3-1-4.8c-0.1-0.2-0.1-0.4-0.3-0.5
	c-0.3-0.4-0.5-0.7-0.7-1s-0.6-0.5-0.8-0.8C197.9-62.8,197.4-63.2,196.8-63.5z M87.8-53.2c0.3-0.2,0.5-0.3,0.7-0.4
	c0.4-0.2,0.6-0.5,1-0.6c1-0.7,1.9-1.6,2.5-2.7c0.7-1.2,1.3-2.4,1.9-3.6c0.5-0.9,0.6-2,0.7-3c0.1-0.6-0.1-1.1-0.4-1.6
	c-0.6-1.2-1.2-1.3-2.3-0.6c-0.1,0-0.1,0.1-0.2,0.1c-0.9,0.6-1.9,1.3-2,2.6c-0.1,0.6-0.4,1-0.5,1.6c-0.4,1-0.9,1.9-1.2,3
	C87.8-56.9,87.8-55.1,87.8-53.2z M255.7-70.3c0-1.4-0.4-2.4-1.1-3.2c-1-1.1-2.4-1.1-3.3,0.2c-0.2,0.3-0.5,0.6-0.6,0.8
	c-0.5,0.8-0.5,1.8,0.1,2.7c0.6,1,1.6,1.6,2.6,2.1c0.7,0.4,1.3,0.3,1.6-0.5C255.4-68.9,255.6-69.7,255.7-70.3z M65.6,127.4
	c0.2,0.3,0.4,0.6,0.6,0.6c0.8,0.4,1.7,0.7,2.6,1.1c0.5,0.2,0.8-0.1,1-0.5c0.3-0.4,0.5-0.8,0.6-1.3c-0.4-0.5-0.6-0.9-1.1-1.3
	c-1.3-1.2-2.3-0.9-3.2,0.3C65.9,126.7,65.9,127,65.6,127.4z M271.2-71.5c0.2-0.4,0.3-0.5,0.4-0.6c0.2-0.6,0.2-1.4,0.5-2
	c0.3-0.7-0.1-1.3-0.4-1.9c-0.3-0.5-0.8-0.5-1.1,0c-0.7,0.8-0.7,2.7,0,3.8C270.7-72.1,270.9-71.8,271.2-71.5z M64.9,136.3
	c0.5,0.3,0.9,0.6,1.4,0.7c0.5,0.2,1-0.3,0.9-0.8c-0.1-0.4-0.7-0.7-1.3-0.7C65.3,135.5,65.1,135.6,64.9,136.3z M286.1-65.2
	c0.8-0.8,0.7-1.4-0.2-1.8C285.3-66.1,285.3-65.7,286.1-65.2z"/>
<path d="M771.8,151.6c-1.4,1.5-1.8,3.2-1.1,5.1c0.5,1.5,1,3,1.5,4.5c0.2,0.4,0.5,0.8,0.8,1.2c0.2,0.2,0.4,0.3,0.6,0.4
	c0.8,0.8,1.5,1.5,2.7,1c-0.3,0.8-0.9,1-1.5,0.8c-1.4-0.4-2.7-1.1-3.5-2.6c-1.2-2-1.9-4.2-2-6.6c-0.1-1.2-0.1-2.5,0.1-3.7
	c0.1-0.8,0.4-1.6,0.7-2.3c0.2-0.5,0.3-0.9,0.2-1.4c-0.4-1.3-0.8-2.5-1.2-3.8c-0.6-2-1.2-3.9-1.6-5.9c-0.3-1.3-0.8-2.6-1.1-3.9
	c-0.2-1.1-0.3-2.2-0.4-3.2c-0.2-1.1-0.3-2.2-0.5-3.2c-0.1-0.3-0.2-0.7-0.1-1c0.3-2.5-0.3-4.9-0.3-7.3c0-1.8-0.1-3.5-0.1-5.3
	c0-0.6,0.1-1.1,0.2-1.7c0.2-2.8,1.1-5.4,1.9-8c0.1-0.4,0.3-0.7,0.6-1c0.4-0.6,0.4-1.2,0.2-1.8c-0.2-0.6-0.3-1.1-0.5-1.7
	c-0.5-1.7-0.7-3.5-0.5-5.4c0.1-0.5,0.3-1,0.3-1.5c0.3-1,0.5-1.9,0.8-2.9c0.4-1.8,1.3-3.3,2.1-4.8c0.3-0.6,0.8-1.3,0.5-2.2
	c-0.9-0.1-1.8,0.1-2.5,0.4c-0.6,0.2-1,0.2-1.5-0.3c-0.2,0.3-0.4,0.6-0.8,0.4c-0.3-0.2-0.8-0.2-1.1-0.3c-1.3-0.4-2.4-0.8-3.4-2
	c-0.8-0.9-1.5-1.8-2-2.8c-0.8-1.6-1.7-3.2-2.2-4.9c-0.4-1.4-0.7-3-0.3-4.5c0.6-2.1,1.7-3.7,3.6-4.2c0.3-0.1,0.5-0.1,0.8-0.2
	c0.9-0.6,1.9-0.5,2.9-0.4c1.3,0.2,2.5,0.8,3.6,1.5c0.9,0.6,1.9,1.1,2.8,1.9c1.7,1.6,2.9,3.5,3.4,6c0.1,0.2,0.1,0.4,0.2,0.6
	c0,0,0.1,0,0.2,0.1c0.1-0.2,0.3-0.4,0.3-0.6c0.5-1.9,0.8-3.8,0.9-5.8c0-1.7,0.2-3.5,0.3-5.2c0.1-1.9,0.3-3.8,0.1-5.8
	c-0.1-0.4,0-0.8,0-1.2c-0.1-0.9-0.1-1.7-0.2-2.6c0-0.2,0-0.4,0-0.6c0-1.5,0.2-3.1,0.1-4.6c-0.2-2.3,0.3-4.5,0-6.8
	c-0.2-1.4-0.1-2.9-0.1-4.4c-0.1-1.7-0.1-3.3-0.3-5c-0.1-1-0.3-1.9-0.6-2.8c-0.3-1.5-0.7-2.9-1-4.4c0-0.2-0.2-0.3-0.3-0.6
	c-0.3,0.3-0.5,0.6-0.7,0.8c-0.9,1.1-1.8,2.1-2.7,3.2c-0.2,0.2-0.3,0.3-0.6,0.4c-0.8,0.5-1.5,1-2.3,1.5c-0.7,0.4-1.4,0.8-2.2,1
	c-2.2,0.8-4.5,1.1-6.8,1c-0.3,0-0.6-0.2-0.9-0.2c-0.3-0.1-0.6-0.2-0.9-0.2c-1.3,0.1-2.4-0.2-3.6-0.4c-0.4-0.1-0.9-0.4-1.3-0.5
	c-0.1,0-0.3-0.1-0.3-0.1c-1.1,0-1.9-0.8-2.9-1.2c-0.1,0-0.2-0.1-0.3-0.2c-0.5-1.3-1.8-1.6-2.5-2.6c-0.4-0.6-0.8-1.3-1.2-2
	c-0.2-0.3-0.3-0.7-0.4-1.1c-0.5-1.3-0.6-2.7-0.6-4.2c0-1.7,0.3-3.3,0.8-4.7c0.7-2.1,1.6-4.1,3.1-5.6c1.1-1.2,2.2-2.4,3.4-3.3
	c1.2-0.9,2.5-1.7,4-1.9c0.9-0.1,1.8-0.4,2.9-0.5c2.4-0.3,4.5,0,6.8,1c1.9,0.9,3.6,2.3,5.3,3.8c0.6,0.6,1.1,1.2,1.7,1.9
	c0.2,0.2,0.3,0.3,0.5,0.5c0.1-0.1,0.3-0.1,0.3-0.1c0.2-1.3,0.8-2.4,0.7-3.8c-0.1-0.8,0.3-1.5,0.3-2.3c0.2-1.2,0.3-2.4,0.3-3.6
	c0.1-1.8,0.3-3.6,0.3-5.4c-0.1-1.8,0.1-3.6,0.3-5.3c0.2-1.8,0.3-3.6,0.3-5.4c0-0.2,0-0.3,0-0.5c0-1.6,0-1.5-1.2-2.1
	c-0.5-0.2-1-0.6-1.5-0.9c-0.9-0.6-1.8-1.2-2.7-1.7c-1.4-0.8-2.8-1.7-3.9-3c-1-1.1-2-2.3-2.4-4.1c-0.2-1.1-0.5-2.2-0.4-3.3
	c0-0.7-0.2-1.5-0.3-2.2c-0.2-1.4-0.5-2.7-0.3-4.2c0.1-0.6-0.1-1.3-0.2-2.1c-1.4,0.3-2.8,0.5-4.1,0.8c-0.1,0-0.2,0.1-0.3,0.1
	c-1.4,0.1-2.9,0.2-4.3,0.3c-0.3,0-0.8-0.1-1.1-0.1c-1.6-0.2-3.1-0.4-4.7-0.4c-0.6,0-1.1-0.3-1.7-0.5c-1.1-0.4-2.2-0.8-3.3-1.3
	c-0.3-0.1-0.8-0.1-0.8-0.8c0-0.1-0.2-0.1-0.3-0.2c-0.3-0.2-0.8-0.3-1.1-0.6c-0.7-0.5-1.3-0.9-2-1.4c-0.7-0.4-1.3-1.1-1.8-1.6
	c-0.1-0.1-0.3-0.2-0.3-0.4c-1.3-2-2.9-3.7-3.8-6.1c-0.3-0.6-0.4-1.2-0.7-1.9c-0.3-0.6-0.4-1.2-0.6-1.7c-0.2-0.1-0.2-0.1-0.3-0.1
	c-2,0.3-3.9-0.5-5.8-0.7c-1.7-0.2-3.4-0.7-5-1.6c-0.8-0.5-1.2-0.4-1.8,0.4c-1.2,1.4-2.2,3-3.4,4.4c-0.8,0.9-1.9,1.7-2.9,2.2
	c-1.2,0.6-2.4,0.9-3.6,1.3c-1.4,0.5-2.9,0.5-4.5,0.2c-0.8-0.1-1.5-0.2-2.3-0.4c-1.5-0.3-2.9-1-4.2-1.9c-0.3-0.2-0.6-0.2-0.9-0.4
	c-0.8-0.5-1.8-0.9-2.5-1.6c-0.6-0.6-1.3-0.9-2-1.4c-0.5-0.3-0.9-0.8-1.3-1.3c-0.6-0.7-1.3-1.2-2.1-1.7c-0.8-0.6-1.6-1.2-2.2-2.1
	c-0.3-0.5-0.8-1-1.3-1.4c-1.4-1.3-2.9-2.4-4.6-3.4c-0.7-0.4-1.3-1-1.9-1.5c-0.4-0.4-0.9-0.6-1.5-0.5c-0.2,0-0.4,0-0.6-0.1
	c-1.1-0.5-2.3-0.5-3.4-0.5c-1.2,0-2.3,0.3-3.4,0.8c-0.3,0.2-0.7,0.3-1.2,0.6c0.2,0.3,0.3,0.6,0.5,0.9c1.3,1.7,2.3,3.8,2.9,6
	c0.3,1.1,0.9,2.1,1,3.4c0,1.9,0.3,3.7,0,5.6c-0.2,1.9-0.9,3.5-1.4,5.2c-0.4,1.4-1.3,2.5-2.3,3.3c-0.8,0.6-1.4,1.2-2.2,1.8
	c-1,0.8-2.1,0.8-3.2,0.7c-0.6-0.1-1.2-0.1-1.8-0.2c-1.7-0.3-3.3-0.9-4.5-2.2c-0.6-0.7-0.9-1.7-1.4-2.5c-1-1.3-1.3-2.9-1.2-4.5
	c0.2-2.4,0.3-4.9,0.8-7.3c0.3-1.2,0.8-2.4,1.2-3.6c0.8-2.3,2.2-4.2,3.7-5.8c0.2-0.2,0.3-0.3,0.5-0.5c0.3-0.4,0.1-0.7-0.3-0.9
	c-0.3-0.1-0.8-0.2-1.1-0.2c-0.2,0-0.4,0-0.6,0c-1.8-0.7-3.5-0.1-5.3-0.6c-0.2,0-0.3,0.1-0.6,0.1c-0.8,0.1-1.5,0.2-2.3,0.1
	c-0.8-0.2-1.8,0-2.6,0c-0.7,0-1.3,0.1-1.9,0.2c-2,0.2-4,0.9-5.8,1.5c-0.1,0-0.3,0.2-0.3,0.2c-1.5-0.1-2.7,0.9-4,1.8
	c-0.8,0.6-1.7,1.1-2.4,1.7c-0.5,0.4-0.9,0.8-1.3,1.2c-0.1,0.1-0.3,0.2-0.4,0.3c-0.5,0.2-0.9,0.3-1.4,0.6c-1.7,0.9-3.4,1.7-5,2.6
	c-1.3,0.6-2.4,1.4-3.7,1.9c-1.3,0.6-2.6,1-3.9,1.5c-1.2,0.5-2.4,0.4-3.5,1.2c-0.1,0.1-0.2,0.1-0.3,0.1c-1.3,0.1-2.7,0.2-4,0.3
	c-1,0.1-2,0.3-3,0.3c-1.3,0.1-2.4,0-3.7,0c-0.3,0-0.5-0.2-0.8-0.3s-0.8-0.3-1-0.1c-1.6,0.9-3.3,1.4-5,1.8c-1.2,0.3-2.4,0.3-3.6,0.3
	c-1,0-2.1-0.1-3.1-0.2c-1.7-0.1-3.3-0.9-4.8-1.8c-0.5-0.3-0.9-0.7-1.3-1.1c-0.8-0.7-1.6-1.4-2.4-2.1c-0.2-0.2-0.6-0.2-0.8,0
	c-0.6,0.3-1.2,0.7-1.8,1.1c-1,0.6-2,1-3.2,0.9c-0.5,0-0.9,0.2-1.4-0.3c-0.4,0.4-0.8,0.8-1.3,0.2c-0.1-0.1-0.3-0.1-0.3-0.1
	c-1.3,0.5-2.5,0.3-3.8,0.4c-0.3,0-0.5,0.1-0.7,0.3s-0.3,0.6-0.3,0.9c0.3,1.3,0.1,2.7,0.2,4c0,0.3-0.2,0.7-0.3,0.7
	c-0.4,0.2-0.5,0.5-0.5,0.9c-0.1,0.7-0.4,1.1-0.9,1c-0.8-0.1-1.5-0.3-2.2-0.6c-0.3-0.1-0.6-0.4-0.4-0.9c0-0.1,0-0.3-0.1-0.3
	c-0.9-0.2-0.8-1.2-0.8-1.9c-0.1-0.8,0.2-1.6,0.3-2.4c0.1-0.4,0.3-0.8,0.5-1.2c-0.2-0.6-0.6-0.5-0.9-0.6c-1.6-0.1-3.2-0.3-4.7,0.3
	c-0.9,0.4-1.9,0.3-2.9,0.6c-1.3,0.4-2.5,1.2-3.8,1.8c-0.3,0.1-0.4,0.3-0.7,0.4c-0.2,0-0.5-0.1-0.6-0.2c-0.1-0.1,0-0.5,0.2-0.6
	c1.2-1,2.4-2,3.8-2.7c0.8-0.4,1.8-0.4,2.6-0.6c1.1-0.3,2.1-0.5,3.2-0.8c1.3-0.3,2.7-0.2,4-0.1c0.3,0,0.6,0.4,0.8,0.6
	c0.6-0.3,1.2-0.6,1.8-0.9c0.8-0.5,1.7-0.7,2.6-0.6c1.1,0.1,2.3,0.1,3.4,0.4c1.4,0.4,2.9,0.4,4.5,0.3c1-0.1,2-0.8,2.9-1.5
	c0.3-0.3,0.3-0.7,0.2-1.1c-0.2-0.3-0.3-0.6-0.5-0.8c-0.8-1.1-1-2.6-0.8-3.9c0.3-2.4,2.4-3.4,3.8-2.2c0.3,0.2,0.6,0.5,0.8,0.8
	c0.2,0.2,0.3,0.5,0.3,0.8c0,1.9-0.2,3.8-0.8,5.5c2.7,3.9,6.3,5,10.3,5.1c1.8,0.1,4.8-0.8,5.5-1.6c-0.2-0.1-0.3-0.3-0.4-0.4
	c-1.3-1-2.6-2-3.5-3.6c-0.7-1.2-1.3-2.5-1.5-4c-0.3-1.9-0.8-3.7-0.5-5.7c0-0.2-0.1-0.4-0.1-0.7c0-0.4,0-0.8,0.2-1.1
	c0.3-0.6,0.8-1.2,1.3-1.8c0.4-0.6,1-0.9,1.2-1.7c0.1-0.2,0.3-0.5,0.6-0.6c0.8-0.2,1.5-1,2.4-0.6c0.2,0,0.3,0,0.4-0.1
	c0.4-0.7,1-0.4,1.5-0.2c0.4,0.1,0.8,0.1,1.2,0.3c0.3,0.1,0.5,0.3,0.7,0.6c0.3,0.3,0.4,0.5,0.8,0.5c0.3,0,0.5,0.2,0.8,0.4
	c0.1,0.1,0.2,0.2,0.3,0.3c1.1,0.2,1.7,1.3,2.5,1.9c0.3,0.2,0.6,0.6,0.8,1c0.8,1.3,1.6,2.5,1.7,4.2c0,0.6,0.2,1.1,0.3,1.7
	c0.2,1,0.3,1.9-0.3,2.8c-0.1,0.1-0.1,0.2-0.1,0.3c0.3,2.1-0.6,3.4-1.8,4.7c-0.2,0.2-0.4,0.4-0.8,0.8c0.3,0.1,0.5,0.3,0.7,0.3
	c1.8-0.1,3.6-0.1,5.5-0.7c0.9-0.3,2-0.4,2.9-0.9c1-0.6,2.1-1.3,3.1-1.9c1.2-0.7,2.2-1.6,3.2-2.6c1.1-1.1,2.4-2,3.6-2.9
	c0.4-0.3,0.8-0.7,1.1-1c0.7-0.6,1.4-1,2.1-1.6c0.8-0.7,1.7-1.6,2.5-2.4c0.3-0.3,0.6-0.6,0.9-0.8c1.5-1.2,3-2.5,4.5-3.6
	c1-0.8,1.9-1.8,3.1-2.2c0.7-0.3,1.4-0.6,1.8-1.2c0.5-0.8,1.2-0.7,1.8-1.1c0.6-0.4,1.3-0.7,1.8-1.1c0.4-0.3,0.8-0.6,1.3-0.8
	c0.3-0.2,0.5-0.3,0.8-0.4c0.8-0.2,1.5-0.6,2.4-0.6c0.6,0.1,1.2-0.3,1.8-0.3c0.4,0,0.9,0.2,1.3,0.3c0.1,0,0.2,0.1,0.3,0.1
	c1-0.4,1.8,0.5,2.5,1c0.8,0.5,1.6,1.3,2.4,1.8c1.2,0.7,2.1,1.8,2.9,2.8c0.8,1,1.7,2,2.5,2.9c0.8,0.8,1.5,1.6,2.3,2.4
	c1.1-0.4,1.9-1.2,3.2-1c0-0.5,0.2-0.9,0.7-1c0.4-0.2,0.8-0.5,1.3-0.8c0.3-0.1,0.6-0.2,0.8-0.3c0.1,0,0.3,0,0.3,0
	c0.8-0.9,1.8-0.8,2.7-1c1.3-0.3,2.6-0.6,3.9-0.6c1.3,0,2.6,0.2,4,0.7c2.6,1,4.6,3.1,6.8,4.9c0.9,0.8,1.8,1.7,2.7,2.5
	c0.9,0.7,1.8,1.3,2.8,1.9c0.8,0.5,1.5,1,2.4,1.5c0.5,0.3,1,0.5,1.5,0.8c0.3,0.2,0.7,0.5,1.1,0.7c0.3,0.2,0.7,0.4,1,0.5
	c0.3,0.1,0.7,0.2,1,0.3c1.2,0.6,2.4,1,3.7,1.2c0.6,0.1,1.2,0.3,1.8,0.3c0.8,0,1.7,0.3,2.5,0.2c0.8-0.2,1.6-0.1,2.4-0.5
	c0.7-0.3,1.3-0.5,1.9-0.8c0.6-0.2,0.7-0.5,0.2-1c-0.5-0.6-1.2-1.1-1.7-1.7c-0.6-0.6-1.2-1.3-1.7-2c-0.2-0.2-0.3-0.5-0.5-0.7
	c-1.3-1.1-1.9-2.7-2.5-4.3c-0.6-1.7-1.2-3.4-1.7-5.2c-0.4-1.5-1-2.9-0.9-4.5c0-1.4,0-2.9,0.3-4.3c0.4-2.5,1.3-4.8,2.6-6.9
	c0.8-1.3,1.8-2.4,2.9-3.4c1-0.9,2.3-1,3.4-1.1c1.4-0.1,2.8,0,4.2,0.2c1.4,0.2,2.8,0.8,3.9,2c0.8,0.8,1.5,1.5,2.2,2.4
	c0.3,0.4,0.6,0.8,0.8,1.3c0.5,1.3,1.3,2.6,1.4,4c0.1,0.6,0.2,1.1,0.3,1.7c0,0.3,0,0.6,0.1,0.8c0.6,1.4,0.3,3,0.4,4.5
	c0,0.3-0.1,0.6-0.2,0.9c-0.4,1.7-0.8,3.3-1.3,4.9c-0.6,1.7-1.3,3.3-1.9,4.9c-0.6,1.5-1.3,3-1.9,4.4c0,0.1-0.1,0.1-0.1,0.2
	c0,0.7-0.3,1.2-0.8,1.5c1.4,1,4.9,1.6,8.3,1.3c0.3-0.7,0.3-1.4,0.1-2.1c-0.1-0.9-0.2-1.8-0.3-2.7c0-1.4,0-2.7,0-4.1
	c0-0.5,0.1-1,0.2-1.6c0.1-1,0.1-2,0.2-3c0.1-0.5,0.2-0.9,0.3-1.4c0.2-1.1,0.4-2.1,0.6-3.2c0.1-0.5,0.3-1.1,0.3-1.6
	c0.5-2.2,1.3-4.4,2-6.5c0.2-0.4,0.5-0.6,0.8-1.1c-0.1-0.4-0.1-1.1,0.6-1.4c0.1,0,0.1-0.1,0.1-0.2c0.5-2,1.8-3.3,2.9-4.8
	c1.8-2.2,4-3,6.5-2.8c1.5,0.1,3,0.2,4.5,0.4c1.8,0.2,3.6,0.6,5.2,1.6c1.2,0.7,2.1,1.7,3.1,2.7c0.8,0.8,1.5,1.6,2.2,2.5
	c0.5,0.7,0.8,1.5,1.2,2.3c0.9,2,1,4.3,1.3,6.5c0.2,1.1-0.1,2.2-0.3,3.3c-0.5,2-1.1,4-1.8,6c-0.2,0.6-0.5,1.2-0.8,1.8
	c-0.7,1.3-1.3,2.6-2,3.9c-0.3,0.6-0.6,1.1-1,1.6c-1.6,2.2-3.4,4.1-5.5,5.6c-1.2,0.9-2.5,1.3-3.9,1.9c-1.6,0.7-3.4,1.1-5,1.2
	c-0.7,0.1-1.3,0.4-1.9,0.3c-0.7-0.1-1.3,0.1-2,0.1c-0.1,0-0.2,0.2-0.3,0.3c0.3,0.9,0.9,1.6,1.5,2.3c0.4,0.5,1,0.9,0.8,1.7
	c0.7,0,1.3,0.4,1.8,0.7c1.2,0.8,2.3,1.7,3.6,2c0.2,0.1,0.4,0.3,0.6,0.3c0.4,0.2,0.8,0.3,1.3,0.4c0.3,0.1,0.6,0,0.8,0.1
	c1.3,0.5,2.8,0.6,4.2,0.5c0.1,0,0.2,0,0.2,0c1.8,0.6,3.5,0.1,5.3-0.4c0.3-0.1,0.4-0.1,0.7-0.1c0.5-0.1,1-0.2,1.6-0.3
	c0.5-0.1,1.1-0.3,1.6-0.4c0.8-0.2,1-0.4,1-1.4s0-2,0.3-3c-0.4-0.8,0.3-1.5,0.2-2.4c-0.2-0.7,0.1-1.6,0.2-2.3
	c0.1-0.7,0.3-1.5,0.5-2.2c0.8-2.7,1.4-5.3,2.3-7.9c0.6-1.9,1.3-3.7,2.1-5.6c0.7-1.5,1.3-3,2.2-4.4c1.6-2.5,3.1-5.2,5.2-7.2
	c0.9-0.9,1.7-1.9,2.6-2.8c1.3-1.3,2.9-2,4.5-2.8c0.5-0.2,1.1-0.5,1.6-0.7c1.2-0.4,2.4-0.3,3.5-0.3c1.8,0,3.5,0,5.2,0.2
	c1.4,0.1,2.8,0.5,4,1.4c0.3,0.2,0.4,0.3,0.7,0.4c1.8,0.4,2.5,2,3.3,3.6c0.5,1.2,1,2.5,1.2,3.9c0.1,0.7,0,1.3-0.1,1.9
	c-0.2,1-0.3,2-0.4,3c-0.3,3.3-1.7,6-2.9,8.9c-0.7,1.7-1.6,3.1-2.8,4.4c-0.9,1.1-1.7,2.3-2.6,3.5c-1.2,1.5-2.4,2.8-4,3.8
	c-0.8,0.6-1.8,1.2-2.5,2c-0.9,1.1-2,1.9-2.9,2.9c-0.3,0.3-0.7,0.6-1,0.9c-0.9,0.7-1.8,1.3-2.8,2c-0.2,0.1-0.3,0.1-0.4,0.2
	c-0.3,0.1-0.5,0.1-0.7,0.3c-0.8,1.2-2,1.6-3,2.3c-0.8,0.6-1.8,1.2-2.7,1.4c-0.8,0.2-1.4,0.9-2.1,0.9c-1,0.1-1.7,1.1-2.7,1.4
	c-0.2,0-0.3,0.5-0.3,0.7c0,1.4,0.4,2.6,1.2,3.7c0.1,0.2,0.3,0.4,0.3,0.6c0.3,0.8,0.3,1.8,1,2.4c0.1,0,0.1,0.1,0.1,0.2
	c0.1,1.2,0.9,1.8,1.5,2.6c0.6,0.8,1.3,1.5,2,2c0.6,0.4,1.1,0.8,1.8,1.2c0.6,0.3,0.9,0.2,1.2-0.5c0.4-1.3,1.2-2.3,1.7-3.5
	c0.8-2.1,2.4-3.4,3.7-4.9c0.3-0.4,0.8-0.7,1.3-1c0.2-0.1,0.3-0.2,0.4-0.3c1.3-1.1,2.6-2.2,3.9-3.3c1.8-1.6,3.7-2.8,5.8-3.7
	c0.8-0.4,1.8-0.1,2.9,0c1.3,0.2,2.7,0.6,4,0.9c0.6,0.1,1.2,0.3,1.7,0.8c0.8,0.8,1.7,1.5,2.5,2.1c0.8,0.6,1.3,1.5,1.8,2.5
	c0.2,0.4,0.4,0.8,0.7,1.2c0.5,0.7,0.9,1.5,1.2,2.4c0.3,1,0.8,1.9,0.8,3c0,1.4,0.2,2.7-0.2,4.1c-0.3,1.1-0.3,2.3-0.6,3.4
	c-0.1,0.4-0.3,0.8-0.6,1.2c-1.3,1.8-2.6,3.5-4.1,5c-0.9,0.9-1.8,1.6-2.8,2.4c-1.2,1-2.6,1.4-4,2c-0.2,0.1-0.3,0.1-0.4,0.1
	c-1.7,0.6-3.4,0.7-5.1,0.6c-0.8-0.1-1.7,0.1-2.5,0c-1.3-0.2-2.5-0.4-3.8-0.7c-1.3-0.3-2.4-0.7-3.8-0.5c-0.6,0.1-1.3-0.4-1.9-0.6
	c-0.2-0.1-0.4-0.2-0.8-0.3c-0.1,0.4-0.3,0.8-0.3,1.1c0,2,0,3.9,0.1,5.9c0.2,2.9,0.3,5.7,0.5,8.6c0.1,1.4,0.3,2.8,0.1,4.1
	c-0.3,1.5,0.3,3.1-0.4,4.6c0.2,0.9,0.1,1.7-0.1,2.5c-0.4,2.2-0.8,4.4-1.3,6.6c-0.2,0.7-0.1,1.3,0.2,1.9c1,2.2,2.1,4.3,3.1,6.5
	c0.1,0.2,0.1,0.4,0.1,0.6c0,0.2-0.1,0.5,0,0.6c0.4,0.5,0.3,1.2,0.6,1.7c0.7,1.7,1,3.4,1.4,5.2s0.8,3.7,1,5.5
	c0.2,1.3,0.4,2.5,0.7,3.7c0.2,0.7,0.1,1.4,0.1,2.1c0,1.5,0.5,2.9,0.6,4.3c0.2,2.1,0.1,4.3,0.3,6.5c0.2,2.8-0.6,5.4-0.9,8.2
	c-0.2,1.6-0.6,3.2-0.9,4.7c-0.3,1.6-0.9,3.1-1.6,4.5c-0.2,0.3-0.3,0.6-0.3,0.9c-0.6,1.8-1.7,3.2-2.9,4.4c-1,1-2,1.9-3,2.9
	c-0.3,0.3-0.4,1-0.6,1.6c-0.2,0.9-0.3,1.7-0.5,2.6c-0.1,0.7-0.3,1.4,0,2.2c0.3,0.5-0.1,1.1-0.8,1.6c0.2,0.7,0,1.4-0.3,2
	c-0.6,1.5-0.8,3.2-1.1,4.8c-0.2,0.6-0.2,1.2-0.3,2.1c0.3-0.1,0.5-0.1,0.7-0.2c0.2-0.1,0.3-0.2,0.3-0.4c1.3-1.6,3-2,4.8-2.1
	c0.6,0,1.2-0.1,1.7,0c1.6,0.4,2.9,1.4,4.1,2.6c0.7,0.7,0.8,1.7,1,2.6c0.3,1.3,0.5,2.6,0.4,3.9c-0.1,0.7-0.2,1.3-0.4,2
	c-0.3,0.9-0.8,1.7-1.1,2.6c-0.1,0.3-0.3,0.5-0.5,0.7c-1.4,0.9-2.9,1.7-4.5,2.1c-0.1,0-0.2,0-0.3,0c-0.4,0-0.7-0.7-1.3-0.4
	c-0.3,0.2-0.8-0.3-1.3-0.5c-0.6-0.2-1.2-0.4-1.7-0.7c-0.7-0.3-1.3-0.7-2-1.1c-0.3,0.7-0.4,1.5-0.5,2.3c-0.2,1.4-0.3,2.8-0.5,4.3
	c-0.1,0.7,0,1.4-0.1,2.1c-0.2,2.1-0.3,4.1-0.1,6.2c0.2,1.9,0.2,3.7,0.2,5.6c0.1,2.9,0.5,5.8,1.2,8.6c0.5,1.8,0.8,3.7,1.3,5.6
	c0.1,0.4,0.1,0.9,0.1,1.4s0.3,0.8,0.7,0.7c1.5-0.2,2.4,0.9,3.4,2c0.4,0.5,0.6,1.4,0.8,2.2c0.1,0.7-0.3,1.3-0.9,1.6
	c-0.5,0.3-1.1,0.5-1.7,0.7c-0.8,0.3-1.3,0-1.9-0.6C772.7,152.4,772.2,152,771.8,151.6z M767.6-50.1c0.7-0.1,1.2-0.3,1.6-0.3
	c0.9,0,1.7-0.9,2.6-0.6c1.1-0.6,2.1-1.3,3.2-1.9c0.8-0.5,1.7-1.2,2.5-1.5c1.8-0.7,3.1-2.2,4.5-3.4c1.8-1.7,3.5-3.7,5-5.9
	c0.4-0.6,0.8-1.2,1.2-1.8c0.5-0.8,1.2-1.5,1.6-2.4c0.8-1.8,1.5-3.7,1.6-5.8c0.1-1.2-0.2-2.3-0.7-3.3c-0.3-0.6-0.8-0.9-1.3-0.9
	s-1.2,0-1.7,0c-2.4,0.3-4.5,1.5-6.6,2.9c-0.2,0.1-0.3,0.2-0.3,0.4c-1,1.2-2,2.3-3,3.5c-0.3,0.3-0.6,0.7-0.9,1
	c-1.6,1.4-2.9,3.2-4,5.2c-0.3,0.6-0.6,1.2-0.9,1.7c-1,1.6-1.8,3.4-2.4,5.3c-0.7,2-1.1,4-1.7,6C767.9-51.4,767.8-50.9,767.6-50.1z
	 M734.7-61.6c0.8-0.2,1.6-0.5,2.4-0.5c0.8-0.1,1.5-0.4,2.2-0.8c1-0.6,2.1-1.3,3.1-2c0.7-0.5,1.3-0.9,1.8-1.6
	c1.1-1.4,2.2-2.9,3.1-4.4c1.2-1.8,2.2-3.7,2.1-6.2c0-1.7,0-3.4-0.3-5.1c-0.2-1-0.4-1.8-1.3-2.3c-0.2-0.1-0.3-0.4-0.5-0.6
	c-1.1-1.3-2.4-2.4-4-2.9c-0.9-0.3-1.8-0.2-2.5,0.5c-0.5,0.5-1,0.9-1.5,1.3c-1,0.8-1.6,1.9-2,3.2c-0.7,2.2-1.1,4.5-1.3,6.8
	c-0.1,0.7-0.3,1.4-0.3,2.1c-0.3,1.9-0.4,3.7-0.8,5.6c-0.3,2-0.4,4-0.4,6.1C734.5-62.2,734.6-61.9,734.7-61.6z M762.1,27.2
	c1.1,0.1,1.6-0.2,2.4-1c0.5-0.5,1-1,1.6-1.5c1.3-1.2,2.3-2.7,2.9-4.6c0.3-1,0.7-2.1,1.2-3.1c0.4-0.9,0.6-1.6-0.2-2.3
	c-0.1-0.1-0.1-0.2-0.2-0.3c-0.4-1.5-1.4-2.3-2.4-3.3c-0.4-0.5-1-0.8-1.5-1.1c-1.3-0.6-2.6-0.9-4-1c-1.2-0.1-2.3,0.1-3.4,0.6
	c-0.8,0.4-1.6,0.8-2.4,1.3c-1.6,1.1-2.7,2.7-3,5c-0.1,0.3-0.1,0.6-0.1,0.9c-0.3,1.7,0.1,3.4,0.7,5c0.1,0.3,0.3,0.5,0.5,0.7
	c0.4,0.5,0.8,1,1.3,1.5c0.7,0.6,1.3,1.3,2,1.8C759.1,26.7,760.5,27.3,762.1,27.2z M779.7-25.5c0.7,0.2,1.3,0.4,1.8,0.5
	c1,0.2,2,0.4,3,0.4c0.9,0,1.9-0.1,2.9-0.3c1.1-0.2,2.2-0.5,3.3-0.8c0.5-0.1,1.1-0.3,1.6-0.5c0.7-0.3,1.3-0.6,2-1
	c0.5-0.3,0.9-0.8,1.4-1.2c1.3-1.1,1.8-2.6,1.9-4.5c0-0.5-0.1-1.1,0-1.6c0.1-0.7-0.1-1.2-0.5-1.6c-0.3-0.3-0.4-0.6-0.7-0.8
	c-1.8-2-3.3-2.3-5.3-1.4c-0.7,0.3-1.3,0.6-2,0.9c-0.9,0.4-1.8,0.8-2.7,1.4c-2.1,1.4-3.8,3.4-5,5.9C780.5-28.7,779.9-27.2,779.7-25.5
	z M716.9-65.2c0.6-1.5,1.3-3,1.8-4.5c0.8-2.3,1.3-4.6,1.7-7c0.4-2.6,0.8-5.2-0.4-7.7c-0.3-0.6-0.5-1.2-0.8-1.8
	c-0.6-1.1-1.4-1.2-2.2-0.8c-1.6,0.8-2.4,2.3-3,4.1c-0.2,0.6-0.3,1.3-0.4,2c-0.8,2.6-1,5.3-0.7,8c0.1,0.9,0,1.9,0.4,2.8
	c0.8,1.9,1.9,3.4,3.3,4.7C716.5-65.3,716.6-65.3,716.9-65.2z M667.4-57C667.4-57,667.3-57,667.4-57c-0.1-0.5,0-1.1-0.2-1.5
	c-0.5-1.4-0.9-2.8-1.3-4.3c-0.3-1.1-1.2-2-1.9-2c-0.8,0.1-1.4,0.7-1.8,1.7c-0.7,1.5-0.9,3.1-1.3,4.6c-0.5,2.5,0.1,4.8,1.1,6.9
	c0.2,0.3,0.4,0.6,0.6,0.9c0.6,1.1,1.2,1.3,2,0.6c1-0.7,1.7-1.7,1.9-3.1C666.9-54.4,667.1-55.7,667.4-57z M597.8-61.4
	c0,0.4,0,0.8,0.1,1c0.5,1.4,1.3,2.6,2.2,3.6c0.3,0.4,0.8,0.5,1.3,0.2c0.5-0.4,1.1-0.7,1.5-1.2c0.7-0.8,1-2.9,0.1-3.8
	c-0.9-1-1.7-2.1-3.1-2.2c-1.1-0.1-1.8,0.3-1.9,1.5C597.9-61.9,597.9-61.6,597.8-61.4z M771,77.9c-0.4-0.7,0-1.6-0.4-2.4
	c-0.7-1.5-1.8-2.4-2.9-3.5c-0.2-0.2-0.5-0.2-0.7-0.1c-1.3,0.2-2.2,2.5-1.4,3.7c0.6,1,1.3,1.9,2.3,2.5
	C768.8,78.7,769.8,78.9,771,77.9z M772.9,104.6c0.1,0.2,0.1,0.3,0.2,0.3c0.1,0.1,0.2,0.2,0.3,0.2c1,0.6,2,0.5,3,0
	c0.8-0.3,0.9-1.9,0.3-2.5c-0.5-0.5-2.3-0.5-2.7,0.1C773.5,103.4,773.2,104.1,772.9,104.6z M565-51.9c-0.1,0.1-0.3,0.1-0.3,0.2
	c-0.3,0.7-0.7,1.4-0.9,2.2c-0.2,0.6,0.3,0.9,0.6,1.3c0.3,0.6,0.8,0.6,1.3,0c0.2-0.3,0.3-0.7,0.5-1.1c0.3-0.9,0-2.1-0.7-2.5
	C565.3-51.8,565.2-51.8,565-51.9z M580.8-58.9c0.9-1.6,0.7-3.6-0.7-4c-0.2,0.3-0.6,0.6-0.5,0.8C579.8-60.9,579.8-59.6,580.8-58.9z
	 M773.7,149.9c0.1,0.2,0.1,0.5,0.2,0.6c0.3,0.4,1.6,1.1,2,1c0.2,0,0.3-0.2,0.3-0.3c0.3-0.7-0.1-1.6-0.8-1.8
	C774.8,149.2,774.3,149.4,773.7,149.9z"/>
<path d="M772.4,436.7c0,0.6,0.2,1.2-0.2,1.8c-0.1,0.1-0.1,0.3-0.1,0.5c0,0.3,0.1,0.7-0.1,1c-0.3,1,0,2-0.2,3c0,0.2,0.1,0.3,0.1,0.5
	c0.7,0.2,1.6,0,1.8,1c0.2,0,0.4-0.1,0.6-0.1c0.7,1.2,0.7,1.4,0,2.3c-0.5,0.6-1,0.7-1.6,0.4c-0.9-0.4-1.4-1-1.6-2.1
	c-0.2,0.2-0.5,0.4-0.5,0.6c-0.2,0.7-0.5,1.4-0.2,2.2c0.2,0.5,0.3,1-0.2,1.4c0.2,0.3,0.3,0.6,0.4,1c0.2,0.4,0.3,1,0.7,1.3
	c0.5,0.3,0.4,0.6,0.1,1.1c0.3-0.1,0.5-0.2,0.6-0.2c0.8,1.1,1.6,2.2,2.3,3.3c0.3,0.5,0.6,1,0.8,1.7c0.4,1.7,0.8,3.3,1,4.9
	c0.2,1.4,0.2,2.9-0.2,4.3c-0.2,1-0.8,1.7-1.4,2.5c-0.6,0.8-1.1,1.6-1.7,2.4c-0.2,0.2-0.2,0.6-0.3,0.9c-0.2,1.4-0.2,2.8-0.4,4.1
	c-0.1,1.5-0.2,2.9-0.3,4.5c-0.2,1.8-0.4,3.5-0.6,5.2c-0.2,0.9-0.2,1.8-0.2,2.7c0.1,1-0.1,2.1-0.1,3.1c0,1.8-0.2,3.6,0.2,5.4
	c0,0.2,0.1,0.3,0.1,0.5c0.6,0.1,1.1,0.2,1.6,0.2s0.8,0.1,1.1,0.4c0.6,0.4,1.1,0.7,1.7,1.1c0.8,0.5,1.2,1.2,1.4,2.1
	c0.1,0.4,0.3,0.7,0.4,1c0.2,0.9,0.5,1.7-0.3,2.5c-0.5,0.6-1,0.9-1.5,1.3c-0.2,0.2-0.6,0.3-0.8,0.2c-0.8-0.2-1.6-0.2-2.3-0.8
	c-0.7-0.6-1.6-1-2-1.9c-0.3-0.7-1-1.1-1.1-2c0-0.1-0.2-0.1-0.2-0.2c-0.5,0.8-0.6,1.6-0.7,2.5c0,0.2,0.1,0.3,0,0.5
	c-0.8,2.9-0.3,5.7,0.1,8.5c0.2,1.4,0.4,2.7,0.6,4.1c0.1,0.6,0.2,1,0.3,1.6c0.2,1.2,0.4,2.4,0.7,3.5c0.5,1.7,1.1,3.3,1.6,4.9
	c0.3,0.9,0.5,1.8,0.7,2.8c0.4,1.4,0.4,2.9,1.1,4.2c0.2,0.5,0.2,1,0.3,1.6c0.6,1.9,1.3,3.7,1.6,5.7c0.1,0.5,0,1,0.1,1.4
	c0,0.2,0,0.5,0.2,0.6c0.4,0.4,0.4,0.9,0.5,1.4c0.2,1.1,0.4,2.2,0.4,3.3c0.1,2.1,0.7,4.2,0.6,6.4c-0.1,0.6,0.2,1.1,0.6,1.4
	c1.6,1.4,2.2,3.4,3.3,5.1c0.3,0.5,0.4,1,0.5,1.6c0.2,1.2,0.5,2.4,0.6,3.7c0.2,1.4,0.6,2.9,0.8,4.2c0.3,1.6,0.3,3.2-0.1,4.8
	c-0.3,1.3-0.4,2.5-0.6,3.8c-0.1,0.6-0.2,1-0.5,1.5c-0.5,1.2-1,2.4-1.1,3.6c-0.1,0.6-0.5,1.3-0.7,1.9c-0.5,1.2-1.1,2.4-1.5,3.7
	c-0.2,0.9-0.8,1.6-1.2,2.5c-0.9,1.8-1.8,3.6-1.9,5.7c-0.1,1.1-0.3,2.2-0.4,3.4c-0.1,0.4,0,0.9,0,1.4c0.9,0.2,1.8,0.3,2.5,0.4
	c1.3,0.1,2.5,0.1,3.7,0.2c0.7,0.1,1.4,0.2,2.1,0.4c0.6,0.2,1.1,0.3,1.8,0.5s1.3,0.3,1.9,0.6c1.6,0.6,3.2,1.3,4.6,2.3
	c0.8,0.6,1.6,1.2,2.4,1.8c0.6,0.5,1.2,1,1.8,1.5c1.5,1.4,2.6,2.9,3.6,4.8c0.2,0.2,0.2,0.6,0.4,0.7c1,1.2,1.4,2.6,1.8,4.1
	c0.2,1,0.5,1.9,0.7,2.9c0.4,1.6,0.8,3.1,1.1,4.7c0.2,0.6,0.1,1.4,0.2,2.1c0.2,1.4,0.3,2.7,0.4,4.1c0.1,1,0,2,0,3
	c0,0.7,0,1.4,0.1,2.1c0.1,1-0.2,2-0.6,2.9c-0.5,1.1-0.9,2.2-1.7,3.2c-0.4,0.4-0.9,0.7-1.3,1c-0.6,0.5-1.2,0.9-1.8,1.4
	c-0.8,0.6-1.6,1-2.5,1.2c-1.8,0.2-3.4,0.7-5.2,1c-0.6,0.1-1.3-0.1-1.8-0.2c-1.3-0.3-2.5-0.8-3.8-1c-1-0.2-1.8-0.7-2.5-1.4
	c-0.4-0.4-0.9-0.8-1.4-1.1c-0.8-0.6-1.7-1-2.5-1.7c-0.8-0.5-1.5-1-2.2-1.6c-0.4-0.3-0.7-0.6-1-1c-0.6-0.9-1.4-1.7-1.9-2.6
	c-0.6-1.1-1.4-2.1-2.1-2.9c-0.2-0.2-0.2-0.3-0.3-0.5c-0.6-1.4-1.5-2.7-2.1-4.1c-0.8-1.9-1.7-3.9-2.1-6c-0.6-2.1-0.5-4.2-0.5-6.3
	c0.1-1.9,0.4-3.8,0.7-5.7c0.1-0.3,0-0.6,0-1c-0.3,0.1-0.6,0.1-0.9,0.2c-1.8,0.6-3.6,1.2-5.3,2c-1.2,0.6-2.4,1.1-3.4,1.8
	c-0.3,0.2-0.6,0.4-0.9,0.6c-1.4,1-2.7,2.3-4,3.5c-1.2,1.2-2.5,2.3-3,4c-0.2,0.7-0.7,1.3-1,2c-0.2,0.2-0.2,0.6-0.3,0.8
	c-0.3,1.6-0.9,3.1-1.5,4.6c-0.1,0.3-0.2,0.6-0.3,1c1,0.2,1.8,0.3,2.7,0.5c1.9,0.4,4,0.3,5.9,0.8c2.2,0.6,4.2,1.6,6,2.9
	c0.6,0.5,1.4,1,2,1.5c2.1,1.7,4.1,3.4,5.7,5.6c1,1.4,2.1,2.9,2.7,4.5c0.2,0.6,0.6,1.3,0.7,2c0.1,0.6,0.6,1.2,1,1.8
	c0.2,0.4,0.2,0.5-0.2,0.9c0.6,0.6,0.5,1.4,0.7,2.1c0.2,0.6,0.2,1.4,0.4,2.1c0.1,0.5,0.3,0.9,0.3,1.4c0.1,1.5,0,2.9,0.1,4.5
	c0,0.2,0.1,0.4,0.1,0.6c0.2,0.9,0.1,1.8-0.2,2.6c-0.3,1.3-1.2,2.3-1.8,3.4c-0.3,0.6-0.6,1.3-1,2c-0.6,1.4-1.8,2.4-3.2,3.2
	c-0.5,0.2-1,0.5-1.4,0.6c-0.6,0.2-1.3,0.6-1.9,0.8c-1.1,0.4-2.2,0.2-3.3,0.3c-0.3,0-0.6-0.1-0.9,0c-0.5,0.2-1,0-1.4-0.2
	c-0.3-0.2-0.6-0.2-1-0.3c-0.8-0.2-1.5-0.4-2.3-0.6c-1.2-0.2-2.2-0.8-3.3-1.4c-0.4-0.2-0.8-0.4-1.2-0.6c-1.6-0.8-2.9-1.9-4-3.3
	c-0.8-0.9-1.6-1.8-2.5-2.7c-1.3-1.4-2-3-2.9-4.5c-0.3-0.5-0.6-1-1-1.4c-0.7-1-0.8-2.1-1-3.3c-0.4-2.1-0.7-4.2-1.1-6.3
	c-0.1-0.6-0.1-1.3-0.2-1.8c-0.2-1.1-0.2-2.2-0.8-3.3c-0.1-0.2-0.1-0.4-0.1-0.6c-0.1-0.5-0.1-1-0.2-1.4c-1,0-2,0-2.9,0
	c-1.4,0.1-2.7,0.1-4.1,0.2c-1.9,0.2-3.8,0.2-5.8,0.4c-1.8,0.2-3.5,0.3-5.3,0.4c-1.9,0.1-3.7,0.6-5.6,1c-1.4,0.4-2.7,0.8-4,1.2
	c-1.4,0.5-2.8,0.9-4.1,1.4c-1.9,0.8-3.7,1.8-5.6,2.6c-1.6,0.8-3.3,1.6-4.9,2.4c-2,1-4,2-6,3.1c-1.6,0.9-3.1,1.8-4.7,2.7
	c-0.2,0.2-0.5,0.2-0.7,0.3c-1.2,0.6-2.4,1.2-3.6,1.8c-1.7,0.7-3.3,1.5-5,2.5c-1.1,0.6-2.3,1.3-3.5,1.8c-1.7,0.7-3.5,1.2-5.2,1.8
	c-2.2,0.9-4.6,1.5-6.8,2.7c-1.7,1-3.5,1.5-5.5,1.8c-0.6,0.1-1.1,0.2-1.7,0.2c-0.2,0.1-0.6,0.2-0.6,0.5c-0.7,1.4-1.8,2.4-2.8,3.5
	c-0.6,0.7-1.4,1.3-2.1,1.9c-0.3,0.3-0.8,0.6-1,1c-1,1.3-2.2,2.1-3.4,3.1c-1.2,1-2.7,1.4-4.2,1.8c-1.6,0.4-3.1,0.9-4.7,1.1
	c-1.4,0.2-2.9,0.2-4.4,0.2c-0.3,0-0.6-0.1-0.9-0.3c-0.4-0.4-1-0.4-1.4-0.4c-0.9,0-1.8,0.1-2.6,0c-0.9-0.1-1.7-0.3-2.5-0.4
	c-1-0.1-1.8-0.8-2.8-0.7c-0.4,0-0.8-0.3-1.2-0.5c-1.4-0.5-2.7-1-4-1.4c-2.1-0.8-4.1-1.7-6-2.5c-0.7-0.3-1.5-0.6-2.2-1
	c-0.9-0.5-1.7-1-2.5-1.5c-0.8-0.5-1.5-1-2.3-1.5c-1.3-0.7-2.5-1.4-3.8-2.1c-1.3-0.7-2.6-1.3-4.1-1.7c-1-0.3-1.9-0.1-2.9-0.3
	c0.5,2.1,1.1,3.9,1.4,5.7c0.2,1.5,0.6,3,0.3,4.6c-0.2,1,0,2-0.2,2.9c-0.3,1.4-0.6,2.7-1.5,3.8c-0.2,0.2-0.4,0.6-0.5,0.8
	c-0.3,1-1.1,1.5-1.8,2.1c-0.2,0.1-0.2,0.2-0.4,0.2c-1.1,0.2-2.3,0.5-3.4,0.5c-1.3-0.1-2.5-0.6-3.5-1.4c-0.6-0.5-1.1-1-1.6-1.6
	c-0.2-0.2-0.3-0.6-0.5-0.9c-0.2-0.3-0.2-0.6-0.4-0.9c-0.5-0.6-0.6-1.4-0.8-2.1c-0.2-0.6-0.2-1.2-0.4-1.8c0-0.2,0-0.3,0-0.5
	c0.1-0.7,0.2-1.4,0.2-2.1c0-1.5,0.4-2.9,1-4.2c0.6-1.6,1.8-2.9,2.6-4.3l0.1-0.1c0.2-0.8,0.6-1.4,1.1-2c0.1-0.1,0.1-0.2,0.1-0.4
	c-0.2-0.1-0.5-0.2-0.7-0.2c-1.8,0.2-3.6-0.1-5.3,0.6c-0.2,0.1-0.6,0.1-1,0.1c-0.7,0-1.4,0.2-2.1,0.5c-0.5,0.3-1.1,0.5-1.7,0.6
	c-0.4,0.2-0.6,0.4-0.7,0.8c-0.1,0.4,0,0.8-0.1,1.1c0,0.8-0.1,1.7-0.2,2.5c-0.1,0.9-0.1,1.8-0.2,2.6c-0.2,1.2-0.5,2.4-1,3.4
	c-0.5,1-1.2,1.8-2.3,2.3c-0.4,0.2-0.8,0.3-1.3,0.1c-0.1-0.1-0.2-0.1-0.4-0.1c-0.5-0.1-1,0.2-1.4-0.3c-0.6-0.6-1-1.4-1-2.2
	c-0.1-0.9-0.2-1.8-0.3-2.6c0-0.1,0-0.2,0-0.3c0.4-1.4,0.4-2.8,1-4.1c0.2-0.2,0.2-0.6,0.2-0.8s0.1-0.6,0.3-0.8
	c0.4-0.4,0.6-0.9,0.7-1.4c0.1-0.5,0.5-0.7,0.9-1c0.8-0.6,1.7-1,2.5-1.6c-0.8-1-1.7-1.5-2.9-1.6c-0.6,0-1.1,0-1.6-0.5
	c-0.6,0.4-1.3,0.2-2,0.3c-0.7,0-1.5,0.1-2.1,0.3c0.1,0.9,0.2,1.7,0.3,2.5c0.1,0.5-0.1,0.8-0.5,1c-0.2,0.1-0.2,0.2-0.4,0.4
	c-0.4,0.6-1,0.9-1.8,0.9c-0.8,0.1-1.3-0.2-1.6-1c-0.4-0.9-0.2-1.7,0.2-2.4s1.1-1.4,1.8-2.1c-1-0.3-1.8-0.9-2.9-0.8
	c-1.1,0.1-2.2,0.1-3.3,0.1c-0.5,0-1,0.2-1.4,0.2c-1-0.1-1.7,0.5-2.5,0.9c-0.3,0.2-0.7,0.5-1,0c-0.2-0.2,0-0.6,0.6-1
	c0.2-0.2,0.6-0.2,0.9-0.3c1.5-0.5,3-0.7,4.6-0.6c0.7,0,1.4-0.1,2.1-0.1c1.4-0.1,2.6,0.3,3.8,1c0.2,0.1,0.6,0.1,0.8,0.1
	c0.6-0.1,1.3-0.2,1.9-0.2c0.6-0.1,1.1-0.1,1.7-0.2c1-0.3,1.9,0,2.9,0s1.9,0.5,2.7,1c0.4,0.2,0.7,0.8,1,1.1c0.8-0.3,1.5-0.6,2.2-0.9
	c1.1-0.3,2.3-0.6,3.5-1c1-0.2,2.1-0.4,3.1-0.8c0.8-0.3,1.6-0.4,2.4-0.3c1.4,0.2,2.7,0.5,4,0.8c0.5,0.1,0.9,0.4,1.3,0.6
	c0.3,0.2,0.6,0.2,0.9,0.1c0.6-0.3,1.2-0.6,1.8-0.8c0.7-0.2,1.4-0.5,2.1-0.8c1-0.6,2.1-0.8,3.1-1c0.2,0,0.2-0.1,0.3-0.2
	c1.3-0.8,2.7-1,4.2-0.6c1.1,0.2,2.3,0.3,3.5,0.5c2.3,0.3,4.5,1,6.5,2.1c1.3,0.7,2.6,1.4,3.7,2.4c0.6,0.6,1.1,1.1,1.7,1.7
	c0.9,0.9,1.7,1.9,2.6,2.7c0.6,0.5,1,1.2,1.5,1.8c0.7,1,1.7,1.9,2.5,2.8c0.8,0.8,1.7,1.6,2.5,2.3c1.3,1,2.6,2,4.2,2.4
	c0.6,0.2,1.4,0,2.1,0c0.6-0.1,1.3-0.2,2-0.2c0.2,0,0.4-0.1,0.6-0.2c0.4-0.1,0.9-0.1,1.3-0.2c0.4-0.1,0.8,0,1.1-0.2
	c0.9-0.7,2.1-0.7,2.9-1.5c0.6-0.5,1.4-0.6,2-0.8c2-0.6,3.4-1.8,4.9-3.2c0.4-0.4,0.9-0.8,1.4-1.2c0.2-0.2,0.3-0.4,0.6-0.7
	c-0.4-0.1-0.6-0.2-0.9-0.1c-0.6,0.2-1.4,0.4-2,0.5c-0.7,0.1-1.5,0.2-2.1-0.1c-1.9-0.6-3.9-1.2-5.8-1.9c-0.7-0.2-1.3-0.8-1.8-1.3
	c-1-0.7-1.8-1.4-2.7-2.2c-0.6-0.5-1.2-0.9-1.8-1.4c-0.6-0.6-0.7-1.4-1-2.2c-0.2-0.5-0.5-1-0.8-1.5c-0.4-0.5-0.6-1.1-0.7-1.8
	c-0.1-1-0.2-2-0.3-2.9c0-0.3,0-0.6,0-1c0-0.2,0.1-0.2,0.1-0.4c-0.6-1.7,0.1-3.3,0.3-4.9c0.2-1,0.3-2,0.6-2.9c0.1-0.3,0.2-0.6,0.3-1
	c0.2-0.5,0.6-1,0.4-1.5v-0.1c0.9-1.6,1.1-3.5,2.5-4.9c1.3-1.2,2.4-2.5,3.5-3.9c0.6-0.7,1.5-1.3,2.2-1.9c0.1-0.1,0.2-0.2,0.3-0.3
	c0.6-0.7,1.4-1.1,2.3-1.4c1-0.3,1.9-0.6,2.9-0.7c1.2-0.2,2.4-0.2,3.6-0.1c0.9,0.2,1.7,0.6,2.5,1c1.1,0.6,2,1.5,2.9,2.4
	c0.7,0.7,1.4,1.6,2.1,2.3c0.6,0.6,0.9,1.2,1,1.9c0.3,1.2,0.4,2.4,0.9,3.5c0.2,0.5,0.2,1,0.4,1.6c0.3,1.6,0.7,3.1,1,4.7
	c0.2,1.4,0.2,2.7-0.1,4.1c-0.1,0.6-0.1,1-0.2,1.6c-0.1,1-0.2,2-0.2,2.9c-0.2,1.1-0.1,2.2-0.4,3.3c-0.2,0.9-0.4,1.8-0.6,2.6
	c-0.1,0.2-0.1,0.5-0.1,0.7c0.1,0.1,0.1,0.1,0.2,0.2c0.6-0.4,1.3-0.7,1.9-1.1c0.7-0.5,1.4-0.9,2.2-1.2c0.7-0.2,1.4-0.9,2-1.4
	c0.6-0.5,1.2-1,1.9-1.4c0.7-0.4,1.4-1,2.1-1.5c0.9-0.6,1.7-1.2,2.5-1.8c1.4-0.9,2.6-1.9,3.9-2.9c0.6-0.5,1.2-0.7,1.8-1.1
	c1.5-1,3.1-2,4.6-3.1c1.3-1,2.7-1.6,4.1-2.4c1.8-1,3.6-2.1,5.3-3c1.3-0.7,2.6-1.4,4-2c2.9-1.2,5.9-2.5,8.8-3.8
	c1.8-0.8,3.7-1.8,5.6-2.6c1.9-0.9,3.7-1.7,5.7-2.5c0.9-0.4,1.7-0.9,2.5-1.2c0.7-0.3,1.4-0.5,2.1-0.7c2.2-0.8,4.5-1.5,6.8-1.8
	c1.2-0.2,2.4-0.4,3.6-0.4c0.8,0,1.6-0.2,2.4-0.4c1.8-0.2,3.5-0.2,5.3-0.1c1.2,0.1,2.4,0,3.7,0c0.1-0.8,0.2-1.4,0.2-2.1
	c0.2-0.9,0.2-1.8,0.4-2.7c0.2-0.8,0.6-1.6,0.8-2.4c0.6-2.1,1.5-4.1,2.5-5.9c0.4-0.7,1-1.4,1.4-2c1-1.4,2.1-2.9,3.1-4.3
	c0.1-0.1,0.1-0.2,0.2-0.3c1-0.6,1.8-1.7,2.8-2.4c1-0.7,1.9-1.4,2.9-2.1c0.6-0.5,1.3-1,2-1.3c1.8-0.7,3.3-1.8,5.3-2.1
	c1-0.2,1.9-0.2,2.9-0.4c1-0.2,2.1-0.4,3.2-0.6c0.8-0.2,1.5-0.3,2.3-0.2c0.6,0.1,1-0.2,1.2-0.7c0.6-1.4,1.3-2.8,1.8-4.2
	c0.4-1,1-1.8,1.2-2.9c0.3-1.8,0.6-3.5,1-5.3c0.3-1.4,0.7-2.7,1-4.1c0.6-2.4,1.2-4.8,1.8-7.2c0.1-0.4,0.2-0.8,0.3-1.1
	c0.7-1.4,0.6-2.8,0.5-4.2c-0.2-1.5-0.3-2.9-0.6-4.4c-0.2-1.2-0.5-2.4-1.2-3.4c-0.2-0.2-0.2-0.6-0.4-0.8c-0.6,0.2-0.7,0.7-0.9,1.2
	c-0.2,0.6-0.4,1.4-0.7,1.9c-0.2,0.6-0.6,1-1,1.5c-0.2,0.4-0.5,0.7-0.8,1.1c-0.2,0.2-0.3,0.6-0.5,0.8c-0.5,0.6-0.9,1-1.4,1.6
	c-0.3,0.4-0.6,0.8-1.3,0.6c0,0.2,0.1,0.6,0,0.6c-0.4,0.3-0.9,0.7-1.4,0.9c-0.5,0.2-1.1,0.1-1.4,0.6c-1.2,0-2.3,1-3.6,0.3
	c-0.2-0.1-0.5-0.2-0.7-0.1c-1.2,0.2-2.2-0.2-3.3-0.7c-1.4-0.7-2.7-1.5-3.9-2.5c-1.1-0.9-2.1-1.8-2.5-3.3c-0.2-0.6-0.5-1.4-0.6-2
	c-0.1-0.2-0.1-0.5-0.1-0.6c0.2-1.1,0-2.2-0.1-3.4c0-0.6,0.2-1.4,0.5-1.9c0.5-0.9,1.1-1.7,1.7-2.5c0.4-0.6,0.8-1.3,1.3-1.9
	c0.6-0.8,1.4-1.4,2.3-1.8c1-0.5,2.1-1,3.1-1.5c0.7-0.3,1.5-0.7,2.4-0.6c0.1,0,0.2,0,0.3,0c1.3-0.6,2.6-0.6,4-0.8
	c1.1-0.2,2.3-0.2,3.5,0c0.6,0.1,1.2,0.2,1.9,0.2c0-0.7,0-1.4-0.2-2.1c-0.2-1.7-0.8-3.3-1.4-4.9c-0.5-1.4-0.7-2.8-1.1-4.2
	c-0.3-1.3-0.6-2.5-1-3.9c-0.1-0.3-0.2-0.7-0.2-1c-0.2-1.6-1-3-1.8-4.4c-0.2-0.3-0.2-0.7-0.4-1c-0.6-1.2-1-2.4-1.6-3.6
	c-0.6-1.3-1-2.5-1.3-3.9s-0.6-2.7-1-4.1c-0.2-1-0.6-1.9-0.6-2.9c0-0.3-0.1-0.6-0.2-1c-0.4-2.5-0.6-4.9-0.5-7.3
	c0.1-0.8,0.3-1.5,0.5-2.3c0-0.2,0.2-0.2,0.2-0.3c0.1-1.6,0.9-2.9,1.7-4.2c0.6-1,1.5-1.4,2.5-1.6c0.5-0.2,0.8-0.2,1.1-0.6
	c0.2-0.2,0.6-0.4,0.9-0.6c0.3-0.2,0.6-1,0.3-1.4c-0.2-0.5-0.2-0.9-0.2-1.4c0.1-0.9,0-1.8,0-2.8c0.1-1.9,0.1-3.8,0.2-5.7
	c0.1-1.6,0.4-3.2,0.6-4.8c0.2-1.4,0.4-2.8,0.4-4.1c0-0.8,0-1.6,0.1-2.4c0.1-0.6,0.2-1,0.2-1.6c0.1-0.6,0.1-1.4,0.2-2
	c-1-0.2-1.8-0.6-2.4-1.4c-0.1-0.1-0.2-0.2-0.2-0.2c-0.2-0.8-1-1.2-1.5-1.7c-1.4-1.2-1.4-2.4-0.5-4c0.4-0.6,0.8-1.1,1.2-1.6
	c0.4-0.5,0.9-0.6,1.5-0.6c0.4,0.1,0.8,0.2,1.1,0.1c1.2-0.1,2,0.5,2.4,1.6c0.2,0.6,0.5,1,0.8,1.5c0.5,0.7,0.6,1.5,0.6,2.4
	c0,0.3,0.1,0.6,0.1,1c0.5-0.2,0.7-0.6,1-0.9c0.7-1,1.1-2.1,1.3-3.4c0.2-2.7-0.2-5.3-1.3-7.7c-0.3-0.8-1-1.5-1.4-2.3
	c-0.6-0.9-1-1.8-1.6-2.5c-0.3-0.5-0.7-1-0.9-1.5c-0.1-0.6-0.2-1-0.2-1.6c-0.1-0.4-0.1-0.8-0.1-1.2c0-0.4,0.1-0.8,0.1-1.2
	c0.1-0.5,0.2-1,0.3-1.5c0.2-0.4,0.5-0.8,0.9-1c0.1-1.2,0.1-2.3,0.2-3.5c0.1-0.5,0.4-0.9,0.6-1.4c-0.1-0.1-0.3-0.2-0.6-0.6
	c0.3-0.1,0.6-0.2,0.6-0.2c-0.2-0.5-0.4-0.9-0.4-1.4C771.3,436.6,771.6,436.5,772.4,436.7z M761.2,671.5c0.2,0,0.4,0,0.6,0
	c1.3-0.2,2.5-0.4,3.7-0.6c0.5-0.1,1-0.3,1.4-0.5c0.6-0.3,1.2-0.6,1.8-1c0.4-0.2,0.6-0.5,0.8-0.9c0.2-0.5,0.3-1,0.6-1.4
	c0.6-1.2,0.8-2.5,0.6-3.7c-0.1-0.5-0.3-0.9-0.4-1.4c-0.2-0.6-0.3-1.4-0.5-2c-0.2-0.7-0.5-1.4-0.6-2.1c-0.3-1.6-1-3-2.2-4.1
	c-1.2-1-2.3-2-3.7-2.8c-2.3-1.4-4.8-2.5-7.3-3.4c-0.6-0.2-1.2-0.4-1.8-0.6c-1.2-0.4-2.4-1-3.7-1.3c-2.1-0.5-4.1-0.7-6.3-0.8
	c-0.4,0-0.7,0.2-0.7,0.6c-0.1,1-0.6,1.8-0.2,2.8c0,0.1,0,0.2-0.1,0.2c-0.3,0.6-0.2,1.2-0.2,1.8c0.2,1.5,0.5,2.9,0.8,4.4
	c0.2,1,0.3,2,0.7,2.9c0.2,0.3,0.2,0.7,0.3,1.1c0.4,1.7,1,3.3,2.3,4.5c0.1,0.1,0.2,0.2,0.2,0.3c0.6,1.2,1.8,1.8,2.6,2.8
	c0,0,0.1,0,0.1,0.1c0.7,0.5,1.4,1,2.2,1.4c1,0.6,2,1.3,2.9,1.8c0.6,0.3,1.2,0.3,1.7,0.6C758.2,671.1,759.7,671.4,761.2,671.5z
	 M774,611.9c0,0.6-0.1,1-0.1,1.4c0,1.8,0,3.6,0.1,5.4c0.1,1.2,0.2,2.3,0.3,3.5c0.1,1.6,0.5,3.2,1,4.6c0.8,1.9,1.8,3.7,2.6,5.6
	c0.4,0.9,0.9,1.7,1.4,2.5c1,2.1,2,4.1,3.3,6c0.6,1,1.4,1.8,2.5,2.3c1,0.6,1.9,1,2.7,1.7c0.8,0.6,1.8,1,2.7,1.3c0.5,0.2,1,0.3,1.6,0
	c0.6-0.3,1-0.7,1.4-1.3c0.3-0.6,0.7-1.3,1-1.9c0.5-1,1.2-2,0.8-3.3c0-0.1,0-0.2,0-0.2c0-1,0-2,0-2.9c0-2.5-1-4.9-1.9-7.2
	c-0.2-0.5-0.4-1-0.7-1.4c-1-1.4-2-2.7-3-4c-0.2-0.2-0.2-0.6-0.5-0.9c-1-0.8-1.7-1.8-2.2-2.9c-0.2-0.3-0.3-0.7-0.6-0.8
	c-0.6-0.3-0.9-0.8-1.3-1.3c-0.6-0.6-1.2-1.2-1.8-1.8c-0.4-0.3-1-0.6-1.3-1c-0.4-0.5-1-0.8-1.6-1c-0.3-0.1-0.6-0.2-0.9-0.4
	c-1.4-0.6-2.7-1.3-4.1-1.9C775,612,774.5,612,774,611.9z M630.6,659.8c-0.1,2,0.5,3.2,1.4,4.2c1.1,1.2,2.1,2.4,3.3,3.5
	c0.4,0.4,0.9,0.7,1.2,1.4c0.2,0.3,0.6,0.5,0.9,0.6c0.6,0.2,1.1,0.4,1.7,0.6c1,0.6,2.1,0.8,3.3,1c1.5,0.2,3.1,0.1,4.6,0.2
	c0.5,0,1,0.1,1.4,0c0.6-0.1,1-0.2,1.2-0.9c0.2-0.7,0.2-1.4,0.5-2c0.6-1.6,1-3.3,1.1-4.9c0.1-1.5,0.1-2.9,0-4.5
	c-0.1-1.2-0.2-2.5-0.2-3.7c0.1-2-0.6-3.6-2-4.9c-1-0.9-2.3-1.2-3.5-1.7c-1-0.4-2.1-0.3-3.1-0.5c-1.7-0.2-3.3,0.1-4.8,0.8
	c-2.2,1.1-3.9,2.8-5.2,5C631.3,656.1,630.6,658.1,630.6,659.8z M771.7,560.8c-0.2-0.2-0.2-0.2-0.2-0.2c-0.2-0.1-0.3-0.1-0.5-0.2
	c-1.8-0.6-3.5-1-5.3,0.2c-0.5,0.3-1.1,0.5-1.3,1.1c-0.1,0.2-0.2,0.3-0.4,0.3c-0.6,0.1-0.9,0.7-1.1,1.2c-0.2,0.5-0.3,1-0.6,1.5
	c-0.5,1-0.2,1.9,0.4,2.8c0.3,0.4,0.7,0.8,1,1.3c0.5,0.7,1.3,0.9,2,0.9c1.5,0,2.5-1,3.3-2.1c0.6-1.1,1.4-2.2,1.8-3.5
	C771.1,562.9,771.5,561.9,771.7,560.8z M570.2,673.4c-0.4,0.1-0.6,0.2-0.8,0.2c-0.5,0.2-0.9,0.6-1.3,0.9c-0.6,0.5-1,1-1.4,1.7
	c-0.5,0.9-1,1.8-1.3,2.7c-0.2,0.7-0.4,1.4-0.3,2c0,0.3,0.1,0.6,0.1,0.9c-0.1,0.6,0.2,1.2,0.6,1.7c0.6,0.7,1,0.9,1.8,0.5
	c1-0.5,1.7-1.4,1.9-2.5c0.3-1.8,0.6-3.7,0.8-5.7C570.4,675,570.3,674.3,570.2,673.4z M584.8,676.9c0,0.1,0.2,0.3,0.2,0.6
	c0.2,0.6,0.2,1.2,0.3,1.8c0.2,1.1,0.9,1.8,1.8,2.2c0.4,0.2,0.9,0.1,1-0.3c0.2-0.6,0.5-1.1,0.4-1.7c0-2.1-0.8-4.1-1.4-6.2
	c-0.4,0.2-0.6,0.5-1,0.7c-0.6,0.4-1,1-1,1.7C585.3,676.1,585,676.5,584.8,676.9z M770,470.3c0.2-0.7,0.1-1.5,0.2-2.2
	c0.1-1.3-0.6-2.3-1-3.4c-0.2-0.4-0.4-0.6-0.7-0.6c-0.8-0.2-1.4,0-1.9,0.6c-0.6,0.6-0.8,1.3-0.4,2.1c0.6,1.4,1.6,2.3,2.6,3.3
	C769.1,470.3,769.5,470.5,770,470.3z M559.2,668.8c-0.6,0.8-1.2,1.4-1.7,2.1c-0.3,0.5-0.3,1,0,1.4c0.1,0.2,0.4,0.3,0.6,0.3
	c1-0.2,2-1.4,1.6-2.5C559.6,669.7,559.5,669.3,559.2,668.8z M774.4,502.2c0.2-1.8-1-3-2.8-2.5c0.2,0.6,0.5,1.3,0.8,1.9
	C773,502.6,773.1,502.6,774.4,502.2z M774.2,445.1c-1.4-1.1-2-1.2-2.8-0.5c0.5,0.2,0.8,0.7,1,1.2s0.6,0.6,1,0.6s0.6-0.3,0.6-0.7
	C774.1,445.4,774.1,445.3,774.2,445.1z M801.1,632.1c0-0.1,0-0.1,0.1-0.2c-0.2-0.1-0.2-0.1-0.4-0.2c0,0.1-0.1,0.2-0.1,0.2
	C800.9,632.1,801,632.1,801.1,632.1z"/>
<path d="M295.3,661.6c-1.1,0.6-2.1,0.4-3.1,0.1c-0.9,0.3-1.8,0.5-2.6,0.8c-0.4,0.2-0.9,0.4-1.3,0.7s-0.4,0.6,0,1
	c1.1,1.2,1.4,2.7,0.7,4.1c-0.5,1-1.8,1.5-2.8,1.2c-2.3-0.8-2.2-2.5-1.2-3.8c0.2-0.4,0.5-0.7,0.8-1.1c-0.7-0.7-1.3-0.3-1.9,0
	c-0.8,0.4-1.6,1-2.1,1.8c-0.6,0.8-1.3,1.6-2.1,2.2c-1.8,1.3-3.6,2.6-5.6,3.7c-2.2,1.1-4.5,1.5-7,0.9c-0.9-0.2-1.7-0.3-2.6,0.2
	c-1.8,0.9-3.8,1.7-5.8,2.4c-1.1,0.4-2.3,0.4-3.4,0.6c-2.5,0.5-5,0.6-7.5,0.6c-0.7,0-1.4-0.2-2-0.5c-1.5-0.8-3.1-1.2-4.2-2.6
	c-0.2-0.2-0.5-0.3-0.7-0.5c-0.5-0.4-0.9-0.4-1.4,0.1c-1.7,1.6-3.7,2.7-5.6,3.9c-0.6,0.4-1.1,0.8-1.7,1.1c-2.4,1.5-4.8,2.9-7.8,3.2
	c-1.1,0.1-2.1,0.5-3.1,0.8c-1.4,0.5-2.8,0.3-4.3,0.4c-0.4,0-0.8-0.1-1.2-0.1c-2.5,0.1-5-0.5-7.4-1.2c-1.4-0.4-2.5-1.3-3.6-2.3
	c-0.7-0.7-1.4-1.4-2.2-2c-0.2-0.2-0.6-0.4-0.9-0.4c-3.4,0-6.6-1.2-9.8-1.8c-0.8-0.1-1.5-0.6-2.2-0.8c-1.1-0.3-2.3-0.4-3.4-0.7
	c-1.2-0.3-2.3-0.6-3.5-0.9c-1.2-0.3-2.5-0.6-3.7-0.8c-0.5-0.1-1-0.1-1.5-0.2c-1.1-0.1-2.1-0.2-3.2-0.3c-2.4-0.3-4.7,0-7.1,0.7
	c0.3,0.3,0.5,0.6,0.7,0.7c1.6,0.9,3,2.1,3.9,3.7c0.6,1.1,1.2,2.3,1.2,3.6c0.1,1.4,0.2,2.9,0.1,4.3c-0.1,2-0.9,3.8-2.1,5.4
	c-0.5,0.8-1.1,1.6-1.7,2.3c-0.1,0.2-0.3,0.3-0.5,0.5c-1.8,1.2-3.7,2-5.8,2.4c-1.7,0.3-3.5,0.1-5.2-0.2c-1.2-0.2-1.9-1.2-2.5-2.2
	c-1.5-2.6-2.4-5.4-2.4-8.4c0-1.1,0.3-2.1,0.9-3c0.5-0.7,0.8-1.5,1.3-2.3c0.7-1.3,1.6-2.5,2.6-3.7c0.9-1,1.6-2.2,2.4-3.4
	c-0.9-0.5-1.8-0.8-2.8-0.9c-0.5,0-1,0-1.4-0.1c-2.8-0.6-5.4-0.4-8,0.8c-1.2,0.6-2.3,1.2-3.3,2.1c-0.1,0.1-0.3,0.3-0.5,0.4
	c-1.3,0.4-2.3,1.6-3.6,2c-1.2,0.4-2.6,0.6-3.8,0.9c-2.1,0.4-4.2,0.6-6.3,0c-1.4-0.4-2.8-0.6-4.2-1.4c-1.3-0.7-2.7-1.2-4.1-1.7
	c-0.4-0.2-0.7-0.3-1.1-0.6c-1.1-0.8-2.3-1.6-3.4-2.4c-0.8-0.6-0.8-0.5-1.6,0.1c-2,1.6-3.9,3.3-5.9,4.9c-1,0.8-2.1,1.3-3,2
	c-0.9,0.7-1.7,1.4-2.5,2.2c-0.9,0.8-1.7,1.6-2.7,2.2c-1.9,1.2-3.6,2.8-5.7,3.9c-1.2,0.6-2.3,1.6-3.4,2.4c-0.1,0.1-0.2,0.2-0.3,0.2
	c-1.7,0.6-3.2,1.6-5.1,1.6c-0.2,0-0.4,0-0.5,0c-0.5,0.4-1.1,0.8-1.8,0.4c-0.7,0.8-1.7,0.5-2.6,0.6c-0.9,0.1-1.8-0.1-2.7-0.1
	c-1.2,0-2.3,0-3.5,0c-0.2,0-0.3,0-0.5,0c-1.6-0.4-3.3-0.6-4.8-1.3c-1.4-0.6-2.9-0.9-4-1.9c-0.6-0.5-1.4-0.8-2.1-1.1
	c-2.2-0.8-3.9-2.6-5.8-3.9c-0.4-0.3-0.7-0.8-1.1-1.3c-0.6-0.7-1.3-1.4-1.9-2.2c-1.3-1.6-2.5-3.3-3.7-5c-0.9-1.3-1.8-2.7-2.6-4.2
	c-0.6-1-1-2-1.5-3c-0.2-0.4-0.4-0.8-0.7-1.1c-0.1-0.2-0.3-0.4-0.3-0.6c-0.4-1.9-0.9-3.9-1.3-5.8c-0.1-0.4-0.1-0.8-0.2-1.2
	c-0.2-3.4-0.5-6.9-0.1-10.3c0.3-3,0.7-5.9,1.2-8.9c0.4-2.4,1.1-4.7,1.8-7c0.3-1,0.9-1.9,1.3-2.8c0-0.1,0.1-0.1,0.1-0.2
	c1.1-1.6,0.9-3.2,0-5c-0.7-1.5-1.2-3-1.7-4.6c-0.3-1.1-0.6-2.2-0.8-3.4c-0.2-1.5-0.4-2.9-0.5-4.4c-0.1-1.3,0-2.7,0.1-4
	s0.5-2.7,0.7-4c0.1-0.6,0.3-1.2,0.3-1.8c0.2-2.2,0.9-4.2,1.7-6.2c0.7-1.6,1.3-3.2,2-4.7c0.4-1,0.9-1.9,1.5-2.9
	c1.1-1.8,2.2-3.6,3.4-5.3c0.9-1.2,1.5-2.6,2.5-3.7c1-1.2,1.7-2.7,2.5-4.1c0.7-1,1.3-2.1,2.1-3c1.3-1.4,2-3.1,2.9-4.7
	c0.5-1,1.1-2,1.6-3c0.3-0.5,0.4-1,0.7-1.5c0.9-2,1.6-4.1,1.7-6.3c0.1-1.9,0.2-3.8,0.2-5.7c0-0.6-0.2-1.3-0.3-1.9
	c-0.1-0.9-0.2-1.8-0.4-2.7c0-0.3-0.1-0.6-0.2-1c-0.3,0.2-0.5,0.3-0.6,0.5c-0.9,1.3-1.7,2.5-2.5,3.8c-0.4,0.5-0.8,1-1.3,1.4
	c-0.9,0.9-1.8,1.7-2.6,2.6c-1.4,1.4-2.8,2.7-4.6,3.5c-0.2,0.1-0.5,0.3-0.6,0.5c-0.2,0.6-0.8,0.9-1.3,1.2c-1.8,1.4-3.9,1.7-6.1,2
	c-2.3,0.4-4.6,0.8-6.9,0.6c-0.7-0.1-1.4-0.1-2.1,0.1c-1,0.2-2-0.1-2.9-0.3c-1.1-0.3-2.3-0.5-3.4-0.7c-2-0.3-3.4-1.5-4.7-2.9
	c-1.4-1.5-2.6-3.1-3.5-5.1c-0.2-0.5-0.5-0.9-0.8-1.4c-0.1-0.2-0.3-0.4-0.3-0.6c-0.1-1-0.3-2.1-0.3-3.1c0-0.3,0.3-0.6,0.4-1
	c-0.4-0.2-0.6-0.5-0.5-1.1c0.2-1.7,0.3-3.5,0.6-5.2c0.3-1.8,1.2-3.4,2.1-4.9c0.8-1.3,1.7-2.7,2.6-4c0.1-0.2,0.2-0.4,0.4-0.5
	c1.3-0.5,1.9-1.8,2.9-2.7c2-1.8,4.2-3.1,6.9-3.7c1.5-0.3,2.9-0.9,4.4-1.1c2.2-0.4,4.4-0.5,6.5-0.2c1.4,0.2,2.8,0.7,4.3,1
	c2.1,0.4,3.9,1.5,5.7,2.4c1.7,0.9,3.3,1.9,4.7,3.2c0.4,0.4,0.9,0.6,1.4,1c0.1-0.2,0.2-0.4,0.3-0.7c0.1-1.6,0.1-3.3,0.3-4.9
	c0.1-1.3,0.3-2.6,0.1-3.9c-0.4-2.5-0.8-5-1.2-7.4c-0.5-2.8-1.1-5.6-1.7-8.3c-0.3-1.4-0.4-2.9-0.5-4.4c-0.1-1-0.3-2-0.8-3
	c-0.3,0.1-0.5,0.1-0.6,0.3c-1,0.7-1.9,1.5-2.9,2.2c-0.5,0.4-1.2,0.6-1.8,0.9c-0.7,0.3-1.3,0.5-2,0.9c-1.5,0.8-3.2,1.2-4.9,1.4
	c-1.7,0.2-3.4-0.4-4.9-1.2c-0.4-0.2-0.7-0.4-1.1-0.5c-1.6-0.6-2.7-1.8-4-2.8c-0.9-0.7-1.8-1.4-2.4-2.4c-0.2-0.3-0.3-0.7-0.5-1.1
	c-0.1-0.1,0-0.4-0.1-0.4c-0.8-0.5-0.6-1.3-0.7-2.1c-0.3-2.8,0.9-5.2,2.5-7.3c1.2-1.5,2.7-2.9,4.2-4.2c0.5-0.5,1.3-0.7,2.1-0.9
	c2.3-0.6,4.7-0.8,7.1,0.1c0.8,0.3,1.7,0.2,2.4,0.6c1.8,0.8,3.6,1.6,5.3,2.5c0.6,0.3,1,1,1.3,1.6c0.4,0.7,0.7,1.5,1.1,2.3
	c0.1,0.2,0.4,0.5,0.6,0.5c0.2,0,0.4-0.3,0.5-0.5c0.4-1,0.7-2,1.1-2.9c0.4-0.9,0.4-1.9,0.4-2.8c0.1-2,0.2-4,0.3-6
	c0.1-1.5-0.1-2.9-0.4-4.4c-0.4-1.9-0.8-3.7-1.4-5.6c-0.5-1.5-1.2-2.9-1.9-4.6c-0.5,0.3-0.9,0.5-1.2,0.7c-0.8,0.7-1.6,0.7-2.6,0.4
	c-1.2-0.4-2.1-1-2.9-1.9c-0.9-1.1-0.7-3.1,0.3-4.1c0.2-0.2,0.4-0.3,0.6-0.3c1.3,0.1,2.6-0.3,3.8,0.6c0.4,0.4,1.1,0.5,1.7,0.8
	c0.8-1.9,0.7-3.8,0.2-5.7c-0.5-1.8-1.3-3.4-2.5-5c-1.2-1.6-3-2.3-4.6-3.1c0.4-0.6,0.8-0.5,1.1-0.3c1.4,0.5,2.6,1.1,3.6,2.2
	c0.6,0.6,1.1,1.2,1.6,1.9c0.1,0.2,0.3,0.4,0.3,0.6c0.1,0.8,0.5,1.5,1.1,2.1c0.1,0.1,0.3,0.2,0.3,0.4c0.3,1.8,1.2,3.6,0.9,5.5
	c-0.1,0.6-0.1,1.1-0.2,1.7c-0.1,0.8,0.2,1.4,0.8,1.7c2,1.2,2.6,3.2,3.4,5.2c0.3,0.7,0.4,1.5,0.5,2.2c0.4,2.2,1,4.3,1.1,6.5
	c0,0.8,0,1.7-0.1,2.5c0,0.9,0,1.8,0,2.6c0,0.2,0,0.4,0,0.6c-0.1,1.5-0.2,3-0.3,4.5c-0.1,1-0.3,2-0.5,2.9c0,0.2-0.1,0.3-0.1,0.5
	c-0.1,2-0.9,3.8-1.9,5.5c-0.5,0.9-0.5,1.7-0.1,2.6c0.7,1.5,1.2,3.1,1.4,4.8c0.1,0.5,0.3,0.9,0.4,1.4c0.3,1.3,0.5,2.6,0.8,4
	c0.3,1.7,0.7,3.3,1.1,5c0.2,0.9,0.2,1.7,0.3,2.6c0.1,1,0.2,2,0.3,3c0.1,1.7,0.2,3.3,0.2,5c0,1-0.3,2-0.2,3c0.3,2-0.3,3.9-0.1,5.8
	c0.1,1.3-0.1,2.7-0.3,4c-0.1,0.6,0,1,0.4,1.4c0.8,0.8,1.4,1.8,2.3,2.5c1.1,0.9,1.7,2.1,2.4,3.2c0.9,1.5,1.8,3.1,2.6,4.7
	c1.2,2.5,2.3,5,3.1,7.6c0.5,1.7,0.7,3.3,0.6,5c-0.2,2-0.4,4-0.7,5.9c-0.1,0.5-0.3,1.1-0.5,1.6c-0.5,1.8-1,3.7-1.6,5.5
	c-0.3,0.9-0.7,1.8-1.1,2.8c-0.5,1.2-1,2.3-1.6,3.5c-0.1,0.3-0.5,0.5-0.9,0.7c0.3,0.7-0.2,1.4-0.6,2c-1.1,1.6-2.2,3.2-3.3,4.9
	c-0.8,1.2-1.5,2.3-2.4,3.5c-0.3,0.5-0.9,0.8-1.3,1.2c-0.2,0.2-0.4,0.5-0.6,0.7c-0.6,0.7-1.1,1.5-1.8,2c-1.6,1.4-3.1,2.9-4.4,4.6
	c-0.7,0.9-1.5,1.7-2.3,2.6c-0.5,0.6-0.8,1.3-1.2,1.9c-0.5,0.7-1,1.3-1.4,2c-0.6,1-1.2,2-1.7,3c-1.1,1.9-1.2,4-1.4,6.1
	c-0.1,1.4,0,2.8,0,4.2c0,0.3,0.1,0.6,0.3,1.1c0.3-0.3,0.5-0.4,0.6-0.6c0.6-0.8,1.2-1.7,1.8-2.5c2.2-2.5,4.4-5.1,6.8-7.5
	c1.7-1.6,3.5-3.1,5.7-4.1c1.1-0.5,2.3-0.8,3.5-1c1.5-0.3,3-0.5,4.5-0.6c0.7-0.1,1.5-0.1,2.2-0.1c1.4,0.2,2.4,1.2,3.6,1.8
	c0.2,0.1,0.4,0.3,0.6,0.4c2,0.9,3.5,2.3,5,3.8c0.9,1,1.7,2.1,2.5,3.2c0.1,0.2,0.2,0.5,0.3,0.5c0.8,0.1,1,0.9,1.5,1.4
	c0.4,0.3,0.5,0.9,0.7,1.3c0.4,1.1,0.6,2.2,1,3.3c0.7,1.8,0.5,3.7,0.3,5.5c0,0.3,0,0.5-0.1,0.8c-0.2,3.4-0.7,6.7-2.8,9.5
	c-0.6,0.9-1.2,1.8-1.9,2.6c-0.3,0.4-0.7,0.7-1.1,1.1c-0.4,0.3-0.8,0.5-1.2,0.8c-1.5,1.4-3.2,2.2-5,2.9c-0.8,0.3-1.6,0.8-2.4,1
	c-1.4,0.4-2.9,0.5-4.4,0.9c-1,0.2-2,0-3,0.2c-0.5,0.1-1.2-0.1-1.8-0.2c-0.3,0-0.6-0.2-0.8-0.1c-0.9,0.3-1.7-0.1-2.6-0.2
	c-1.1-0.2-2.3-0.4-3.3-1c-0.8-0.5-1.6-0.9-2.4-1.3c-0.3-0.2-0.6-0.4-0.9-0.6c-1-0.6-2-1.2-2.9-2.1c-0.6-0.6-1.4-1.1-2.1-1.6
	c-1.2-0.8-2.5-1.6-3.3-2.9c-0.1-0.1-0.2-0.2-0.5-0.3c-0.1,0.1-0.2,0.2-0.2,0.3c-0.3,1.8-0.9,3.5-1,5.4c-0.1,2.4,0.2,4.8,0.3,7.3
	c0.1,1.9,0.7,3.7,1.2,5.4c0.2,0.9,0.8,1.6,1.2,2.5c0.7,1.4,1.4,2.8,2.2,4.1c1.5,2.3,3,4.6,5.6,5.9c0.8,0.4,1.6,0.8,2,1.8
	c0.1,0.3,0.6,0.4,0.9,0.6c2,1.6,4.2,2.7,6.7,3.2c1.1,0.2,2.1,0.6,3.1,1.2c0.7,0.4,1.5,0.7,2.3,0.8c2.7,0.5,5.4,1.1,8.1,1.5
	c1.4,0.2,2.8,0.3,4.2,0.3c1.6,0,3.2-0.3,4.8-0.8c1.1-0.4,2.2-0.6,3.3-1c2.6-0.8,5.1-1.8,7.5-2.9c1.9-0.9,3.6-2.1,5.2-3.3
	c0.6-0.4,0.6-0.7,0.3-1.3c-0.7-1.3-1.5-2.5-2.1-3.9c-1-2.1-1.8-4.2-2.1-6.4c-0.4-2.1-0.6-4.3-0.9-6.4c-0.1-0.9-0.1-1.8,0-2.7
	c0.1-1.7,0-3.5,0.4-5.2c0.4-2,1.2-3.9,1.9-5.8c0.3-0.9,0.8-1.7,1.2-2.6c0.5-1,1.1-2,2.3-2.5c0.2-0.1,0.4-0.3,0.5-0.5
	c0.8-1.6,2.4-2.2,3.8-3c0.7-0.4,1.4-0.5,2.2-0.5c1.9,0.1,3.5,0.8,4.9,2.2c0.2,0.3,0.5,0.5,0.8,0.7c1.8,1.5,3.2,3.4,4.5,5.3
	c0.1,0.2,0.1,0.5,0.2,0.8c0.2,0.7,0.4,1.5,0.7,2.1c0.5,1.1,1.1,2.1,1.5,3.2c0.2,0.4,0.3,0.9,0.4,1.4c0.2,1.3,0.5,2.7,0.6,4
	c0.1,1.8-0.3,3.5-0.9,5.1c-0.8,2-1.9,3.8-3,5.6c-0.5,0.7-0.8,1.6-1.2,2.3c-0.2,0.3-0.5,0.6-0.7,1c-0.4,0.6-0.8,1.3-1.2,1.9
	c-0.2,0.3-0.3,0.5-0.5,0.8c-1.5,1.6-3,3.1-4.5,4.7c-0.4,0.4-0.7,0.9-1,1.4c-0.2,0.4-0.1,0.7,0.2,0.9c0.4,0.2,0.8,0.4,1.2,0.6
	c0.9,0.3,1.9,0.4,2.8,0.8c1.1,0.5,2.1,0.5,3.2,0.3c0.4-0.1,0.9,0.2,1.4,0.2c1.5,0.1,3.1,0.5,4.6,0.2c1.6-0.3,3.3,0,4.8-0.9
	c0.1-0.1,0.2-0.1,0.3-0.1c1.5,0,2.8-0.7,4.2-0.9c0.9-0.1,1.7-0.3,2.5-0.6c1-0.4,2-0.5,3.1-0.5c0.2,0,0.3,0,0.5-0.1
	c1-0.7,2.2-0.5,3.4-0.6c0.4-0.1,0.8,0,1.2,0.1c1.4,0.2,2.7,0.5,4.1,0.8c0.2,0,0.4,0.1,0.6,0.2c1.2,0.8,2.8,0.9,4.1,1.6
	c0.6,0.3,1,0.1,1.5-0.2c1.5-1,3-2,4.6-2.8c0.7-0.4,1.5-0.4,2.3-0.6c0.5-0.1,1-0.1,1.4-0.3c1.1-0.5,2.3-0.6,3.4,0
	c0.1,0.1,0.3,0.1,0.5,0c0.8-0.4,1.5,0,2.2,0.4c0.8,0.5,1.7,0.6,2.6,0.9c2.5,0.9,4.8,2.3,7.2,3.5c1.1,0.5,2,1.3,3,1.9
	c1.5,0.9,3.2,1,4.8,1.3c1.1,0.2,2.2,0.3,3.3,0.5c0.2,0,0.4,0,0.7-0.1c-0.1-0.2-0.1-0.4-0.2-0.5c-0.6-0.9-1.1-1.8-1.7-2.7
	c-0.6-0.9-0.7-1.7-0.6-2.6c0.1-0.8,0.2-1.7,0.4-2.5c0.6-2.2,2-3.8,4.1-4.8c1.7-0.9,3.5-0.8,5.3-0.6c2.5,0.2,3.9,1.5,4.5,3.9
	c0.1,0.3,0.3,0.6,0.5,0.9c0.5,0.7,0.6,1.4,0.5,2.3c-0.1,1.2-0.2,2.4-0.4,3.6c-0.1,0.5-0.3,0.9-0.5,1.3c-0.2,0.3-0.5,0.5-0.7,0.8
	c-0.7,1-1.4,2-2.8,2.3c-0.2,0-0.4,0.2-0.7,0.4c0.3,0.3,0.5,0.6,0.8,0.7c2,0.7,3.9,1.9,6.1,2.1c0.5,0.1,1,0,1.5,0
	c0.4,0,0.8-0.1,1.2,0c3,0.4,5.9,0.3,8.8-0.5c1.6-0.4,3.2-1.1,4.6-2c1.3-0.9,2.8-1.5,4.1-2.4c1.5-1.2,3.4-2,4.4-3.8
	c0.2-0.3,0.3-0.7,0.3-1c0.1-1.3,0-2.7,0.1-4c0.1-1,0.4-2,0.7-3c0.3-0.9,1.1-1.2,1.9-1.7c0.8-0.4,1.5-0.8,2.4-0.5
	c0.3,0.1,0.6,0.1,0.8,0.2c2.6,0.7,3,1.9,3,4.2c0,2.2-1.1,4.1-2.7,5.7c-0.5,0.5-1.1,1-1.7,1.5c-0.6,0.5-0.7,0.9-0.2,1.4
	c1.1,1.1,2.3,2.1,4.1,2.2c2.3,0.1,4.4-0.3,6.7-0.5s4.5-1,6.6-1.9c0.6-0.3,1.3-0.5,1.6-1c-0.4-1-0.9-2-1.2-2.9
	c-0.5-1.4-0.4-2.8,0.3-4.2c0.7-1.5,2.3-2.1,3.8-1.4c1.9,0.9,2.7,2.7,2.4,4.8c-0.1,0.3,0.1,0.6,0,0.9c-0.1,0.4-0.2,0.8-0.4,1.2
	c-0.3,0.6-0.7,1.1-1,1.7c0.1,0.2,0.1,0.4,0.2,0.4c1.4,0.5,2.7,1,4.3,0.6c1.5-0.3,3-0.9,4.3-1.8c1.5-0.9,2.9-2,4.3-3
	c0.3-0.2,0.5-0.5,0.7-0.8c0.8-1.7,2.2-2.7,4-3.1c0.4-0.1,0.9-0.1,1.3,0c0.7,0.1,1.2,0.1,1.8-0.3c0.6-0.4,1.2-0.8,1.8-1.1
	c0.8-0.5,1.8-0.6,2.7-0.8c0.7-0.1,1.5,0,2.3-0.1C294.6,660.8,294.9,661.1,295.3,661.6z M77,610.9c-1.3,0.2-2.7,0.2-4,0.6
	c-1.6,0.5-3.1,1.4-4.7,2.1c-0.1,0-0.1,0.1-0.2,0.1c-0.8,1.1-2.1,1.5-3.2,2.2c-1.5,0.9-2.6,2.2-3.7,3.5c-1.1,1.4-2.1,2.9-3,4.4
	c-0.5,0.8-0.7,1.6-0.1,2.5c1.6,2.4,3.6,4.6,6,6.3c2.2,1.7,4.6,3.2,7.3,3.9c1.1,0.3,2.3,0.5,3.4,0.6c2.4,0.1,4.7-0.8,7-1.6
	c1.5-0.5,3-1.3,4.3-2.2c1.2-0.8,2.5-1.8,3.4-3c1.2-1.6,2.3-3.3,2.7-5.3c0.1-0.5,0.2-1,0-1.4c-0.6-1.6-1.2-3.3-2-4.8
	c-1-2-2.5-3.4-4.4-4.4c-1.4-0.8-2.9-1.6-4.3-2.3C80.1,611.5,78.6,611.1,77,610.9z M49.8,550.2c0.2,0,0.5,0,0.7,0
	c1.7-0.2,3.5-0.4,5.2-0.6c0.8-0.1,1.7-0.1,2.5-0.3c2.1-0.5,3.9-1.7,5.2-3.4c1.5-2,2.8-4.2,3.8-6.5c0.4-1.1,0.9-2.2,0-3.3
	c-0.5-0.6-1-1.3-1.6-1.8c-1.4-1.1-2.7-2.4-4.4-3.1c-1.3-0.5-2.6-1.2-3.9-1.8c-0.9-0.4-2-0.7-2.8-1.2c-1.2-0.8-2.4-0.8-3.6-0.6
	c-1.6,0.2-3.1,0.6-4.7,0.9c-0.3,0.1-0.6,0.1-0.9,0.2c-0.8,0.2-1.5,0.4-2.3,0.6c-0.8,0.2-1.5,0.5-2.3,0.8c-1,0.4-1.9,0.8-2.5,1.7
	c-0.7,0.9-1,1.9-1.5,2.8c-1,1.8-1.3,3.7-1,5.7c0.2,1.4,0.4,2.8,1.5,3.9c0.8,0.8,1.4,1.7,2.3,2.4c1.3,1,2.7,2,4.3,2.5
	C45.6,549.8,47.7,550,49.8,550.2z M116,662.6c0.6-0.4,1-0.6,1.4-0.9c1.3-1.2,2.6-2.5,3.8-3.8c1.5-1.6,2.7-3.4,3.4-5.4
	c0.1-0.4,0.3-0.8,0.5-1.2c0.5-1.3,1.1-2.5,1.6-3.8c0.2-0.5,0.3-1.1,0.2-1.6c-0.1-0.8-0.3-1.7-0.3-2.5c0-1-0.4-1.6-1.1-2.1
	s-1.4-1-2.2-1.1c-1.4-0.1-2.7,0.2-3.5,1.5c-0.1,0.2-0.4,0.3-0.7,0.5c-0.3,0.2-0.6,0.3-0.8,0.5c-1.5,1.6-2.2,3.5-2.5,5.6
	c-0.2,1.7-0.3,3.5-0.4,5.2c-0.1,0.7-0.1,1.4-0.1,2.2c0.1,1.4,0.3,2.8,0.4,4.3C115.8,660.6,115.9,661.4,116,662.6z M51.5,485.1
	L51.5,485.1c-0.4,0-0.8-0.1-1.2,0.1c-1.3,0.6-2.3,1.5-2.9,2.8c-0.2,0.4-0.2,1.2,0,1.6c1,1.6,2.5,2.7,4.3,3.2c1,0.3,2,0.6,2.9,1
	c2.1,0.9,4.2,0.9,6.3,0.1c0.6-0.2,1.1-0.5,1.6-0.8c0.4-0.2,0.7-0.6,0.5-1.1c-0.4-1-0.8-2-1.7-2.7c-1.6-1.1-3.2-2.2-4.8-3.3
	c-1.2-0.8-2.6-1.1-4-0.9C52.1,485.1,51.8,485.1,51.5,485.1z M163.8,673.6c-0.4,0.4-0.8,0.7-1,1c-1.4,2.4-2.9,4.7-2.9,7.6
	c-0.1,2,0.7,3.7,2.4,4.7c0.3,0.2,0.9,0.3,1.2,0.2c0.7-0.2,1.4-0.6,2.1-1c0.2-0.1,0.3-0.3,0.4-0.4c0.4-0.7,0.7-1.3,1-2
	c0.8-1.8,1-3.7,0.2-5.7c-0.4-0.9-1-1.6-1.5-2.4C165.2,674.9,164.6,674.3,163.8,673.6z M204.9,672.5c1.5-0.3,2.4-1.4,3.2-2.5
	c0.1-0.2,0.1-0.5,0.1-0.7c-0.1-1.4-0.7-2.4-1.8-3.2s-1.5-0.7-2.3,0.3c-0.2,0.3-0.4,0.7-0.4,1.1c-0.1,0.5,0.1,1,0,1.6
	C203.6,670.4,204.1,671.5,204.9,672.5z M263.9,669.3c0.7-0.9,1.3-1.8,1.9-2.7c0.1-0.2,0.2-0.4,0.1-0.6c0-0.8-0.2-1.6-0.8-2.3
	c-0.6-0.8-1.2-0.8-1.8,0.1C262.2,665.5,262.4,667.7,263.9,669.3z M287.4,664.7c-0.9,0.5-1.6,1.3-1.9,2.3c-0.2,0.8,0,1.2,0.7,1.6
	c0.7,0.3,1.4,0.2,1.8-0.3c0.5-0.7,0.6-1.5,0.5-2.4C288.5,665.2,287.8,665,287.4,664.7z M59.3,458.6c-0.1,1.5,0.3,2,2.1,2.8
	c0.4,0.2,1.3-0.3,2.1-1.1C62.1,459.7,60.9,458.8,59.3,458.6z M242.6,666c1.9-0.7,2.8-2.5,2.1-4.1c-0.6-0.1-0.9,0.3-1.2,0.7
	C242.8,663.6,242.6,664.7,242.6,666z"/>
</svg>
