<?xml version="1.0" encoding="utf-8"?>
<!-- Generator: Adobe Illustrator 19.1.0, SVG Export Plug-In . SVG Version: 6.00 Build 0)  -->
<svg version="1.1" id="Layer_1" xmlns="http://www.w3.org/2000/svg" xmlns:xlink="http://www.w3.org/1999/xlink" x="0px" y="0px"
	 viewBox="0 0 200 200" style="enable-background:new 0 0 200 200;" xml:space="preserve">
<style type="text/css">
	.st0{fill:#010101;}
</style>
<path class="st0" d="M173.3,13.3c0,0.4,0.1,0.8-0.2,1.2c-0.1,0.1-0.1,0.2-0.1,0.3c0,0.2,0.1,0.5-0.1,0.7c-0.2,0.7,0,1.4-0.1,2.1
	c0,0.1,0.1,0.2,0.1,0.3c0.5,0.2,1.1,0,1.3,0.7c0.2,0,0.3-0.1,0.5-0.1c0.5,0.8,0.5,1,0,1.6c-0.3,0.4-0.7,0.5-1.1,0.3
	c-0.6-0.3-1-0.7-1.1-1.5c-0.2,0.2-0.3,0.3-0.3,0.4c-0.1,0.5-0.3,1-0.2,1.6c0.1,0.3,0.2,0.7-0.1,1c0.1,0.2,0.2,0.4,0.3,0.7
	c0.2,0.3,0.2,0.7,0.5,0.9c0.3,0.2,0.3,0.4,0.1,0.8c0.2-0.1,0.3-0.1,0.5-0.1c0.6,0.8,1.1,1.6,1.7,2.4c0.2,0.3,0.5,0.7,0.6,1.2
	c0.3,1.2,0.6,2.3,0.7,3.5c0.1,1,0.1,2-0.1,3c-0.2,0.7-0.6,1.2-1,1.7c-0.4,0.6-0.8,1.1-1.2,1.7c-0.1,0.2-0.2,0.4-0.2,0.6
	c-0.1,1-0.2,2-0.3,2.9c-0.1,1.1-0.1,2.1-0.2,3.1c-0.1,1.2-0.3,2.5-0.5,3.6c-0.1,0.6-0.2,1.3-0.1,1.9c0.1,0.7-0.1,1.5-0.1,2.2
	c0,1.3-0.1,2.5,0.2,3.8c0,0.1,0.1,0.2,0.1,0.3c0.4,0.1,0.8,0.2,1.1,0.1c0.3-0.1,0.6,0.1,0.8,0.3c0.4,0.3,0.8,0.5,1.2,0.8
	c0.6,0.3,0.9,0.8,1,1.5c0.1,0.3,0.2,0.5,0.3,0.7c0.2,0.6,0.3,1.2-0.2,1.8c-0.3,0.4-0.7,0.6-1.1,0.9c-0.2,0.1-0.4,0.2-0.6,0.2
	c-0.6-0.1-1.1-0.1-1.7-0.6c-0.5-0.4-1.1-0.7-1.4-1.3c-0.2-0.5-0.7-0.8-0.8-1.4c0-0.1-0.1-0.1-0.2-0.2c-0.3,0.6-0.4,1.1-0.5,1.7
	c0,0.1,0.1,0.2,0,0.3c-0.6,2-0.2,4,0.1,6c0.1,1,0.3,1.9,0.4,2.9c0.1,0.4,0.2,0.7,0.2,1.1c0.2,0.8,0.3,1.7,0.5,2.5
	c0.3,1.2,0.8,2.3,1.1,3.4c0.2,0.6,0.3,1.3,0.5,2c0.3,1,0.3,2,0.8,3c0.2,0.3,0.1,0.7,0.2,1.1c0.4,1.3,0.9,2.6,1.1,4
	c0.1,0.3,0,0.7,0.1,1c0,0.2,0,0.3,0.1,0.4c0.3,0.3,0.3,0.6,0.3,1c0.1,0.8,0.3,1.6,0.3,2.4c0.1,1.5,0.5,3,0.4,4.5
	c-0.1,0.4,0.1,0.8,0.4,1c1.1,1,1.6,2.4,2.3,3.6c0.2,0.3,0.3,0.7,0.3,1.1c0.2,0.8,0.3,1.7,0.5,2.6c0.1,1,0.4,2,0.6,3
	c0.2,1.1,0.2,2.2-0.1,3.4c-0.2,0.9-0.3,1.8-0.5,2.7c-0.1,0.4-0.2,0.7-0.3,1.1c-0.3,0.8-0.7,1.7-0.8,2.5c-0.1,0.4-0.3,0.9-0.5,1.3
	c-0.3,0.8-0.8,1.7-1.1,2.6c-0.2,0.6-0.6,1.1-0.9,1.7c-0.6,1.2-1.3,2.5-1.4,4c-0.1,0.8-0.2,1.6-0.3,2.4c-0.1,0.3,0,0.6,0,1
	c0.6,0.1,1.3,0.2,1.8,0.3c0.9,0.1,1.8,0.1,2.7,0.1c0.5,0.1,1,0.2,1.5,0.3c0.4,0.1,0.8,0.2,1.3,0.3c0.5,0.1,0.9,0.2,1.4,0.4
	c1.1,0.4,2.3,0.9,3.3,1.6c0.6,0.4,1.1,0.8,1.7,1.3c0.4,0.3,0.9,0.7,1.3,1.1c1.1,1,1.9,2.1,2.6,3.4c0.1,0.2,0.2,0.4,0.3,0.5
	c0.7,0.8,1,1.9,1.3,2.9c0.2,0.7,0.3,1.3,0.5,2c0.3,1.1,0.6,2.2,0.8,3.3c0.1,0.4,0.1,1,0.1,1.5c0.1,1,0.2,1.9,0.3,2.9
	c0.1,0.7,0,1.4,0,2.1c0,0.5,0,1,0.1,1.5c0.1,0.7-0.1,1.4-0.4,2.1c-0.3,0.8-0.6,1.6-1.2,2.2c-0.3,0.3-0.6,0.5-0.9,0.7
	c-0.5,0.3-0.9,0.6-1.3,1c-0.6,0.4-1.1,0.7-1.8,0.8c-1.3,0.2-2.5,0.5-3.7,0.7c-0.4,0.1-0.9-0.1-1.3-0.2c-0.9-0.2-1.8-0.6-2.7-0.7
	c-0.7-0.1-1.3-0.5-1.8-1c-0.3-0.3-0.6-0.6-1-0.8c-0.6-0.4-1.2-0.7-1.8-1.2c-0.6-0.3-1.1-0.7-1.6-1.1c-0.3-0.2-0.5-0.4-0.7-0.7
	c-0.5-0.6-1-1.2-1.4-1.9c-0.5-0.8-1-1.5-1.5-2.1c-0.1-0.1-0.2-0.2-0.2-0.3c-0.4-1-1.1-1.9-1.5-2.9c-0.6-1.3-1.2-2.7-1.5-4.2
	c-0.4-1.5-0.3-3-0.3-4.4c0.1-1.3,0.3-2.7,0.5-4c0.1-0.2,0-0.4,0-0.7c-0.2,0.1-0.5,0.1-0.6,0.1c-1.3,0.4-2.6,0.8-3.8,1.4
	c-0.9,0.4-1.7,0.8-2.5,1.3c-0.2,0.1-0.4,0.3-0.6,0.4c-1,0.7-1.9,1.6-2.9,2.5c-0.9,0.8-1.8,1.6-2.2,2.8c-0.2,0.5-0.5,0.9-0.7,1.4
	c-0.1,0.2-0.2,0.4-0.2,0.6c-0.2,1.1-0.6,2.2-1.1,3.3c-0.1,0.2-0.1,0.4-0.2,0.7c0.7,0.1,1.3,0.2,1.9,0.3c1.4,0.3,2.9,0.2,4.2,0.6
	c1.6,0.4,3,1.1,4.3,2.1c0.5,0.3,1,0.7,1.4,1.1c1.5,1.2,3,2.4,4.1,3.9c0.7,1,1.5,2,1.9,3.2c0.2,0.4,0.5,0.9,0.5,1.4
	c0.1,0.4,0.5,0.8,0.7,1.3c0.2,0.3,0.1,0.3-0.1,0.6c0.5,0.4,0.3,1,0.5,1.5c0.1,0.4,0.2,1,0.3,1.5c0.1,0.3,0.2,0.6,0.2,1
	c0.1,1.1,0,2.1,0.1,3.1c0,0.2,0.1,0.3,0.1,0.4c0.1,0.6,0.1,1.2-0.1,1.9c-0.2,0.9-0.9,1.6-1.3,2.4c-0.2,0.4-0.5,0.9-0.7,1.4
	c-0.5,1-1.3,1.7-2.3,2.2c-0.3,0.2-0.7,0.3-1,0.4c-0.5,0.2-0.9,0.4-1.4,0.6c-0.8,0.3-1.6,0.2-2.4,0.2c-0.2,0-0.4-0.1-0.6,0
	c-0.3,0.1-0.7,0-1-0.2c-0.2-0.1-0.5-0.2-0.7-0.2c-0.6-0.2-1.1-0.3-1.7-0.4c-0.9-0.2-1.6-0.6-2.3-1c-0.3-0.2-0.6-0.3-0.9-0.4
	c-1.1-0.6-2.1-1.3-2.9-2.3c-0.6-0.6-1.1-1.3-1.8-1.9c-0.9-1-1.4-2.1-2.1-3.2c-0.2-0.3-0.5-0.7-0.7-1c-0.5-0.7-0.6-1.5-0.7-2.4
	c-0.3-1.5-0.5-3-0.8-4.4c-0.1-0.4-0.1-0.9-0.1-1.3c-0.2-0.8-0.1-1.6-0.6-2.3c-0.1-0.1-0.1-0.3-0.1-0.4c-0.1-0.3-0.1-0.7-0.1-1
	c-0.7,0-1.4,0-2.1,0c-1,0.1-1.9,0.1-2.9,0.2c-1.4,0.1-2.7,0.2-4.2,0.3c-1.3,0.1-2.5,0.2-3.8,0.3c-1.4,0.1-2.7,0.4-4,0.7
	c-1,0.3-1.9,0.6-2.9,0.8c-1,0.3-2,0.6-3,1c-1.4,0.6-2.7,1.2-4,1.9c-1.1,0.6-2.3,1.1-3.5,1.7c-1.4,0.7-2.9,1.4-4.3,2.2
	c-1.1,0.6-2.2,1.2-3.4,1.9c-0.2,0.1-0.3,0.2-0.5,0.2c-0.9,0.4-1.7,0.8-2.6,1.2c-1.2,0.5-2.4,1.1-3.6,1.7c-0.8,0.4-1.7,0.9-2.5,1.2
	c-1.2,0.5-2.5,0.8-3.7,1.3c-1.6,0.6-3.3,1.1-4.9,1.9c-1.2,0.7-2.5,1.1-3.9,1.3c-0.4,0.1-0.8,0.1-1.2,0.2c-0.2,0.1-0.4,0.2-0.5,0.3
	c-0.5,1-1.3,1.7-2,2.5c-0.5,0.5-1,0.9-1.5,1.3c-0.2,0.2-0.6,0.4-0.7,0.7c-0.7,0.9-1.6,1.5-2.5,2.2c-0.9,0.7-1.9,1-3,1.2
	c-1.1,0.3-2.2,0.6-3.4,0.8c-1,0.2-2.1,0.1-3.1,0.1c-0.2,0-0.5-0.1-0.6-0.2c-0.3-0.3-0.7-0.3-1-0.3c-0.6,0-1.3,0.1-1.9,0
	c-0.6-0.1-1.2-0.2-1.8-0.3c-0.7-0.1-1.3-0.6-2-0.5c-0.3,0-0.6-0.2-0.9-0.3c-1-0.3-1.9-0.7-2.9-1c-1.5-0.6-2.9-1.2-4.3-1.7
	c-0.5-0.2-1.1-0.4-1.6-0.7c-0.6-0.3-1.2-0.7-1.8-1.1c-0.6-0.3-1.1-0.7-1.7-1.1c-0.9-0.5-1.8-1-2.7-1.5c-0.9-0.5-1.9-0.9-2.9-1.2
	c-0.7-0.2-1.4-0.1-2.1-0.2c0.3,1.5,0.8,2.7,1,4c0.2,1.1,0.4,2.1,0.2,3.3c-0.1,0.7,0,1.4-0.2,2.1c-0.2,1-0.5,1.9-1.1,2.7
	c-0.1,0.2-0.3,0.4-0.3,0.6c-0.2,0.7-0.8,1.1-1.3,1.5c-0.1,0.1-0.2,0.2-0.3,0.2c-0.8,0.1-1.7,0.3-2.5,0.3c-0.9-0.1-1.8-0.4-2.5-1
	c-0.4-0.3-0.8-0.7-1.1-1.1c-0.2-0.2-0.2-0.4-0.3-0.6c-0.1-0.2-0.1-0.4-0.3-0.6c-0.3-0.4-0.5-1-0.6-1.5c-0.1-0.4-0.2-0.8-0.3-1.2
	c0-0.1,0-0.2,0-0.3c0.1-0.5,0.1-1,0.1-1.5c0-1.1,0.3-2,0.7-3c0.5-1.1,1.3-2,1.9-3l0.1-0.1c0.2-0.6,0.5-1,0.8-1.4
	c0.1-0.1,0.1-0.2,0.1-0.3c-0.2-0.1-0.3-0.2-0.5-0.2c-1.3,0.2-2.6-0.1-3.8,0.4c-0.2,0.1-0.5,0.1-0.7,0.1c-0.5,0-1,0.1-1.5,0.3
	c-0.3,0.2-0.8,0.3-1.2,0.4c-0.3,0.1-0.5,0.3-0.5,0.6c-0.1,0.3,0,0.6-0.1,0.8c0,0.6-0.1,1.2-0.1,1.7c-0.1,0.6-0.1,1.2-0.2,1.9
	c-0.2,0.8-0.3,1.7-0.7,2.4c-0.3,0.7-0.9,1.3-1.7,1.6c-0.3,0.1-0.6,0.2-0.9,0.1c-0.1-0.1-0.2-0.1-0.3-0.1c-0.3-0.1-0.7,0.1-1-0.2
	c-0.4-0.4-0.7-1-0.7-1.6c-0.1-0.6-0.1-1.2-0.2-1.9c0-0.1,0-0.1,0-0.2c0.3-1,0.3-2,0.7-2.9c0.1-0.2,0.1-0.4,0.2-0.6
	c0.1-0.2,0.1-0.4,0.2-0.6c0.3-0.3,0.5-0.6,0.5-1c0.1-0.3,0.3-0.5,0.6-0.7c0.6-0.4,1.2-0.7,1.8-1.1c-0.6-0.7-1.2-1.1-2.1-1.1
	c-0.4,0-0.8,0-1.1-0.3c-0.5,0.3-0.9,0.2-1.4,0.2c-0.5,0-1.1,0.1-1.5,0.2c0.1,0.6,0.2,1.2,0.2,1.7c0.1,0.3-0.1,0.6-0.3,0.7
	c-0.1,0.1-0.2,0.2-0.3,0.3c-0.3,0.4-0.7,0.6-1.3,0.6c-0.6,0.1-0.9-0.2-1.1-0.7c-0.3-0.6-0.2-1.2,0.2-1.7c0.3-0.5,0.8-1,1.3-1.5
	c-0.7-0.2-1.3-0.6-2.1-0.6c-0.8,0.1-1.6,0.1-2.4,0.1c-0.3,0-0.7,0.2-1,0.2c-0.7-0.1-1.2,0.3-1.8,0.6c-0.2,0.1-0.5,0.3-0.7,0
	c-0.2-0.2,0-0.4,0.4-0.7c0.2-0.1,0.4-0.2,0.6-0.2c1.1-0.3,2.2-0.5,3.3-0.4c0.5,0,1-0.1,1.5-0.1c1-0.1,1.9,0.2,2.7,0.7
	c0.2,0.1,0.4,0.1,0.6,0.1c0.5-0.1,0.9-0.1,1.4-0.2c0.4-0.1,0.8-0.1,1.2-0.2c0.7-0.2,1.4,0,2.1,0c0.7,0,1.4,0.3,1.9,0.7
	c0.3,0.2,0.5,0.6,0.7,0.8c0.6-0.2,1.1-0.4,1.6-0.6c0.8-0.2,1.7-0.4,2.5-0.7c0.7-0.2,1.5-0.3,2.2-0.6c0.6-0.2,1.1-0.3,1.7-0.2
	c1,0.1,1.9,0.3,2.9,0.6c0.3,0.1,0.6,0.3,0.9,0.4c0.2,0.1,0.4,0.2,0.6,0.1c0.4-0.2,0.9-0.4,1.3-0.6c0.5-0.2,1-0.3,1.5-0.6
	c0.7-0.4,1.5-0.6,2.2-0.7c0.1,0,0.2-0.1,0.2-0.1c0.9-0.6,1.9-0.7,3-0.4c0.8,0.2,1.7,0.2,2.5,0.3c1.7,0.2,3.2,0.7,4.7,1.5
	c0.9,0.5,1.9,1,2.7,1.7c0.4,0.4,0.8,0.8,1.2,1.2c0.6,0.6,1.2,1.3,1.9,1.9c0.5,0.3,0.7,0.8,1.1,1.3c0.5,0.7,1.2,1.3,1.8,2
	c0.6,0.6,1.2,1.1,1.8,1.6c0.9,0.7,1.9,1.4,3,1.7c0.5,0.1,1,0,1.5,0c0.5-0.1,0.9-0.1,1.4-0.2c0.2,0,0.3-0.1,0.5-0.1
	c0.3-0.1,0.6-0.1,0.9-0.1c0.3-0.1,0.6,0,0.8-0.2c0.6-0.5,1.5-0.5,2.1-1.1c0.4-0.3,1-0.4,1.4-0.6c1.4-0.4,2.5-1.3,3.5-2.2
	c0.3-0.3,0.6-0.6,1-0.8c0.1-0.1,0.2-0.3,0.4-0.5c-0.3-0.1-0.5-0.1-0.6-0.1c-0.5,0.1-1,0.3-1.4,0.3c-0.5,0.1-1.1,0.1-1.5-0.1
	c-1.4-0.4-2.8-0.8-4.2-1.3c-0.5-0.2-0.9-0.6-1.3-0.9c-0.7-0.5-1.3-1-1.9-1.6c-0.4-0.3-0.9-0.6-1.3-1c-0.5-0.4-0.5-1-0.7-1.6
	c-0.2-0.3-0.3-0.7-0.6-1.1c-0.3-0.3-0.5-0.8-0.5-1.2c-0.1-0.7-0.2-1.4-0.2-2.1c0-0.2,0-0.4,0-0.7c0-0.1,0.1-0.2,0.1-0.3
	c-0.5-1.2,0.1-2.3,0.2-3.5c0.1-0.7,0.2-1.4,0.4-2.1c0.1-0.2,0.2-0.4,0.2-0.7c0.1-0.3,0.4-0.7,0.3-1.1v-0.1c0.6-1.1,0.8-2.5,1.8-3.4
	c0.9-0.8,1.7-1.8,2.5-2.7c0.5-0.5,1.1-0.9,1.6-1.3c0.1-0.1,0.2-0.1,0.2-0.2c0.5-0.5,1-0.8,1.7-1c0.7-0.2,1.4-0.4,2.1-0.5
	c0.9-0.2,1.7-0.2,2.6-0.1c0.6,0.1,1.2,0.4,1.8,0.7c0.8,0.4,1.4,1.1,2.1,1.7c0.5,0.5,1,1.1,1.5,1.6c0.5,0.4,0.6,0.8,0.7,1.3
	c0.2,0.8,0.3,1.7,0.6,2.5c0.2,0.3,0.2,0.7,0.3,1.1c0.2,1.1,0.5,2.2,0.7,3.3c0.2,1,0.1,1.9-0.1,2.9c-0.1,0.4-0.1,0.7-0.1,1.1
	c-0.1,0.7-0.1,1.4-0.2,2.1c-0.1,0.8-0.1,1.6-0.3,2.3c-0.2,0.6-0.3,1.2-0.5,1.9c-0.1,0.2-0.1,0.3-0.1,0.5c0.1,0.1,0.1,0.1,0.1,0.1
	c0.5-0.3,0.9-0.5,1.4-0.8c0.5-0.3,1-0.6,1.6-0.8c0.5-0.2,1-0.6,1.4-1c0.5-0.3,0.9-0.7,1.4-1c0.5-0.3,1-0.7,1.5-1.1
	c0.6-0.4,1.2-0.8,1.8-1.2c1-0.6,1.9-1.3,2.8-2.1c0.4-0.3,0.9-0.5,1.3-0.8c1.1-0.7,2.2-1.4,3.3-2.2c0.9-0.7,1.9-1.1,2.9-1.7
	c1.3-0.7,2.6-1.5,3.8-2.1c0.9-0.5,1.9-1,2.9-1.4c2.1-0.8,4.2-1.8,6.3-2.7c1.3-0.6,2.6-1.2,4-1.9c1.4-0.6,2.7-1.2,4.1-1.7
	c0.6-0.3,1.2-0.6,1.8-0.8c0.5-0.2,1-0.3,1.5-0.5c1.6-0.6,3.2-1.1,4.9-1.2c0.9-0.1,1.7-0.3,2.6-0.3c0.6,0,1.1-0.2,1.7-0.3
	c1.3-0.2,2.5-0.2,3.8-0.1c0.9,0.1,1.7,0,2.7,0c0.1-0.6,0.1-1,0.2-1.5c0.1-0.6,0.1-1.3,0.3-1.9c0.1-0.6,0.4-1.1,0.6-1.7
	c0.5-1.5,1.1-2.9,1.8-4.2c0.3-0.5,0.7-1,1-1.4c0.7-1,1.5-2,2.2-3c0.1-0.1,0.1-0.2,0.2-0.2c0.7-0.4,1.3-1.2,2-1.7
	c0.7-0.5,1.4-1,2.1-1.5c0.5-0.3,0.9-0.7,1.4-0.9c1.3-0.5,2.4-1.3,3.8-1.5c0.7-0.1,1.4-0.2,2.1-0.3c0.7-0.1,1.5-0.3,2.3-0.4
	c0.6-0.1,1.1-0.2,1.7-0.2c0.4,0.1,0.7-0.1,0.9-0.5c0.4-1,0.9-2,1.3-3c0.3-0.7,0.7-1.2,0.9-2c0.2-1.2,0.5-2.5,0.7-3.8
	c0.2-1,0.5-1.9,0.7-2.9c0.4-1.7,0.9-3.4,1.3-5.1c0.1-0.3,0.1-0.6,0.2-0.8c0.5-1,0.5-2,0.3-3c-0.1-1.1-0.2-2.1-0.4-3.1
	c-0.1-0.8-0.3-1.7-0.9-2.4c-0.1-0.2-0.2-0.4-0.3-0.6c-0.4,0.2-0.5,0.5-0.6,0.8c-0.2,0.4-0.3,1-0.5,1.3c-0.2,0.4-0.5,0.7-0.7,1.1
	c-0.2,0.3-0.3,0.5-0.6,0.8c-0.1,0.2-0.2,0.4-0.3,0.6c-0.3,0.4-0.6,0.7-1,1.1c-0.2,0.3-0.5,0.6-0.9,0.4c0,0.2,0.1,0.4,0,0.4
	c-0.3,0.2-0.6,0.5-1,0.6c-0.3,0.1-0.8,0.1-1,0.4c-0.9,0-1.7,0.7-2.6,0.2c-0.2-0.1-0.3-0.1-0.5-0.1c-0.9,0.2-1.6-0.1-2.4-0.5
	c-1-0.5-1.9-1.1-2.8-1.8c-0.8-0.6-1.5-1.3-1.8-2.3c-0.1-0.4-0.3-1-0.5-1.4c-0.1-0.2-0.1-0.3-0.1-0.4c0.2-0.8,0-1.6-0.1-2.4
	c0-0.4,0.1-1,0.3-1.3c0.3-0.6,0.8-1.2,1.2-1.8c0.3-0.4,0.6-0.9,0.9-1.3c0.5-0.6,1-1,1.7-1.2c0.7-0.3,1.5-0.7,2.2-1.1
	c0.5-0.2,1.1-0.5,1.7-0.4c0.1,0,0.2,0,0.2,0c0.9-0.4,1.9-0.4,2.9-0.6c0.8-0.2,1.7-0.2,2.5,0c0.4,0.1,0.9,0.1,1.4,0.2
	c0-0.5,0-1-0.1-1.5c-0.2-1.2-0.6-2.4-1-3.5c-0.3-1-0.5-2-0.8-3c-0.2-0.9-0.5-1.8-0.7-2.7c-0.1-0.2-0.1-0.5-0.2-0.7
	c-0.2-1.1-0.7-2.1-1.3-3.1c-0.1-0.2-0.2-0.5-0.3-0.7c-0.4-0.8-0.7-1.7-1.1-2.5c-0.5-0.9-0.7-1.8-0.9-2.7c-0.2-1-0.5-1.9-0.7-2.9
	c-0.2-0.7-0.4-1.3-0.4-2.1c0-0.2-0.1-0.4-0.1-0.7c-0.3-1.7-0.5-3.4-0.3-5.2c0.1-0.6,0.2-1.1,0.3-1.6c0-0.1,0.1-0.2,0.1-0.2
	c0.1-1.1,0.6-2.1,1.2-3c0.4-0.7,1.1-1,1.8-1.1c0.3-0.1,0.6-0.2,0.8-0.4c0.2-0.2,0.4-0.3,0.6-0.4c0.2-0.2,0.4-0.7,0.2-1
	c-0.2-0.3-0.1-0.6-0.1-1c0.1-0.6,0-1.3,0-2c0.1-1.3,0.1-2.7,0.1-4c0.1-1.1,0.3-2.2,0.4-3.4c0.1-1,0.3-2,0.3-2.9c0-0.6,0-1.1,0.1-1.7
	c0.1-0.4,0.2-0.7,0.2-1.1c0.1-0.4,0.1-1,0.1-1.4c-0.7-0.2-1.3-0.4-1.7-1c-0.1-0.1-0.2-0.1-0.2-0.2c-0.2-0.6-0.7-0.8-1.1-1.2
	c-1-0.8-1-1.7-0.3-2.8c0.3-0.4,0.6-0.8,0.9-1.1c0.3-0.3,0.6-0.4,1.1-0.4c0.3,0.1,0.6,0.1,0.8,0.1c0.9-0.1,1.4,0.3,1.7,1.1
	c0.2,0.4,0.3,0.7,0.6,1.1c0.3,0.5,0.5,1.1,0.4,1.7c0,0.2,0.1,0.4,0.1,0.7c0.3-0.2,0.5-0.4,0.7-0.6c0.5-0.7,0.8-1.5,0.9-2.4
	c0.2-1.9-0.2-3.7-0.9-5.4c-0.2-0.6-0.7-1.1-1-1.6c-0.4-0.6-0.7-1.2-1.1-1.8c-0.2-0.3-0.5-0.7-0.6-1.1c-0.1-0.4-0.2-0.7-0.2-1.1
	c-0.1-0.3-0.1-0.6-0.1-0.8s0.1-0.6,0.1-0.8c0.1-0.3,0.1-0.7,0.2-1.1c0.1-0.3,0.3-0.6,0.6-0.7c0.1-0.8,0.1-1.6,0.2-2.5
	c0.1-0.3,0.3-0.6,0.5-1c-0.1-0.1-0.2-0.2-0.5-0.4c0.2-0.1,0.4-0.1,0.5-0.1c-0.1-0.3-0.3-0.6-0.3-1C172.5,13.2,172.7,13.2,173.3,13.3
	z M165.3,178.7c0.1,0,0.3,0,0.4,0c0.9-0.2,1.8-0.3,2.7-0.4c0.3-0.1,0.7-0.2,1-0.3c0.5-0.2,0.9-0.4,1.3-0.7c0.3-0.2,0.5-0.3,0.6-0.6
	c0.1-0.3,0.2-0.7,0.4-1c0.5-0.8,0.6-1.7,0.5-2.6c-0.1-0.3-0.2-0.6-0.3-1c-0.1-0.4-0.2-1-0.3-1.4c-0.1-0.5-0.3-1-0.4-1.5
	c-0.2-1.1-0.7-2.1-1.6-2.9c-0.9-0.7-1.7-1.4-2.6-2c-1.7-1-3.4-1.7-5.3-2.4c-0.4-0.2-0.9-0.3-1.3-0.4c-0.9-0.3-1.7-0.7-2.6-0.9
	c-1.5-0.3-3-0.5-4.5-0.6c-0.3,0-0.5,0.1-0.5,0.4c-0.1,0.7-0.4,1.3-0.2,2c0,0.1,0,0.1-0.1,0.2c-0.2,0.4-0.2,0.8-0.1,1.2
	c0.1,1.1,0.3,2.1,0.6,3.1c0.2,0.7,0.2,1.4,0.5,2.1c0.1,0.2,0.2,0.5,0.2,0.8c0.3,1.2,0.7,2.3,1.7,3.1c0.1,0.1,0.1,0.1,0.2,0.2
	c0.4,0.8,1.3,1.2,1.9,2c0,0,0.1,0,0.1,0.1c0.5,0.3,1,0.7,1.6,1c0.7,0.4,1.4,0.9,2.1,1.3c0.4,0.2,0.9,0.2,1.2,0.4
	C163.1,178.5,164.2,178.7,165.3,178.7z M174.4,136.8c0,0.4-0.1,0.7-0.1,1c0,1.3,0,2.5,0.1,3.8c0.1,0.8,0.2,1.6,0.2,2.5
	c0.1,1.1,0.3,2.2,0.7,3.3c0.6,1.3,1.3,2.6,1.9,3.9c0.3,0.6,0.6,1.2,1,1.7c0.7,1.5,1.4,2.9,2.3,4.3c0.5,0.7,1,1.2,1.8,1.6
	c0.7,0.4,1.4,0.7,1.9,1.2s1.3,0.7,1.9,0.9c0.3,0.1,0.7,0.2,1.1,0c0.4-0.2,0.7-0.5,1-0.9c0.2-0.4,0.5-0.9,0.7-1.3
	c0.3-0.7,0.9-1.4,0.6-2.3c0-0.1,0-0.1,0-0.1c0-0.7,0-1.4,0-2.1c0-1.8-0.7-3.4-1.4-5c-0.1-0.3-0.3-0.7-0.5-1c-0.7-1-1.4-1.9-2.2-2.8
	c-0.1-0.2-0.2-0.4-0.3-0.6c-0.7-0.6-1.2-1.3-1.6-2.1c-0.1-0.2-0.2-0.5-0.5-0.6c-0.4-0.2-0.6-0.6-0.9-0.9c-0.4-0.4-0.9-0.8-1.3-1.2
	c-0.3-0.2-0.7-0.4-0.9-0.7c-0.3-0.3-0.7-0.6-1.1-0.7c-0.2-0.1-0.4-0.2-0.6-0.3c-1-0.4-1.9-0.9-3-1.3
	C175.2,136.9,174.8,136.9,174.4,136.8z M71.6,170.5c-0.1,1.4,0.3,2.2,1,3c0.8,0.8,1.5,1.7,2.3,2.5c0.3,0.3,0.6,0.5,0.9,1
	c0.1,0.2,0.4,0.3,0.6,0.4c0.4,0.2,0.8,0.3,1.2,0.4c0.7,0.4,1.5,0.6,2.3,0.7c1.1,0.1,2.2,0.1,3.3,0.1c0.3,0,0.7,0.1,1,0
	c0.4-0.1,0.7-0.2,0.9-0.6c0.1-0.5,0.2-1,0.3-1.4c0.5-1.1,0.7-2.3,0.8-3.5c0.1-1.1,0.1-2.1,0-3.1c-0.1-0.8-0.2-1.7-0.2-2.6
	c0.1-1.4-0.4-2.5-1.4-3.4c-0.7-0.6-1.7-0.8-2.5-1.2c-0.7-0.3-1.5-0.2-2.2-0.3c-1.2-0.2-2.4,0.1-3.4,0.6c-1.6,0.8-2.8,2-3.7,3.5
	C72,167.9,71.6,169.3,71.6,170.5z M172.8,100.8c-0.1-0.1-0.1-0.1-0.1-0.2c-0.1-0.1-0.2-0.1-0.3-0.1c-1.3-0.4-2.5-0.7-3.8,0.1
	c-0.3,0.2-0.8,0.3-0.9,0.8c-0.1,0.1-0.2,0.2-0.3,0.2c-0.5,0.1-0.6,0.5-0.8,0.8c-0.2,0.3-0.2,0.7-0.4,1.1c-0.3,0.7-0.1,1.3,0.3,2
	c0.2,0.3,0.5,0.6,0.7,0.9c0.3,0.5,0.9,0.6,1.4,0.6c1.1,0,1.8-0.7,2.3-1.5c0.5-0.8,1-1.6,1.3-2.5
	C172.4,102.2,172.7,101.5,172.8,100.8z M28.2,180.1c-0.3,0.1-0.5,0.1-0.6,0.2c-0.3,0.2-0.6,0.4-0.9,0.6c-0.4,0.3-0.7,0.7-1,1.2
	c-0.3,0.6-0.7,1.2-0.9,1.9c-0.2,0.5-0.3,1-0.2,1.4c0,0.2,0.1,0.4,0.1,0.6c-0.1,0.4,0.1,0.8,0.4,1.2c0.4,0.5,0.7,0.6,1.3,0.3
	c0.7-0.3,1.2-1,1.4-1.7c0.2-1.3,0.4-2.6,0.6-4C28.3,181.3,28.2,180.7,28.2,180.1z M38.6,182.6c0,0.1,0.1,0.2,0.1,0.4
	c0.1,0.4,0.2,0.8,0.2,1.2c0.1,0.8,0.6,1.2,1.3,1.6c0.3,0.2,0.6,0.1,0.7-0.2c0.2-0.4,0.3-0.8,0.3-1.2c0-1.5-0.6-2.9-1-4.4
	c-0.3,0.2-0.5,0.3-0.7,0.5c-0.5,0.3-0.7,0.7-0.7,1.2C39,182,38.8,182.3,38.6,182.6z M171.6,37c0.1-0.5,0.1-1.1,0.1-1.6
	c0.1-0.9-0.4-1.6-0.7-2.4c-0.1-0.3-0.3-0.4-0.5-0.4c-0.6-0.2-1,0-1.4,0.4c-0.4,0.4-0.6,0.9-0.3,1.5c0.4,1,1.1,1.6,1.9,2.3
	C171,37,171.2,37.1,171.6,37z M20.3,176.8c-0.5,0.6-0.9,1-1.2,1.5c-0.2,0.3-0.2,0.7,0,1c0.1,0.1,0.3,0.2,0.5,0.2
	c0.7-0.1,1.4-1,1.1-1.7C20.6,177.5,20.5,177.2,20.3,176.8z M174.7,59.5c0.2-1.3-0.7-2.1-2-1.8c0.2,0.4,0.3,0.9,0.6,1.3
	C173.7,59.7,173.8,59.7,174.7,59.5z M174.6,19.2c-1-0.8-1.4-0.8-2-0.3c0.3,0.2,0.6,0.5,0.7,0.8c0.2,0.3,0.5,0.4,0.7,0.4
	s0.4-0.2,0.5-0.5C174.5,19.5,174.5,19.4,174.6,19.2z M193.9,151c0-0.1,0-0.1,0.1-0.1c-0.1-0.1-0.2-0.1-0.3-0.1
	c0,0.1-0.1,0.1-0.1,0.2C193.8,151,193.8,151,193.9,151z"/>
</svg>
