<?xml version="1.0" encoding="utf-8"?>
<!-- Generator: Adobe Illustrator 19.1.0, SVG Export Plug-In . SVG Version: 6.00 Build 0)  -->
<svg version="1.1" id="Layer_1" xmlns="http://www.w3.org/2000/svg" xmlns:xlink="http://www.w3.org/1999/xlink" x="0px" y="0px"
	 viewBox="0 0 200 200" style="enable-background:new 0 0 200 200;" xml:space="preserve">
<style type="text/css">
	.st0{fill:#010101;}
</style>
<path class="st0" d="M26.3,149.1c-1,0.7-1.9,1.3-2.9,2c-0.5,0.3-1.1,0.5-1.6,0.8c-0.2,0.1-0.5,0.2-0.7,0.3c-0.1,0.1-0.3,0.1-0.4,0.1
	c-0.6,0.1-1.3,0.1-1.9,0.1c-0.8-0.1-1.6,0.1-2.4-0.1c-0.8-0.2-1.6-0.5-2.4-0.7c-1.1-0.3-2.1-0.9-3.1-1.3c-0.7-0.4-1.4-0.9-2.1-1.4
	c-0.3-0.2-0.5-0.4-0.8-0.7c-0.1-0.1-0.3-0.3-0.4-0.5c-0.3-0.6-0.7-1.2-0.9-1.8c-0.3-0.8-0.5-1.7-0.6-2.5c-0.1-0.6-0.1-1.2-0.1-1.8
	c0.1-0.6,0.3-1.1,0.4-1.6c0.1-0.5,0.3-1.1,0.5-1.6c0.3-0.7,0.7-1.2,1.3-1.7c0.4-0.3,0.7-0.7,1.1-1c0.5-0.4,1-0.8,1.5-1
	c1.2-0.5,2.5-0.9,3.7-1.4c0.1,0,0.1-0.1,0.2-0.1c1.5,0,3.1-0.5,4.6-0.1c0.3,0.1,0.6,0,0.9,0c0.5,0.1,1,0.1,1.5,0.3
	c0.5,0.1,1,0.2,1.3,0.7c0,0.1,0.1,0.1,0.2,0.1c1.1,0.4,1.7,1.3,2.3,2.3c0.1,0.1,0.2,0.3,0.3,0.4c1,1.2,1.7,2.5,2,4.1
	c0.1,0.3,0.2,0.6,0.3,0.9c0.1,0,0.1,0,0.2,0c0.1-0.6,0.3-1.1,0.3-1.7c0-0.9-0.1-1.9-0.1-2.8c-0.1-0.7-0.1-1.3-0.1-2
	c0-0.9-0.3-1.7-0.5-2.6c-0.1-1-0.7-2-1-2.9c-0.1-0.2-0.2-0.4-0.3-0.5c-0.3-0.4-0.6-0.8-0.7-1.3c-0.1-0.7-0.3-1.2-0.6-1.7
	c-0.6-1.1-1.1-2.3-1.5-3.4c-0.2-0.6-0.5-1.2-0.9-1.7c-1.1-1.7-1.9-3.6-2.7-5.4c-0.3-0.9-0.9-1.7-1.1-2.7c-0.1-0.2-0.1-0.4-0.3-0.6
	c-0.9-1.4-1.4-2.8-1.9-4.4c0-0.1,0-0.1-0.1-0.2c-0.5-0.9-0.5-1.8-0.7-2.8c-0.1-0.3-0.1-0.7-0.2-0.9c-0.7-1-0.3-2.2-0.3-3.3
	c0-0.4,0-0.9,0.1-1.4c0.1-0.5,0.2-0.9,0.3-1.5c0.1-0.3,0.1-0.7,0.1-0.9c0-0.7,0-1.2,0.3-1.8c0.3-0.5,0.1-1-0.5-1.5
	c-0.7-0.6-1.5-1.2-2.1-1.7c-0.7-0.5-1.3-1-1.9-1.7c-0.3-0.4-0.7-0.7-1-1C10,88.1,9.1,86.6,8.4,85c-0.5-1.1-1.1-2.1-1.6-3.2
	c-0.3-0.7-0.5-1.4-0.7-2.1c-0.1-0.3-0.1-0.7-0.3-1c-0.1-0.3-0.1-0.6-0.1-0.9c0-0.7-0.1-1.5-0.3-2.2c-0.3-1-0.2-2-0.1-3
	c0.1-1,0.2-2,0.3-3c0.1-0.4,0.1-0.8,0.2-1.2c0.2-0.9,0.4-1.8,0.6-2.7c0.1-0.4,0.2-0.9,0.3-1.4c0.1-0.5,0.3-1,0.4-1.5
	c0.1-0.5,0.3-0.9,0.4-1.5c0.2-1.2,0.7-2.4,1.1-3.5c0.1-0.3,0.2-0.5,0.3-0.8c0.1-0.3,0.1-0.7-0.3-0.8c-0.1-0.1-0.2-0.1-0.2-0.3
	c-0.1-0.7-0.7-1.3-0.9-2c-0.3-0.7-0.5-1.5-0.7-2.2c-0.1-0.4-0.2-0.9-0.3-1.3c-0.2-0.9,0-1.8,0-2.8c0.1-0.9,0.1-1.7,0.1-2.7
	c0-0.1,0-0.1,0.1-0.2c0.3-1,0.7-2,1-3c0.1-0.3,0.2-0.6,0.2-0.9c0.1-0.9,0.5-1.7,0.8-2.6c0.2-0.4,0.3-0.9,0.5-1.5
	c0.3-0.7,0.6-1.5,0.9-2.2c0.3-0.5,0.5-1,0.9-1.5c0.3-0.5,0.3-0.5-0.1-0.9c-0.9-0.7-1.5-1.5-2.2-2.3c-1.3-1.6-2.5-3.4-3.6-5.2
	c-0.6-0.9-1.1-1.9-1.4-3.1c-0.1-0.4-0.3-0.7-0.4-1c-0.5-0.9-0.6-2-0.8-3c-0.2-0.8-0.3-1.6-0.4-2.5c-0.1-0.6,0.1-1.1,0.1-1.7
	c0.2-0.9,0.4-1.8,0.6-2.7C3.3,10,3.6,9.1,4.3,8.5c0.3-0.2,0.5-0.7,0.7-1s0.4-0.7,0.7-1C6,6.3,6.3,5.9,6.6,5.5C7,5,7.7,5,8.2,4.7
	c0.2-0.1,0.5-0.1,0.7-0.2C9.7,4,10.6,4.1,11.5,4c0.7-0.1,1.5,0,2.1,0c0.9,0.1,1.6,0.4,2.3,0.9c0.3,0.2,0.6,0.4,0.9,0.7
	C17.4,6,18,6.5,18.5,6.9c0.7,0.5,1.1,1.2,1.5,2c0.6,1,1.1,2.1,1.4,3.3c0.3,0.9,0.5,1.7,0.5,2.7c0,0.7,0.1,1.5,0.1,2.3
	c0.2,1.3-0.2,2.5-0.3,3.9c-0.1,0.9-0.4,1.8-0.6,2.8c-0.1,0.3-0.1,0.6-0.2,0.9c-0.1,0.9-0.5,1.7-0.9,2.5c-0.5,1.1-0.8,2.3-1.1,3.4
	c-0.1,0.2-0.1,0.4-0.3,0.5c-0.1,0.3-0.3,0.6-0.4,0.9c0.5,0.4,1.1,0.6,1.7,0.8c0.9,0.3,1.7,0.5,2.5,1c0.5,0.3,0.9,0.4,1.5,0.5
	c1.5,0.4,2.9,0.7,4.4,1c0.9,0.2,1.9,0.2,2.9,0.1c0.9,0,1.8,0.1,2.7,0.1c1.3-0.1,2.5-0.1,3.7-0.6c0.5-0.2,1.1-0.5,1.7-0.8
	c0.1-0.1,0.2-0.3,0.2-0.4c0-0.2,0-0.5-0.1-0.7c-0.3-0.9-0.7-1.7-1.1-2.6c-0.1-0.4-0.3-0.8-0.4-1.2c-0.3-1-0.5-2.1-0.7-3.1
	c-0.1-0.5-0.1-1.1-0.1-1.6c0-1.8,0.2-3.6,0.5-5.5c0.1-0.7,0.1-1.5,0.5-2.2c0.1-0.1,0.1-0.2,0.1-0.4c0-0.7,0.3-1.2,0.7-1.6
	c0.1-0.2,0.3-0.4,0.5-0.7c0.3-0.6,0.7-1.1,1.2-1.5c0.7-0.5,1.5-1,2.1-1.5c0.1-0.1,0.3-0.1,0.4-0.1c0.7-0.1,1.3-0.4,1.9-0.7
	c1.3-0.7,2.8-0.7,4.2-0.3c1,0.2,1.9,0.8,2.7,1.5c0.5,0.4,1,0.8,1.5,1.3c0.3,0.4,0.6,0.9,0.8,1.3c0.5,1,1,2.1,1.4,3.2
	c0.3,0.7,0.3,1.5,0.3,2.2c0.1,1.1,0.1,2.3,0.2,3.3c0,0.1,0,0.1,0,0.1c-0.1,1.5-0.1,2.8-0.5,4.2c-0.3,0.7-0.5,1.5-0.7,2.3
	c-0.2,0.5-0.6,0.9-0.9,1.3c-0.4,0.5-0.8,0.9-1.1,1.4c-0.1,0.1-0.1,0.2-0.2,0.2c-0.7,0.3-1,0.9-1.6,1.3c-0.3,0.1-0.5,0.3-0.7,0.4
	c-1.6,0.9-3.3,1.5-5,1.7c-0.1,0-0.3,0.1-0.5,0.1c0.1,0.4,0.3,0.6,0.5,0.8c0.3,0.4,0.7,0.7,0.9,1c0.4,0.5,0.9,0.8,1.5,1
	c1.1,0.5,2.3,1,3.3,1.5c0.7,0.3,1.5,0.7,2.3,0.9c1,0.4,2,0.6,3,0.9c0.5,0.1,0.9,0.3,1.3,0.4c2,0.4,3.8-0.1,5.7-0.7
	c0.5-0.1,0.9-0.2,1.3-0.4c0.9-0.4,1.9-0.7,2.7-1.1s1.7-1,2.5-1.6c0.6-0.4,1.1-0.9,1.7-1.5c0.9-1,1.7-2,2.5-3.1
	c0.5-0.7,0.9-1.5,1.5-2c0.3-0.3,0.6-0.7,0.9-1.1c0.9-1.1,1.7-2.1,2.7-3.1c0.6-0.6,1.3-1.1,1.7-1.8c0.4-0.7,0.9-1.1,1.3-1.7
	c0.1-0.2,0.3-0.3,0.5-0.4c1.1-1,2.2-2,3.3-2.8c0.5-0.4,0.9-0.9,1.3-1.2c0.6-0.5,1.3-0.9,1.9-1.4c1.9-1.3,4-2.4,6-3.4
	c0.7-0.4,1.5-0.7,2.3-1c0.9-0.4,1.8-0.8,2.7-1.2c0.3-0.1,0.6-0.1,0.9-0.2c0.5-0.1,1.1-0.2,1.7-0.3c0.4-0.1,0.8-0.1,1.3-0.1
	c0.1,0,0.3,0,0.5,0c0.7-0.3,1.3-0.1,2.1,0c0.1,0,0.2,0,0.3,0c1.7-0.1,3.3,0.4,5,0.7c1.3,0.2,2.5,0.5,3.6,0.9
	c0.9,0.4,1.9,0.7,2.8,1.3c0.9,0.7,1.9,1.1,2.9,1.7c0.3,0.1,0.5,0.4,0.9,0.6c0.8,0.5,1.3,0.6,2.2,0.1c0.7-0.4,1.6-0.7,2.3-1
	c0.2-0.1,0.4-0.1,0.5-0.3c0.3-0.3,0.7-0.3,1.1-0.4c0.6-0.1,1.1-0.3,1.7-0.5c0.5-0.1,1-0.4,1.5-0.5c1.8-0.2,3.6-0.4,5.4-0.1
	c0.3,0.1,0.5,0,0.7,0c0.9,0.1,1.6,0.4,2.4,0.7c0.7,0.2,1.3,0.4,1.9,0.7c0.4,0.1,0.8,0.4,1.1,0.6c0.6,0.4,1.3,0.9,2,1.1
	c0.2,0.1,0.4,0.1,0.6,0.3c0.8,0.4,1.6,0.9,2.5,1.2c0.4,0.1,0.8,0.5,1.2,0.8c0.5,0.2,0.9,0.4,1.4,0.7c0.1,0,0.2,0,0.3,0.1
	c0.5,0.6,1.2,0.9,1.8,1.2c1.2,0.6,2.4,1.2,3.7,1.2c0.5,0,0.9,0.2,1.5,0.4c0.5,0.1,0.9,0.3,1.5,0.1c0.1-0.1,0.3,0,0.4,0
	c1.2,0.2,2.3,0,3.5-0.4c0.3-0.1,0.6-0.1,0.8-0.5c0-0.4-0.3-0.4-0.5-0.5c-1.3-0.5-2.3-1.5-3.1-2.7c-0.3-0.4-0.4-1.1-0.5-1.6
	c-0.1-0.5-0.1-1.1-0.2-1.6c-0.2-1.3,0.8-3,1.9-3.3c0.2-0.1,0.5-0.1,0.7-0.1c0.3,0,0.6,0,0.9,0c0.1,0,0.1,0,0.2,0
	c0.7,0.2,1.3,0.3,2,0.6c1,0.4,1.7,1.3,2.4,2.2c0.3,0.4,0.5,0.8,0.5,1.4c0,0.4,0.1,0.8,0.1,1.2c0.1,0.9-0.1,1.8-0.4,2.8
	c0.3,0.1,0.5,0.1,0.8,0.1c0.5,0,1,0,1.5-0.1c0.3,0,0.7-0.1,1.1-0.1c0.3,0.1,0.7-0.1,1.1-0.2c0.6-0.2,1.1-0.5,1.7-0.7
	c0.7-0.3,1.5-0.5,2.1-1c0.3-0.2,0.5-0.4,0.9-0.7c-0.1-0.2-0.1-0.4-0.3-0.5c-0.5-0.8-0.9-1.7-1.1-2.7c-0.2-0.7,0-1.3,0.5-1.8
	c0.4-0.4,0.9-0.7,1.4-0.9c0.5-0.1,0.9-0.1,1.3,0.2c0.8,0.7,1.1,1.5,1.1,2.5c0,0.1,0,0.4,0,0.5c0,1-0.1,2-0.7,3
	c0.3,0.1,0.5,0.2,0.7,0.3c1.4,0.4,2.9,0.4,4.3,0.3c1-0.1,2.1-0.1,3.1,0.1c0.5,0.1,0.9,0.1,1.3-0.3c0.3-0.2,0.7-0.3,1.1-0.4
	c0.3-0.1,0.6-0.1,0.9-0.4c0.1-0.1,0.4-0.2,0.6-0.2c0.7-0.1,1.4-0.1,2.1-0.1c0.2,0,0.4-0.1,0.6-0.1s0.4,0,0.6-0.1h0.1
	c0.9,0.1,1.7,0.1,2.6,0.2c0.4,0,0.5,0.1,1,0.5c-0.3,0.1-0.5,0.1-0.7,0.1c-0.3,0-0.7,0-1,0c-1.5,0-2.9,0.1-4.3,0.1
	c-0.9,0-1.7,0.6-2.5,1.2c0.3,0.1,0.4,0.2,0.5,0.3c0.5,0.2,0.7,0.5,0.7,1c0,0.5,0.1,1.1-0.5,1.4c-0.3,0.1-0.5,0.3-0.7,0.4
	c-0.6,0.4-1.3,0-1.6-0.4c-0.1-0.2-0.3-0.4-0.2-0.7c0-0.5,0-1.1,0-1.7c-0.4-0.1-0.7-0.2-1-0.2c-1,0-2.1-0.1-3.1,0.1
	c-1.3,0.2-2.5,0.1-3.7-0.4c-0.9-0.3-1.3-0.1-1.9,0.6c-0.4,0.7-1,1-1.7,1.2c-0.4,0.1-0.8,0.5-1.2,0.7c-0.4,0.2-0.8,0.4-1.2,0.5
	c-1.1,0.4-2.1,0.5-3.2,0.7c-0.5,0.1-1.1-0.1-1.7-0.1c-0.3,0-0.6,0-0.9-0.1c-0.3,0-0.5-0.1-0.7-0.1c-0.3,0-0.5-0.1-0.7-0.1
	c-0.7-0.1-1.1,0.4-1.3,0.9c-0.3,0.6-0.6,1.2-1.2,1.4c-0.3,0.1-0.4,0.4-0.7,0.5c-2.3,1.3-4.7,1.5-7.2,1.2c-0.4-0.1-0.7-0.2-1.1-0.4
	c-1.9-0.6-3.6-1.6-5.2-3c-1.1-0.9-2.4-1.8-3.7-2.5c-0.8-0.4-1.5-0.9-2.1-1.6c-0.3-0.3-0.6-0.5-1-0.6c-1.1-0.3-2.1-0.9-3.1-1.6
	c-0.4-0.2-0.8-0.4-1.3-0.5c-0.9-0.1-1.9-0.1-2.7,0.1c-0.1,0.1-0.3,0.1-0.5,0.1c-1.5,0-2.9,0.7-4.2,1.2c-1.1,0.4-2.1,1.2-3.1,1.8
	c-0.2,0.1-0.4,0.3-0.7,0.5c0.1,0.1,0.2,0.3,0.3,0.4c0.2,0.2,0.5,0.3,0.7,0.5c0.8,0.8,1.6,1.7,2.3,2.6c0.7,1,1.2,2.2,1.8,3.3
	c0.1,0.3,0.2,0.7,0.3,1.1c0.1,1,0.2,2.1,0.2,3.1c0,0.7-0.1,1.3-0.4,1.9c-0.5,1.1-1.1,2.1-1.9,3c-0.8,0.9-1.8,1.5-2.7,2.3
	c-0.8,0.7-1.7,1-2.7,1.5c-0.8,0.4-1.7,0.5-2.5,0.7c-1.9,0.4-3.7,0.4-5.6,0.3c-0.9-0.1-1.7-0.4-2.5-0.9c-0.7-0.4-1.3-0.9-1.9-1.3
	s-1.1-1.2-1.4-1.9c-0.3-0.7-0.6-1.5-0.8-2.2c-0.1-0.4-0.1-0.8-0.1-1.2c0.1-1.2,0.4-2.4,0.8-3.6c0.2-0.6,0.5-1.1,0.7-1.6
	c0-0.1,0.1-0.1,0.1-0.2c0.5-1.3,1.3-2.4,2.1-3.6c0.3-0.6,0.7-1.2,1.2-1.7c0.3-0.3,0.6-0.6,1-0.9c-0.2,0-0.3-0.1-0.5-0.1
	c-0.8,0.1-1.7,0.2-2.5,0.3c-0.3,0-0.5,0.1-0.8,0.1c-1.3,0-2.5,0.6-3.8,0.5c-0.1,0-0.1,0-0.1,0c-0.9,0.5-2,0.3-3,0.7
	c-0.8,0.3-1.7,0.4-2.5,0.6c-0.6,0.1-1.2,0.3-1.7,0.5c-1.3,0.4-2.6,0.9-3.8,1.4c-1.1,0.5-2.2,1.2-3.2,1.8c-0.9,0.6-1.9,1.2-2.8,1.8
	c-0.9,0.7-1.7,1.3-2.6,2c-1,0.7-2,1.4-2.9,2.2c-0.9,0.7-1.9,1.3-2.9,2c-1,0.7-1.9,1.4-2.9,2c-0.7,0.4-1.5,0.8-2.3,1.2
	c-1.9,0.9-3.7,1.7-5.6,2.5c-1.6,0.7-3.1,1.2-4.8,1.7c-1.5,0.5-2.9,0.9-4.4,1.2c-0.7,0.1-1.4,0.1-2.1,0.3c-0.7,0.1-1.5,0.1-2.2,0.3
	c-0.2,0-0.3,0.1-0.5,0c-1.1-0.1-2.2,0.1-3.3-0.3c-0.1,0-0.1,0-0.2,0c-0.9,0.1-1.7-0.3-2.6-0.6c-0.5-0.2-1.1-0.6-1.7-0.8
	c-0.7-0.3-1.3-0.5-2.1-0.7c-0.9-0.2-1.7-0.8-2.5-1.2c-0.1,0-0.1-0.1-0.1-0.1c-0.5-0.7-1.3-1-2-1.5c-0.5-0.4-0.9-0.9-1.3-1.3
	c-0.1-0.1-0.3-0.3-0.4-0.5c-0.4-0.5-0.7-1.1-1.1-1.6c-0.4-0.6-0.5-0.6-1.1-0.4c-1.6,0.7-3.2,1.2-4.8,1.6c-0.9,0.2-1.7,0.4-2.6,0.4
	c-1.2,0.1-2.3,0-3.5,0c-0.3,0-0.7,0-1.1,0c-1.3-0.1-2.6-0.1-3.8-0.3c-2.4-0.4-4.8-1-7-2.2c-0.3-0.1-0.5-0.2-0.7-0.3
	c-0.1,0-0.2,0-0.4,0c-0.1,0.4-0.3,0.9-0.3,1.3c-0.1,0.1-0.1,0.4-0.1,0.5c-0.3,0.9-0.7,1.9-0.8,2.8c-0.2,1-0.2,2.1-0.3,3.2
	c0,0.2-0.1,0.4-0.1,0.6C15.2,45.7,15,47,15,48.2c0,0.4,0.1,0.7,0.1,1.2c0.9-0.3,1.8-0.6,2.7-0.8c0.6-0.1,1.3-0.2,1.9-0.4
	c0.5-0.1,1-0.2,1.5-0.3c0.4-0.1,0.7-0.1,1.1-0.1c0.5,0,0.9,0,1.3-0.1c0.3-0.1,0.7-0.2,1.1-0.1c0.8,0.1,1.6-0.1,2.4-0.3
	c2-0.4,4-0.4,6,0c1.2,0.2,2.5,0.6,3.6,0.9c0.4,0.1,0.9,0.1,1.3,0.2c1.1,0.2,2.1,0.5,3.1,1.2c0.4,0.3,0.9,0.4,1.3,0.6
	c1.2,0.7,2.3,1.4,3.3,2.4c0.3,0.3,0.5,0.6,0.6,0.9c0.5,0.9,1,1.7,1.4,2.5c0.4,0.9,0.7,1.9,0.7,3c-0.1,0.8,0.1,1.7-0.1,2.5
	c-0.1,0.2-0.1,0.4-0.1,0.6c-0.3,0.5-0.5,1-0.7,1.7c0,0.1,0,0.1-0.1,0.1c-0.5,0.8-0.9,1.7-1.5,2.3c-0.6,0.7-1.4,1.1-2.1,1.6
	c-0.3,0.2-0.7,0.4-1.1,0.7c-0.6,0.4-1.1,0.8-1.8,0.9c-0.7,0.1-1.3,0.5-1.9,0.8c-0.2,0.1-0.5,0.1-0.7,0.1c-0.5,0.1-1.1,0.1-1.6,0.1
	c-1.2,0.1-2.5,0.2-3.6,0.1c-0.8-0.1-1.7,0-2.5-0.1c-1.3-0.1-2.7-0.4-3.9-1c-0.1-0.1-0.3-0.1-0.4-0.1c-1.7-0.3-3.1-1-4.5-1.9
	c-0.9-0.6-1.9-1-2.9-1.7c-0.6-0.4-1.1-0.7-1.7-1.1c-0.2-0.1-0.3-0.4-0.5-0.6c-0.3-0.4-0.3-0.4-0.9-0.7c-0.1,0.3-0.1,0.6-0.3,0.9
	C15,65.4,15,66.7,14.8,68c-0.1,1.1-0.3,2.2-0.3,3.3c0,1.7,0.1,3.3,0.1,4.9c0.1,1.2,0.3,2.4,0.5,3.6c0.3,1.8,1.1,3.3,1.6,5
	c0.3,0.9,0.9,1.7,1.4,2.5c0.1,0.1,0.2,0.2,0.3,0.4c0.3-0.7,0.4-1.2,0.7-1.7c0.5-0.9,0.9-1.9,1.4-2.8c0-0.1,0.1-0.1,0.1-0.1
	c1-0.4,1.5-1.5,2.4-2.1c0.1-0.1,0.3-0.2,0.4-0.3c0.9-0.4,1.7-0.9,2.5-1.5c0.4-0.2,0.9-0.4,1.4-0.5c1.6-0.5,3.3-0.9,5-1.2
	c0.8-0.1,1.7-0.2,2.5-0.2c0.5,0,1.1,0.1,1.6,0.3c0.5,0.1,1.1,0.1,1.7,0.3c0.9,0.2,1.9,0.5,2.8,0.7c0.5,0.1,1.1,0.2,1.7,0.4
	c1.2,0.3,2.3,0.8,3.4,1.5c0.1,0.1,0.3,0.2,0.5,0.4c0.5,0.4,1,0.8,1.5,1.2c0.1,0.1,0.1,0.1,0.2,0.1c0.4,0.5,0.8,0.9,1.1,1.5
	c1.2,1.6,1.8,3.5,1.9,5.6c0.1,1.1,0.2,2.1,0,3.2c-0.4,1.8-0.8,3.6-1.5,5.2c-0.5,1.2-1.3,2.4-2.3,3.3c-0.5,0.4-0.9,0.7-1.5,1
	c-0.7,0.3-1.3,0.7-1.9,1.1c-1.1,0.7-2.4,1-3.6,1.2c-0.5,0.1-1,0.1-1.5,0.1c-0.5,0-1-0.1-1.5-0.1c-1.5-0.1-3-0.2-4.4-0.8
	c-0.1,0-0.1-0.1-0.1-0.1c-1.1,0-1.9-0.7-2.8-1.1c-0.5-0.2-1.1-0.4-1.5-0.7c-0.9-0.5-1.9-1-2.8-1.5c-0.4-0.2-0.8-0.5-1.2-0.8
	c-0.9-0.7-1.8-1.3-2.7-1.9c-0.3-0.2-0.7-0.3-1.1-0.5c0.1,0.7,0.1,1.2,0.1,1.8c0.1,1.5,0.4,3,0.9,4.4c0.5,1.1,0.9,2.3,1.9,3.1
	c0.1,0.1,0.3,0.2,0.4,0.4c0.4,0.6,0.7,1.2,1.1,1.7c0.1,0.2,0.3,0.4,0.5,0.5c1.6,1.5,3,3.1,4.4,4.7c0.3,0.4,0.7,0.7,1.1,1.2
	c0.5,0.6,0.9,1.2,1.3,1.8c0.4,0.7,0.9,1.2,1.3,1.8c0.8,1,1.5,2.1,2,3.3c0.3,0.9,0.7,1.8,1,2.8c0.3,0.9,0.3,2,0.5,3
	c0.1,0.4,0.1,0.9,0.1,1.4c0.1,1.7,0,3.3-0.3,5c-0.1,0.6-0.1,1.2-0.3,1.7c-0.5,1.7-1.5,3.3-2.3,4.9c-0.5,0.9-1,1.7-1.3,2.6
	c-0.5,1-1.1,1.8-1.9,2.5c-0.3,0.3-0.4,0.6-0.3,1c0.3,1.1,0.3,2.2,0.3,3.3c-0.1,1.4-0.3,2.6-0.7,3.9c-0.2,0.8-0.2,1.7-0.3,2.5
	c-0.1,0.5-0.1,1.1-0.2,1.6c-0.3,1.2-0.5,2.5-0.7,3.8c-0.1,0.3-0.2,0.5-0.3,0.8c-0.2,0.9-0.4,1.7-0.7,2.6c-0.3,1.1-0.6,2.2-1,3.3
	c-0.4,0.9-0.3,1.8-0.3,2.7c0.5,0,0.9-0.1,1.4,0c1,0.1,1.9,0.4,2.7,1.2c0.7,0.7,1.1,1.5,1.3,2.5c0.1,0.8-0.5,2-1.1,2.3
	c-1,0.6-1.9,0.4-2.9,0.1c-0.8-0.3-1.6-0.7-2.1-1.4c-0.6,0.7-0.9,2.6-0.5,3.9c0.1,0,0.2,0,0.3,0c0.9-0.5,1.7-0.4,2.5,0.1
	c0.5,0.3,1,0.7,1.3,1.2c0.5,0.8,0.3,1.9-0.5,2.5c-0.1,0.1-0.3,0.1-0.5,0.1c-0.7,0-1.4-0.1-2-0.7c-0.5-0.4-1-0.7-1.6-0.9
	c-0.6,0.9-1.2,1.7-1.7,2.5c-0.5,0.9-0.5,2-0.1,2.9c0.3,0.6,0.3,1.4,0.8,1.8c0.8,0.7,1.3,1.7,2.3,2c0.2,0.1,0.4,0.2,0.3,0.5
	c-0.1,0.1-0.3,0.4-0.5,0.3c-0.7-0.3-1.5-0.2-1.9-0.9c-0.1-0.1-0.1-0.2-0.3-0.2c-0.8-0.4-1.1-1.2-1.5-2c-0.5-1.2-0.6-2.5-0.6-3.8
	c0.1-1.5,0.6-2.6,1.5-3.6c0.7-0.7,1-1.4,0.7-2.4c-0.3-0.7-0.3-1.5-0.4-2.2c-0.1-0.8,0.1-1.6,0.3-2.4c0.1-0.5,0.5-0.9,0.6-1.4
	c0.1-0.2,0.1-0.5,0.1-0.7c-0.1-0.4-0.1-0.7,0-1.1c0.1-0.8,0.1-1.6,0.1-2.4s0-1.6,0.1-2.4c0.3-1.2,0.5-2.4,0.7-3.6
	c0.1-1.1,0.2-2.2,0.3-3.3c0.1-0.8,0.2-1.5,0.2-2.3c0.1-1.2,0.4-2.5,0.4-3.8c0.1-1,0-2,0-3c0.1-0.7,0.1-1.2,0.1-1.9
	C26.3,149.4,26.3,149.3,26.3,149.1z M31.6,67.8c1.3-0.1,2.5-0.1,3.8-0.4c1-0.1,1.9-0.4,2.9-0.7c0.7-0.2,1.4-0.7,2.1-1.1
	c1-0.7,1.7-1.6,2.3-2.6c0.1-0.3,0.2-0.7,0.2-1c0-0.6-0.1-1.2-0.1-1.7c0.1-0.9-0.4-1.7-0.9-2.5c-0.5-0.9-1.2-1.6-1.9-2.3
	c-0.3-0.4-0.7-0.8-1-1.1c-1.3-0.9-2.6-1.6-4-2.2c-1.7-0.7-3.5-0.9-5.2-1.1c-0.4,0-0.8,0-1.2,0c-1.3,0.1-2.7,0.6-4,1
	c-1.9,0.5-3.5,1.5-4.8,3c-0.8,0.8-1.5,1.7-2.2,2.5c-0.2,0.2-0.1,0.4,0,0.7c0.5,0.8,1,1.6,1.5,2.3c0.5,0.7,1.1,1.2,1.7,1.7
	c0.9,0.9,1.9,1.7,2.7,2.5c1.1,1,2.3,1.8,3.6,2.3c0.2,0.1,0.5,0.1,0.7,0.1C29,67.7,30.2,67.9,31.6,67.8z M45.5,93.5
	c0-0.3,0.1-0.7-0.1-1.1c-0.6-1.4-1.5-2.6-2.5-3.6c-1.2-1.2-2.6-2-4-2.7c-1.3-0.6-2.7-0.7-4-0.9c-0.3,0-0.5-0.1-0.7,0
	c-1.1,0.1-2.2,0.3-3.3,0.4c-0.8,0.1-1.6,0.1-2.3,0.7c-0.9,0.6-1.7,1.2-2.5,2c-0.7,0.5-1.3,1.1-1.8,1.7c-0.9,0.9-1.6,2-2.3,3.1
	c-0.2,0.3-0.2,0.5,0.1,0.8c0.5,0.6,1.1,1.2,1.7,1.7c1.4,1.2,2.9,2.3,4.4,3.1c1,0.6,1.9,1.2,3,1.7c0.8,0.4,1.6,0.7,2.5,0.9
	c1.1,0.4,2.3,0.4,3.5,0.4c0.5,0,1,0.1,1.5,0c0.5-0.1,0.9-0.3,1.3-0.4c0.8-0.2,1.7-0.3,2.4-0.8c0.5-0.4,1.1-0.7,1.6-1
	c0.1-0.1,0.3-0.3,0.3-0.4c0.3-0.7,0.7-1.5,0.9-2.3C45.3,95.7,45.4,94.6,45.5,93.5z M18,148.7c1.1-0.1,2.1-0.1,3.1-0.2
	c0.7-0.1,1.5-0.3,2.1-0.6c0.6-0.3,1.2-0.6,1.9-0.9c0.3-0.1,0.7-0.4,1.1-0.6c0.1-0.1,0.3-0.4,0.3-0.4c-0.2-0.5-0.4-1.1-0.7-1.6
	c-0.4-0.6-0.9-1-1.4-1.6c-1.1-1.3-2.2-2.4-3.7-3.1c-1.7-0.7-3.3-1.3-5.1-1.4c-0.5,0-1-0.1-1.4,0.3c-0.5,0.5-1,0.9-1.4,1.4
	c-0.9,1.2-1.6,2.4-1.7,3.9c0,0.1-0.1,0.4-0.1,0.5c-0.1,0.4-0.1,0.8,0.2,1.1c0.3,0.4,0.7,0.7,1.1,1.1c0.3,0.3,0.7,0.5,1,0.7
	c0.8,0.4,1.6,0.8,2.5,1C16.4,148.7,17.4,148.6,18,148.7z M14,29.2c0.5-0.9,1-1.6,1.5-2.4c0.3-0.4,0.6-0.9,0.8-1.5
	c0.3-0.9,0.8-1.7,1.1-2.7c0.3-1.2,0.3-2.5,0.2-3.7c0-0.2-0.1-0.4-0.3-0.6c-0.3-0.4-0.7-0.8-1-1.2c-0.1-0.1-0.2-0.2-0.3-0.3
	c-0.7-0.3-1.4-0.7-2.2-0.6c-0.5,0-0.9-0.1-1.4,0c-0.9,0.2-1.7,0.4-2.5,1c-0.6,0.5-0.9,1.1-1,1.8c-0.1,0.6,0,1.2,0.1,1.8
	c0.1,0.7,0.2,1.5,0.3,2.1c0,0.1,0.1,0.3,0.2,0.4c0.3,0.7,0.8,1.2,1.1,1.9c0.6,1.5,1.7,2.5,2.9,3.5C13.6,29.1,13.8,29.2,14,29.2z
	 M122.7,24.6c-1.3,0.7-2.5,1.6-3.5,2.8c-0.7,0.9-1.2,1.8-1.7,2.8c-0.1,0.2-0.1,0.6-0.2,0.9c0,0.4,0,0.7,0.1,1.1
	c0.1,0.2,0.1,0.6,0.3,0.7c0.6,0.4,0.9,1.2,1.6,1.5c0.2,0.1,0.5,0.1,0.6,0.4c0.5,0.5,1.1,0.2,1.5,0.4c1.3-0.4,2.6-0.8,3.6-1.9
	c0.5-0.5,0.8-0.9,0.9-1.7c0.1-1.4-0.1-2.6-0.7-3.8c-0.1-0.1-0.1-0.3-0.2-0.4c-0.2-0.3-0.3-0.6-0.5-0.8s-0.5-0.4-0.6-0.7
	C123.5,25.2,123.1,24.9,122.7,24.6z M42.5,32.7c0.2-0.1,0.4-0.2,0.5-0.3c0.3-0.1,0.5-0.4,0.7-0.5c0.7-0.6,1.4-1.2,1.9-2.1
	c0.5-0.9,0.9-1.9,1.4-2.8c0.3-0.7,0.5-1.6,0.5-2.4c0.1-0.4-0.1-0.9-0.3-1.2c-0.5-0.9-0.9-1-1.7-0.5c-0.1,0-0.1,0.1-0.1,0.1
	c-0.7,0.5-1.4,1-1.5,2c-0.1,0.4-0.3,0.8-0.4,1.2c-0.3,0.8-0.7,1.5-0.9,2.3C42.4,29.8,42.5,31.2,42.5,32.7z M166.1,19.3
	c0-1.1-0.3-1.9-0.8-2.5c-0.7-0.9-1.8-0.9-2.5,0.1c-0.1,0.2-0.3,0.4-0.5,0.7c-0.4,0.7-0.3,1.5,0.1,2.1c0.5,0.8,1.2,1.2,1.9,1.7
	c0.5,0.3,0.9,0.2,1.2-0.4C165.9,20.4,166,19.7,166.1,19.3z M26.1,175c0.1,0.2,0.3,0.4,0.5,0.5c0.6,0.3,1.3,0.6,1.9,0.9
	c0.3,0.1,0.6-0.1,0.7-0.4c0.2-0.3,0.3-0.7,0.5-1c-0.3-0.4-0.5-0.7-0.8-1c-0.9-0.9-1.7-0.7-2.3,0.2C26.4,174.4,26.3,174.7,26.1,175z
	 M177.5,18.3c0.1-0.3,0.2-0.4,0.3-0.5c0.1-0.5,0.1-1.1,0.3-1.6c0.2-0.6-0.1-1-0.3-1.5c-0.2-0.4-0.6-0.4-0.8,0c-0.5,0.7-0.5,2.1,0,3
	C177.1,17.8,177.3,18,177.5,18.3z M25.7,182c0.3,0.2,0.7,0.4,1.1,0.6c0.4,0.1,0.7-0.2,0.7-0.7c-0.1-0.3-0.5-0.6-0.9-0.6
	C25.9,181.4,25.8,181.4,25.7,182z M188.4,23.3c0.6-0.7,0.5-1.1-0.1-1.5C187.8,22.5,187.8,22.8,188.4,23.3z"/>
</svg>
