<?xml version="1.0" encoding="utf-8"?>
<!-- Generator: Adobe Illustrator 19.1.0, SVG Export Plug-In . SVG Version: 6.00 Build 0)  -->
<svg version="1.1" id="Layer_1" xmlns="http://www.w3.org/2000/svg" xmlns:xlink="http://www.w3.org/1999/xlink" x="0px" y="0px"
	 viewBox="0 0 200 200" style="enable-background:new 0 0 200 200;" xml:space="preserve">
<style type="text/css">
	.st0{fill:#010101;}
</style>
<path class="st0" d="M194.7,171.8c-0.8,0.4-1.5,0.3-2.2,0.1c-0.6,0.2-1.3,0.4-1.9,0.6c-0.3,0.1-0.6,0.3-0.9,0.5
	c-0.3,0.2-0.3,0.4,0,0.7c0.8,0.9,1,1.9,0.5,2.9c-0.4,0.7-1.3,1.1-2,0.9c-1.6-0.6-1.6-1.8-0.9-2.7c0.1-0.3,0.4-0.5,0.6-0.8
	c-0.5-0.5-0.9-0.2-1.4,0c-0.6,0.3-1.1,0.7-1.5,1.3c-0.4,0.6-0.9,1.1-1.5,1.6c-1.3,0.9-2.6,1.9-4,2.6c-1.6,0.8-3.2,1.1-5,0.6
	c-0.6-0.1-1.2-0.2-1.9,0.1c-1.3,0.6-2.7,1.2-4.1,1.7c-0.8,0.3-1.6,0.3-2.4,0.4c-1.8,0.4-3.6,0.4-5.3,0.4c-0.5,0-1-0.1-1.4-0.4
	c-1.1-0.6-2.2-0.9-3-1.9c-0.1-0.1-0.4-0.2-0.5-0.4c-0.4-0.3-0.6-0.3-1,0.1c-1.2,1.1-2.6,1.9-4,2.8c-0.4,0.3-0.8,0.6-1.2,0.8
	c-1.7,1.1-3.4,2.1-5.6,2.3c-0.8,0.1-1.5,0.4-2.2,0.6c-1,0.4-2,0.2-3.1,0.3c-0.3,0-0.6-0.1-0.9-0.1c-1.8,0.1-3.6-0.4-5.3-0.9
	c-1-0.3-1.8-0.9-2.6-1.6c-0.5-0.5-1-1-1.6-1.4c-0.1-0.1-0.4-0.3-0.6-0.3c-2.4,0-4.7-0.9-7-1.3c-0.6-0.1-1.1-0.4-1.6-0.6
	c-0.8-0.2-1.6-0.3-2.4-0.5c-0.9-0.2-1.6-0.4-2.5-0.6c-0.9-0.2-1.8-0.4-2.6-0.6c-0.4-0.1-0.7-0.1-1.1-0.1c-0.8-0.1-1.5-0.1-2.3-0.2
	c-1.7-0.2-3.3,0-5.1,0.5c0.2,0.2,0.4,0.4,0.5,0.5c1.1,0.6,2.1,1.5,2.8,2.6c0.4,0.8,0.9,1.6,0.9,2.6c0.1,1,0.1,2.1,0.1,3.1
	c-0.1,1.4-0.6,2.7-1.5,3.8c-0.4,0.6-0.8,1.1-1.2,1.6c-0.1,0.1-0.2,0.2-0.4,0.4c-1.3,0.9-2.6,1.4-4.1,1.7c-1.2,0.2-2.5,0.1-3.7-0.1
	c-0.9-0.1-1.4-0.9-1.8-1.6c-1.1-1.9-1.7-3.8-1.7-6c0-0.8,0.2-1.5,0.6-2.1c0.4-0.5,0.6-1.1,0.9-1.6c0.5-0.9,1.1-1.8,1.9-2.6
	c0.6-0.7,1.1-1.6,1.7-2.4c-0.6-0.4-1.3-0.6-2-0.6c-0.4,0-0.7,0-1-0.1c-2-0.4-3.8-0.3-5.7,0.6c-0.9,0.4-1.6,0.9-2.4,1.5
	c-0.1,0.1-0.2,0.2-0.4,0.3c-0.9,0.3-1.6,1.1-2.6,1.4c-0.9,0.3-1.9,0.4-2.7,0.6c-1.5,0.3-3,0.4-4.5,0c-1-0.3-2-0.4-3-1
	c-0.9-0.5-1.9-0.9-2.9-1.2c-0.3-0.1-0.5-0.2-0.8-0.4c-0.8-0.6-1.6-1.1-2.4-1.7c-0.6-0.4-0.6-0.4-1.1,0.1c-1.4,1.1-2.8,2.4-4.2,3.5
	c-0.7,0.6-1.5,0.9-2.1,1.4c-0.6,0.5-1.2,1-1.8,1.6c-0.6,0.6-1.2,1.1-1.9,1.6c-1.4,0.9-2.6,2-4.1,2.8c-0.9,0.4-1.6,1.1-2.4,1.7
	c-0.1,0.1-0.1,0.1-0.2,0.1c-1.2,0.4-2.3,1.1-3.6,1.1c-0.1,0-0.3,0-0.4,0c-0.4,0.3-0.8,0.6-1.3,0.3c-0.5,0.6-1.2,0.4-1.9,0.4
	c-0.6,0.1-1.3-0.1-1.9-0.1c-0.9,0-1.6,0-2.5,0c-0.1,0-0.2,0-0.4,0c-1.1-0.3-2.4-0.4-3.4-0.9c-1-0.4-2.1-0.6-2.9-1.4
	c-0.4-0.4-1-0.6-1.5-0.8c-1.6-0.6-2.8-1.9-4.1-2.8c-0.3-0.2-0.5-0.6-0.8-0.9c-0.4-0.5-0.9-1-1.4-1.6c-0.9-1.1-1.8-2.4-2.6-3.6
	c-0.6-0.9-1.3-1.9-1.9-3c-0.4-0.7-0.7-1.4-1.1-2.1c-0.1-0.3-0.3-0.6-0.5-0.8c-0.1-0.1-0.2-0.3-0.2-0.4c-0.3-1.4-0.6-2.8-0.9-4.1
	c-0.1-0.3-0.1-0.6-0.1-0.9c-0.1-2.4-0.4-4.9-0.1-7.3c0.2-2.1,0.5-4.2,0.9-6.3c0.3-1.7,0.8-3.3,1.3-5c0.2-0.7,0.6-1.4,0.9-2
	c0-0.1,0.1-0.1,0.1-0.1c0.8-1.1,0.6-2.3,0-3.6c-0.5-1.1-0.9-2.1-1.2-3.3c-0.2-0.8-0.4-1.6-0.6-2.4c-0.1-1.1-0.3-2.1-0.4-3.1
	c-0.1-0.9,0-1.9,0.1-2.9s0.4-1.9,0.5-2.9c0.1-0.4,0.2-0.9,0.2-1.3c0.1-1.6,0.6-3,1.2-4.4c0.5-1.1,0.9-2.3,1.4-3.3
	c0.3-0.7,0.6-1.4,1.1-2.1c0.8-1.3,1.6-2.6,2.4-3.8c0.6-0.9,1.1-1.9,1.8-2.6c0.7-0.9,1.2-1.9,1.8-2.9c0.5-0.7,0.9-1.5,1.5-2.1
	c0.9-1,1.4-2.2,2.1-3.3c0.4-0.7,0.8-1.4,1.1-2.1c0.2-0.4,0.3-0.7,0.5-1.1c0.6-1.4,1.1-2.9,1.2-4.5c0.1-1.4,0.1-2.7,0.1-4.1
	c0-0.4-0.1-0.9-0.2-1.4c-0.1-0.6-0.1-1.3-0.3-1.9c0-0.2-0.1-0.4-0.1-0.7c-0.2,0.1-0.4,0.2-0.4,0.4c-0.6,0.9-1.2,1.8-1.8,2.7
	c-0.3,0.4-0.6,0.7-0.9,1c-0.6,0.6-1.3,1.2-1.9,1.9c-1,1-2,1.9-3.3,2.5c-0.1,0.1-0.4,0.2-0.4,0.4c-0.1,0.4-0.6,0.6-0.9,0.9
	c-1.3,1-2.8,1.2-4.3,1.4c-1.6,0.3-3.3,0.6-4.9,0.4c-0.5-0.1-1-0.1-1.5,0.1c-0.7,0.1-1.4-0.1-2.1-0.2c-0.8-0.2-1.6-0.4-2.4-0.5
	c-1.4-0.2-2.4-1.1-3.3-2.1c-1-1.1-1.9-2.2-2.5-3.6c-0.1-0.4-0.4-0.6-0.6-1c-0.1-0.1-0.2-0.3-0.2-0.4c-0.1-0.7-0.2-1.5-0.2-2.2
	c0-0.2,0.2-0.4,0.3-0.7c-0.3-0.1-0.4-0.4-0.4-0.8c0.1-1.2,0.2-2.5,0.4-3.7c0.2-1.3,0.9-2.4,1.5-3.5C4.9,81,5.6,80,6.2,79.1
	c0.1-0.1,0.1-0.3,0.3-0.4c0.9-0.4,1.4-1.3,2.1-1.9c1.4-1.3,3-2.2,4.9-2.6c1.1-0.2,2.1-0.6,3.1-0.8c1.6-0.3,3.1-0.4,4.6-0.1
	c1,0.1,2,0.5,3.1,0.7c1.5,0.3,2.8,1.1,4.1,1.7c1.2,0.6,2.4,1.4,3.3,2.3c0.3,0.3,0.6,0.4,1,0.7c0.1-0.1,0.1-0.3,0.2-0.5
	c0.1-1.1,0.1-2.4,0.2-3.5c0.1-0.9,0.2-1.9,0.1-2.8c-0.3-1.8-0.6-3.6-0.9-5.3c-0.4-2-0.8-4-1.2-5.9c-0.2-1-0.3-2.1-0.4-3.1
	c-0.1-0.7-0.2-1.4-0.6-2.1c-0.2,0.1-0.4,0.1-0.4,0.2c-0.7,0.5-1.4,1.1-2.1,1.6c-0.4,0.3-0.9,0.4-1.3,0.6c-0.5,0.2-0.9,0.4-1.4,0.6
	c-1.1,0.6-2.3,0.9-3.5,1s-2.4-0.3-3.5-0.9c-0.3-0.1-0.5-0.3-0.8-0.4c-1.1-0.4-1.9-1.3-2.9-2c-0.6-0.5-1.3-1-1.7-1.7
	c-0.1-0.2-0.2-0.5-0.4-0.8c-0.1-0.1,0-0.3-0.1-0.3c-0.6-0.4-0.4-0.9-0.5-1.5c-0.2-2,0.6-3.7,1.8-5.2c0.9-1.1,1.9-2.1,3-3
	c0.4-0.4,0.9-0.5,1.5-0.6c1.6-0.4,3.3-0.6,5.1,0.1c0.6,0.2,1.2,0.1,1.7,0.4c1.3,0.6,2.6,1.1,3.8,1.8c0.4,0.2,0.7,0.7,0.9,1.1
	c0.3,0.5,0.5,1.1,0.8,1.6c0.1,0.1,0.3,0.4,0.4,0.4c0.1,0,0.3-0.2,0.4-0.4c0.3-0.7,0.5-1.4,0.8-2.1c0.3-0.6,0.3-1.4,0.3-2
	c0.1-1.4,0.1-2.9,0.2-4.3c0.1-1.1-0.1-2.1-0.3-3.1c-0.3-1.4-0.6-2.6-1-4c-0.4-1.1-0.9-2.1-1.4-3.3c-0.4,0.2-0.6,0.4-0.9,0.5
	c-0.6,0.5-1.1,0.5-1.9,0.3c-0.9-0.3-1.5-0.7-2.1-1.4c-0.6-0.8-0.5-2.2,0.2-2.9c0.1-0.1,0.3-0.2,0.4-0.2c0.9,0.1,1.9-0.2,2.7,0.4
	c0.3,0.3,0.8,0.4,1.2,0.6c0.6-1.4,0.5-2.7,0.1-4.1c-0.4-1.3-0.9-2.4-1.8-3.6c-0.9-1.1-2.1-1.6-3.3-2.2c0.3-0.4,0.6-0.4,0.8-0.2
	c1,0.4,1.9,0.8,2.6,1.6c0.4,0.4,0.8,0.9,1.1,1.4c0.1,0.1,0.2,0.3,0.2,0.4c0.1,0.6,0.4,1.1,0.8,1.5c0.1,0.1,0.2,0.1,0.2,0.3
	c0.2,1.3,0.9,2.6,0.6,3.9c-0.1,0.4-0.1,0.8-0.1,1.2c-0.1,0.6,0.1,1,0.6,1.2c1.4,0.9,1.9,2.3,2.4,3.7c0.2,0.5,0.3,1.1,0.4,1.6
	c0.3,1.6,0.7,3.1,0.8,4.6c0,0.6,0,1.2-0.1,1.8c0,0.6,0,1.3,0,1.9c0,0.1,0,0.3,0,0.4c-0.1,1.1-0.1,2.1-0.2,3.2
	c-0.1,0.7-0.2,1.4-0.4,2.1c0,0.1-0.1,0.2-0.1,0.4c-0.1,1.4-0.6,2.7-1.4,3.9c-0.4,0.6-0.4,1.2-0.1,1.9c0.5,1.1,0.9,2.2,1,3.4
	c0.1,0.4,0.2,0.6,0.3,1c0.2,0.9,0.4,1.9,0.6,2.9c0.2,1.2,0.5,2.4,0.8,3.6c0.1,0.6,0.1,1.2,0.2,1.9c0.1,0.7,0.1,1.4,0.2,2.1
	c0.1,1.2,0.1,2.4,0.1,3.6c0,0.7-0.2,1.4-0.1,2.1c0.2,1.4-0.2,2.8-0.1,4.1c0.1,0.9-0.1,1.9-0.2,2.9c-0.1,0.4,0,0.7,0.3,1
	c0.6,0.6,1,1.3,1.6,1.8c0.8,0.6,1.2,1.5,1.7,2.3c0.6,1.1,1.3,2.2,1.9,3.3c0.9,1.8,1.6,3.6,2.2,5.4c0.4,1.2,0.5,2.4,0.4,3.6
	c-0.1,1.4-0.3,2.9-0.5,4.2c-0.1,0.4-0.2,0.8-0.4,1.1c-0.4,1.3-0.7,2.6-1.1,3.9c-0.2,0.6-0.5,1.3-0.8,2c-0.4,0.9-0.7,1.6-1.1,2.5
	c-0.1,0.2-0.4,0.4-0.6,0.5c0.2,0.5-0.1,1-0.4,1.4c-0.8,1.1-1.6,2.3-2.4,3.5c-0.6,0.9-1.1,1.6-1.7,2.5c-0.2,0.4-0.6,0.6-0.9,0.9
	c-0.1,0.1-0.3,0.4-0.4,0.5c-0.4,0.5-0.8,1.1-1.3,1.4c-1.1,1-2.2,2.1-3.1,3.3c-0.5,0.6-1.1,1.2-1.6,1.9c-0.4,0.4-0.6,0.9-0.9,1.4
	c-0.4,0.5-0.7,0.9-1,1.4c-0.4,0.7-0.9,1.4-1.2,2.1c-0.8,1.4-0.9,2.9-1,4.3c-0.1,1,0,2,0,3c0,0.2,0.1,0.4,0.2,0.8
	c0.2-0.2,0.4-0.3,0.4-0.4c0.4-0.6,0.9-1.2,1.3-1.8c1.6-1.8,3.1-3.6,4.8-5.3c1.2-1.1,2.5-2.2,4.1-2.9c0.8-0.4,1.6-0.6,2.5-0.7
	c1.1-0.2,2.1-0.4,3.2-0.4c0.5-0.1,1.1-0.1,1.6-0.1c1,0.1,1.7,0.9,2.6,1.3c0.1,0.1,0.3,0.2,0.4,0.3c1.4,0.6,2.5,1.6,3.6,2.7
	c0.6,0.7,1.2,1.5,1.8,2.3c0.1,0.1,0.1,0.4,0.2,0.4c0.6,0.1,0.7,0.6,1.1,1c0.3,0.2,0.4,0.6,0.5,0.9c0.3,0.8,0.4,1.6,0.7,2.4
	c0.5,1.3,0.4,2.6,0.2,3.9c0,0.2,0,0.4-0.1,0.6c-0.1,2.4-0.5,4.8-2,6.8c-0.4,0.6-0.9,1.3-1.4,1.9c-0.2,0.3-0.5,0.5-0.8,0.8
	c-0.3,0.2-0.6,0.4-0.9,0.6c-1.1,1-2.3,1.6-3.6,2.1c-0.6,0.2-1.1,0.6-1.7,0.7c-1,0.3-2.1,0.4-3.1,0.6c-0.7,0.1-1.4,0-2.1,0.1
	c-0.4,0.1-0.9-0.1-1.3-0.1c-0.2,0-0.4-0.1-0.6-0.1c-0.6,0.2-1.2-0.1-1.9-0.1c-0.8-0.1-1.6-0.3-2.4-0.7c-0.6-0.4-1.1-0.6-1.7-0.9
	c-0.2-0.1-0.4-0.3-0.6-0.4c-0.7-0.4-1.4-0.9-2.1-1.5c-0.4-0.4-1-0.8-1.5-1.1c-0.9-0.6-1.8-1.1-2.4-2.1c-0.1-0.1-0.1-0.1-0.4-0.2
	c-0.1,0.1-0.1,0.1-0.1,0.2c-0.2,1.3-0.6,2.5-0.7,3.8c-0.1,1.7,0.1,3.4,0.2,5.2c0.1,1.4,0.5,2.6,0.9,3.8c0.1,0.6,0.6,1.1,0.9,1.8
	c0.5,1,1,2,1.6,2.9c1.1,1.6,2.1,3.3,4,4.2c0.6,0.3,1.1,0.6,1.4,1.3c0.1,0.2,0.4,0.3,0.6,0.4c1.4,1.1,3,1.9,4.8,2.3
	c0.8,0.1,1.5,0.4,2.2,0.9c0.5,0.3,1.1,0.5,1.6,0.6c1.9,0.4,3.8,0.8,5.8,1.1c1,0.1,2,0.2,3,0.2c1.1,0,2.3-0.2,3.4-0.6
	c0.8-0.3,1.6-0.4,2.4-0.7c1.9-0.6,3.6-1.3,5.3-2.1c1.4-0.6,2.6-1.5,3.7-2.4c0.4-0.3,0.4-0.5,0.2-0.9c-0.5-0.9-1.1-1.8-1.5-2.8
	c-0.7-1.5-1.3-3-1.5-4.6c-0.3-1.5-0.4-3.1-0.6-4.6c-0.1-0.6-0.1-1.3,0-1.9c0.1-1.2,0-2.5,0.3-3.7c0.3-1.4,0.9-2.8,1.4-4.1
	c0.2-0.6,0.6-1.2,0.9-1.9c0.4-0.7,0.8-1.4,1.6-1.8c0.1-0.1,0.3-0.2,0.4-0.4c0.6-1.1,1.7-1.6,2.7-2.1c0.5-0.3,1-0.4,1.6-0.4
	c1.4,0.1,2.5,0.6,3.5,1.6c0.1,0.2,0.4,0.4,0.6,0.5c1.3,1.1,2.3,2.4,3.2,3.8c0.1,0.1,0.1,0.4,0.1,0.6c0.1,0.5,0.3,1.1,0.5,1.5
	c0.4,0.8,0.8,1.5,1.1,2.3c0.1,0.3,0.2,0.6,0.3,1c0.1,0.9,0.4,1.9,0.4,2.9c0.1,1.3-0.2,2.5-0.6,3.6c-0.6,1.4-1.4,2.7-2.1,4
	c-0.4,0.5-0.6,1.1-0.9,1.6c-0.1,0.2-0.4,0.4-0.5,0.7c-0.3,0.4-0.6,0.9-0.9,1.4c-0.1,0.2-0.2,0.4-0.4,0.6c-1.1,1.1-2.1,2.2-3.2,3.3
	c-0.3,0.3-0.5,0.6-0.7,1c-0.1,0.3-0.1,0.5,0.1,0.6c0.3,0.1,0.6,0.3,0.9,0.4c0.6,0.2,1.4,0.3,2,0.6c0.8,0.4,1.5,0.4,2.3,0.2
	c0.3-0.1,0.6,0.1,1,0.1c1.1,0.1,2.2,0.4,3.3,0.1c1.1-0.2,2.4,0,3.4-0.6c0.1-0.1,0.1-0.1,0.2-0.1c1.1,0,2-0.5,3-0.6
	c0.6-0.1,1.2-0.2,1.8-0.4c0.7-0.3,1.4-0.4,2.2-0.4c0.1,0,0.2,0,0.4-0.1c0.7-0.5,1.6-0.4,2.4-0.4c0.3-0.1,0.6,0,0.9,0.1
	c1,0.1,1.9,0.4,2.9,0.6c0.1,0,0.3,0.1,0.4,0.1c0.9,0.6,2,0.6,2.9,1.1c0.4,0.2,0.7,0.1,1.1-0.1c1.1-0.7,2.1-1.4,3.3-2
	c0.5-0.3,1.1-0.3,1.6-0.4c0.4-0.1,0.7-0.1,1-0.2c0.8-0.4,1.6-0.4,2.4,0c0.1,0.1,0.2,0.1,0.4,0c0.6-0.3,1.1,0,1.6,0.3
	c0.6,0.4,1.2,0.4,1.9,0.6c1.8,0.6,3.4,1.6,5.1,2.5c0.8,0.4,1.4,0.9,2.1,1.4c1.1,0.6,2.3,0.7,3.4,0.9c0.8,0.1,1.6,0.2,2.4,0.4
	c0.1,0,0.3,0,0.5-0.1c-0.1-0.1-0.1-0.3-0.1-0.4c-0.4-0.6-0.8-1.3-1.2-1.9c-0.4-0.6-0.5-1.2-0.4-1.9c0.1-0.6,0.1-1.2,0.3-1.8
	c0.4-1.6,1.4-2.7,2.9-3.4c1.2-0.6,2.5-0.6,3.8-0.4c1.8,0.1,2.8,1.1,3.2,2.8c0.1,0.2,0.2,0.4,0.4,0.6c0.4,0.5,0.4,1,0.4,1.6
	c-0.1,0.9-0.1,1.7-0.3,2.6c-0.1,0.4-0.2,0.6-0.4,0.9c-0.1,0.2-0.4,0.4-0.5,0.6c-0.5,0.7-1,1.4-2,1.6c-0.1,0-0.3,0.1-0.5,0.3
	c0.2,0.2,0.4,0.4,0.6,0.5c1.4,0.5,2.8,1.4,4.3,1.5c0.4,0.1,0.7,0,1.1,0c0.3,0,0.6-0.1,0.9,0c2.1,0.3,4.2,0.2,6.3-0.4
	c1.1-0.3,2.3-0.8,3.3-1.4c0.9-0.6,2-1.1,2.9-1.7c1.1-0.9,2.4-1.4,3.1-2.7c0.1-0.2,0.2-0.5,0.2-0.7c0.1-0.9,0-1.9,0.1-2.9
	c0.1-0.7,0.3-1.4,0.5-2.1c0.2-0.6,0.8-0.9,1.4-1.2c0.6-0.3,1.1-0.6,1.7-0.4c0.2,0.1,0.4,0.1,0.6,0.1c1.9,0.5,2.1,1.4,2.1,3
	c0,1.6-0.8,2.9-1.9,4.1c-0.4,0.4-0.8,0.7-1.2,1.1c-0.4,0.4-0.5,0.6-0.1,1c0.8,0.8,1.6,1.5,2.9,1.6c1.6,0.1,3.1-0.2,4.8-0.4
	c1.6-0.1,3.2-0.7,4.7-1.4c0.4-0.2,0.9-0.4,1.1-0.7c-0.3-0.7-0.6-1.4-0.9-2.1c-0.4-1-0.3-2,0.2-3c0.5-1.1,1.6-1.5,2.7-1
	c1.4,0.6,1.9,1.9,1.7,3.4c-0.1,0.2,0.1,0.4,0,0.6c-0.1,0.3-0.1,0.6-0.3,0.9c-0.2,0.4-0.5,0.8-0.7,1.2c0.1,0.1,0.1,0.3,0.1,0.3
	c1,0.4,1.9,0.7,3.1,0.4c1.1-0.2,2.1-0.6,3.1-1.3c1.1-0.6,2.1-1.4,3.1-2.1c0.2-0.1,0.4-0.4,0.5-0.6c0.6-1.2,1.6-1.9,2.9-2.2
	c0.3-0.1,0.6-0.1,0.9,0c0.5,0.1,0.9,0.1,1.3-0.2c0.4-0.3,0.9-0.6,1.3-0.8c0.6-0.4,1.3-0.4,1.9-0.6c0.5-0.1,1.1,0,1.6-0.1
	C194.2,171.3,194.4,171.5,194.7,171.8z M39.1,135.7c-0.9,0.1-1.9,0.1-2.9,0.4c-1.1,0.4-2.2,1-3.3,1.5c-0.1,0-0.1,0.1-0.1,0.1
	c-0.6,0.8-1.5,1.1-2.3,1.6c-1.1,0.6-1.9,1.6-2.6,2.5c-0.8,1-1.5,2.1-2.1,3.1c-0.4,0.6-0.5,1.1-0.1,1.8c1.1,1.7,2.6,3.3,4.3,4.5
	c1.6,1.2,3.3,2.3,5.2,2.8c0.8,0.2,1.6,0.4,2.4,0.4c1.7,0.1,3.3-0.6,5-1.1c1.1-0.4,2.1-0.9,3.1-1.6c0.9-0.6,1.8-1.3,2.4-2.1
	c0.9-1.1,1.6-2.4,1.9-3.8c0.1-0.4,0.1-0.7,0-1c-0.4-1.1-0.9-2.4-1.4-3.4c-0.7-1.4-1.8-2.4-3.1-3.1c-1-0.6-2.1-1.1-3.1-1.6
	C41.3,136.1,40.2,135.8,39.1,135.7z M19.7,92.4c0.1,0,0.4,0,0.5,0c1.2-0.1,2.5-0.3,3.7-0.4c0.6-0.1,1.2-0.1,1.8-0.2
	c1.5-0.4,2.8-1.2,3.7-2.4c1.1-1.4,2-3,2.7-4.6c0.3-0.8,0.6-1.6,0-2.4c-0.4-0.4-0.7-0.9-1.1-1.3c-1-0.8-1.9-1.7-3.1-2.2
	C26.9,78.5,26,78,25,77.6c-0.6-0.3-1.4-0.5-2-0.9c-0.9-0.6-1.7-0.6-2.6-0.4c-1.1,0.1-2.2,0.4-3.3,0.6c-0.2,0.1-0.4,0.1-0.6,0.1
	c-0.6,0.1-1.1,0.3-1.6,0.4c-0.6,0.1-1.1,0.4-1.6,0.6c-0.7,0.3-1.4,0.6-1.8,1.2c-0.5,0.6-0.7,1.4-1.1,2c-0.7,1.3-0.9,2.6-0.7,4.1
	c0.1,1,0.3,2,1.1,2.8c0.6,0.6,1,1.2,1.6,1.7c0.9,0.7,1.9,1.4,3.1,1.8C16.7,92.1,18.2,92.3,19.7,92.4z M66.9,172.5
	c0.4-0.3,0.7-0.4,1-0.6c0.9-0.9,1.9-1.8,2.7-2.7c1.1-1.1,1.9-2.4,2.4-3.8c0.1-0.3,0.2-0.6,0.4-0.9c0.4-0.9,0.8-1.8,1.1-2.7
	c0.1-0.4,0.2-0.8,0.1-1.1c-0.1-0.6-0.2-1.2-0.2-1.8c0-0.7-0.3-1.1-0.8-1.5c-0.5-0.4-1-0.7-1.6-0.8c-1-0.1-1.9,0.1-2.5,1.1
	c-0.1,0.1-0.3,0.2-0.5,0.4c-0.2,0.1-0.4,0.2-0.6,0.4c-1.1,1.1-1.6,2.5-1.8,4c-0.1,1.2-0.2,2.5-0.3,3.7c-0.1,0.5-0.1,1-0.1,1.6
	c0.1,1,0.2,2,0.3,3.1C66.7,171.1,66.8,171.7,66.9,172.5z M20.9,46L20.9,46c-0.3,0-0.6-0.1-0.9,0.1c-0.9,0.4-1.6,1.1-2.1,2
	c-0.1,0.3-0.1,0.9,0,1.1c0.7,1.1,1.8,1.9,3.1,2.3c0.7,0.2,1.4,0.4,2.1,0.7c1.5,0.6,3,0.6,4.5,0.1c0.4-0.1,0.8-0.4,1.1-0.6
	c0.3-0.1,0.5-0.4,0.4-0.8c-0.3-0.7-0.6-1.4-1.2-1.9c-1.1-0.8-2.3-1.6-3.4-2.4c-0.9-0.6-1.9-0.8-2.9-0.6C21.3,46,21.1,46,20.9,46z
	 M100.9,180.4c-0.3,0.3-0.6,0.5-0.7,0.7c-1,1.7-2.1,3.3-2.1,5.4c-0.1,1.4,0.5,2.6,1.7,3.3c0.2,0.1,0.6,0.2,0.9,0.1
	c0.5-0.1,1-0.4,1.5-0.7c0.1-0.1,0.2-0.2,0.3-0.3c0.3-0.5,0.5-0.9,0.7-1.4c0.6-1.3,0.7-2.6,0.1-4.1c-0.3-0.6-0.7-1.1-1.1-1.7
	C101.9,181.3,101.5,180.9,100.9,180.4z M130.2,179.6c1.1-0.2,1.7-1,2.3-1.8c0.1-0.1,0.1-0.4,0.1-0.5c-0.1-1-0.5-1.7-1.3-2.3
	s-1.1-0.5-1.6,0.2c-0.1,0.2-0.3,0.5-0.3,0.8c-0.1,0.4,0.1,0.7,0,1.1C129.3,178.1,129.7,178.9,130.2,179.6z M172.3,177.3
	c0.5-0.6,0.9-1.3,1.4-1.9c0.1-0.1,0.1-0.3,0.1-0.4c0-0.6-0.1-1.1-0.6-1.6c-0.4-0.6-0.9-0.6-1.3,0.1
	C171.1,174.6,171.2,176.2,172.3,177.3z M189,174c-0.6,0.4-1.1,0.9-1.4,1.6c-0.1,0.6,0,0.9,0.5,1.1c0.5,0.2,1,0.1,1.3-0.2
	c0.4-0.5,0.4-1.1,0.4-1.7C189.8,174.4,189.3,174.2,189,174z M26.5,27.1c-0.1,1.1,0.2,1.4,1.5,2c0.3,0.1,0.9-0.2,1.5-0.8
	C28.5,27.9,27.6,27.3,26.5,27.1z M157.1,175c1.4-0.5,2-1.8,1.5-2.9c-0.4-0.1-0.6,0.2-0.9,0.5C157.2,173.2,157.1,174,157.1,175z"/>
</svg>
