<?xml version="1.0" encoding="utf-8"?>
<!-- Generator: Adobe Illustrator 19.1.0, SVG Export Plug-In . SVG Version: 6.00 Build 0)  -->
<svg version="1.1" id="Layer_1" xmlns="http://www.w3.org/2000/svg" xmlns:xlink="http://www.w3.org/1999/xlink" x="0px" y="0px"
	 viewBox="1000 -167 2200 534" style="enable-background:new 1000 -167 2200 534;" xml:space="preserve">
<style type="text/css">
	.st0{stroke:#FFFFFF;stroke-miterlimit:10;}
</style>
<path class="st0" d="M3158.2,145.1c-5.8-1.9-12.8-4.7-18-7.9c-4.8-2.9-8.6-7.1-14-8.9c2.7-10,7-18.3,5.8-29
	c-0.5-4.3-1.9-9.6-6.9-10.4c-3.4-0.5-6.3,1.2-9,3.2c-8.2,6-9.7,16.7-6.5,26.2c1.1,3.2,4.7,6.5,4.4,10c-0.3,4.3-6.5,8.5-9.9,10.3
	c-3.1,1.7-6.7,1.8-10,3c-6.7,2.5-13.1,6-20,8.1c-5.3,1.6-10.7,1.9-16,3.2c-31.5,7.6-63.5,11.9-96,9.6c-13.1-0.9-26.4-0.5-39-4.8
	c-6-2-12.7-6.9-18-10.4c-7.9-5.1-11.7-12-17.2-19c-2.7-3.4-6.9-7.1-6.4-12c0.4-4.4,4.5-7.4,7.5-10.1c4.5-4,9.8-8.5,12.6-13.9
	c6.2-11.8,12.3-25.3,12.1-39c-0.1-9.4-3.1-19-5.5-28c-3.9-14.8-11.5-28.7-27.3-33.2c-7.7-2.2-16.9-0.7-24,2.8
	c-28.7,14.3-31.2,53.7-22.9,81.4c2.4,7.9,5.6,15.3,8.6,23c0.9,2.2,3.2,5.4,3.1,7.8c-0.1,2-2.2,2.7-3.8,3.3c-7,2.5-12,0.9-19,0.1
	c-5.1-0.6-10,0-15-1.2c-10.9-2.6-19.9-7.8-30-11.9c-4.4-1.8-9.4-1.7-14-2.9c-3.1-0.8-5.8-2.9-9-3.5c-1.9-0.3-3.9,0.4-5.8-0.1
	c-2.6-0.6-4.6-2.8-7.2-3.7c-2.9-1-6.1-1-9-2c-5.8-2.1-11.3-5.2-17-7.4c-9.8-3.8-20-5.4-30-8.2c-9.8-2.7-19.9-6.2-30-7.2
	c-5.7-0.5-11.4,0.8-17,0.5c-9.8-0.5-19.2-2-29-1.6c-10.4,0.5-20.7,2.5-31,3.8c-8.7,1.1-17.5,1.5-26,3.8c-7.6,2-15.6,2.9-23,5.2
	c-9.1,2.8-17.8,6.9-27,9.5c-12.2,3.4-25.6,6.2-37,11.9c-8,4-15.4,8.8-23,13.4c-2.7,1.6-6.5,4.5-9.8,3.4c-3.7-1.3-5.6-5.9-7.6-8.9
	c-4.3-6.6-9.1-12.8-13.9-19c-1.8-2.4-5.1-5.7-3.8-9c1.4-3.5,5.8-6.1,8.2-9.1c5.8-7.3,11-15.8,15.4-24c6.6-12.3,14.1-25.1,19.2-38
	c3.2-8,4.9-16.8,7.6-25c3.9-11.4,8.9-23.8,8.6-36c-0.1-5.8-2.4-11.4-3.8-17c-1.5-5.7-2.2-11.5-4.5-17c-3.5-8.5-8.8-14.6-13.9-22
	c-3.4-5-6.3-10.3-10.2-15c-5.8-6.9-15.8-10-23.5-13.8c-3.8-1.9-6.9-4.9-11-6.3c-14.4-4.9-29.2-3.6-44-1.9c-5.3,0.6-10.8,1-16,2.7
	c-4.7,1.6-8.6,5.2-13,7.5c-12,6.3-23,14.4-29.2,26.8c-3.7,7.4-5.1,17.7-5.5,26c-0.2,4,1.1,8,1,12c-0.1,5.7-1.6,11.4-0.6,17
	c1,5.8,3.7,11.4,5.5,17c1.9,6,3.1,12.2,5.6,18c6,13.7,14.5,25.1,23.4,37c5.9,7.8,11,16.2,17.3,23.7c10.1,12,23.3,21.5,32.4,34.3
	c-5.3,2.3-9.2,6.3-14,9.5c-10.9,7.2-21.7,15-33,21.4c-9.9,5.6-20.8,8.7-31,13.6c-7.5,3.6-14.4,8.5-22,12
	c-15.4,7.1-31.2,12.8-47,18.6c-1.8-6.7-6.9-12.4-10.8-18c-4.2-6.2-7.9-13.9-12.9-19.4c-6.7-7.4-15.2-13.6-22.3-20.6
	c-6.9-6.7-19-15.9-20.7-26c-0.9-5.1,5.2-9.4,8-13c6.1-7.9,11.4-17.8,15.2-27c10.3-24.8,20.3-50.5,25-77c2.7-15.1,5.7-28.5,3.2-44
	c-1.4-8.6-7.1-13.8-13-19.6c-6.1-6-11.2-11-18.7-15.3c-19-10.7-44.7-18.9-66-9.9c-7.3,3.1-14.5,8.9-20,14.5
	c-4.7,4.8-9,11.6-12.1,17.6c-7.9,15.3-11.6,38.8-8.8,55.7c2,12.2,6.8,23.5,10.8,35c2.1,6.2,2.7,12.8,5.1,19c2.3,6,6.3,11.4,9.4,17
	c5.8,10.5,10.9,22.8,19.8,31.1c2.2,2.1,10.9,8.4,10.3,11.9c-0.6,2.9-5.9,5.9-7.9,7.9c-7.9,7.6-21,16.7-31.4,20.1
	c0,0-3.7,3.8-4.4,4.6c-6.5,7-14.3,8.5-21.9,13.6c-9,6.1-18.6,11.4-27.7,17.3c-7.3,4.7-13.7,10.4-21,15c-5.7,3.6-11.8,7.3-17,11.5
	c-2.1,1.7-4.7,4.5-7.7,3c-4.8-2.5-9.1-9.1-12.9-13c-5.7-5.8-12.4-10.7-18.4-16.1c-2.5-2.2-8.9-6-8.4-10c0.3-2.1,2.7-3.4,4.4-4.4
	c4.6-2.8,8.9-5.2,13-8.9c5.2-4.7,8.9-10.3,13.6-15.5c7.9-8.8,15.7-16.8,21.4-27.4c5.9-10.9,6.9-21.3,9.6-33
	c3.4-14.6,8.2-29.8,7.3-45c-0.4-6.4-3.3-12-5.1-18c-4.2-13.9-9.7-28.5-19.4-39.7c-4.7-5.4-11-9.9-16.2-15
	c-5.8-5.7-10.6-12-17.2-17.1c-10.3-8.1-24-12.3-37-11.1c-8.1,0.8-15.2,3.8-23,5.7c-3.3,0.8-6.9-0.2-10,1.3c-2.7,1.3-4.5,3.9-7.1,5.4
	c-16.3,9.4-34.4,14.8-46.5,30.4c-8.8,11.5-10.6,25.2-11.5,39c-2.5,36,11.9,69.6,32,99c5.3,7.8,12.3,13.8,18.9,20.3
	c6.8,6.6,12.8,13.6,19.9,19.9c3.7,3.3,7.4,6.3,11.3,9.3c1.3,1.1,3.8,2.5,3.8,4.5c0,3.8-9.1,7.7-11.8,9.3c-12.4,7.8-21.9,19-35,25.6
	c-21.8,11-39.7,27.3-62,37.5c-8.9,4.1-15.7,8.7-26,8.7c-13.7,0-25.7-7.5-38-12.1c2.9-5,7-8.6,10.6-13.1c7.8-9.7,14.2-20.4,16-32.9
	c2.1-14.9,2.4-28.8-5.6-42c-7.3-12-25.9-20.1-40-17.7c-10.4,1.8-22.6,9.8-29.7,17.4c-5.9,6.3-13.3,18.8-14.9,27.3
	c-0.8,4.4,0.3,8.6,0.2,13c0,3-1.2,5.9-1.1,9c0.1,5,1.3,10,1.5,15c0,0,1.3,3.1,1.8,3.6c4.8,4.8,3.7,8.7,7.4,14.4
	c1.6,2.4,5.3,5.7,3.8,8.8c-2.4,5.2-13.1,7-18.1,8.3c-9.5,2.5-18.6,0.7-28-1.1c-12.6-2.4-24.9-5.5-37-10.3c-9-3.6-17.8-8.2-25.7-13.9
	c-6.2-4.4-11.8-9.9-18.3-13.7c-14.3-8.3-30.7-14.1-46-20.4c-6.2-2.6-12.8-4.3-19-7c-8-3.4-16.4-7.6-25-9.3c-8.7-1.7-17.5,3.5-26,0
	c-3.8-1.6-5.9-5.5-9.1-8c-5.7-4.6-14.3-9.5-21-12.6c-7.9-3.8-17.3-7.7-26-9.3c-10.8-2-22.2-0.9-33-1.6c-8.7-0.5-17.3-1.8-26-1.6
	c-3.5,0.1-6.6,1.9-10,2.4c-11.6,1.7-23.9,3.1-35,7.2c-40.9,15.1-77.2,43.2-123,38.9c-8.9-0.9-18.6-2.7-24.7-9.8
	c-1.8-2.1-4.7-5.7-3.2-8.6c1.5-3,6.2-3.4,8.8-5.1c6-4.1,10.4-14.8,4.5-20.8c-2.3-2.4-5.4-2.2-8.4-2.3c-8.9-0.1-14.2,4.6-17.6,12.8
	c-1.3,3.1-0.4,7.9-2.9,10.4c-4.1,4.1-11.6,1.4-16.5,3.6c-4-6.3-14.5-7.2-21-10.6c-4.4-2.3-7-4.7-12-3.4c1.7,4.6,5.2,6.7,8.9,9.7
	c8.2,6.7,17.2,10.5,28.1,10.2c5-0.1,12.1-3.1,16.9-1.3c3.8,1.4,5,6.2,6.8,9.4c2.3,4,5.5,7.5,9.3,10.2c10.8,7.7,23.3,8.3,36,8.8
	c5.7,0.3,11.2,1.3,17,0.9c6.6-0.5,12.7-2.9,19-4.7c19.6-5.7,36.8-15.7,56-22.7c12-4.4,26.3-9.1,39-10.4c11.8-1.2,24.2-0.2,36-0.2
	c9.5,0,18.5-1.5,28-0.1c13.1,1.8,26.4,0.9,39,5.8c5.5,2.1,10.3,3.8,13,9.4c-18.3,2.4-38.2,16.8-46.8,33c-2.1,4-2.7,8.7-4.2,13
	c-1.5,4.4-3.6,8.4-4.3,13c-0.7,4.9,0.2,10,0.2,15c0,16.7,5.5,31.9,20,41.2c4.2,2.7,7.9,5.4,13,5.7c5.9,0.3,12.3,0.4,18-1.3
	c6.4-1.8,15.6-4.8,20.7-9.2c3.9-3.4,6.4-8.9,8.5-13.5c7.5-15.9,7.2-33.9,6.7-51c-0.2-8.1-1.8-15.9-2.8-24c-0.3-2.6-1.6-7.1,0.5-9.3
	c3.4-3.5,11.7-0.2,15.4,1.3c9.8,3.9,16.9,9.8,25,16.3c4.4,3.5,8,4.7,13.1,7.9c9,5.6,14,12.5,21.9,18.5c4.4,3.4,8,4.8,12.2,8.7
	c7.2,6.6,18.9,14.2,26.8,18.4c13.3,7.1,28.6,9.8,43,13.5c3.2,0.8,5.8,2.9,9,3.7c14.5,3.5,32.1,2.4,46-2.7c12-4.4,22.5-11,34-16.2
	c3-1.4,6.7-4.9,10-5c3.7-0.2,6.7,4,10,5.3c8.5,3.5,17.2,4.8,26,7c4.1,1,8.6,2.9,13,0.5c0.4-0.2,1.6-0.2,2,0c6.4,3.3,19.7,2.7,23-3
	c4.3,0.8,6.9-0.8,11-1.8c9.6-2.3,24.1-0.2,28-9.2c0.4-0.9,0-0.4,0.8-1.1c4-3.5,6.3-4.7,11.2-8.9c6.7-5.6,17.9-7.3,25-11.5
	c19.5-11.7,36-27.2,55-39.6c5-3.3,11.1-11.2,17-12.4c3.9-0.8,7.5,4.1,10,6.4c8.3,7.4,17.1,14.5,26,21c2.4,1.8,9.8,6,9.2,9.6
	c-0.3,2-3.2,4.1-4.5,5.5c-5.5,5.9-13.8,9.1-19.7,15c0,0-1.4,3-2,3.9c-1.7,2.3-1,0.3-1,3.1c-4.2,1.5-5.6,5.7-8.3,9
	c-5.7,6.9-10.4,13.2-14.8,21c-8.4,14.7-16.2,29.4-15.8,47c0.5,25.6,21.5,50.5,47.9,51.9c5.2,0.3,11-2.1,16-3.4c7.8-2,18.4-4,25-9
	c5-3.8,8.1-9.4,11.5-14.6c17-26,12.6-59,6.4-88c-1.4-6.4-4.5-14.2-7.4-20c-1.7-3.5-5.1-7.9-3.9-12c2.4-8,14.6-14.4,21.3-18.2
	c17.4-9.8,34.4-20,50-32.6c16.2-13.1,34.4-23.6,51-36.2c4.3-3.3,12.8-13.6,18.6-9.8c20.9,13.8,36,37.7,50.1,57.8
	c3.4,4.9,6.6,9.8,9.4,15c1.2,2.2,2.9,5,1.2,7.4c-4,5.5-16.3,7.3-22.3,10.5c-10.8,5.8-22.3,10.3-33,16.4c-5.8,3.3-10.8,8-16,12.1
	c-4.1,3.2-8.9,5.7-12.3,9.8c-9.8,11.6-16,24.6-22.2,38.1c-2.7,5.8-5.6,10.3-6.9,16.8c-0.8,4-0.2,8-0.5,12c-0.3,4-1.9,7.9-1.5,12
	c1.5,14.4,9.8,29.3,18,41c5.7,8.1,16.1,17.3,25.5,21.1c14.3,5.8,33.1,6.7,47-1.3c8.8-5.1,15-13.5,22.2-20.5
	c15.9-15.5,23.2-33.4,29.4-54.3c2-6.7,5.2-13.2,6.6-20c1.7-8.3,1.3-17.5,1.9-26c1.4-21,1-41.2-7.1-61c18.8-7,39-10.5,58-17.2
	c16.4-5.8,32.9-14.5,48-23.3c12-7,23.4-15.4,34.9-23.2c3.6-2.5,8.5-9,13.1-9c3.1,0,4.9,3.4,6.6,5.5c4.4,5.3,9.4,10.2,12.9,16.2
	c1.7,2.9,4.8,7.3,3.8,10.9c-1.3,4.4-7.9,8.4-11.3,11.1c-9.2,7.3-20.1,14.8-27.3,24.2c-3.6,4.7-6.2,10-9.9,14.7
	c-2.6,3.4-6.4,5.6-8.9,9.1c-9.3,13.2-16.4,29.4-20.2,45c-1,4-2.8,7.8-3.3,12c-1.6,13.4,1,28,4,41c3.5,15.3,10.4,31.9,24.5,40.5
	c13.5,8.2,29.2,4,43-0.9c8.4-3,15.7-6.4,23-11.8c10.9-8.1,21.9-23.5,25.3-36.8c1.4-5.5,1.2-11.4,2.1-17c0.8-5.4,3.2-10.5,3.6-16
	c1.1-15.3-2-30.8-3-46c-0.8-12.4-5.8-23.6-7.1-36c-0.4-3.4-3.1-8.5-1.7-11.8c2.2-4.9,11.2-6.4,15.8-7.5c15-3.6,29.9-8.3,45-11.5
	c18.2-3.9,35.5-4.9,54-6.2c20.6-1.4,40.5-1.5,61,1.5c15.8,2.3,31.5,5.7,47,9.5c6.4,1.6,12.4,3.9,19,4.8c19.1,2.5,37.9,1.1,57,2.4
	c14.1,1,28,3.5,42,4.7c6.7,0.6,13.4-1.7,20-2.5c5.3-0.7,10.7,0.1,16-0.5c5.9-0.6,12.2-2.6,18-4c5.4-1.3,12.4-9.2,17.9-8
	c3.6,0.8,5.4,6.5,7.4,9.2c5.4,7.3,11.9,14.5,19.7,19.4c10.3,6.4,23.2,12.9,35,16.1c13.2,3.6,28.4,3.5,42,4.4
	c31.2,2.2,65.2-1.6,95-10.3c6.6-1.9,13.6-2.4,20-4.7c10.7-3.8,19.7-10.1,29-16.2c3.3-2.2,7-7.2,11-7.8c2.3-0.4,4.9,1.2,7,2.2
	c5.7,2.6,11.3,6.6,17.1,8.8c3.7,1.4,7.1-0.7,10.8,0.9c2.2,0.9,11.2,6.5,12.2,1C3169,145.9,3160.6,145.8,3158.2,145.1z M1134.4,99
	c1.2-2.8,3.5-4.9,6.6-5.4c3.9-0.7,5.9,2.8,4,6.2c-1.4,2.5-5.1,4.3-7.9,4.5C1133.6,104.6,1133.3,101.7,1134.4,99z M1436.8,166
	c-0.7,5.5-1.6,10.8-3.6,16c-1.6,4-3.1,9.4-6.5,12.3c-6.8,5.9-19.1,5.1-23.2-3.3c-8.1-16.5,6.2-32.5,18.4-41.7
	c4.4-3.3,7.3-6.8,13-7.3C1436,150.2,1437.8,157.7,1436.8,166z M1725,161.3c-1.7,1.6-3.7,4.5-6.1,4.8c-4.9,0.6-8.7-6.9-11.1-10.1
	c-8.3-11.1,3.7-30.9,17.2-32.3c6.1-0.6,7.9,6.8,8.8,11.3C1735.7,144.5,1732,154.5,1725,161.3z M1931.8,99.5c-4,0.3-8-4.2-10.8-6.5
	c-7.3-6.1-14.6-12.2-22-18c-7-5.5-14.5-11.7-20.8-18.1c-5.8-5.9-9.2-13.6-13.1-20.8c-10.8-20.3-23.1-46.5-4.9-66.6
	c4.7-5.2,10.6-9.3,16.8-12.7c6.8-3.7,13.3-7.2,21-8.3c11.3-1.6,19.1,3.1,29,7.4c6.1,2.6,12.1,3.8,17.7,7.7
	c7.9,5.6,16.9,11.7,21.6,20.5c9.6,17.7,4.2,40.2,2.7,59c-1.4,17.1-10.2,33.8-22.2,46C1943.9,92,1936.3,99.2,1931.8,99.5z
	 M2004.2,255c-1.5,4.3-3,9.3-6.4,12.6c-6.5,6.2-18.2,9.3-26.7,11.2c-15,3.5-23.4-13.2-21.7-25.8c1.8-13.6,8.6-29,16.6-40
	c3.2-4.3,7.2-7.8,10.6-12c3.8-4.7,8.1-14,14.5-15.7c4.2-1.1,6.8,4.6,7.9,7.7c3.5,9.4,5.2,19.3,7.6,29
	C2009.4,233.9,2008.2,243.6,2004.2,255z M2148,42c-3.2,0.5-6.6-2.6-8.8-4.6C2133,31.7,2129,22.8,2124,16
	c-11.9-16.4-21.9-34.7-24.3-55c-0.8-6.3-2-14.1,0.9-20c2.9-6,9.2-10.8,14.4-14.6c5.2-3.7,9.6-5.5,16-5.9
	c12.1-0.8,30.6,6.1,36.6,17.5c3,5.8,3.7,12.7,4.6,19c2.1,16.2,2.1,33-1.8,49c-2.5,10.3-7.8,19.5-14.1,28
	C2154.2,36.7,2151.7,41.4,2148,42z M2231,215c0,18-2.8,40-15.3,54c-4.9,5.5-11.5,9.3-17.7,13.2c-5.3,3.3-11.8,7.1-18,8.4
	c-6.4,1.4-15.7,2.9-22,0.7c-9.4-3.4-14.3-11.8-18.4-20.2c-4.8-9.7-8.9-18.3-4.8-29c5.2-13.7,13-28.1,24.2-37.8
	c9.1-7.8,20.6-13.3,31-19.2c6.2-3.5,12.7-6.3,19-9.6c2.9-1.5,5.7-3.9,9-4.7c4.7-1.1,8.7,5.6,10.1,9.3
	C2232.2,190.9,2231,203.7,2231,215z M2390,58.7c-3.7,1-6.4-3.2-8.6-5.5c-6.3-6.6-12.8-13.4-19.5-19.6c-6.9-6.4-11.4-13.4-17.2-20.6
	c-19.2-23.9-39.6-52.1-27.3-84c1.6-4.2,3.5-9,6.3-12.6c7.3-9.4,20-12.9,31.3-14.5c3.7-0.5,7.2-1.9,11-1.9c5.9,0.1,11.5,2.5,17,4.2
	c6.6,2,14.1,4,20,7.7c11.9,7.6,20.8,22.4,23.7,36c2.5,12,2.5,24.1-0.1,36c-1.8,8.3-5.4,16.3-4.5,25c-7.8,4.2-9.9,19.4-13.9,27
	c-2,3.8-4.4,6.7-5.1,11C2396.9,48.8,2396.1,57,2390,58.7z M2439.9,185c-1,15.1-5.3,29.8-10,44c-2.9,8.9-4.4,16.8-9.5,25
	c-5.6,8.9-12.6,17-23.4,19.2c-10.5,2.1-14.5-2.9-21.4-9.9c-2.7-2.7-5.5-4.6-6.8-8.3c-2.6-7.8-1.8-16.9-1.8-25
	c0-26.7,18.6-45.2,37-62c5.7-5.2,13.1-14.5,21-16.3c4.3-1,5.9,3,7.2,6.3c1.7,3.9,2.2,8,3.6,12C2437.6,175.5,2440.3,178.9,2439.9,185
	z M2873.1,93.2c-4.7,0.1-5.7-10.8-7.1-14.2c-5.4-13.5-3.5-35,14-37.4c8.6-1.2,13.2,7,12.7,14.4c-0.9,12.4-1,20.2-9.9,30
	C2880.5,88.6,2876.9,93.2,2873.1,93.2z M3119.8,119.3c-4.6,1.5-5.7-4.1-6.1-7.3c-0.7-5.7,0.8-14.2,7.3-16.2c4.4-1.4,4.9,3,5,6.2
	C3126.1,106.7,3125.4,117.5,3119.8,119.3z"/>
</svg>
