<?xml version="1.0" encoding="utf-8"?>
<!-- Generator: Adobe Illustrator 19.1.0, SVG Export Plug-In . SVG Version: 6.00 Build 0)  -->
<svg version="1.1" xmlns="http://www.w3.org/2000/svg" xmlns:xlink="http://www.w3.org/1999/xlink" x="0px" y="0px"
	 viewBox="1421.5 100 850 400" style="enable-background:new 1421.5 100 850 400;" xml:space="preserve">
<style type="text/css">
	.st0{fill:#F4EBDB;}
	.st1{fill:#4C4546;}
</style>
<g id="Layer_2">
	<rect x="1243.3" y="-129.6" class="st0" width="1163.6" height="820.4"/>
</g>
<g id="Layer_1">
	<path class="st1" d="M2054.2,124l11.5,7.6c-2.6,1.7-9.5,10.6-4.5,13.1c7.6,3.7,5.4-12.5,14.6-10.5c10,2.2,16.2,12.9,25.2,17.4
		c9.5,4.8,22.6,2.6,31.1,6.9c9.3,4.7,11.5,22.6,24.5,28.1c7.1,3,19.9,4.8,27.6,3.8c4.4-0.6,10.5-6,14.3-1.5
		c8.5,9.8,7.8,26.9,14,38.3c6.1,11.2,20.5,19.9,23.8,32.5c2,7.3-17.7,4.6-13.2,12.1c3.3,5.5,11.5-2.7,15.5-0.7
		c9.2,4.7,7.2,16.3,13.5,21.1c-0.7-11.7-8.2-16.1-11.4-26c-2.9-9-1.5-17.8-7.8-26.2c-10.3-13.8-29.8-35.9-26.5-55.6
		c1.1-6.3,10.9-12.6,14.6-17.9c4.9-7.1,11.7-23.5,1.9-29.7c-6.2-3.9-16.8,2.6-20.6,7.6c-6.4,8.4-2.2,23-7.4,29.4
		c-12.5,15.3-46.2-2.2-49.8-17.4c12.9-0.2,24.2-4.4,30.5-16.3c3.5-6.6,8-16.3-1.9-19.6c-26.1-8.7-26.1,26.8-43,27.8
		c-9.2,0.6-25.1-0.9-32.9-6.4c-4.1-2.9-5-9.7-9.6-11.9c-6.6-3-13.2,1.6-19.5-0.2C2063,128.3,2060.6,123.4,2054.2,124 M2050.4,124
		l1,1L2050.4,124 M1913.5,126.6c-1-1-2.6-1.4-3.9-0.9c-9.9,3.4-14.4,8-20.4,12.9c-14.2,11.6-28.8,26.2-40.4,39.9
		c-0.5-9.2,9.7-26.2,3.3-34.6c-6.8-8.9-27.7,13.7-31.3,14.5c-2.2-0.3-7.2-4.4-12.8-5.6c4.7,2.8,11.3,4.6,11.5,7.2
		c-0.5,1.9-26.9,33.2-9.8,35.1c15.2,1.6,13.2-31,14.1-32.7c2.9-1.9,16.6-11.5,20.4-8.6c5.6,4.4-5.1,32.1-6.8,38.1
		c-11,39.3-16.4,77.2-38.3,112.8c25.5,3,26.4-25,29.8-44c5.6-31.2,22.3-62,43.5-85.2c6.2-6.8,16.8-19.3,26.9-19.9
		c7.4-0.4-1.3,36.1-3.4,41.7c-12.3,33.8-28.3,69.6-35.9,104.5c-2.4,11.1-8,24-5.6,35.4c2.2,10.3,14.3,11.3,23,8.9
		c12.1-3.3,30.3-23.6,34.4-35.7c13,1.5,19.9,0.8,29-5.2c14.3-9.4,25-34.2,36.9-50.2c0,9-1,16.8,1,25.3c0.5,2,2.4,3.3,4.4,2.9
		c33.2-5.7,34.8-55.1,56.3-75c0.4,11.7-3.5,40.9-8.7,52.4c-5.7,12.5-18.7,21.7-24.9,34.5c-2.7,5.5-7.6,21.1,3.9,20.6
		c23.1-1,21.2-37.9,28.9-51.9c4.7-8.6,19-15.3,27-20.3c-4.8,18.5-18.8,37.4-16.1,57.2c3.1,22.7,39.6,3.3,46.8-5.2
		c7.7-9.2,11.7-21.2,13.1-33.1c0.6-5.1-0.9-12.1,1.5-16.7c3.2-6.1,14.6-10.8,19.7-15.6c-0.2,24.9-11.1,52.6-15.4,77.4
		c-0.9,5.4-8.4,20.2-4.5,24.7c5.1,6,13.4-27.4,16.1-33.3c3.4-7.6,9.5-15.9,13.8-22.1c9.3-13.5,21.3-25.6,35-34.3
		c-1.7,28.8-17.2,58.5-23,87c-1.7,8.6-4.3,17.9-1.6,28.9c16.6,31,62.1-2.2,74.5-20.3c4.8-6.9,9-19.3,3.8-27.6
		c-1.8-2.9-13.8-2.7-13.8-2.7s-5.9-7.8-8.4-8.9c2.5,4,5,9.3,5,9.3s-7.8,9.4-4.2,13c3.1,3.1,6.9,2.5,8.8-1.8c1.4-3.2,0.8-7.5,0.8-7.5
		s7.4-1.3,9.2,2.6c1.5,3.2-2.1,11.1-5.5,16.6c-8.8,14.1-21.7,23.6-36.7,30.3c-7.3,3.3-19.7,2.6-21.7-6.8c-6-27.2,8.8-62.6,17.4-88.1
		c4.8-14.2,12.5-29.6,4.6-43.5c-0.8-1.4-2.6-1.9-3.9-1.1c-23.1,13.3-45.2,44.8-55,68.5c-1.5-17.5,8.6-39.7,13.6-56.4
		c1.1-3.6,6.7-15.8,2.8-18.6c-8.9-6.4-29.5,20.5-35.5,25.3c-5.2-30.9-28.4-14.9-39.2-3.9c-7.2,3.9-20.4,10.3-27.8,16
		c-2.6-14.4,17.3-54.1,3.7-73.7c-7.8-2-10.4,9.3-11.2,14.8c-2.6,18-12.9,43.9-23.1,59.1c-2.3,3.3-15.9,20.6-20.8,16.4
		c-5.5-4.7,0.3-23.2,2.2-28.6c9.5-26.1,15.2-53.8,29-78.4c1.9-3.4,7.1-15.2,7.6-24.2c0.2-3.1-5.1-3.3-6.8-0.6
		c-5.5,8.7-12.1,27.7-14.5,34c-13.3,35.2-29.3,70.6-47.7,103.5c-4.6,8.3-14.9,24.7-27.3,24.2c-2-0.1-8.2-3.5-10.1-4.5
		c2.4-6.3,6.4-13.5,10.1-18.7c4.3-6.1,24.1-39.8,27.5-58.2c1.3-5.4,5.5-25.1-4.6-25.2c-10.1-0.2-17.4,11.6-22.9,18
		c-17.8,20.9-21.3,46.4-24.6,73.3c-0.8,6.3-0.5,14.9-0.9,20.3c-2.8,5.8-20.5,25-26.7,21.4c-11.7-6.9,3.3-42.3,6-51.4
		c10.2-34.8,21.4-69,30.2-104.2C1919.5,151.8,1927,140.2,1913.5,126.6z"/>
	<path class="st0" d="M2159.3,129.5c-7.9,1.8-23.8,22.9-7.7,19.3C2161.5,146.7,2176.2,125.7,2159.3,129.5z"/>
	<path class="st1" d="M1484.5,231.7c-1.8-23-4.3-48.1,17.7-64.3c6.7-4.9,21-2.8,29.2-5.9c14.2-5.3,23.9-18,39.2-21.4
		c17.5-3.9,49.1,8.9,66.9,12.5c15.3,3.1,37.3,2.9,42.1-15.2c-4.5,4.2-10.5,17.6-18.8,12.8c-5.2-3,6.5-14.3-2.5-17.8
		c-6.6-2.6-4,20-16.9,17.6c-9.6-1.8,1.3-14-7.7-15.8c-8.6-1.7-3.7,9.8-9.7,10.7c-15.3,2.2-31.9-8.5-47.6-8.9
		c-21.2-0.5-32.6,12.3-51.1,19.2c-7.1,2.7-15.2,0-22.5,2.2c-0.7-3.9-1.9-7.7-3.3-11.5c-8.8-25.1-38.4,8.2-15.8,18
		c2.7,1.2,5.7,1.7,8.6,1.9c1.4,0.1,2.2,1.5,1.6,2.7c-4.5,9.2-9.3,18-14.1,27c-3.8-4.1-7.3-6.1-12.4-8.1
		c-41.2-16.3-37.1,54.8-2.2,31.7c3.6-2.4,7.4-5.7,9.8-9.3c5.2,16.8,1.7,55.9-13.1,67.8c-5.2,4.2-18.2-5-21.9,2.8
		c-5.5,11.4,14.1,11.1,19.7,9.7c0,11.3-22.9,31.4-3.8,24.9c-0.4,14.4-7.9,5.6-14.6,12.1c-3.3,3.2,1.1,5.9,4.1,4.2
		c13.9,7.4,3.1,20-1.9,30.6c17.9-12.5,12.4-39.5,18.1-58.3c2-6.6,0.5-13.8,6.7-18.2"/>
	<path class="st1" d="M1805.6,325.6c0,0-3.7-0.1-9,1c-19,4.1-59,16.6-58.8,15.5c2.1-10.5,12.8-44.1,13.4-46c0-0.1,0-0.1,0-0.2
		c0.3-7,20.4-75.9,21-111.8c0-1-0.8-1.7-1.8-1.6c-5,0.5-13.5,1.1-16.1,4.4c-4.5,5.7-3.5,21.5-5.4,28.9c-5.2,19.5-13.5,39-23.5,56.5
		c-2.3,4.1-19.1,30.6-24.8,24.9c-8.6-8.6-0.8-31.5,0-39.4c0-0.1,0-0.2,0.1-0.3c2.1-7.1,9.6-37.7,9.6-38.2c0.3-3.2,1.6-9.7-0.1-10.8
		c-2.3-1.6-9.5,0.9-10.9,3.1c-8.4,13-11.7,24.6-23.9,35.5c-1,0.9-2.6,0.2-2.7-1.2c-0.2-5,0.2-9.9-0.9-15
		c-12.2-53.6-51.1,38.6-9.8,32c1.1-0.2,2.1,0.9,1.8,2c-2.1,8.9-3.8,18.2-5.8,27.2c-1.3,5.9-14,45.2-24.8,34.3
		c-13.1-13.2-5.4-63.9,0.8-79.3c2.2-5.3,13.3-20.3,4.5-24.4c-3.9-1.8-10.5,4.8-13.2,7.1c-9.5,8.3-19.1,17-29,24.8
		c-1.1,0.8-2.6,0-2.6-1.3c0.7-24.2,9.9-63.4,11.3-73.3c0.8-5.6,4.5-13,3.3-18.4c-1-4.7-18.9,1.5-20.8,4.6
		c-4.8,7.7-0.9,23.7-0.4,32.2c1.1,18.8,2.1,52.7-5.9,69.8c-9.9,21.3-32.4,40.3-47,58.6c-25.3,32-48.8,72.5-55,113.4
		c-4.1,27,16.5,48.5,44.6,38c15.1-5.6,19.9-16.5,29-28.2c26.6-34.3,30.2-85.4,33.7-127.4c2.3-27.4,2.2-58.3,30.9-71.4
		c1.2-0.5,2.5,0.5,2.2,1.8c-4.6,21.6-11.4,45.7-4.2,67.7c6.4,19.5,22.5,25.7,36.3,9.4c17.7-20.9,11.7-48.6,20.8-72.2
		c2.2-5.8,10.5-14,16.6-19.7c1.2-1.1,3,0,2.7,1.5c-3,14-7.1,27.8-9.9,41.9c-1.1,5.3-2.6,11.1-0.4,16.2c3,6.9,11.4,20.8,20.8,18.8
		c27.1-5.8,38.2-46.8,46.7-74c0.6-2,3.6-1.1,3.1,0.9c-0.8,3.1-1.8,6.2-2.3,9.6c-3.3,22-10.5,44.2-15.9,65.8
		c-2,7.9-4.2,26.3-7.3,29.5c-5.8,7.3-16.2,11.9-24.1,16.4c-12.5,7.1-23.1,13.3-32.3,26.2c-5,7-16.3,20.5-11.9,29.9
		c1.3,2.7,4,4.4,6.8,5.4c8,2.8,16.9,1,24.8-2c3.7-1.4,7.4-3,10.6-5.4c9-6.8,14.4-19.6,18.8-29.7c2.9-6.6,5.5-13.4,7.9-20.1
		c1.2-3.3,2.3-6.6,3.5-9.9c0.8-2.4,1.6-7.7,3.3-9.5c4.2-4.4,5.1-4.1,9.5-6c0.9-0.4,60.2-16.9,60.2-16.9s-2.8,8,2.8,7.2
		c3-0.4,0.3-7.8,0.3-7.8s11.7-1.4,14.7-3.2"/>
	<path class="st0" d="M1811.4,190.9c5.8,1.1,11.1-20.8,10.4-28.6c-5.1,1.3-8.9,10.7-10.8,15C1808.5,183.2,1809.5,188.5,1811.4,190.9
		 M1455.9,194.5c-14.1,3.7-15.1,21.4,1.9,17.1C1472.5,208,1472.7,190.2,1455.9,194.5 M1951,200.5c-23.9,21.9-35.1,59.9-33.7,89.8
		c3.7-6.9,7.9-14.3,11.6-20.2C1934.8,260.5,1959.1,222.9,1951,200.5 M2132.6,215.8l1,1L2132.6,215.8 M2028.4,226.3 M1656.8,228.6
		c-6.8,1.2-7.6,29,2.6,27.1C1669,253.9,1662.8,227.6,1656.8,228.6 M2089.6,228.1c-3,0.5-6,1.1-9.3,3.3c-4.8,3.2-8.7,8.4-8.7,8.4
		s-2.5,7.5,1.8,10c3.6,2.1,13.7-0.5,17-1.6c3.1-1,10.3-4.3,10.3-4.3S2098.9,225.3,2089.6,228.1 M1650.2,228.8"/>
	<path class="st1" d="M1762.7,230.1l1,1L1762.7,230.1z"/>
	<path class="st0" d="M1647,236.8 M1647,239.7 M1647,236.8 M2102,249.2c-6.8,2-22.8,4.1-28,7.9c-6.7,4.9-14.2,34.7-5.1,39.7
		C2094.3,310.6,2105.7,265.2,2102,249.2 M2226.2,271.2c1.4-0.3,2.5-0.5,3.4-1c1.3-0.6,0.4-2.7-0.9-2.1
		C2227.6,268.6,2226.8,269.5,2226.2,271.2 M2028.4,274.1c-7.1,7.8-15.7,18.7-17,29.6c-0.1,0.9,0.9,1.6,1.7,1.2
		C2021.9,300.2,2030.3,283.3,2028.4,274.1 M1442.5,280.8c2.2,5.7,8,7.3,12.1,3.4c0.7-0.6,0.3-1.7-0.5-1.9
		C1450.2,281.3,1446.6,280.8,1442.5,280.8 M1579.2,285.6c-34.7,37.9-58.2,79.6-82.5,124.4c-7.2,13.3-7.4,45.6,10.9,50.7
		c16.9,4.7,33.7-15.5,39.8-28.7c15.8-34.5,21.9-71.6,26.7-109.1C1575.5,312.1,1582.6,295.8,1579.2,285.6"/>
	<path class="st0" d="M1447.3,312.3c2,0.7,2.5,0.6,3.8-1L1447.3,312.3 M2214.8,312.3c-3.4,1.5-6.2,5.6-3.8,7.6
		C2213.9,322.5,2215.8,316.1,2214.8,312.3 M1444.4,327.6c0.5,1.6,0.3,1.4,1.9,1.9C1445.6,328.4,1445.5,328.3,1444.4,327.6"/>
	<path class="st0" d="M1721.9,358.2c-0.2,0-0.4,0.1-0.6,0.2c-8.8,6.7-18.1,12.7-26.8,19.6c-4.7,3.7-9.7,6.3-13.4,11.2
		c-3.7,5.1-5.9,11.4-5.7,17.8c0,1.7,0.2,3.5,1,5.1c0.8,1.5,2.3,2.8,4,3c1.9,0.2,3.7-1.1,5.2-2.3c10.3-8.1,18.6-18,25.6-29
		c3.2-5.1,6.3-10.4,8.9-15.9c1.2-2.6,3.7-6.6,3.3-9.6C1723.5,358.2,1722.4,358.2,1721.9,358.2z"/>
	<path class="st0" d="M1596.4,359.1c1,3.6,2.3,5.2,5.7,6.7C1600.5,362.9,1599.1,361,1596.4,359.1z"/>
	<path class="st0" d="M1844.9,372.5c-1.1,1.1-1.5,1.5-1.9,2.9C1844.9,374.6,1845.5,374.4,1844.9,372.5 M2135.4,385
		C2142.8,378.6,2132.4,371.4,2135.4,385z"/>
	<path class="st0" d="M2131.6,388.8l1,1L2131.6,388.8"/>
	<path class="st0" d="M1479.8,458.5l1,1L1479.8,458.5z"/>
	<path class="st0" d="M1806.9,330.2c0,1.1-0.5,2.3-1.2,2.4c-1,0.1-1.7-1.9-1.8-2.5c-0.2-1.6,0.9-2.8,1.6-3
		C1806.6,326.7,1806.9,328.7,1806.9,330.2z"/>
	<path class="st0" d="M1497,155.8c-1.1,3.3-2.1,6.6-7.8,5.3c-3.7-0.8-8.5-3.3-8.8-6.6c-0.5-5,6.2-8,9.9-8S1498,152.6,1497,155.8z"/>
</g>
</svg>
