<?xml version="1.0" encoding="utf-8"?>
<!-- Generator: Adobe Illustrator 19.1.0, SVG Export Plug-In . SVG Version: 6.00 Build 0)  -->
<svg version="1.1" id="Layer_1" xmlns="http://www.w3.org/2000/svg" xmlns:xlink="http://www.w3.org/1999/xlink" x="0px" y="0px"
	 viewBox="-49 183 500 235" style="enable-background:new -49 183 500 235;" xml:space="preserve">
<path d="M320.4,339.6c-0.9,0-1.6-0.2-2.3-0.5c-0.9-0.4-1.9-0.6-2.9-0.7c-0.4-0.1-0.8-0.2-1.1-0.3c-0.9-0.4-1.8-0.9-2.8-1.1
	c-0.3-0.1-0.7-0.2-1-0.4c-0.4-0.2-0.8-0.3-1.3-0.3c-1,0-1.6-0.5-2.1-1.4c0.3-0.5,0.6-1,0.9-1.5c0.3-0.4,0.7-0.7,0.9-1.3
	c0-0.1,0.1-0.1,0.2-0.2c1-0.8,1.6-1.7,2.3-2.7c0.7-0.9,1.4-1.7,2.2-2.5c0.6-0.6,1.2-1.2,1.6-2.1c0.2-0.5,0.7-1,1.1-1.4
	c0.6-0.7,1.2-1.3,1.7-2.1c0.3-0.5,0.9-0.9,1.3-1.4c0.3-0.4,0.6-0.8,0.9-1.3c0.1-0.1,0.1-0.3,0.3-0.4c1.2-1.2,1.9-2.8,2.8-4.1
	c0.8-1.2,1.4-2.5,2.5-3.5c0.1-0.1,0.2-0.3,0.3-0.5c0.6-1.5,1.7-2.6,2.5-4c0.2-0.4,0.7-0.8,1-1.2c0.1-0.2,0.3-0.3,0.4-0.5
	c0.5-1,1.2-2,2-2.8c0.7-1.5,1.9-2.6,2.8-4c0.6-0.9,1.4-1.6,1.9-2.6c0.4-0.8,0.8-1.5,1.3-2.3c0.4-0.6,0.8-1.3,1.2-1.9
	c0.5-0.7,0.9-1.5,1.6-2.1c0.2-0.2,0.3-0.7,0.4-1c-0.2-0.2-0.3,0-0.4,0.1c-0.6,0.5-1.2,1-2,1.3c-0.4,0.2-0.8,0.4-1.1,0.7
	c-0.5,0.4-1,0.6-1.6,0.8c-0.7,0.2-1.4,0.7-2.1,1c-0.7,0.4-1.5,0.5-2.1,1c-0.4,0.3-0.9,0.5-1.5,0.4c-0.5,1-1,1.9-1.3,3
	c-0.2,1-0.5,1.9-0.9,2.8c-0.4,1-0.9,2-1.2,3.1c-0.1,0.3-0.3,0.5-0.4,0.7c-0.1,0.2-0.3,0.4-0.3,0.6c-0.1,0.5-0.1,1-0.6,1.4
	c-0.3,1.3-1.2,2.2-1.7,3.4c-0.1,0.2-0.2,0.4-0.3,0.6c-0.6,0.8-1,1.8-1.5,2.7c-0.3,0.6-0.7,1.1-1.2,1.7c-0.6,0.8-1.3,1.6-2,2.4
	c-0.9,1.1-1.9,2.1-2.8,3.1c-1.4,1.7-3.1,3.2-4.7,4.8c-0.3,0.3-0.7,0.6-1.1,0.9c-0.3,0.2-0.5,0.4-0.7,0.6c-1,1.1-2.2,2-3.5,2.9
	c-0.8,0.5-1.7,0.9-2.4,1.5c-0.2,0.2-0.5,0.3-0.7,0.4c-0.9,0.1-1.8,0.5-2.6,0.9c-0.4,0.2-0.7,0.3-1.1,0.3c-0.3,0-0.6,0-0.8,0.1
	c-0.5,0.3-0.8,0.2-1.2-0.1c-0.3-0.2-0.5-0.5-0.9-0.4c0,0-0.1-0.2-0.2-0.2c-0.1-0.1-0.3-0.4-0.5-0.3c-0.6,0-0.9-0.4-1.3-0.7
	c-0.1-0.1-0.3-0.2-0.5-0.3c-0.2-0.1-0.4-0.2-0.4-0.4c-0.2-0.6-0.7-1-1.1-1.4c-0.9-0.9-1.3-2.1-1.3-3.3c-0.1-1.6,0.1-3.1-0.2-4.7
	c-0.1-0.3,0-0.6,0-1c0-0.3,0.1-0.6,0.1-1c0.1-1.9,0.5-3.7,1-5.5c0.3-1,0.7-2,0.7-3.1c0-0.3,0.2-0.7,0.3-1c0.4-1.3,0.7-2.7,1.1-4
	c0.2-0.8,0.3-1.6,0.8-2.4c0.3-0.4,0.4-1,0.6-1.5c0.4-1.1,0.9-2.1,1.4-3.2c0.3-0.7,0.7-1.3,1-1.9c0.4-0.8,0.7-1.6,1-2.4
	c0.5-1.3,1-2.7,1.7-3.9c0.9-1.6,1.9-3.1,2.9-4.5c0.6-0.8,1.1-1.6,1.6-2.5c0.7-1.4,1.8-2.5,2.9-3.6c0.4-0.4,0.8-0.9,1.2-1.3
	c0.2-0.2,0.2-0.5,0.1-0.8c-0.7,0.3-1.5,0.6-2.2,1c-1.5,0.8-2.9,1.7-4.4,2.4c-0.3,0.1-0.5,0.4-0.8,0.5c-0.4,0.2-0.7,0.5-1.1,0.6
	c-0.3,0.1-0.6,0.4-0.9,0.6c-0.2,0.2-0.4,0.4-0.6,0.6c-1,0.5-2.1,1.1-3.1,1.5c-0.3,0.1-0.5,0.1-0.7,0.4c-0.1,0.1-0.2,0.3-0.4,0.3
	c-0.6,0-0.9,0.4-1.4,0.7c-0.9,0.5-1.7,1.3-2.8,1.5c-0.3,0.1-0.6,0.2-0.7,0.4c-0.5,0.7-1,1.4-1.3,2.3c-0.1,0.2-0.1,0.4-0.3,0.6
	c-0.5,0.4-0.8,1-0.9,1.6c-0.1,0.5-0.4,0.9-0.7,1.3c-0.6,0.8-1.1,1.7-1.5,2.6c-0.3,0.6-0.5,1.2-1.1,1.5c-0.4,0.2-0.5,0.6-0.5,1
	c-0.1,0.8-0.5,1.5-1,2.1c-0.1,0.2-0.2,0.3-0.3,0.5c-0.3,0.8-0.9,1.4-1.4,2.1c-0.4,0.5-0.7,1-1.1,1.5c-0.3,0.4-0.6,0.6-0.8,1.1
	c-0.2,0.5-0.7,0.9-1.1,1.3c-0.8,0.9-1.5,1.7-2.3,2.6c-0.1,0.1-0.2,0.3-0.2,0.4c-0.3,0.9-1,1.6-1.6,2.3c-0.5,0.5-0.8,1.2-1.3,1.7
	c-0.2,0.2-0.4,0.6-0.6,0.7c-1,0.4-1.5,1.3-2.3,1.9c-0.7,0.6-1.3,1.2-2,1.9c-0.5,0.5-1,1-1.5,1.5s-1,1.1-1.8,1.3
	c-0.3,0.1-0.6,0.3-0.8,0.5c-0.2,0.2-0.4,0.5-0.8,0.4c-0.1,0-0.3,0.2-0.5,0.3c-0.6,0.5-1.2,1-2,0.8c-0.1,0-0.3,0-0.4,0.1
	c-0.8,0.3-1.5,0.2-2.1-0.2c-0.1-0.1-0.2-0.2-0.3-0.2c-0.9,0.1-1.2-0.8-1.9-1.1c-0.2-0.5-0.5-0.9-0.7-1.4c-0.2-0.4-0.4-0.8-0.2-1.2
	c0.1-0.2,0.1-0.6,0-0.8c-0.4-1.2-0.1-2.4,0-3.5c0.1-0.7,0.3-1.4,0.3-2.1c0-1.5,0.2-3,0.4-4.5c0.1-0.5,0.3-1,0.3-1.5
	c0-0.4,0.4-0.7,0.2-1.1c-0.2-0.4,0.1-0.7,0.1-1c-0.1-0.9,0.3-1.6,0.4-2.5c0.1-0.7,0.3-1.5,0.4-2.2c0-0.1,0-0.2,0-0.4
	c-0.2,0-0.4,0-0.4,0.1c-0.6,0.7-1.5,1.1-1.9,2c0,0.1-0.2,0.2-0.2,0.2c-0.6,0-0.6,0.8-1,0.9c-0.5,0.2-0.7,0.7-1,1
	c-1.1,1.2-2.1,2.4-3.3,3.5c-0.6,0.6-1.5,1.1-2.2,1.6c-0.1,0.1-0.3,0.2-0.4,0.3c-0.4,0.7-1.1,1.1-1.8,1.6c-0.6,0.5-1.2,1-1.9,1.5
	c-0.1,0.1-0.3,0.2-0.4,0.3c-0.1,0-0.2,0.1-0.2,0.1c-0.6-0.3-0.9,0.3-1.5,0.3c-0.5,0-0.9-0.1-1.2-0.3c-0.8-0.5-1.4-1.2-1.6-2.1
	c-0.4-1.3-0.4-2.7-0.6-4c0-0.2,0-0.3,0-0.5c-0.4-0.8-0.2-1.7-0.2-2.6c0-0.8,0-1.6,0-2.4c0-0.2,0.1-0.5,0.1-0.7
	c0.2-0.8,0.3-1.5,0.2-2.5c-0.9,0.6-1.5,1.3-2.2,2c-0.7,0.7-1.4,1.5-2.2,2.2c-0.4,0.3-0.7,0.7-0.9,1.1c-0.2,0.6-0.6,1.1-1.2,1.4
	c-0.2,0.1-0.4,0.3-0.6,0.5c-0.6,0.3-1,0.7-1.3,1.3c-0.1,0.2-0.3,0.4-0.5,0.5c-0.3,0.2-0.5,0.4-0.6,0.7c0,0.1-0.2,0.3-0.3,0.3
	c-0.6,0.1-0.9,0.6-1.2,1.1c-0.3,0.4-0.5,0.9-1,1.2c-0.1,0-0.1,0.1-0.2,0.2c-0.3,0.8-1.1,1.2-1.7,1.8c-0.2,0.2-0.4,0.4-0.6,0.6
	c-0.3,0.3-0.5,0.7-0.9,0.9c-0.1,0.1-0.3,0.2-0.3,0.3c-0.1,0.7-0.7,0.9-1.2,1.3c-0.3,0.2-0.5,0.4-0.7,0.7c-0.1,0.1-0.2,0.2-0.4,0.2
	c-0.8,0.3-0.9,0.3-1.7,1c-0.1,0.1-0.1,0.1-0.2,0.2c-0.8,0.3-1.4,0.9-2.1,1.4s-1.6,0.6-2.5,0.9c-0.3,0.1-0.7,0.1-1.1,0.2
	c-0.4,0.1-0.9,0-1.3-0.1c-0.7-0.3-1.4-0.6-2-1c-0.4-0.3-0.6-0.7-1-1c-1.1-1-1.8-2.3-2.2-3.8c0-0.1,0-0.2-0.1-0.2
	c-0.8-1.1-0.8-2.4-0.9-3.7c-0.1-0.4-0.2-0.9-0.3-1.4c-0.3,0.2-0.5,0.4-0.8,0.6s-0.5,0.4-0.8,0.5c-0.1,0.1-0.3,0.2-0.4,0.3
	c-0.5,0.2-1,0.4-1.4,0.7c-0.4,0.3-0.8,0.6-1.2,1c-0.3,0.2-0.6,0.3-0.9,0.5c-0.9,0.4-1.9,0.7-2.4,1.6c0,0.1-0.1,0.2-0.1,0.2
	c-0.9,0.5-1.6,1.3-2.5,1.8c-0.4,0.2-0.8,0.5-1.2,0.7c-0.2,0.1-0.4,0.3-0.6,0.4c-0.7,0.3-1.3,0.5-1.8,1.2c-0.1,0.2-0.3,0.3-0.5,0.4
	c-0.7,0-1.1,0.6-1.6,1c-0.4,0.4-1,0.6-1.3,1.2c-0.6,0-1,0.3-1.5,0.5c-0.8,0.4-1.6,0.7-2.5,1c-0.5,0.1-0.9,0.5-1.3,0.8
	c-0.4,0.3-0.9,0.4-1.3,0.5c-0.5,0.1-1.1,0.1-1.6,0.4c-0.1,0.1-0.3,0.1-0.3,0c-0.8-0.4-1.7-0.2-2.6-0.3c-0.3,0-0.7-0.1-0.9-0.3
	c-0.4-0.4-0.9-0.6-1.3-0.9c-0.3-0.2-0.6-0.4-0.9-0.6c-0.2-0.1-0.3-0.3-0.1-0.5c0-0.1,0.1-0.3,0-0.3c-0.4-0.3-0.4-0.8-0.5-1.3
	c-0.1-0.3-0.4-0.7-0.3-1c0.1-0.4,0-0.7-0.1-1c-0.1-0.6-0.2-1.3-0.3-1.9c-0.1-0.8-0.1-1.5-0.1-2.3c0-0.9,0.2-1.7,0.2-2.6
	c0-1.5,0.5-3,0.7-4.4c0.1-0.7,0.3-1.5,0.5-2.2c0.1-0.7,0.1-1.4,0.3-2s0.4-1.3,0.6-1.9c0.2-1,0.4-2,0.8-3c0.1-0.2,0.1-0.4,0.1-0.6
	c0.1-0.8,0.3-1.5,0.6-2.2c0.1-0.2,0.1-0.5,0.1-0.7c0-0.1,0-0.3,0-0.3c0.3-0.6,0.7-1.1,0.5-1.8c0.3-0.5,0.3-1.2,0.4-1.7
	c0.3-1.1,0.7-2.1,1.1-3.2c0.2-0.7,0.4-1.4,0.6-2.1c0.2-0.7,0.4-1.3,0.6-2c0.3-1.1,0.7-2.2,1.1-3.2c0.3-0.8,0.7-1.6,0.8-2.5
	c0.1-0.6,0.4-1.1,0.6-1.7c0.2-0.4,0.6-0.8,0.6-1.2c0-0.5,0.3-0.8,0.5-1.1c0.2-0.4,0.5-0.8,0.6-1.3c0.4-1.4,1.2-2.7,1.5-4.1
	c0.1-0.3,0.2-0.6,0.4-0.9c0.9-1.8,1.7-3.6,2.4-5.4c0.2-0.6,0.6-1.2,0.9-1.8c0.3-0.5,0.5-1.1,0.7-1.6c0.1-0.3,0.2-0.5,0.4-0.7
	c0.6-0.8,1-1.7,1.4-2.6c1-2.1,1.7-4.4,3-6.4c0.7-1.1,1.3-2.3,2.1-3.3c0.3-0.5,0.5-1,0.7-1.5c0.3-0.7,0.5-1.4,0.8-2.1s0.8-1.3,1.1-2
	c0.6-1.1,1.1-2.1,1.4-3.3c0.2-0.8,0.6-1.5,1-2.3c0.8-1.4,1.7-2.8,2.1-4.5c0.3-1.1,0.6-2.2,0.9-3.3c0.3-1.1,0.9-2.2,1.4-3.3
	c0.5-0.9,0.7-1.9,0.9-3c0.1-0.6-0.1-1.3-0.1-1.9c0-0.2-0.2-0.4-0.4-0.6c-0.5-0.4-1.1-0.8-1.7-1.1c-0.5-0.2-1.2-0.2-1.7-0.3
	c-0.5-0.1-1.1,0.4-1.6-0.2c-0.5,0.1-1,0.1-1.4,0.2c-0.9,0.3-1.8,0.6-2.7,0.9c-0.2,0.1-0.4,0.2-0.6,0.3c-1.5,1.1-3.1,2.2-4.6,3.4
	c-0.6,0.5-1.2,1.1-1.9,1.7c-1.3,1.2-2.6,2.4-3.9,3.6c-0.5,0.5-1,1.1-1.4,1.6c-0.1,0.1-0.2,0.2-0.3,0.3c-0.6,0.4-1.1,0.9-1.5,1.5
	c-1,1.3-2,2.7-3,4c-0.2,0.2-0.4,0.4-0.6,0.6c-0.2,0.2-0.5,0.5-0.6,0.7c-0.6,1.2-1.5,2.3-2.2,3.4c-0.3,0.5-0.6,0.9-0.9,1.4
	c-0.3,0.5-0.5,1.1-1,1.5c-0.1,0.1-0.2,0.3-0.3,0.4c-0.4,1.1-1.1,2.1-1.9,3c-0.6,0.7-1.1,1.5-1.5,2.4c-0.2,0.4-0.5,0.8-0.7,1.2
	c-0.6,0.9-1,2-1.6,2.9c0,0.1-0.1,0.1-0.1,0.2c-0.6,1.8-1.8,3.3-2.6,5.1c-0.4,0.9-1.1,1.7-1.2,2.7c0,0.1-0.2,0.3-0.3,0.4
	c-0.6,1.1-1.2,2.2-1.6,3.3c-0.3,0.6-0.7,1.2-1,1.9c-0.4,0.9-0.9,1.7-1,2.7c0,0.2,0,0.4-0.1,0.4c-0.7,0.6-0.8,1.5-1.4,2.2
	c-0.2,0.3-0.3,0.6-0.4,1c-0.4,1.2-1.2,2.2-1.7,3.4c-0.3,0.7-1,1.3-1,2.2c0,0.1,0,0.2-0.1,0.2c-0.7,0.4-0.6,1.1-0.7,1.7
	c-0.1,0.4-0.3,0.9-0.6,1.2c-0.6,0.7-0.9,1.6-1.5,2.4c-0.1,0.1-0.1,0.3-0.1,0.4s0,0.3,0,0.3c-0.7,0.3-0.5,1.2-1,1.6
	c-0.1,0.1-0.2,0.4-0.2,0.5c0,0.6-0.3,1-0.5,1.4c-0.3,0.5-0.6,1-0.7,1.6c-0.1,0.3-0.2,0.7-0.5,1c-0.6,0.7-0.7,1.6-1.1,2.4v0.1
	c0,1.2-0.8,2.1-1.3,3.1c-0.2,0.4-0.4,0.8-0.7,1.2c-0.2,0.4-0.3,0.8-0.5,1.2c-0.1,0.2-0.2,0.5-0.2,0.8c0,0.4-0.2,0.8-0.4,1.1
	c-0.2,0.3-0.3,0.6-0.3,0.9c0,0.6-0.1,1.2-0.6,1.7c-0.1,0.1-0.2,0.4-0.2,0.5c0.1,0.5-0.2,0.9-0.3,1.4c-0.2,0.6-0.4,1.2-0.5,1.8
	c-0.1,0.6-0.2,1.3-0.7,1.8c-0.3,0.2-0.2,0.7-0.4,1.1c-0.4,0.5-0.5,1.1-0.7,1.8c-0.1,0.6-0.3,1.1-0.6,1.7c-0.2,0.4-0.4,0.8-0.5,1.3
	c0,0.3-0.3,0.6-0.4,0.9c-0.4,1-0.5,2.1-0.7,3.1c-0.1,0.5-0.3,1-0.4,1.5c0,0.5-0.2,1-0.4,1.5c-0.4,1.2-1.2,1.5-2.4,1.1
	c0,0-0.1,0-0.1-0.1c-0.8-0.2-1.6-0.2-2.3-0.6c-0.7-0.4-1.5-0.6-2.2-0.8c-0.8-0.3-1.5-0.5-2.3-0.8c-0.1,0-0.2-0.1-0.3,0
	c-0.6,0.2-1-0.1-1.5-0.3c-1.2-0.4-2.3-0.8-3.5-1.2c-1-0.4-2.1-0.5-3.2-0.5c-0.5,0-0.9-0.2-1.3-0.5c-0.2-0.2-0.3-0.4-0.2-0.6
	c0.1-0.3,0.2-0.5,0.3-0.8c0.4-0.6,0.7-1.3,1.1-1.8c0.3-0.4,0.5-0.7,0.6-1.2c0-0.2,0.3-0.4,0.4-0.6c0.2-0.4,0.4-0.9,0.6-1.3
	c0.3-0.4,0.7-0.7,1-1c0.2-0.3,0.4-0.6,0.5-1c0.1-0.6,0.4-1.1,0.8-1.6c0.2-0.3,0.5-0.5,0.5-0.9c0.6-0.7,1.2-1.5,1.4-2.5
	c0.6-0.4,0.7-1.1,1-1.7c0.1-0.2,0.2-0.4,0.4-0.4c0.4-0.3,0.7-0.6,0.9-1.1c0.6-1.2,1.3-2.4,2-3.6c0.5-0.8,1-1.5,1.6-2.2
	c0.1-0.2,0.2-0.3,0.3-0.5c0.2-0.5,0.4-0.9,0.7-1.4c0.4-0.8,0.9-1.5,1.4-2.2c0.3-0.5,0.5-1,1.1-1.3c0.3-0.2,0.5-0.6,0.7-0.9
	c0.6-0.9,1.4-1.6,1.8-2.7c0.1-0.3,0.4-0.6,0.7-0.8c0.7-0.7,1.1-1.6,1.5-2.6c0.2-0.4,0.4-0.7,0.7-1.1c0.4-0.5,1-0.9,1-1.6
	c0.7-1.3,1.4-2.6,2.2-3.8c0.6-0.8,1.1-1.7,1.6-2.5c0.6-1,1.1-1.9,1.8-2.8c0.6-0.9,1.2-1.8,1.8-2.7c0.1-0.2,0.1-0.4,0.2-0.5
	c0.2-0.5,0.3-1,0.5-1.4c0.4-0.7,0.9-1.4,1.3-2.1c0.2-0.3,0.4-0.7,0.6-1c0.7-1.2,1.4-2.5,2.3-3.7c0.7-0.9,1-2.1,1.9-2.8
	c0.2-0.2,0.3-0.5,0.5-0.8c0.3-0.7,0.5-1.4,1.1-2c0.2-0.9,0.8-1.5,1.3-2.3c0.3-0.6,0.5-1.1,0.8-1.7c0.4-1.1,0.9-2.2,1.4-3.3
	c0.1-0.2,0.3-0.4,0.5-0.7c0.4-0.5,0.3-1.1,0.6-1.5c0.3-0.5,0.6-0.9,0.8-1.4c-0.2-0.5,0.2-0.7,0.5-0.9c0.5-0.4,0.8-1,0.9-1.6
	c0.2-1,0.7-1.8,1.3-2.6c0.2-0.3,0.4-0.6,0.4-0.9c0-0.4,0.2-0.7,0.4-1c0.4-0.8,0.7-1.6,1-2.4c0.1-0.2,0.1-0.4,0.3-0.5
	c0.8-0.8,1.4-1.7,1.7-2.8c0.2-0.7,0.7-1.3,0.6-2c0-0.1,0-0.2,0.1-0.2c0.5-0.3,0.4-0.8,0.6-1.3c0.6-1.2,0.8-2.6,1.5-3.7
	c0.2-0.3,0.3-0.7,0.4-1.1c0.1-0.4,0.1-0.7,0.4-1.1c0.3-0.4,0.3-1,0.3-1.5c0-1,0.4-1.9,0.7-2.8c0.1-0.3,0.2-0.6,0.1-0.9
	c-0.1-1-0.3-1.9-0.7-2.9c-1.1-0.3-2.3-0.7-3.5-0.6c-0.2,0-0.5,0-0.7-0.1c-0.3,0-0.6-0.1-0.9,0c-0.4,0-0.7,0.1-1.1,0.1
	c-0.3,0-0.7-0.2-1-0.2c-0.6,0-1.3,0.1-1.9,0.2c-1,0.2-2,0.2-3,0.5c-0.3,0.1-0.6,0.1-0.7,0.3c-0.2,0.4-0.7,0.2-0.9,0.4
	c-0.3,0.3-0.7,0.1-1,0.2c-0.4,0.1-0.8,0.2-1.3,0.3c-1.6,0.3-3.2,0.8-4.7,1.2c-0.2,0.1-0.4,0.2-0.7,0.2c-0.3,0.1-0.6,0.3-0.9,0.4
	c-0.9,0.2-1.8,0.6-2.7,1c-0.4,0.2-0.8,0.3-1.1,0.4c-0.3,0.1-0.4,0.3-0.5,0.6c-0.2,0.7-0.1,1.4-0.5,2c-0.1,0.2-0.1,0.5,0,0.8
	c0.1,0.4,0,0.9-0.1,1.3c-0.1,0.5-0.2,1-0.3,1.5c-0.2,1.2-0.5,2.4-0.9,3.6c-0.3,0.9-0.7,1.6-1.3,2.3c-0.2,0.2-0.4,0.5-0.6,0.8
	c-0.2,0.2-0.4,0.4-0.6,0.6c-0.6,0.3-1,1-1.7,1.1c-0.1,0-0.3,0.2-0.4,0.3c-0.6,0.5-1.2,1-2,1.1c-0.2,0-0.5,0.1-0.7,0.2
	c-0.7,0.5-1.6,0.2-2.3,0.6c-0.9-0.2-1.9,0.1-2.8-0.5l-0.1-0.1c-0.8-0.1-1.4-0.6-2.1-1c-0.3-0.2-0.5-0.6-0.7-0.7
	c-0.5-0.2-0.6-0.5-0.6-1c-0.7-0.8-0.6-1.7-0.4-2.7c0.1-0.6,0.2-1.2,0.6-1.8c0.2-0.2,0.3-0.5,0.3-0.8s0.1-0.5,0.4-0.7
	c0.4-0.3,0.7-0.6,0.9-1.1c0.2-0.4,0.6-0.7,0.9-1.1c0.2-0.2,0.4-0.4,0.5-0.6c0.5-0.9,1.1-1.5,1.9-2.1c0.7-0.6,1.4-1.1,2.1-1.7
	c0.6,0,0.9-0.6,1.4-0.8c0.3-0.1,0.5-0.3,0.5-0.7c0-0.3,0.4-0.6,0.7-0.6c0.6,0,1-0.4,1.6-0.7c-0.2-0.1-0.4-0.2-0.4-0.3
	c-0.1-0.2-0.1-0.4-0.1-0.6c-0.1-0.2-0.1-0.5-0.3-0.6c-0.6-0.5-1-1.1-1.3-1.8c-0.6-0.3-1.1-0.5-1.6-0.9c-0.4-0.3-1.1-0.4-1.7-0.5
	c-1.6-0.5-3.3-0.6-4.9-0.7c-1.5,0-3,0-4.5,0.1c-1,0.1-2.1,0-3.1,0c-1.3-0.1-2.5,0.2-3.8,0.4c-1.3,0.2-2.7,0.3-4,0.4
	c-0.7,0.1-1.3,0.2-2,0.2c-0.8,0.1-1.6,0.1-2.4,0.2c-0.8,0.1-1.7,0.2-2.5,0.3c-0.4,0.1-0.9,0.1-1.3,0.2c-0.5,0.1-0.9,0.1-1.4,0.3
	c-0.3,0.1-0.6,0.3-1,0.2h-0.1c-0.7,0.5-1.6,0.4-2.4,0.7c-0.8,0.4-1.6,0.8-2.6,0.8c-1.2,0.4-2.5,0.9-3.7,1.3c-1.4,0.4-2.6,1.2-4,1.6
	c-0.5,0.2-1,0.5-1.5,0.7c-0.4,0.2-0.7,0.5-1.2,0.5c-0.4,0-0.5,0.5-0.9,0.4c-0.3-0.1-0.6,0-0.9,0.1c-0.3,0.1-0.7,0.3-1,0.4
	c-0.9,0.5-1.8,1-2.6,1.6c-0.5,0.4-0.9,0.9-1.2,1.5c-0.1,0.2-0.2,0.4-0.3,0.7c1,0.9,1.1,2.1,1.3,3.2c0,0.1-0.1,0.3-0.1,0.4
	c-0.2,0.5-0.3,1-0.5,1.5s-0.5,0.8-0.9,1.1c-0.6,0.4-1.1,0.8-1.8,0.6c-0.8-0.1-1.6-0.4-2.3-1c-0.9-0.9-1-2-0.8-3.1
	c0.1-0.4,0.3-0.8,0.2-1.3c-0.8,0.1-1.4,0.7-2.1,0.9c-0.3,0.1-0.7,0.3-1,0.4c-0.4,0.3-0.9,0.4-1.3,0.9c-0.1,0.2-0.4,0.3-0.6,0.4
	c-0.6,0.3-1.1,0.7-1.3,1.3c-0.2,0.4-0.4,0.6-0.8,0.9c-0.3,0.2-0.5,0.5-0.7,0.8c-0.3,0.5-0.8,1-1.3,1.2c-0.7,0.3-1.1,0.8-1.6,1.4
	c-0.7,0.8-1.3,1.6-1.9,2.4c-0.4,0.1-0.7,0.1-0.9-0.3c0.2-0.5,0.4-1.1,0.7-1.6c0.4-0.7,0.9-1.3,1.5-1.9c0.6-0.7,1.2-1.2,1.7-2
	c0.3-0.5,0.8-0.8,1.2-1.2c0.4-0.4,0.8-0.9,1.2-1.3c0.6-0.6,1.2-1.3,1.8-1.9c0.2-0.2,0.5-0.3,0.7-0.4c1-0.7,2.1-1.4,3.3-1.9
	c0.4-0.2,0.9-0.3,1.4-0.4c0.9-0.2,1.6-0.5,2.2-1.2c0.7-0.7,1.4-1.5,2.4-1.9c0.4-0.2,0.8-0.6,1.2-0.8c1.1-0.6,2-1.4,3-2.2
	c0.3-0.2,0.6-0.4,0.9-0.5c1.5-0.4,2.9-1.3,4.3-2c0.2-0.1,0.4-0.2,0.5-0.2c1-0.3,2-0.7,3.1-0.9c1.3-0.2,2.5-0.6,3.8-1
	c0.1,0,0.2-0.1,0.4-0.1c1.3,0,2.6-0.5,3.8-0.8c2-0.5,4.1-0.9,6.1-1.1c0.8-0.1,1.6-0.3,2.3-0.4c0.3,0,0.6-0.1,0.9-0.1
	c0.4,0,0.9,0,1.3-0.2c0.2-0.1,0.4-0.1,0.6-0.1c0.8,0.1,1.5,0,2.2-0.2c0.8-0.2,1.7-0.1,2.6-0.3c1.2-0.2,2.4-0.3,3.7-0.3
	c0.8,0,1.5-0.1,2.3-0.2c2.5-0.2,5-0.1,7.5,0c1,0.1,1.9,0.3,2.9,0.6c0.1,0,0.2,0.1,0.3,0.1c0.6,0,1,0.3,1.6,0.5
	c0.5,0.2,1,0.3,1.5,0.6c0.3,0.1,0.5,0.3,0.9,0.3c0.5,0.1,1,0.2,1.3,0.7c0.1,0.2,0.3,0.2,0.5,0.3c0.2,0.1,0.5,0.1,0.6,0.3
	c0.6,0.5,1.3,0.8,1.8,1.3c0.4,0.4,0.6,0.9,1,1.4c0.2,0,0.5,0,0.7-0.1c0.6-0.3,1.2-0.6,1.8-0.9c0.1-0.1,0.2-0.1,0.3-0.2
	c0.9-1,2.3-1.3,3.4-1.9c0.5-0.3,1.2-0.4,1.8-0.7c0.6-0.2,1.1-0.6,1.7-0.8c0.5-0.2,0.9-0.4,1.4-0.7c0.3-0.2,0.8-0.2,1.1-0.5
	c0.5-0.6,1.3-0.6,1.9-0.9c0.5-0.3,1.1-0.2,1.7-0.4c1.4-0.5,2.9-0.9,4.3-1.3c0.3-0.1,0.5-0.2,0.8-0.3c0.4-0.2,0.7-0.3,1.1-0.3
	c0.3,0,0.6-0.1,0.9-0.2c1-0.3,2-0.5,3-0.8c0.9-0.2,1.8-0.4,2.7-0.5c0.5-0.1,1.1-0.1,1.7,0c0.9,0.1,1.8-0.2,2.7-0.2s1.7,0.1,2.6,0.4
	c0.4,0.2,0.9,0.3,1.3,0.6c0.3,0.1,0.6,0.3,0.8,0.5c0.3,0.3,0.6,0.6,1.2,0.8c0.4,0.1,0.7,0.4,1,0.7c0.2,0.2,0.3,0.4,0.4,0.7
	c0.1,1,0.1,2.1,0.2,3.1c0.1,0.8-0.2,1.5-0.2,2.3c-0.1,1-0.2,2-0.3,3c0,0.3,0,0.6,0,1c-0.1,0.3-0.2,0.6-0.3,0.9
	c0.2-0.1,0.4,0,0.4-0.1c1.5-1.3,3.1-2.6,4.4-4c0.4-0.5,1-0.8,1.5-1.2c0.5-0.4,0.8-1,1.5-1.2c0.6-1,1.6-1.5,2.4-2.3
	c0.4-0.4,0.8-0.8,1.4-0.9c0.2-0.1,0.4-0.2,0.6-0.3c0.8-0.6,1.7-1.2,2.5-1.8c0.3-0.2,0.7-0.4,1-0.5c1.3-0.6,2.5-1.4,3.7-2.2
	c0.5-0.4,1.3-0.6,1.5-1.3c0.7,0.1,0.9-0.8,1.5-0.7c0.7-0.4,1.4-0.7,2.1-1.2c0.5-0.3,1-0.3,1.5-0.7c0.4-0.3,1-0.4,1.6-0.5
	c0.7-0.1,1.4-0.5,2.2-0.6c1.3-0.2,2.5-0.4,3.8-0.6c0.7-0.1,1.4-0.1,2.1,0.3c0.8,0.5,1.7,0.5,2.6,0.4c0.4,0.4,0.8,0.8,1.2,1.2
	c0.4,0.4,0.8,0.8,0.8,1.5c0,0.2,0.1,0.4,0.2,0.6c0,0.1,0.1,0.1,0.1,0.2c-0.3,0.7,0.1,1.2,0.3,1.8c0,0.2,0,0.4,0,0.6s-0.1,0.4,0,0.6
	c0.3,0.4,0,0.8,0.1,1.2c-0.3,0.3-0.8,0.3-0.5,0.8c-0.2,0.3-0.3,0.7-0.5,1c-0.5,1-0.4,2.1-1,3c-0.1,0.2-0.2,0.4-0.3,0.6
	c-1.1,1.9-2,3.9-2.9,5.9c-0.4,0.8-0.8,1.6-1.3,2.3c-0.5,0.7-0.8,1.4-1.1,2.1c-0.6,1-1,2.1-1.6,3.2c-0.6,1-1,2.1-1.9,2.9
	c-0.1,0.1-0.1,0.2-0.1,0.3c-0.2,0.7-0.6,1.4-1,2c-0.3,0.5-0.6,1-0.9,1.6c-0.3,0.7-0.4,1.4-0.9,2s-0.8,1.3-1.1,2
	c-0.4,0.8-0.8,1.6-1.1,2.4c-0.4,1.2-1.1,2.1-1.7,3.1c-0.2,0.4-0.4,0.9-0.7,1.3c-0.5,0.7-0.9,1.4-1.2,2.2c-0.4,0.9-0.9,1.7-1.2,2.6
	c-0.2,0.5-0.5,0.9-0.7,1.4c-0.1,0.1-0.2,0.3-0.3,0.4c-0.2,0.9-0.8,1.6-1.2,2.5c-0.6,1.2-1.2,2.4-1.8,3.6c-0.7,1.5-1.5,3-1.8,4.6
	c0,0.1-0.1,0.3-0.2,0.4c-0.2,0.3-0.4,0.7-0.6,1c-0.8,1.4-1.5,2.9-2.2,4.3c-0.2,0.4-0.1,1.1-0.7,1.3c0,0.5-0.3,1-0.6,1.4
	c-0.3,0.6-0.7,1.2-1,1.8c-0.5,1.1-1,2.3-1.5,3.5c-0.3,0.6-0.3,1.4-0.9,1.9c-0.2,1.1-0.9,1.9-1.4,2.9c-0.1,0.3-0.2,0.7-0.3,1
	c-0.2,0.8-0.4,1.6-0.8,2.3c-0.4,0.7-0.5,1.6-0.7,2.4c0,0.1,0,0.3-0.1,0.4c-0.5,1.3-0.7,2.3-0.7,3.6c0,0.1,0,0.3,0,0.3
	c-0.4,0.6-0.3,1.2-0.3,1.8c0,0.5-0.3,1.1-0.1,1.6c0,0.1,0,0.2-0.1,0.3c-0.5,1.4-0.5,2.8-0.2,4.2c0.1,0.3,0,0.7,0.1,1.1
	c0,0.4,0,0.9,0.1,1.3c0.3,1,0.6,2,0.8,3c0.1,0.3,0.4,0.6,0.5,0.9c0.1,0.2,0.4,0.5,0.4,0.7c0,0.4,0.2,0.7,0.6,0.8
	c0.5,0.2,0.9,0.4,1.4,0.7c0.5,0.2,1,0.3,1.5,0.2c0.6-0.1,1.3-0.2,1.9,0c0.2,0.1,0.5,0,0.7,0c0.5,0,1,0,1.4-0.2
	c0.5-0.2,0.9-0.3,1.4-0.3c1,0,1.8-0.2,2.6-0.8c0.1-0.1,0.4-0.1,0.6-0.2c0.2,0,0.5,0.1,0.7,0c1.3-0.5,2.7-0.6,4-1
	c0.3-0.1,0.5-0.3,0.2-0.6c0,0-0.1-0.1,0-0.1c0.4-1,0-2,0-3c0-1.1,0-2.2,0-3.3c0-1.7,0.2-3.3,0-5c0-0.1,0-0.3,0.1-0.4
	c0.1-0.3,0.1-0.6,0.1-0.9c0-1.5,0.1-2.9,0.2-4.4c0.4-0.9,0.4-1.9,1-2.8c0.3-0.4,0.3-0.9,0.5-1.3c0.2-0.4-0.2-0.9,0.1-1.3
	c-0.1-0.9,0.4-1.6,0.7-2.4c0.2-0.5,0.5-0.9,0.5-1.4c0-0.1,0.1-0.3,0.2-0.4c0.1-0.1,0.2-0.2,0.2-0.3c0.2-1.4,0.8-2.7,1.2-4.1
	c0.1-0.2,0.2-0.5,0.2-0.7c-0.1-0.7,0.3-1.3,0.7-1.8c0.5-0.8,1-1.6,1.2-2.4c0.2-0.8,0.8-1.4,1.2-2.2c0.3-0.8,0.7-1.5,1.2-2.2
	c0-0.5,0.6-0.8,0.4-1.3c0-0.1,0.1-0.2,0.1-0.3c0.2-0.5,0.5-0.9,0.7-1.4c0.3-1,0.9-1.8,1.5-2.7c0.5-0.8,1.1-1.6,1.6-2.5
	c0.3-0.6,0.8-1.1,1.2-1.6c0.5-0.5,0.9-1.2,1.4-1.8c0.5-0.7,1.1-1.3,1.8-1.7c0.6-0.4,1.1-0.9,1.8-1.2c1.1-0.5,2.2-1,3.3-1.5
	c0.6-0.3,1.2-0.7,1.9-0.9c1.7-0.4,3.4-0.7,5.1-0.3c0.6,0.1,1.2,0.5,1.7,0.8c0.2,0.1,0.4,0.3,0.6,0.3c0.5,0,0.8,0.3,1.2,0.5
	c1.2,0.5,1.6,1.6,1.9,2.7c0.2,0.7,0.4,1.4,0.6,2c0.1,0.3,0.3,0.5,0.4,0.7c0,0.7-0.1,1.3-0.1,2c0,1.1-0.2,2.1-0.6,3.1
	c-0.2,0.6-0.4,1.1-0.4,1.7c0,0.6-0.1,1.1-0.3,1.6c-0.4,1.1-0.8,2.2-1.2,3.4c-0.2,0.7-0.6,1.3-0.9,2c-0.2,0.5-0.5,0.9-0.6,1.4
	c-0.3,1.3-0.8,2.5-1.4,3.7c-0.4,0.9-0.8,1.8-1.1,2.7c-0.2,0.6-0.5,1.2-0.8,1.8c-0.6,1.1-1.2,2.3-1.9,3.5c-0.2,0.3-0.4,0.7-0.6,1
	c-0.5,1-1,2-1.6,3c-0.3,0.6-0.7,1-1.1,1.6c-0.1,0.1-0.2,0.2-0.2,0.3c0,0.8-0.6,1.3-1,1.8s-0.6,1.1-0.9,1.7c-0.2,0.6-0.7,1.1-1.1,1.5
	c-0.9,0.9-1.6,1.9-2.2,3.1c-0.5,0.9-1,1.8-1.6,2.6c-0.6,0.8-1,1.7-1.6,2.5c-0.8,1.1-1.5,2.3-2.7,3.3c0.2,0.1,0.4,0.2,0.5,0.1
	c1-0.2,2-0.5,3-0.8c1.2-0.3,2.3-1,3.5-1.4c1.2-0.3,2.3-0.9,3.4-1.4c1.4-0.6,2.8-1.2,4-2.2c0.5-0.1,1-0.4,1.4-0.7
	c0.6-0.6,1.4-1.1,2.1-1.6c1.1-0.8,2.1-1.7,3.1-2.6c0.6-0.5,1.2-1.1,1.8-1.6c0.4-0.4,0.8-0.8,0.6-1.5c0-0.2,0.1-0.4,0.1-0.6
	c0.1-0.7,0.3-1.4,0.5-2.2c0.2-0.7,0.5-1.3,0.7-2c0-0.1,0.2-0.2,0.2-0.3c0.1-0.6,0-1.1,0.4-1.7c0.3-0.4,0.3-1,0.5-1.6
	c0-0.2,0.1-0.4,0-0.6c-0.1-0.3,0-0.6,0.2-0.9c0.4-0.4,0.4-0.9,0.5-1.4s0.1-1,0.3-1.4c0.2-0.5,0.3-1,0.1-1.5c0.9-0.5,1-1.4,1.2-2.3
	c0.1-0.3,0.1-0.5,0.1-0.8c0-0.1,0-0.3,0-0.3c0.5-0.3,0.5-0.9,0.6-1.4c0.1-0.3,0.2-0.7,0.4-1c0.3-0.5,0.6-1.1,0.6-1.8
	c0-0.3,0.1-0.7,0.3-0.9c0.7-0.8,0.8-2,1.3-2.9c0.6-1.2,1-2.5,1.6-3.7c0-0.6,0.4-1.1,0.6-1.6v-0.1c0.6-0.9,1-1.9,1.4-2.8
	c0.4-0.8,0.8-1.6,1-2.4c0.2-0.5,0.2-1,0.6-1.4c0.3-0.3,0.4-0.8,0.5-1.2c0.4-1,0.7-1.9,1-2.9c0.3-0.9,0.6-1.7,0.8-2.6
	c0.2-1,0.8-1.9,1.2-2.9c0.3-0.9,0.7-1.9,1.1-2.8c0.4-0.9,0.7-1.9,1.1-2.8c0.8-1.7,1.5-3.4,2.2-5.2c0.1-0.2,0.1-0.4,0.2-0.6
	c0.9-1.6,1.6-3.3,2.4-4.9c0.4-0.9,0.8-1.8,1.2-2.7c0.5-1.4,1.3-2.6,2.1-3.9c0.6-1.1,1.2-2.4,2.1-3.4c0.2-0.7,0.7-1.1,1.1-1.7
	c0.2-0.2,0.3-0.5,0.5-0.8c0.2-0.4,0.2-0.9,0.8-1.2c0.1,0,0.1-0.2,0.2-0.3c0.2-0.7,0.6-1.2,1-1.7c0.9-1,1.6-2.1,2.6-3.1
	c0.5-0.5,0.9-1.1,1.3-1.7c0.4-0.6,0.8-1.1,1.4-1.5c0.2-0.2,0.5-0.4,0.6-0.7c0-0.2,0.2-0.3,0.3-0.5c0.7-0.7,1.5-1.5,2-2.3
	c0.3-0.4,0.8-0.8,1.2-1.2c0.6-0.7,1.2-1.4,1.9-2c0.9-0.7,1.5-1.6,2.3-2.4c0.2-0.2,0.3-0.5,0.7-0.5c0.1,0,0.3-0.1,0.4-0.2
	c1.1-0.7,2.3-1.3,3.5-1.9c0.5-0.2,0.9-0.5,1.4-0.7c0.2-0.1,0.4-0.2,0.6-0.1c0.4,0.1,0.7,0,1.1-0.1c0.9-0.2,1.9,0.3,2.4,1.1
	c0.7,1.1,0.8,2.3,1,3.5c0.1,1,0.1,2,0.2,3c0.2,1.3-0.1,2.6-0.2,3.9c0,0.1-0.1,0.2-0.1,0.2c0,0.6,0.1,1.1-0.1,1.7
	c-0.1,0.5-0.3,1-0.4,1.5c-0.1,0.9-0.3,1.7-0.5,2.6c-0.4,1.5-0.9,2.9-1.3,4.3c0,0.1-0.1,0.3-0.2,0.4c-0.2,1-0.4,1.6-1,2.3
	c0.1,0.2,0.2,0.5,0.2,0.7c-0.2,0.3-0.5,0.6-0.6,0.9c-0.5,1.2-1.3,2.3-1.6,3.5c-0.1,0.3-0.3,0.6-0.4,0.9c-0.1,0.1-0.2,0.3-0.2,0.4
	c0,0.8-0.4,1.4-0.8,2.1c-0.2,0.3-0.2,0.7-0.3,1c-0.1,0.3-0.1,0.6-0.3,0.8c-0.4,0.3-0.4,0.8-0.7,1.2c-0.3,0.6-0.8,1.2-0.7,2
	c0,0.1-0.1,0.2-0.1,0.3c-0.5,0.7-0.8,1.6-1.4,2.2c-0.2,0.2-0.4,0.4-0.3,0.7c0,0.1,0,0.3-0.1,0.3c-0.6,0.6-0.7,1.5-1.2,2.2
	c-1,1.2-1.5,2.7-2.3,4c-0.1,0.2-0.3,0.5-0.4,0.7c-0.2,0.4-0.6,0.8-0.7,1.3c-0.3,0.9-0.9,1.7-1.4,2.5c-0.1,0.2-0.3,0.3-0.3,0.5
	c-0.3,0.7-0.7,1.4-1.2,2c-0.2,0.3-0.5,0.5-0.4,0.9c0,0.2-0.2,0.3-0.3,0.5c-0.2,0.4-0.5,0.7-0.7,1.1c-0.2,0.8-0.8,1.3-1.3,1.9
	c-0.3,0.4-0.6,0.8-0.9,1.3c-0.8,1.2-1.5,2.6-2.4,3.8c-0.6,0.8-1.3,1.6-1.6,2.6c-0.1,0.2-0.2,0.4-0.3,0.5c-0.5,0.5-0.6,1.3-1.2,1.7
	c-0.3,0.2-0.4,0.7-0.6,1c-0.1,0.1-0.1,0.3-0.2,0.4c-0.9,0.7-1.1,1.8-1.8,2.6c-0.5,0.6-0.9,1.2-1.3,1.9c-0.3,0.4-0.6,0.9-0.9,1.2
	c-0.3,0.3-0.2,0.6,0,1c-0.2,0.1-0.3,0.2-0.5,0.2c-0.3,0.1-0.5,0.3-0.6,0.6c-0.1,0.2-0.1,0.4-0.2,0.5c-0.6,0.4-0.8,1-1.2,1.6
	c-0.4,0.5-0.8,1-1.2,1.5c-0.1,0.1-0.2,0.2-0.2,0.3c-0.1,0.6-0.7,1-0.9,1.5c-0.3,0.5-0.5,1.1-0.8,1.6c-0.2,0.4-0.5,0.8-0.8,1.2
	c-0.6,0.6-1.1,1.4-1.6,2c-1,1.2-1.9,2.3-2.9,3.5c-0.1,0.1-0.2,0.1-0.3,0.2c-0.2,0.2-0.5,0.4-0.7,0.6c-0.6,0.9-1.3,1.6-2.1,2.3
	c-0.3,0.3-0.5,0.6-0.6,1c0,0.2-0.1,0.4-0.3,0.5c-1,1.1-1.9,2.4-2.9,3.5c-0.6,0.7-1.1,1.4-1.7,2c-0.7,0.6-0.6,1.4-0.4,2.1
	c0.1,0.2,0.1,0.4,0.1,0.7c0.1,1,0.4,1.9,1.4,2.3c0.1,0.1,0.2,0.1,0.3,0.2c0.6,0.8,1.3,0.7,2.2,0.4c0.5-0.2,1.1-0.2,1.5-0.6
	c0.1-0.1,0.2-0.1,0.3-0.1c1.4-0.3,2.6-1.1,3.7-2c0,0,0.1,0,0.1-0.1c1-0.5,1.7-1.4,2.5-2.1s1.7-1.4,2.5-2.2c0.4-0.4,0.9-0.7,1.3-1.1
	c0.1-0.1,0.2-0.3,0.4-0.3c0.8-0.3,1.3-1,1.9-1.6c0.8-0.8,1.6-1.6,2.5-2.3c1-0.8,1.9-1.8,2.9-2.7c0.2-0.2,0.4-0.5,0.6-0.7
	c0.1-0.1,0.2-0.3,0.3-0.3c0.6-0.2,1-0.8,1.3-1.3c0.7-1,1.6-1.9,2.5-2.7c0.2-0.2,0.4-0.5,0.6-0.7c0.2-0.3,0.4-0.6,0.7-0.8
	c0.2-0.1,0.3-0.3,0.4-0.4c0.4-0.8,1.1-1.4,1.6-2.2c0.1-0.2,0.3-0.3,0.5-0.5c0.2-0.2,0.4-0.3,0.6-0.6c1-1.1,2.1-2.3,3.1-3.5
	c0.7-0.9,1.4-1.7,2-2.7c0.6-0.8,1-1.8,1.9-2.5c0.2-0.1,0.3-0.4,0.4-0.6c0.1-0.2,0.2-0.5,0.4-0.6c0.9-0.5,1.4-1.4,2.2-2
	c0.1,0,0.2-0.1,0.2-0.1c0.5-0.9,1.2-1.6,1.8-2.4c0.7-1,1.3-2.1,1.9-3.1c0.5-0.8,1.1-1.6,1.7-2.3c0.4-0.5,0.8-1,1.1-1.5
	c0.3-0.5,0.5-1,1-1.3c0.2-0.1,0.2-0.3,0.2-0.5c0.2-0.5,0.7-0.7,1.1-0.4c0.5,0.4,1.3,0.2,1.7,0.8c0.7,0.1,1.2,0.5,1.9,0.6
	c0.7,0.1,1.3,0.4,1.9,0.6c0.4,0.1,0.8,0.2,1.2,0.2c0.8,0,1.4,0.3,1.8,0.9c0.1,0.7,0,1.3-0.4,1.9c-0.2,0.3-0.2,0.6-0.4,0.9
	c0,0.1,0,0.3-0.1,0.3c-0.6,0.5-0.6,1.3-0.8,1.9c-0.3,0.6-0.8,1.2-1,1.9c-0.1,0.3-0.2,0.5-0.3,0.8c-0.3,0.8-0.5,1.6-0.9,2.3
	c-0.4,0.8-0.9,1.5-0.9,2.4c-0.4,0.7-0.6,1.5-1,2.1c-0.6,1.1-1,2.2-1.6,3.3c-0.4,0.9-0.8,1.7-1.1,2.6c-0.5,1.5-1.2,2.9-1.8,4.4
	c-0.5,1.3-1.1,2.6-1.6,4c-0.4,1.1-0.8,2.1-1.3,3.2c-0.1,0.2-0.1,0.4-0.2,0.6c0.2,0.3,0.4,0,0.6,0c0.5,0,0.5-0.5,1-0.6
	c0.3,0,0.6-0.3,0.9-0.5c0.5-0.4,1.1-0.7,1.6-1c0.8-0.5,1.6-1,2.3-1.6c0.2-0.2,0.4-0.2,0.6-0.3c0.1-0.1,0.3-0.1,0.4-0.2
	c0.4-0.5,1-0.7,1.6-1c0.5-0.3,1-0.6,1.5-0.9c0.7-0.5,1.4-0.9,2.1-1.3c0.3-0.2,0.6-0.2,0.8-0.5c1.3-1.2,3-1.9,4.5-2.9
	c1-0.6,2.1-1.1,3.2-1.7c0.2-0.1,0.3-0.2,0.5-0.3c2.3-1.4,4.8-2.3,7.5-2.6c0.2,0,0.5-0.1,0.7-0.1c0.5-0.1,1-0.1,1.5-0.1
	c0.3,0,0.6,0,1,0c1-0.1,1.9,0.1,2.8,0.5c0.4,0.2,0.8,0.4,1.2,0.5c0.5,0.1,0.9,0.4,1.1,0.9c0.2,0.4,0.4,0.7,0.8,0.9
	c1.1,0.6,1.7,1.6,2.4,2.6c0.3,0.5,0.7,0.9,0.9,1.4c0.2,0.5,0.3,1.1,0.5,1.6c0.6,1.1,0.6,2.3,0.5,3.5c0,1-0.3,2-0.6,2.9
	c-0.3,0.7-0.4,1.4-0.6,2.2c-0.1,0.3-0.2,0.7-0.3,1c-0.1,0.3-0.2,0.7-0.2,1c-0.1,0.5-0.3,1-0.5,1.5c-0.1,0.3-0.3,0.5-0.4,0.8
	c0.2,0.3,0.3,0.3,0.5,0.2c1.1-0.5,2.2-1.1,3.2-1.9c0.7-0.6,1.5-1.1,2.3-1.7c0.5-0.4,1.1-0.7,1.6-1h0.1c1-0.7,2-1.5,2.9-2.2
	c0.7-0.5,1.3-1,2-1.5c1.2-1,2.3-2.1,3.4-3.2c0.5-0.4,0.8-1,1.3-1.4c0.8-0.8,1.3-1.8,1.9-2.7s1.3-1.8,1.8-2.8
	c0.3-0.6,0.9-0.9,1.7-0.8c0.8,0.1,1.6,0.3,2.5,0.4c0.2,0,0.5,0.1,0.7,0c0.8-0.3,1.6-0.1,2.4-0.1c0.6,0,1.3-0.1,1.9-0.1
	c0.3,0,0.6-0.1,0.9-0.2c0.5-0.1,0.9-0.1,1.2,0.4c0.3,0.5,0.1,1-0.2,1.3c-0.3,0.4-0.7,0.8-0.9,1.2c-0.1,0.2-0.3,0.3-0.4,0.4
	c-0.1,0.1-0.3,0.2-0.4,0.3c-0.2,0.5-0.5,0.9-1,1.2c-0.4,0.3-0.4,0.9-1,1c-0.4,0.7-1.1,1.1-1.5,1.8c-0.5,0.8-1.2,1.5-1.7,2.2
	c-0.1,0.2-0.2,0.3-0.3,0.5c-0.7,1-1.3,2.1-2,3.1c-0.4,0.7-0.9,1.3-1.3,2c-0.4,0.7-0.8,1.4-1.2,2c-0.2,0.2-0.2,0.5-0.4,0.9
	c0.7-0.6,1.2-1,1.8-1.5c0.3-0.3,0.7-0.5,1-0.8c0.3-0.3,0.6-0.8,1.2-0.8c0.1,0,0.2-0.2,0.4-0.3c0.6-0.6,1.2-1,1.9-1.5
	c0.8-0.6,1.6-1.1,2.1-1.9c0-0.1,0.1-0.2,0.2-0.2c1.1-0.4,1.8-1.4,2.8-2c1.2-0.8,2.4-1.7,3.7-2.5c1.5-0.9,3.2-1.6,4.9-2.1
	c1-0.3,2-0.4,3-0.6s2-0.3,3-0.3c0.9,0,1.7,0.1,2.5,0.4c0.4,0.2,0.9,0.3,1.3,0.2c0.4-0.1,0.8,0,1.2,0.2c1.1,0.4,2.1,1,3.1,1.4
	c0.8,0.3,1.3,1,1.5,1.7c0.2,0.6,0.1,1.3-0.2,2c-0.3,0.8-0.8,1.5-1,2.3c0,0.1-0.2,0.2-0.3,0.3c-0.2,0.3-0.5,0.5-0.7,0.8
	c-0.5,1-1.3,1.8-1.9,2.7c-0.1,0.1-0.2,0.2-0.2,0.3c-0.7,1.5-1.9,2.6-2.9,3.9c-0.5,0.7-1,1.3-1.6,2c0.1,0.2,0.1,0.5,0.2,0.7
	c-0.3,0.6-0.8,1-1,1.6c-0.1,0.3-0.5,0.4-0.7,0.6c-0.9,1.2-1.9,2.4-2.6,3.8c-0.2,0.4-0.4,0.7-0.6,1c-0.3,0.4-0.5,0.8-0.6,1.3
	c-0.3,0.6-0.6,1.2-1,1.7c-0.9,1.3-1.8,2.5-2.7,3.7c-0.3,0.4-0.5,0.8-0.7,1.2c-0.2,0.5-0.5,0.8-0.8,1.1c-0.7,0.6-1.2,1.3-1.5,2.1
	c-0.1,0.3-0.2,0.5-0.4,0.7c-0.7,1-1.3,2.1-2,3.1c-0.3,0.5-0.5,1.1-0.8,1.6c-0.4,0.7-0.9,1.2-1.2,1.9c-0.6,1.2-1.3,2.3-2,3.5
	c-0.3,0.5-0.5,1-0.6,1.5c-0.3,0.9-0.9,1.8-1.1,2.8c-0.1,0.3-0.2,0.5-0.2,0.8c0,0.4,0,0.7-0.4,0.9c-0.2,0.1-0.2,0.5-0.2,0.8
	c0,0.6,0,1.2-0.4,1.7c-0.1,0.1-0.1,0.2-0.1,0.3c0.1,0.8-0.5,1.4-0.3,2.2c0.2,0.6,0.2,1.3,0.3,1.9c0.5,0.4,1.1,0.6,1.1,1.3
	c0.3,0.2,0.4,0.8,1,0.8c0.3,0,0.6,0.3,0.8,0.7c0.2,0.6,0.7,0.8,1.2,1c1,0.4,1.9,0.8,2.8,1.3c0.5,0.3,1,0.6,1.5,0.9
	c0.7,0.5,1.3,1,2.2,1c0.5,0,1,0.4,1.5,0.6c0.6,0.3,1.3,0.7,2,0.5c0.1,0,0.2,0,0.3,0.1c0.8,0.5,1.2,0.6,2,0.7c0.1,0,0.3,0,0.4,0
	c1,0.5,2,0.1,2.9,0.1c0.3,0,0.6-0.1,0.9-0.2c0.8-0.3,1.7-0.5,2.5-0.7c0.6-0.1,1.2-0.3,1.8-0.5c0.5-0.2,1.1-0.2,1.6-0.5
	c1.1-0.6,2.3-0.7,3.5-1.2c0.3-0.1,0.6-0.2,0.9-0.3c0-1.1,0-2,0.3-2.9c0.3-0.7,0.5-1.4,0.3-2.1c0-0.1,0-0.3,0.1-0.4
	c0.1-0.3,0.3-0.7,0.3-1c0-1.2,0.5-2.2,0.9-3.3c0.3-0.8,0.7-1.5,0.7-2.3c0.3-0.3,0.4-0.6,0.7-0.9c0.7-0.9,1.4-1.7,2.3-2.4
	c0.2-0.2,0.5-0.3,0.7-0.4c0.1-0.1,0.3-0.1,0.4-0.2c0.6-0.8,1.6-1,2.5-1.3c0.4-0.1,0.8-0.3,1.2-0.5c1.1-0.6,2.3-0.6,3.5-0.5
	c0.3,0,0.6,0.1,0.7,0.3c0.3,0.4,0.8,0.6,1.1,0.9c0.6,0.6,1.1,1.2,1.6,1.9c0.1,0.1,0.1,0.4,0.1,0.6c0,0.7,0.3,1.3-0.1,1.9
	c0,0.8-0.2,1.7-0.4,2.5c-0.1,0.3-0.2,0.5-0.3,0.8c-0.6,1.3-1.6,2.4-2.1,3.7c-0.1,0.3-0.5,0.5-0.7,0.8c-0.5,0.6-0.9,1.2-1.3,1.8
	c-0.9,1.6-2.4,2.4-3.8,3.4c-0.4,0.3-0.8,0.5-1,1c0.3,0.3,0.7,0.7,1.1,1c0.1,0.1,0.2,0.1,0.3,0.2c1.1,0.3,2.2,0.7,3.4,0.7
	c1.3,0.1,2.5,0.2,3.8-0.1c0.3-0.1,0.7-0.1,0.9,0c0.8,0.3,1.7,0.2,2.6,0.2c0.6,0,1.3,0.1,1.9-0.3c0.1-0.1,0.2,0,0.4,0
	c1.2,0.2,2.2-0.3,3.3-0.5c0.3,0,0.5-0.3,0.7-0.3c0.3,0,0.5,0.1,0.8,0.1c0.1-0.1,0.2-0.3,0.4-0.3c1.6-0.4,3-1.3,4.6-1.7
	c0.2,0,0.3-0.1,0.4-0.2c1.2-0.6,2.5-1.3,3.7-1.9c0.5-0.2,0.9-0.5,1.3-0.9c0.1-0.1,0.3-0.3,0.5-0.4c0.5-0.4,1.1-0.6,1.3-1.3
	c0.8-0.6,1.2-1.5,1.7-2.2c0.6-0.8,1.2-1.5,1.7-2.3c0.7-1.2,1.5-2.4,1.9-3.8c0.1-0.5,0.4-1.1,0.7-1.5c0.2-0.2,0.3-0.5,0.4-0.7
	c0.1-0.7,0.5-1.4,0.5-2.2c0-0.1,0.1-0.3,0.2-0.4c0.1-0.3,0.3-0.6,0.4-0.9c-0.1-0.1-0.2-0.1-0.2-0.1c-0.8,0.4-1.5,0-2.2-0.2
	c-0.6-0.2-1.2-0.6-1.7-1.1c-0.2-0.3-0.4-0.6-0.5-0.9c-0.3-0.9-0.2-1.8-0.1-2.7c0-0.4,0.3-0.7,0.5-1c0.1-0.1,0.3-0.2,0.3-0.3
	c0.3-0.9,1.1-1,1.8-1.1c0.7-0.1,1.3,0.2,1.7,0.6c0.5,0.5,0.9,1,1.4,1.5c0.1,0.1,0.1,0.4,0.2,0.5c0.1,0.5,0.3,1,0.9,1.3
	c0.8-0.2,1.2-0.8,1.8-1.2c0.1-0.1,0.2-0.3,0.3-0.3c1.2-0.6,1.8-1.7,2.4-2.7c0.5-0.9,1.1-1.7,1.6-2.6c0.6-0.9,0.9-1.9,0.9-2.9
	c0-0.4,0.1-0.7,0.1-1.1c0-0.4,0.1-0.7,0.1-1.1c-0.2-1-0.1-2.1-0.5-3.1c0.2-0.1,0.4-0.3,0.6-0.3c0.3,0,0.6,0.1,0.8,0.4
	c0.3,0.6,0.7,1.3,0.4,2c-0.1,0.1,0,0.3,0,0.5c0.2,1-0.1,2-0.2,3c-0.2,1.5-0.7,2.9-1.5,4.3c-0.5,0.9-1.2,1.7-1.7,2.6
	c-0.4,0.7-1,1.3-1.5,2c-0.2,0.3-0.5,0.6-0.8,0.9c-0.5,0.7-1.3,1-2,1.5c-0.4,0.3-0.4,0.3-0.8,0.9c0.1,0.4,0.3,0.9,0.4,1.4
	c0,0.1,0,0.3,0,0.5c-0.1,0.3-0.1,0.6-0.2,0.9c-0.1,0.4-0.3,0.8-0.4,1.2c-0.1,0.4-0.1,0.8-0.2,1.3c-0.2,0.9-0.5,1.8-1,2.7
	c-0.3,0.6-0.6,1.1-0.7,1.8c-0.1,0.4-0.2,0.6-0.4,1c-0.3,0.5-0.6,1-0.8,1.6c-0.2,0.8-0.6,1.4-1.1,2c-0.3,0.3-0.3,0.8-0.8,0.9
	c-0.1,0.4-0.4,0.7-0.7,1c-0.3,0.3-0.6,0.6-0.9,1c-0.3,0.3-0.4,0.8-0.9,0.9c-0.1,0-0.2,0.1-0.2,0.1c-0.3,0.7-1,0.9-1.5,1.3
	c-0.6,0.5-1.2,1-1.7,1.5c-0.4,0.5-1.1,0.8-1.4,1.4c-0.1,0.2-0.4,0.2-0.6,0.3c-0.9,0.3-2.5,1.1-3.2,1.7c-0.1,0.1-0.1,0.2-0.2,0.2
	c-0.6-0.1-0.9,0.4-1.4,0.6c-1.1,0.3-2.3,0.5-3.4,1.1c-0.1,0-0.2,0.1-0.2,0.1c-1-0.1-1.9,0.4-2.9,0.6c-1.1,0.2-2.1,0.6-3.3,0.6
	c-0.5,0.4-1,0.2-1.6,0.2c-0.4,0-0.8,0-1.2,0.1c-0.5,0.2-0.9,0.2-1.4,0.2c-0.3,0-0.6,0.1-0.9,0.1c-0.2,0-0.3,0.1-0.5,0.1
	c-0.6-0.3-1.3,0-1.9-0.1c-0.9-0.1-1.9,0-2.8,0c-1.3-0.1-2.6-0.3-3.9-0.2c-0.9,0.1-1.8,0.1-2.6-0.1c-0.6-0.1-1.3-0.5-1.6-1.1
	c-0.3-0.5-0.5-1-0.8-1.5c-0.1-0.2-0.2-0.3-0.3-0.6c-0.7,0.2-1.3,0.4-1.9,0.7c-1.1,0.5-2.1,0.9-3.1,1.6c-0.4,0.3-0.7,0.5-1.1,0.7
	c-0.3,0.2-0.6,0.4-1,0.5c-1,0.2-2,0.6-2.9,1.1s-1.9,0.8-2.8,1.3c-0.5,0.2-1,0.5-1.5,0.7c-0.6,0.3-1.3,0.4-1.9,0.6
	c-0.5,0.2-1,0.3-1.4,0.5c-0.5,0.3-1,0.4-1.6,0.5c-0.3,0.1-0.7,0.2-1,0.3s-0.6,0.2-1,0.1c-0.6-0.2-1.2,0.1-1.7,0.4
	c-1.2,0.7-2.4,1.1-3.7,1.3c-1.1,0.2-2.2,0.5-3.3,0.6c-0.7,0.1-1.4,0.3-2.1,0.5c-0.7,0.2-1.5,0.4-2.2,0.3h-0.1
	c-1.7,0.4-3.3-0.4-4.9-0.6c-0.9-0.1-1.8-0.3-2.7-0.5c-0.3-0.1-0.6-0.1-0.8-0.3c-0.3-0.3-0.7-0.3-0.9-0.4c-0.5-0.6-1-1-1.4-1.5
	c-0.3-0.5-0.7-0.9-1.2-1.2c-0.3-0.7-0.5-1.3-0.8-1.8c-0.3-0.6-0.3-1.2-0.2-1.8c0.2-0.7,0.3-1.3,0.4-2c0-0.6,0.2-1.2,0.5-1.8
	c0.1-0.2,0.2-0.5,0.2-0.7c0-0.7,0.4-1.3,0.5-1.9c0.2-1.1,0.7-2,0.9-3.1c0.2-0.7,0.5-1.4,0.6-2.2c0.6-0.8,0.6-1.9,1-2.7
	c0.3-0.6,0.4-1.3,0.7-2c0.1-0.3,0.2-0.7,0.4-1c0.5-1,1-1.9,1.2-3.1c0-0.1,0-0.2,0.1-0.2c1-1.2,1.3-2.8,2.2-4
	c0.2-0.2,0.3-0.6,0.4-0.9c0.4-1.4,1-2.8,1.7-4c0.6-1,1.1-2,1.6-3.1c0.1-0.2,0.2-0.4,0.3-0.5c0.6-0.5,1-1.2,1.3-1.8
	c0.1-0.2,0.2-0.4,0.3-0.6c0.9-1.4,1.9-2.9,2.8-4.3c0.6-0.9,1.1-1.8,1.7-2.7c0.2-0.4,0.4-0.8,0.6-1.2c0.1-0.2,0.2-0.4,0.3-0.5
	c0.3-0.2,0.7-0.4,0.8-0.9c0.1-0.4,0.5-0.6,0.7-0.9c0.3-0.3,0.6-0.7,0.7-1.1c0.2-0.5,0.6-0.8,0.9-1.1c0.5-0.7,0.7-1.6,1.4-2.2
	c0.4-1.5,1.5-2.6,2-4c0.2-0.6,0.7-0.9,0.8-1.5c0.1-0.6,0.4-1.1,0.6-1.7c0.1-0.3,0.2-0.6,0.3-0.8c0.3-0.4,0.5-0.9,0.6-1.4
	c0.1-0.2,0.1-0.5,0.3-0.6c0.6-0.8,0.6-1.7,0.7-2.6c0-0.1,0-0.4-0.1-0.4c-0.5-0.4-1.1-0.8-1.8-0.7c-0.7,0.1-1.3,0.3-2,0.5
	c-0.2,0-0.4,0.1-0.6,0.2c-0.9,0.7-2.1,1.1-2.9,1.9c-0.1,0.1-0.3,0.3-0.5,0.4c-0.9,0.6-1.9,1.1-2.8,1.6c-0.4,0.2-0.7,0.5-1,0.8
	c-0.6,0.5-1.2,1-1.8,1.5c-0.2,0.1-0.3,0.2-0.4,0.4c-0.2,0.3-0.3,0.5-0.7,0.6c-0.1,0-0.2,0.1-0.3,0.2c-0.5,0.7-1.2,1.1-1.8,1.7
	c-0.6,0.6-1.3,1.1-1.8,1.7c-1,1.1-2,2.1-3.1,3.1c-0.7,0.6-1.4,1.3-2.1,2c-0.2,0.2-0.4,0.3-0.5,0.5c-0.6,1-1.5,1.6-2.3,2.4
	c-0.8,0.8-1.7,1.6-2.1,2.6c-0.2,0.4-0.5,0.8-0.8,1.2c-0.1,0.2-0.3,0.4-0.4,0.6c-0.1,0.5-0.5,0.7-0.8,1c-0.3,0.3-0.3,0.8-0.9,0.9
	c-0.7,1-1.7,1.6-2.2,2.8c-0.4,1-1.2,1.8-1.9,2.7c-0.6,0.6-1.2,1.3-1.7,2c-0.2,0.3-0.4,0.8-0.5,1.2c-0.1,0.4-0.2,0.8-0.6,1
	c-0.1,0-0.1,0.1-0.1,0.2c-0.5,1-1.3,1.8-1.9,2.8c-0.3,0.6-0.8,1.1-1,1.7c-0.1,0.2-0.3,0.4-0.5,0.7c-0.4,0.5-0.9,0.9-1,1.6
	c0,0.1-0.1,0.3-0.2,0.4c-0.9,1.1-1.5,2.3-2.2,3.5c-0.3,0.4-0.5,0.9-0.9,1.2s-0.6,0.7-0.8,1.1c-0.3,0.6-0.6,1.1-1,1.6
	c-0.5,0.6-0.7,1.3-1.2,1.9v0.1c0,0.9-0.7,1.4-1,2.1c-0.3,0.7-0.7,1.4-1,2c0,0,0,0.1-0.1,0.1c-0.2,0.2-0.5,0.5-0.7,0.7
	C320.8,338.9,320.6,339.3,320.4,339.6z M248.7,275.1c0.2-0.3,0.5-0.6,0.7-1c0.1-0.2,0.2-0.3,0.3-0.5c0.5-0.5,1-1,1.5-1.5
	c0.5-0.6,1.1-1,1.5-1.7c0.1-0.1,0.2-0.2,0.3-0.3c0.8-1,1.7-1.9,2.3-3c0.1-0.2,0.3-0.4,0.4-0.6c1-1.6,2.1-3.2,3.1-4.8
	c0.5-0.8,1.1-1.7,1.6-2.5c1.3-1.8,2.6-3.7,3.6-5.6c0.7-1.3,1.4-2.5,2.2-3.7c0.3-0.5,0.6-0.9,0.9-1.4c0.4-0.8,0.8-1.6,1.2-2.3
	c0.7-1.3,1.5-2.6,2.3-3.9c0.2-0.3,0.4-0.6,0.6-0.9c0.5-1,0.9-2,1.6-2.7c0.1-0.1,0.2-0.2,0.2-0.3c0.2-1,1-1.7,1.5-2.5
	c0.4-0.7,0.9-1.4,1.4-2.1c0.3-0.4,0.6-0.8,0.8-1.3c0.3-0.6,0.7-1.3,1.2-1.8c0.9-2,2.4-3.6,3.2-5.7c0.1-0.3,0.3-0.5,0.4-0.7
	c0.3-0.5,0.7-0.9,0.6-1.5c0-0.2,0.2-0.3,0.3-0.5c0.8-1.3,1-2.8,1-4.2c0-0.5-0.8-0.9-1.2-0.7c-0.8,0.5-1.7,0.8-2.3,1.6
	c-0.1,0.1-0.1,0.2-0.2,0.3c-0.8,0.4-1.3,1.1-1.9,1.7c-0.7,0.8-1.5,1.6-2.2,2.5c-0.2,0.2-0.4,0.5-0.6,0.7c-0.9,1.2-1.6,2.5-2.6,3.7
	c-0.5,0.6-0.9,1.3-1.3,2c-0.7,1.1-1.4,2.2-2,3.4c-0.3,0.6-0.6,1.1-0.9,1.6s-0.8,1-1.1,1.6c-0.4,0.7-0.7,1.4-1.1,2.1
	s-0.9,1.4-1.2,2.2c-0.3,0.7-0.8,1.2-1.1,1.8c-1.1,2-2.2,4.1-3,6.2c-0.2,0.5-0.5,1-0.7,1.5c-0.4,0.9-1,1.7-1.3,2.7
	c-0.5,1.4-1.2,2.7-1.9,4c-0.4,0.8-0.9,1.5-1,2.3c0,0.2-0.1,0.3-0.2,0.4c-0.3,0.5-0.5,1.1-0.8,1.6c-0.3,0.8-0.5,1.6-1,2.3
	c-0.9,1.4-1.3,3-2.2,4.3v0.1c-0.3,0.8-0.7,1.7-1.1,2.5c-0.3,0.5-0.6,1.1-0.7,1.6C249.3,273,248.9,274,248.7,275.1z M230.6,260.7
	c-0.6-0.2-1.3-0.2-1.9,0.1c-0.2,0.1-0.4,0.3-0.6,0.4c-0.2,0.1-0.5-0.1-0.7,0c-0.8,0.4-1.6,0.7-2.2,1.3c-0.5,0.5-0.9,1-1.5,1.4
	c-1,0.7-1.8,1.6-2.6,2.6c-0.4,0.5-0.6,1.2-1.2,1.6c-0.1,0.1-0.2,0.3-0.3,0.5c-0.2,0.3-0.3,0.7-0.5,0.9s-0.4,0.5-0.5,0.8
	c-0.4,0.8-0.8,1.5-1.2,2.3c-0.3,0.7-0.9,1.3-0.9,2.1c0,0.1-0.1,0.2-0.2,0.3c-0.7,0.6-0.6,1.6-1.3,2.1c-0.1,0.1,0,0.2-0.1,0.3
	c-0.1,0.3-0.2,0.7-0.3,1c-0.1,0.4-0.4,0.8-0.4,1.2c0,0.2-0.1,0.4-0.3,0.5c-0.8,1-0.8,2.3-1.1,3.6c0.2,0.5,0,1-0.3,1.5
	c-0.3,0.6-0.4,1.2-0.2,1.9c0.2,0.5,0.1,0.8,0,1.2c0.1,0.2,0.2,0.3,0.3,0.4c-0.7,1.2-0.7,1.3-0.1,2.5c0.1-0.1,0.3-0.1,0.4-0.2
	c1-1,2.1-2,3.1-2.9c0.5-0.4,1-0.8,1.4-1.3c0.6-0.6,1.2-1.3,1.7-1.9c0.3-0.3,0.7-0.7,1-1c0.9-1,1.4-2.3,2.2-3.4
	c0.6-0.9,1.1-1.8,1.6-2.8c0.5-0.9,1-1.7,1.2-2.7c0.1-0.3,0.2-0.7,0.4-1c0.5-0.9,0.8-1.8,1.4-2.6c0.1-0.1,0.1-0.2,0.1-0.3
	c0-0.5,0.3-0.8,0.5-1.2c0.2-0.3,0.4-0.7,0.5-1.1c0.3-0.9,0.8-1.6,0.9-2.6c0-0.3,0.2-0.5,0.4-0.8c0.1-0.2,0.2-0.4,0.3-0.6
	c0.2-0.8,0.6-1.6,0.7-2.5C230.6,261.9,231,261.4,230.6,260.7z M311.2,283.2c-0.5,0.5-0.7,0.7-0.8,1c-0.3,0.7-0.6,1.3-0.8,2
	c-0.1,0.4-0.5,0.7-0.4,0.9c0.1,0.5-0.2,0.8-0.5,1.1c-0.4,0.4-0.5,0.9-0.7,1.4s-0.3,1.1-0.5,1.6c-0.3,0.6-0.4,1.2-0.4,1.8
	c0,0.4-0.2,0.8-0.3,1.1c-0.2,0.6-0.6,1.2-0.6,1.8c-0.1,0.9-0.6,1.8-0.3,2.8c0,0.1-0.1,0.2-0.1,0.3c-0.2,1-0.5,2.1,0,3.2
	c0,0.1,0.1,0.2,0.1,0.3c-0.1,0.6,0.2,1.1,0.5,1.5c0.1,0.1,0.2,0.2,0.1,0.3c-0.3,0.7,0.2,0.9,0.6,1.2c0.2,0.1,0.4,0.3,0.4,0.4
	c0,0.6,0.6,0.9,0.9,1.3c0.4,0.5,0.9,0.4,1.5,0.6c0.7,0.2,1.3,0.3,2,0.1c0.3-0.1,0.7-0.1,1.1-0.2c0.9-0.2,1.8-0.5,2.4-1.2
	c0.5-0.5,1.2-0.8,1.5-1.5c0-0.1,0.1-0.1,0.2-0.1c1.2-0.8,2.1-2,3.1-3.1c0.5-0.6,0.9-1.3,1.3-1.9c0.5-0.7,0.9-1.5,1.4-2.2
	c0.3-0.5,0.6-1,0.8-1.6c0.1-0.3,0-0.6,0-1c-0.8,0.2-1.7,0.3-2.4,0.7c-0.6,0.3-1.3,0.5-2,0.8c-0.7,0.2-1.4,0.4-2.1,0.5
	c-1.4,0.2-2.7-0.2-3.7-1.3c-0.2-0.2-0.4-0.3-0.6-0.5c-0.1-0.2-0.1-0.5-0.2-0.7c-0.2-0.5-0.6-0.9-0.7-1.4c-0.2-0.5-0.1-1.1-0.3-1.6
	c-0.3-1.1-0.4-2.3-0.4-3.4c0.1-1.6-0.1-3.1,0-4.7C311.3,283.4,311.2,283.4,311.2,283.2z M326.5,287.5c0.1-0.4,0.3-0.7,0.3-0.9
	c0-0.3,0.1-0.6,0.2-0.9c0.4-1.2,0.5-2.4,0.7-3.6c0.1-0.3,0.1-0.7,0.2-1c0-0.2,0.1-0.5,0.2-0.7c0.1-0.5,0.1-1,0.2-1.5
	c0.1-1.1,0.3-2.1-0.2-3.2c-0.1-0.2-0.1-0.5-0.1-0.7c0-0.5-0.1-1-0.5-1.4c-0.3-0.4-0.5-0.8-0.7-1.2c-0.2-0.4-0.5-0.6-0.8-0.8
	c-0.8-0.4-1.7-0.4-2.5-0.3c-0.4,0-0.8,0.1-1.1,0c-0.5-0.2-0.9,0-1.1,0.4c-0.2,0.2-0.3,0.5-0.5,0.7c-0.5,0.7-0.7,1.6-1.5,2.1
	c-0.1,0.1-0.2,0.3-0.3,0.5c-0.5,1.3-0.9,2.7-1.3,4.1c-0.1,0.2-0.1,0.5-0.1,0.7c-0.1,1.2-0.1,2.4-0.1,3.5c0.5,0.7,1.3,1.2,1.8,1.8
	c0.4,0.5,1,0.8,1.5,1.2c0.6,0.5,1.1,0.9,1.9,0.8c0.2,0,0.5,0.1,0.7,0.1c0.7,0.2,1.4,0.5,2.1,0.1c0.1,0,0.3,0.1,0.4,0.1
	C325.9,287.4,326.1,287.5,326.5,287.5z M266.5,287c1.4-0.2,2.6-0.4,3.9-0.6c0.8-0.1,1.6,0,2.4-0.3c0.1,0,0.2,0,0.2,0
	c0.6,0.1,1.1-0.1,1.7-0.1c0.7-0.1,1.4-0.4,2.1-0.2c0.1,0,0.3,0,0.5-0.1c0.7-0.2,1.5-0.4,2.2-0.6c0.6-0.2,1.1-0.4,1.6-0.7
	c0.5-0.3,0.9-0.7,1.1-1.3c0.3-0.7,0.6-1.5,0.9-2.2c0.4-0.8,0.7-1.7,1.3-2.4c0.6-0.8,0.7-1.8,1.1-2.7c0.1-0.2,0.1-0.5,0.1-0.8
	c0.1-0.8,0.3-1.5,0.9-2.1c0.2-0.2,0.4-0.5,0.5-0.8s0.1-0.7,0.3-1c0.5-0.6,0.5-1.4,0.8-2.1c0.2-0.6,0.4-1.2,0.9-1.8
	c0.3-0.4,0.4-1.1,0.6-1.6c0-0.1-0.1-0.2-0.1-0.3c-0.1,0.1-0.3,0.2-0.3,0.2c-0.4,0.4-0.8,0.8-1.2,1.2c-0.4,0.4-0.7,0.8-1.1,1.2
	c-0.3,0.3-0.6,0.4-0.8,0.7c-0.5,0.8-1.2,1.3-2,1.8c-0.2,0.1-0.4,0.3-0.5,0.5c-0.1,0.4-0.4,0.6-0.6,0.8c-0.5,0.5-1,1-1.5,1.5
	c-0.4,0.4-0.6,0.8-1.1,1.1c-0.8,0.5-1.5,1.2-2.1,1.9c-0.4,0.5-1,0.7-1.3,1.3c-0.7,0.3-1.1,0.9-1.5,1.4c-0.1,0.1-0.2,0.3-0.3,0.3
	c-0.7,0.2-1.1,0.8-1.5,1.3c-0.3,0.4-0.7,0.7-1.1,1.1c-0.3,0.2-0.5,0.5-0.7,0.8c-0.1,0.1-0.6,0.7-0.8,0.9c-0.2,0.2-0.3,0.3-0.5,0.5
	c-0.1,0.1-0.3,0.3-0.5,0.3c-0.4,0-0.7,0.2-0.9,0.5c-0.8,0.7-1.4,1.5-2.3,2C266.6,286.5,266.6,286.7,266.5,287z M265,297.6
	c0.6,0.1,1.1,0.4,1.4,1c0.3,0.5,0.6,0.9,0.6,1.5c0,0.1,0,0.3,0.1,0.3c0.6,0.6,0.9,1.5,1.5,2.1c0.5,0,0.8-0.2,1.1-0.5
	c0.5-0.7,1.5-0.8,1.9-1.6c0.5-0.1,0.6-0.5,0.9-0.8c0.3-0.4,0.6-0.9,0.9-1.4c0.2-0.3,0.6-0.5,0.6-1c0.1-0.5,0.6-0.4,0.9-0.7
	c0.1-0.1,0.1-0.3,0.2-0.4c0.4-0.8,1.1-1.5,1.4-2.3c0-0.1,0.1-0.2,0.2-0.3c0.5-0.6,0.9-1.3,1.4-1.9c0.1-0.2,0.2-0.4,0.3-0.7
	c-0.4,0.1-0.6,0.1-0.9,0.2c-0.3,0-0.6,0-1,0c-0.1,0-0.2,0-0.3,0.1c-1,0.5-2.1,0.4-3.1,0.4c-1.1-0.1-2.3,0.1-3.4-0.2
	c-0.1,0-0.2,0-0.4,0c-1.2,0-2.4-0.1-3.6-0.6c-0.5-0.2-1-0.3-1.5-0.3c0,0.3,0,0.5,0.1,0.8c0.1,0.4-0.4,0.4-0.4,0.6
	c-0.1,0.2-0.1,0.5-0.1,0.7c0,0.6,0.1,1.3,0.3,1.9C264,295.5,264.4,296.5,265,297.6z M140.9,220.8c0-0.3-0.2-0.7,0.2-0.9
	c0.3-0.1,0.3-0.3,0.4-0.6c0.1-0.6,0.1-1.2,0.3-1.8c0.2-0.5,0.1-0.8,0-1.3c-0.1,0-0.2,0-0.2,0c-0.5,0.2-1.1,0.5-1.6,0.7
	c-1.1,0.5-2.3,1.5-2.9,2.5c-0.5,0.8-0.8,1.6-1.6,2.2c-0.2,0.2-0.2,0.6-0.3,1c0,0.1,0.2,0.4,0.4,0.4c0.2,0.1,0.6,0.1,0.8,0.2
	c0.5,0.2,0.9,0.1,1.3-0.1c0.3-0.1,0.7-0.3,0.9-0.5c0.5-0.3,1-0.6,1.3-1.1C140,221.4,140.4,221.1,140.9,220.8z M395.3,333
	c0.9-0.9,1.5-1.5,2.2-2.2c0.2-0.3,0.5-0.5,0.7-0.8c0.2-0.5,0.6-0.8,0.9-1.2c0.4-0.4,0.7-0.8,1.1-1.1c0.5-0.4,0.5-1.1,0.9-1.5
	c0.4-0.5,0.1-1.2,0.7-1.7c0.1-0.1,0-0.5-0.2-0.6c-0.2-0.3-0.5-0.5-0.8-0.7c-1.3,0.8-2.2,1.7-2.8,2.7c-0.4,0.6-0.8,1.2-1,2
	c-0.1,0.3-0.3,0.6-0.4,0.9s-0.2,0.6-0.3,0.9c-0.2,0.8-0.3,1.7-0.7,2.5C395.4,332.2,395.4,332.5,395.3,333z M433.1,316.4
	c1,0,1.7-0.4,2.5-0.8c-0.1-1.3-0.1-1.3-0.7-2.4c-0.5-0.9-1-0.9-1.6-0.2c-0.1,0.1-0.2,0.3-0.3,0.5c-0.1,0.4-0.2,0.8-0.3,1.3
	C432.5,315.4,432.6,315.9,433.1,316.4z M79.2,223.9c0.6-0.1,0.9-0.6,1.3-1c0.1-0.1,0.1-0.5,0.1-0.8c0-0.1,0-0.2,0.1-0.4
	c-0.3-0.3-0.7-0.6-1.1-0.9c-0.2-0.2-0.5,0-0.5,0.3c-0.1,0.6-0.1,1.1-0.2,1.7C78.8,223.3,78.9,223.6,79.2,223.9z"/>
<path d="M92.5,302.5c-0.2,0.6-0.5,1.1-0.6,1.6c-0.1,0.6-0.3,1-0.6,1.5c-0.4,0.6-0.6,1.4-1,2.1c0,0.9-0.7,1.6-0.6,2.5
	c0,0.6-0.3,1.2-0.4,1.8c0,0.6-0.4,1.1-0.6,1.7c-0.2,0.4-0.7,0.6-0.7,1.2c-0.4,0.5-0.5,1.2-0.8,1.7s-0.3,1.1-0.5,1.7
	c-0.4,0.8-0.5,1.8-1.1,2.5c-0.1,0.1-0.1,0.3-0.1,0.5c-0.1,0.3-0.2,0.5-0.4,0.8c-0.3,0.3-0.5,0.7-0.5,1.1c0,0.6-0.5,1-0.4,1.6
	c-0.4,0.9-1,1.7-1.7,2.4c-0.3,0.2-0.5,0.5-0.7,0.8c-0.4,0.5-0.7,1-1.2,1.4c-0.2,0.1-0.3,0.3-0.4,0.4c-0.3,0.7-0.8,1-1.3,1.6
	c-0.7,0.8-1.6,1-2.6,1c-0.3,0-0.6,0-0.9-0.1c-0.8,0-1.6-0.1-2.4-0.4c-0.6-0.3-1.3-0.3-1.8-0.8c-0.5,0-0.8-0.4-1.1-0.7
	c-1.1-1-2.2-2.1-2.9-3.5c-0.1-0.2-0.2-0.4-0.4-0.6c-0.3-0.3-0.4-0.6-0.4-0.9c0-0.2,0-0.4-0.2-0.6c-0.4-0.4-0.6-0.8-0.6-1.3
	c0-0.3-0.2-0.6-0.4-0.9c-0.6-0.9-0.9-1.8-0.7-2.9c0-0.1,0-0.3-0.1-0.4c-0.4-0.6-0.3-1.2-0.4-1.8c-0.1-0.7-0.2-1.4-0.4-2.1
	c-0.2-0.6-0.1-1.2-0.2-1.8c-0.1-0.5,0.1-1.1-0.2-1.6c0-0.1-0.1-0.2,0-0.2c0.3-0.9-0.1-1.8,0.1-2.7c0-0.1,0-0.3-0.1-0.5
	c-0.3-1-0.4-2.1-0.3-3.2c0-1.5-0.2-3-0.3-4.5c-0.1-1,0-2.1,0.1-3.1c0.1-1.2,0.1-2.3,0.2-3.5c0-0.6,0.1-1.3,0.1-1.9
	c0-0.3,0-0.6,0-0.8c0-0.2-0.1-0.4,0-0.5c0.5-0.7,0.1-1.5,0.1-2.2c0-1.5-0.1-3,0.1-4.5c0-0.3,0.1-0.6-0.3-0.9
	c0.1,0.9-0.4,1.5-0.7,2.2c-0.2,0.6-0.6,1.1-0.7,1.7c0,0.4-0.3,0.9-0.5,1.3c-0.7,0.9-1.1,2-1.7,3c-0.3,0.3-0.5,0.7-0.7,1.1
	c-0.3,0.5-0.5,1.1-0.5,1.8c0,0.9-0.1,1.7-0.1,2.6c0,1.1-0.5,2-0.6,3c0,0.5-0.3,1.1-0.1,1.6c0.1,0.2,0,0.4,0,0.6
	c-0.1,1.4-0.3,2.9-0.4,4.3c-0.1,0.7-0.3,1.3-0.4,2c-0.1,0.5-0.1,0.9-0.2,1.4c0,0.1,0,0.3,0,0.3c-0.5,1-0.5,2.2-0.9,3.2
	c-0.3,0.9-0.6,1.8-0.7,2.8c0,0.1,0,0.2,0,0.2c-0.7,1.5-0.7,3.2-1.4,4.7c-0.3,0.6-0.3,1.4-0.6,2c-0.5,1-1,2-1.5,3
	c-0.4,0.8-1,1.6-1.5,2.4c-0.1,0.1-0.2,0.2-0.3,0.4c-0.5,1.4-1.5,2.6-2.1,4c-0.5,1.2-1.3,2.1-2.5,2.8c-1.1,0.6-2.2,1-3.3,1.3
	c-0.7,0.1-1.2-0.1-1.9-0.2c-1.3-0.2-2.5-0.6-3.6-1.1c-0.5-0.2-0.9-0.5-1.3-0.8c-0.6-0.6-1.1-1.1-1.7-1.7c-0.1-0.1-0.3-0.3-0.3-0.5
	c-0.1-0.4-0.4-0.7-0.8-0.8c-0.5-0.1-0.8-0.5-1-0.9c-0.1-0.3-0.3-0.4-0.5-0.7c-0.3-0.4-0.6-0.6-1.1-0.6c-0.2,0-0.4-0.2-0.7-0.3
	c-0.1-0.6-0.4-1-0.8-1.5c-0.8-1-1.5-1.9-1.9-3.1c-0.1-0.2-0.2-0.5-0.3-0.6c-0.7-0.7-1.1-1.6-1.5-2.5c-0.6-1.3-1.2-2.5-1.3-3.9
	c0-0.3-0.2-0.5-0.3-0.8c-0.3-0.8-0.7-1.5-0.9-2.3c-0.3-1-0.4-2-0.6-3c-0.3-1.5-0.5-3.1-0.8-4.6c-0.3-1.6-0.7-3.2-1-4.8
	c-0.1-0.4-0.1-0.9-0.1-1.3c-0.1-1.3-0.3-2.5-0.4-3.8c-0.1-1.3-0.1-2.6,0.1-3.9c0.3-2,0.5-4,0.6-5.9c0.1-1.1,0.3-2.2,0.7-3.2
	c0.2-0.6,0.2-1.2,0.4-1.7c0.6-1.7,0.6-3.5,1.5-5.1c0.2-0.4,0.3-1,0.4-1.5c0.3-1.1,0.7-2.3,1-3.4c-0.2-0.2-0.3-0.2-0.4-0.1
	c-0.2,0.2-0.4,0.3-0.6,0.3c-0.4,0.1-0.8,0.3-0.8,0.7c0,0.3-0.2,0.3-0.4,0.4c-0.2,0.2-0.3,0.4-0.5,0.7c-0.1,0-0.4,0-0.7,0.1
	c-0.2,0.1-0.4,0.4-0.6,0.6c-0.5,0.5-1.1,1-1.4,1.5s-0.8,0.9-1.2,1.4c-0.4,0.5-0.9,0.8-1.3,1.2c-0.4,0.4-0.8,0.8-1.1,1.2
	c-0.3,0.5-0.7,0.9-1.2,1c0,0.3,0,0.5-0.1,0.7c-0.2,0.3-0.4,0.5-0.7,0.7c-0.5,0.4-1,0.9-1.2,1.6c-0.1,0.3-0.4,0.7-0.6,0.9
	c-0.3,0.2-0.5,0.5-0.6,0.9c-0.1,0.1-0.1,0.2-0.2,0.3c-0.9,0.7-1.3,1.9-2,2.8c-0.5,0.7-0.9,1.4-1.4,2.1c-0.1,0.1-0.3,0.2-0.4,0.3
	c-0.2,0.2-0.4,0.3-0.5,0.5c-0.2,0.9-0.9,1.4-1.4,2.1c0.2,1,0.4,2.1,0.7,3.2c0.4,1.2,0.9,2.4,1.3,3.7c0.1,0.3,0.1,0.7,0.1,1
	c0.6,0.2,0.4,0.8,0.7,1.2s0.3,0.9,0.5,1.3c0.2,0.4,0.4,0.9,0.5,1.3c0,0.1,0.1,0.2,0.1,0.2c0,0.7,0.5,1.3,0.6,2
	c0.1,0.5,0.4,1,0.1,1.6c0.1,0.4,0.1,0.9,0.3,1.3c0.4,0.8,0.7,1.6,0.8,2.5c0.2,1.3,0.8,2.5,1,3.8c0,0.1,0,0.2,0.1,0.3
	c0.4,0.7,0.5,1.4,0.6,2.2c0.2,1.1,0.5,2.2,0.8,3.4c0.4,1.8,0.9,3.6,1.1,5.5c0,0.2,0.1,0.4,0.2,0.6c0.1,0.4,0.2,0.8,0.2,1.2
	c0,0.7,0,1.4,0.2,2.1c0.2,0.6,0.3,1.3,0.4,2c0,0.1,0.1,0.2,0.1,0.3c0,1.5,0.4,2.9,0.7,4.3c0.1,0.4-0.2,0.9,0.1,1.3
	c0.1,1.5,0.3,3,0.4,4.5c0,0.5,0.2,1,0.2,1.5c0,0.6,0.2,1.2,0.2,1.9c-0.1,0.6,0,1.3,0,1.9c0,0.2,0,0.5,0.1,0.7c0.1,0.3,0.1,0.5,0,0.8
	s0.1,0.7,0,0.9c-0.4,0.9-0.2,1.8-0.2,2.7c0.1,0.7-0.1,1.3-0.2,2c-0.1,1.2-0.2,2.5-0.3,3.7c-0.1,1.2-0.1,2.4-0.5,3.5
	c0.1,0.5-0.2,1-0.3,1.5s0,1-0.1,1.5c-0.2,0.8-0.2,1.6-0.4,2.3c-0.3,0.9-0.3,1.8-0.4,2.7c-0.1,0.7-0.2,1.4-0.3,2.1
	c-0.1,0.9-0.4,1.8-0.5,2.7c-0.1,0.6-0.2,1.2-0.4,1.8c-0.3,1.2-0.6,2.4-0.9,3.6c-0.1,0.6,0,1.3-0.2,1.9c-0.1,0.6-0.4,1.1-0.7,1.6
	c-0.2,0.4-0.2,0.8-0.3,1.1c-0.5,1.6-0.9,3.1-1.3,4.7c-0.4,1.5-1.1,2.8-1.8,4.1c-0.4,0.7-0.6,1.4-1.2,1.9c-0.1,0-0.1,0.1-0.1,0.2
	c-0.2,0.9-0.9,1.5-1.3,2.2c-0.4,0.6-0.8,1.2-1.2,1.8c0,0.1-0.1,0.1-0.1,0.2c-0.8,0.9-1.6,1.9-2.4,2.8c-0.3,0.4-0.7,0.8-1,1.2
	c-0.6,0.8-1.3,1.3-2.1,1.9c-1.2,0.9-2.4,1.8-3.5,2.9c-0.4,0.4-0.9,0.8-1.4,1c-0.8,0.4-1.5,1-2.3,1.5c-0.7,0.5-1.5,1-2.4,1
	c-0.2,0-0.5,0.1-0.7,0.2c-0.6,0.3-1.1,0.3-1.7,0.3c-0.1,0-0.3-0.1-0.4,0c-1.2,0.5-2.3,0-3.4-0.1c-0.5,0-1.1-0.4-1.6-0.7
	c-0.3-0.2-0.7-0.4-1.1-0.5c-0.5-0.2-1-0.4-1.4-0.9c-0.5-0.6-1.1-1-1.7-1.3c-0.4-0.2-0.7-0.5-0.9-0.9c-0.5-1.1-1.3-2.1-1.7-3.2
	c-0.2-0.6-0.7-1.1-1-1.7c-0.6-1.3-1.2-2.6-1.8-3.9c-0.7-1.7-1.3-3.3-1.9-5c-0.4-1.2-0.8-2.5-0.9-3.8c0-0.5-0.3-1.1-0.4-1.6
	s-0.1-1.1-0.2-1.7c0-0.2-0.1-0.3-0.1-0.5c-0.5-1.1-0.6-2.2-0.8-3.3c-0.1-0.6-0.2-1.2-0.2-1.8c0-0.5,0.1-1.1,0-1.7
	c-0.1-1.3-0.2-2.5-0.3-3.8c-0.1-0.6,0-1.2,0.2-1.8c0.1-0.5,0.2-1.1,0.1-1.6c0-0.1-0.1-0.2-0.1-0.2c0.3-1.3,0.2-2.6,0.3-3.9
	c0-0.3,0.1-0.5,0.1-0.8c0-0.8,0.1-1.5,0.4-2.2c0.1-0.2,0-0.4,0.1-0.6c0.1-0.8,0.2-1.6,0.3-2.4c0-0.2,0-0.4,0.1-0.6
	c0.6-0.8,0.5-1.7,0.6-2.5c0.1-0.9,0.2-1.7,0.4-2.6c0.1-0.4,0.1-0.7,0.1-1c0-0.9,0.5-1.8,0.2-2.7c0-0.1,0-0.2,0.1-0.3
	c0.6-1.7,1-3.5,1.5-5.3c0.2-0.8,0.3-1.6,0.7-2.4c0.2-0.4,0.3-0.9,0.4-1.4c0.2-0.5,0.3-1.1,0.5-1.6c0-0.2,0.1-0.3,0.1-0.5
	c0.2-1.5,0.9-2.8,1.3-4.2c0.3-1.1,0.8-2.1,1.3-3.1c0.4-0.8,0.7-1.7,1.1-2.5c0.1-0.3,0.3-0.7,0.5-1c0.3-0.5,0.5-1,0.6-1.5
	s0.2-0.9,0.4-1.4c0.2-0.5,0.3-1,0.1-1.5c0.3-0.2,0.5-0.3,0.7-0.4c0.4-0.2,0.5-0.5,0.7-0.8c0.3-0.7,0.6-1.3,0.9-1.9
	c0.4-0.9,0.8-1.9,1.2-2.8c0.3-0.6,0.6-1.2,1-1.8c0.3-0.4,0.5-0.8,0.6-1.3c0.1-0.4,0.3-0.8,0.5-1.2c0.6-0.9,1.1-1.7,1.1-2.8
	c0-0.2,0.1-0.4,0.2-0.5c0.2-0.4,0.4-0.8,0.6-1.2c0.1-0.1,0.1-0.3,0.2-0.4c0.5-0.5,0.8-1.1,1-1.7c0.4-1,0.9-1.9,1.4-2.9
	c0.5-0.9,1.2-1.7,1.7-2.6c0.5-0.8,1.1-1.6,1.5-2.4c0.5-1,1.2-1.8,1.9-2.7c0.4-0.6,0.9-1.1,1.3-1.7c0.2-0.3,0.4-0.7,0.6-1
	c-0.5-1.1-0.8-2.3-1.4-3.3c-0.8-1.4-1.4-2.9-2.2-4.4c-0.5-0.9-0.9-1.8-1.3-2.7c-0.5-1-1.1-1.9-1.6-2.9c-0.7-1.3-1.5-2.6-1.9-4.1
	c0-0.2-0.1-0.3-0.2-0.4c-1-1.5-1.7-3.1-2.4-4.8c-0.4-1-1-1.9-1.5-2.9c-0.3-0.6-0.6-1.3-0.9-1.9c-0.6-1.2-1.1-2.4-1.7-3.6
	c-0.3-0.7-0.7-1.3-1.1-2c-0.3-0.4-0.6-0.8-0.7-1.4c0-0.1-0.2-0.3-0.2-0.4c-0.6-0.9-1.2-1.9-1.8-2.8c-0.9-1.4-1.6-2.8-2.4-4.3
	c-0.6-1-1.1-1.9-1.5-3c-0.3-0.8-0.7-1.5-1.2-2.2c-0.6-0.9-1.4-1.7-1.7-2.8c-0.1-0.2-0.2-0.5-0.4-0.6c-0.5-0.5-0.8-1.2-1.2-1.8
	c-0.3-0.4-0.2-1-0.7-1.3c-0.4-0.3-0.6-0.7-0.9-1.1c-0.4-0.4-0.5-0.8-0.2-1.3c0.1-0.2,0.2-0.5,0.2-0.8c0-0.5,0.2-0.9,0.7-1.1
	c0.7-0.3,1.2-0.9,1.7-1.4c0.5-0.5,1-0.9,1.5-1.3c0.6-0.4,1.2-0.9,1.7-1.5c0.7-0.7,1.5-1.3,2.3-1.9c0.5-0.4,0.9-0.8,1.3-1.2
	c0.1-0.1,0.1-0.2,0.2-0.3c1.2-0.6,1.9-1.7,2.9-2.5c0.9-0.8,1.7-1.5,2.6-2.2c0.3-0.3,0.7-0.4,1.1-0.2c0.2,0.1,0.4,0.1,0.6,0.2
	c0.4,0.5,0.5,1.2,1.1,1.6c0.2,0.1,0.2,0.4,0.2,0.7c-0.1,0.6-0.1,1.3,0.2,1.9c0.5,1.2,0.6,2.5,0.9,3.7c0.1,0.2,0.1,0.5,0.2,0.7
	c0.4,1.1,0.6,2.3,1.1,3.4c0.5,1.2,0.7,2.5,1.5,3.5l0.1,0.1c-0.1,0.9,0.6,1.5,0.8,2.3s0.4,1.5,0.6,2.3c0.1,0.5,0.3,1,0.5,1.5
	c0.6,1.2,1,2.4,1.3,3.7c0.1,0.3,0.2,0.6,0.4,0.9c0.2,0.4,0.5,0.9,0.5,1.3c0,0.6,0.5,0.9,0.5,1.4s0.3,0.9,0.4,1.4
	c0,0.2,0,0.3,0.1,0.5c0.5,0.8,0.6,1.7,1,2.6c0.6,1.3,1,2.7,1.3,4.1c0.1,0.4,0.4,0.7,0.4,1.1c0.1,0.4,0.2,0.8,0.5,1.1
	c0.2,0.2,0.3,0.5,0.3,0.8c0.2,1.1,0.7,2,1.2,3c0.2,0.4,0.5,0.9,0.6,1.3c0.2,1.6,0.9,3,1.1,4.6c0.1,0.7,0.5,1.3,0.6,1.9
	c0.4,1.8,1.1,3.6,1.8,5.3c0.1,0.3,0.2,0.7,0.3,1c0.1,0.2,0.3,0.4,0.5,0.7c0.2-0.2,0.3-0.4,0.4-0.5c0.7-0.9,1.4-1.7,1.9-2.7
	c0-0.1,0.1-0.2,0.1-0.2c1-0.7,1.6-1.9,2.4-2.8c0.6-0.7,1.1-1.4,1.7-2.1c0.3-0.4,0.7-0.7,1.1-1.1c0.4-0.3,0.6-0.8,0.9-1.2
	c0.5-0.6,1-1.2,1.5-1.8c1.2-1.5,2.5-2.9,3.9-4.3c0.1-0.1,0.3-0.2,0.5-0.4c0.7-0.6,1.3-1.2,1.9-2c0.5-0.7,1.2-1.2,1.9-1.8
	c0.1-0.1,0.3-0.2,0.4-0.3c0.4-0.9,1.3-1.3,1.9-2.1c0.1-0.2,0.3-0.3,0.4-0.4c1-0.5,1.6-1.4,2.4-2.1c1.2-1.1,2.6-2,3.6-3.2
	c0.6-0.3,0.9-0.8,1.2-1.4c0-0.1,0.1-0.2,0.2-0.3c1.6-1.3,2.4-2.1,3.3-3.5c0.1-0.1,0.1-0.3,0.2-0.3c0.7-0.2,1-0.8,1.3-1.3
	c0.7-1.1,1.9-1.4,3-1.9c0.7,0.1,1.4-0.2,2.1,0.2c0.3,0.2,0.6,0.3,0.9,0.4c0.5,0.2,1,0.4,1.3,0.9c0.6,0.9,1.6,1.3,2.1,2.2
	c0.7,0.4,1.1,1.1,1.6,1.7c0.3,0.3,0.6,0.6,1,0.9c0.7,0.6,1.4,1.2,1.7,2.1c0.1,0.1,0.2,0.3,0.3,0.4c0.5,0.7,1,1.4,1.3,2.3
	c0.4,1.3,1.3,2.4,1.7,3.8c0.6,0.7,0.8,1.6,1.3,2.4c0.4,0.6,0.6,1.4,0.9,2.1c0.6,1.5,0.7,3.1,1.4,4.6c-0.1,1.1,0.5,2,0.6,3
	s0.4,2,0.7,3c0.4,0.1,0.5-0.1,0.6-0.3c0.6-1.1,1.2-2.2,1.6-3.4c0.1-0.2,0.2-0.5,0.2-0.7c0-0.4,0.1-0.7,0.3-1
	c0.1-0.2,0.2-0.4,0.2-0.6c0.2-1.6,0.8-3.1,0.9-4.7c0-0.4,0.2-0.8,0.3-1.1c0.3-1.2,0.6-2.5,1-3.7c0.5-1.2,0.7-2.4,0.9-3.7
	c0-0.3,0.1-0.6,0.2-0.9c0.4-1.6,0.6-3.2,1.1-4.7c0.1-0.2,0-0.4,0-0.6s0-0.5,0.1-0.7c0.5-1.5,0.7-3.1,0.8-4.7c0.1-1,0.3-2,0.1-3.1
	c0-0.1,0-0.3,0.1-0.4c0.1-0.2,0.2-0.4,0.1-0.7c-0.2-0.6,0.2-0.9,0.6-1.2c0.6-0.4,1.3-0.4,1.9-0.5c0.6,0,1.3,0,1.9-0.1
	c0.4-0.1,0.9,0.1,1.4,0.2c0.1,0,0.3,0.3,0.4,0.4c0.1,0.2,0.1,0.4,0.2,0.6c-0.5,0.9-0.7,1.8-0.7,2.9c-0.1,1.1-0.1,2.1-0.2,3.2
	c-0.1,0.9-0.3,1.7-0.4,2.6c-0.1,0.5-0.3,1-0.2,1.5c0,0.1,0,0.2,0,0.3c-0.3,0.6-0.3,1.2-0.3,1.9c0,0.4-0.1,0.8-0.1,1.2
	c0,2-0.1,4.1-0.1,6.1c0,0.9,0.3,1.9,0.1,2.8c-0.1,0.4,0.3,0.8,0.1,1.2c0.2,1.1-0.4,2.1,0,3.2c-0.1,0.3-0.1,0.7-0.1,1
	c-0.2,1.2,0,2.4,0,3.6c0,0.3,0.2,0.6,0.4,1c-0.6,1.5-0.2,3.1-0.1,4.6c0.1,0.7,0.3,1.5,0.2,2.2c0,0.2,0.1,0.5,0.2,0.7
	c0.1,0.3,0.3,0.5,0.2,0.8c-0.1,1.6,0.4,3.2,0.2,4.7c0,0.3,0.1,0.5,0.1,0.8c0.1,0.6,0.3,1.3,0.3,1.9c-0.1,0.7,0,1.3,0.1,1.9
	c0,0.6,0.1,1.2,0.1,1.8c-0.1,1,0.3,2,0.1,3.1c0.3,0.7,0.1,1.5,0.2,2.2c0,0.5,0.2,1,0.3,1.5c0.4,1.4,1.1,2.6,1.5,4
	c0.2,0.6,0.7,1.2,1,1.8c0.6,1.2,1.6,1.9,2.8,2.3c0.1,0.4,0.2,0.8,0.7,0.9c0.3,0.1,0.6,0.3,1,0.4c0.5-0.4,1.1-0.7,1.6-1.1
	c0.3-0.3,0.6-0.6,0.9-0.9c0.4-0.4,0.6-1.1,1.1-1.4c0.2-0.1,1.3-2.4,1.3-2.7c0.1-1,0.6-1.9,0.9-2.8c0.1-0.4,0.2-0.8,0.3-1.3
	c0-0.2,0-0.3,0.1-0.5c0.5-1.1,0.5-2.2,0.7-3.4c0.1-0.7,0.2-1.3,0.4-2c0.1-0.6,0.2-1.2,0.2-1.8c0-0.5,0.4-1,0.4-1.5
	c0.1-1,0.5-2,0.3-3.1c-0.1-0.3,0.1-0.6,0.1-0.9c0.1-0.8,0.1-1.5,0.2-2.3c0.1-0.8,0.3-1.6,0.4-2.3c0-0.2,0.1-0.3,0.1-0.5
	c-0.1-1.5,0.3-2.9,0.5-4.4c0.2-1.8,0.4-3.6,0.2-5.5c-0.1-0.6-0.1-1.2,0.1-1.7c0.1-0.4,0-0.8,0-1.2c0-1.3,0.3-2.5,0.1-3.8
	c0.4-1.3,0.1-2.7-0.1-4c-0.1-0.9-0.1-1.7-0.2-2.6c-0.2-0.8-0.2-1.7-0.2-2.5c0-0.1-0.1-0.2,0-0.4c0.3-1.8-0.1-3.5-0.3-5.2
	c-0.1-0.6,0.1-1.2,0.1-1.7c0.5-0.3,0.8-0.6,1.4-0.2c0.2,0.2,0.5,0.1,0.8-0.1c0.3-0.2,0.5-0.3,0.8-0.5c0.3-0.2,0.7-0.3,1.1-0.3
	c0.5,0,1,0,1.3-0.5c0,0,0.1,0,0.2-0.1c0.7-0.2,1.6-0.2,2.3-0.6c0.1-0.1,0.3,0,0.5,0c0.4,0.1,0.6,0.4,0.5,0.8
	c-0.4,1.1-0.6,2.2-0.6,3.2s-0.1,1.9-0.2,2.8c-0.1,1.4-0.2,2.8-0.4,4.1c-0.2,1-0.2,2-0.1,3.1c0.1,1.4,0.2,2.9-0.1,4.3
	c0,0.1,0,0.2,0,0.2c0.3,1.7,0,3.3,0.2,5c0.1,0.8-0.3,1.5-0.1,2.4c0.2,0.7,0.2,1.5,0.3,2.2c0.1,1.1,0.2,2.1,0.3,3.2
	c0.1,0.5,0.2,1.1,0.2,1.6c0.1,1,0.2,2,0.3,3.1c0,0.7,0,1.3,0.1,2c0.1,0.5-0.1,1,0.1,1.5c0.2,0.5-0.1,1.1,0.1,1.6
	c0.2,0.5-0.1,1,0.1,1.5c0,0.1,0,0.2,0,0.2c-0.3,0.9,0,1.8,0.2,2.7c0.4,1.5,0.5,3,0.8,4.6c0.1,0.9,0.2,1.9,0.5,2.8
	c0.1,0.4,0.2,0.8,0.1,1.3c-0.2,0.6-0.1,1.2,0,1.8c0.2,0.9,0.3,1.9,0.4,2.8c0,0.3,0.1,0.6,0,0.9c-0.1,0.1-0.1,0.4,0,0.5
	c0.3,0.4,0.1,0.8,0.1,1.3c0.1,1.1,0.1,2.1,0.3,3.2c-0.2,1.2,0.2,2.4,0,3.6c-0.1,0.7,0,1.4,0.2,2.1c0.2,1,0.3,2,0.4,2.9
	c0.1,0.6,0.2,1.3,0.2,1.9c0,0.2,0.1,0.4,0,0.6c-0.3,0.7-0.2,1.3,0,2c0.1,0.4,0.1,0.7,0,1c-0.2,0.7-0.1,1.4,0.1,2
	c0.3,0.7,0.2,1.3,0.1,2c-0.1,1,0,2,0,2.9c0,0.5,0.1,0.9,0,1.4c0,0.3,0,0.7,0.1,1.1c0.2,0.8,0.2,1.6,0,2.4c-0.1,0.5-0.1,0.9,0,1.4
	c0.5,0.1,1-0.2,1.3-0.5c0.6-0.6,1.3-0.9,2-1.3c1.3-0.8,2.7-1.4,4-2.2c0.4-0.3,0.9-0.3,1.3-0.5c0.7-0.3,1.4-0.6,2.1-0.9
	c1.3-0.5,2.7-0.9,4.1-1.4c1.2-0.4,2.4-0.9,3.5-1.5c0.3-0.1,0.5-0.3,0.8-0.3c0.9-0.2,1.7-0.6,2.5-1.1c0.2-0.1,0.4-0.2,0.7-0.2
	c0.8-0.3,1.6-0.4,2.2-0.8c0.7-0.4,1.3-0.5,2-0.6c0.6-0.1,1.2-0.2,1.8-0.4s1.2-0.4,1.9-0.2c0.5,0.1,0.7-0.4,1.2-0.3
	c0.4,0.1,0.9,0,1.3-0.1c0.9-0.1,1.8-0.4,2.7-0.5c0.5-0.1,1.1,0.1,1.6,0.2c0.7,0.1,1.3,0.1,2,0.1c1.2-0.1,2.4-0.1,3.6,0.3
	c0.3,0.1,0.5,0.1,0.8,0.1c1.2,0.1,2.4,0.3,3.5,0.5c1.4,0.3,2.9,0.5,4.3,1c1.8,0.6,3.6,1.1,5.5,1.2c0.2,0,0.5,0,0.7,0.1
	c0.9,0.4,1.9,0.6,2.8,1c1.1,0.5,2.1,1.1,2.9,1.8c0.2,0.2,0.4,0.4,0.5,0.6c0.3,0.6,0.7,1.1,1.3,1.5c0.1,0.7,0.3,1.3,0.7,1.8
	c0.4,0.6,0.9,1.2,1.1,2c0.1,0.2,0.3,0.4,0.3,0.6c0.1,0.4,0.3,0.7,0.4,1.1c0.3,0.9,0.2,1,1.1,1.1c0.7,0.1,1.3,0.2,2-0.1
	c0.1,0,0.2-0.1,0.3,0c0.9,0.3,1.8,0.2,2.7,0.3c0.8,0.1,1.6,0.3,2.4,0.6c0.9,0.3,1.8,0.7,2.7,1c0.2,0.1,0.5,0.2,0.7,0.2
	c0.5,0,0.8,0.2,1.3,0.3c1.1,0.2,2,1,3.1,1.1c0.6,0.5,1.5,0.2,2.2,0.5c0.8,0.4,1.8,0.5,2.6,0.9c0.9,0.4,1.8,0.9,2.7,1.3
	c0.6,0.3,1.2,0.5,1.8,0.7c1.2,0.3,2.3,0.8,3.3,1.6c0.4,0.4,1,0.7,1.4,1.1c0.1,0.1,0.3,0.2,0.4,0.2c0.8,0.1,1.3,0.6,1.9,0.9
	c0.2,0.1,0.3,0.2,0.4,0.4c0.2,0.5,0.6,0.8,1,1.1c0.6,0.5,1,1,1.5,1.5c0.6,0.7,1.1,1.6,1.9,2.1c0.2,0.1,0.3,0.4,0.5,0.7
	c0.7,1.4,1.4,2.8,1.7,4.4c0.7,0.1,1.4,0.4,2.2,0.5c0.5,0,0.9,0.3,1.3,0.5s0.9,0.4,1.3,0.7c0.1,0.1,0.2,0.2,0.2,0.2
	c0,0.6,0.6,0.6,0.8,0.9c0.9,0.3,1.3,1.2,1.8,1.8c0.3,0.3,0.4,0.8,0.7,1.1c0.3,0.3,0.2,0.9,0.7,1.2c0.3,0.3,0.4,0.8,0.6,1.3
	c0,0.1,0,0.2,0,0.3c-0.2,0.1-0.5,0.2-0.8,0.4c-0.1-0.2-0.3-0.3-0.4-0.5c-0.2-0.4-0.4-0.7-0.7-1.1c-0.1-0.2-0.3-0.4-0.4-0.6
	c-0.6-1.1-1.5-1.7-2.5-2.3c-0.7-0.4-1.4-0.8-2.1-1.2c-0.8-0.5-1.8-0.7-2.7-0.9c-0.4,0.3-0.4,0.6-0.5,1c-0.1,0.5-0.3,1-0.7,1.3
	c-0.2,0.2-0.3,0.4-0.4,0.7c-0.1,0.3-0.3,0.5-0.6,0.5c-1,0.2-1.9,0-2.6-0.9c-0.6-0.7-0.6-1.9-0.1-2.7c0.1-0.1,0.2-0.2,0.2-0.3
	c0.2-0.7,0.7-1.1,1.3-1.5c0.2-0.1,0.3-0.3,0.5-0.4c-0.1-0.2-0.2-0.4-0.4-0.5c-0.9-1-1.8-2-2.7-3c-0.5-0.5-1-1-1.7-1.3
	c-0.3-0.1-0.6-0.3-0.7-0.6c-0.8-1.1-2.1-1.7-3-2.7c-0.6-0.2-1.2-0.5-1.7-0.8c-0.7-0.3-1.4-0.6-2-1.1c-0.5-0.5-1.2-0.7-1.8-1.1
	c-0.2-0.1-0.4-0.2-0.6-0.2c-0.3,0-0.5-0.1-0.6-0.3c-0.1-0.1-0.2-0.2-0.3-0.2c-0.7,0-1.2-0.6-1.8-0.9c-0.6-0.2-1.1-0.6-1.7-0.8
	c-0.9-0.3-1.7-0.7-2.5-1.1c-0.4-0.2-0.9-0.1-1.4-0.3c-0.2-0.1-0.4-0.1-0.6-0.3c-0.1-0.1-0.3-0.2-0.5-0.2c-0.7,0-1-0.1-1.7-0.4
	s-1.3-0.7-2.1-0.6c-0.2,0-0.4-0.1-0.5-0.2c-0.8-0.9-1.9-1-2.9-1c-0.5,0-1,0-1.5-0.3c-0.2-0.1-0.5-0.2-0.8,0c-0.1,0.1-0.3,0.1-0.5,0
	c-0.8-0.2-1.5,0.2-2.2,0.6c0,0.2,0,0.3,0,0.5c0.1,0.7,0.1,1.5-0.2,2.1c-0.3,0.7-0.1,1.4-0.3,2.1c-0.2,0.6-0.2,1.3-0.4,2
	c-0.1,0.5-0.2,1.1-0.4,1.6c0,0.1-0.1,0.3-0.2,0.4c-0.5,0.3-0.6,0.9-1,1.3c-0.1,0.1-0.2,0.2-0.2,0.3c0.1,0.4-0.1,0.5-0.3,0.7
	c-1,0.7-2.1,1.2-3.2,1.8c-0.1,0.1-0.3,0.1-0.4,0.2c-0.5,0.6-1.1,0.4-1.7,0.3c-0.6-0.2-1.1-0.1-1.7,0c-0.5-0.4-1-0.9-1.6-1.1
	c-0.1,0-0.3-0.2-0.3-0.3c-0.2-0.5-0.7-0.9-1-1.3c-0.2-0.5-0.5-0.9-0.7-1.4c0.2-0.3,0.4-0.5,0.2-0.8c-0.3-0.6-0.2-1.2-0.1-1.9
	c0.1-0.3,0.1-0.6,0.1-0.9c0-0.9,0.4-1.5,1.1-2.1c0.4-0.3,0.9-0.6,1-1.2c0-0.1,0.1-0.1,0.2-0.2c1.2-1.1,2.2-2.4,3.5-3.4
	c0.3-0.2,0.6-0.5,0.9-0.8c0.3-0.3,0.6-0.5,1-0.6c0.3,0,0.7-0.2,1-0.4c-0.1-0.9-0.2-1.7-0.8-2.3c-0.2-0.2-0.5-0.5-0.5-0.8
	c-0.1-0.7-0.7-1.1-1-1.6c-0.1-0.1-0.3-0.2-0.3-0.4c-0.1-0.6-0.6-0.8-1-1.2c-0.3-0.3-0.6-0.5-0.8-0.8c-0.3-0.4-0.7-0.8-1.1-1.2
	c-0.2-0.2-0.5-0.4-0.8-0.4c-0.8,0-1.5-0.4-2.3-0.5c-0.7-0.1-1.5-0.2-2.1-0.7c-0.2-0.1-0.4-0.2-0.7-0.2c-1.4-0.3-2.9-0.6-4.4-0.6
	c-1,0-1.9-0.1-2.9-0.1c-0.5,0-1-0.1-1.5,0.2c-0.1,0-0.2,0.1-0.2,0.1c-2-0.1-3.9,0.5-5.9,0.4c-1.7,0.4-3.5,0.3-5.2,0.8
	c-0.5,0.1-1,0.1-1.4,0.3s-0.8,0.2-1.3,0.2c-0.8,0.2-1.6,0.4-2.3,0.6c-1.3,0.4-2.6,0.8-3.9,1.2c-1.3,0.4-2.5,0.7-3.8,1
	c-1.3,0.4-2.6,0.7-3.8,1.2c-0.3,0.1-0.6,0.2-0.9,0.4c-1.3,0.6-2.6,1.3-3.9,1.9c-0.3,0.2-0.6,0.3-0.9,0.5c-0.6,0.3-1.1,0.7-1.8,0.9
	c-0.3,0.1-0.6,0.2-0.9,0.4c-0.6,0.4-1.3,0.7-2.1,0.9c-0.1,0-0.3,0-0.3,0.1c-0.6,0.6-1.4,0.9-2.1,1.2c-0.4,0.2-0.7,0.4-1,0.6
	c-0.4,0.3-0.8,0.5-1.2,0.8c-0.1,0.1-0.3,0.2-0.3,0.4c-0.1,0.7-0.6,1.4-0.5,2.2c0.1,0.4,0,0.8-0.1,1.2c-0.1,0.6-0.1,1.3,0.1,1.9
	c0.1,0.6-0.1,1.1-0.2,1.7c0,0.5-0.3,1,0,1.5c0,0.1,0,0.2,0,0.3c-0.3,1-0.2,2.1-0.1,3.2c0.1,1.1,0,2.2,0,3.3c0,0.6-0.1,1.1-0.1,1.7
	c-0.1,1.5-0.2,3.1-0.3,4.6c0,0.3,0,0.6-0.1,0.8c-0.2,0.7-0.2,1.4-0.3,2.1c0,0.7-0.2,1.4-0.3,2.1c-0.1,1.6-0.5,3.1-0.9,4.6
	c-0.2,0.6-0.3,1.2-0.3,1.9c0,0.6-0.1,1.2-0.5,1.7c-0.1,0.1-0.1,0.3-0.1,0.4c-0.2,1.3-0.6,2.5-1.1,3.7c-0.7,1.7-1.2,3.4-1.9,5
	c-0.1,0.2-0.2,0.3-0.3,0.5c-0.2,0.4-0.5,0.7-0.5,1.1c-0.2,0.9-0.7,1.7-0.9,2.6c-0.2,0.9-0.5,1.7-0.8,2.5c-0.5,1.1-1,2.2-1.5,3.3
	c-0.4,0.8-0.8,1.4-1,2.3c-0.1,0.6-0.5,1.2-0.8,1.7c-0.9,1.5-1.7,3.1-2.7,4.5c-0.3,0.4-0.6,0.9-0.8,1.5c-0.4,0.9-1.2,1.4-1.8,2.1
	c-1.1,0.2-1.7,1.1-2.5,1.7c-1.3,0.9-2.8,1.6-4.1,2.4c-0.3,0.2-0.9,0.2-1.3,0.1c-0.7-0.1-1.3,0.1-2,0.2c-0.2,0-0.3,0.1-0.5,0.1
	c-1.4-0.3-2.9-0.3-4.3-0.9c-1.2-0.5-1.9-1.4-2.7-2.3c-0.3-0.3-0.6-0.6-0.9-1c-0.2-0.3-0.3-0.7-0.4-1.1c-0.1-0.1-0.1-0.3-0.2-0.4
	c-0.3-0.5-0.5-0.9-0.5-1.5c-0.1-0.8-0.3-1.6-0.6-2.4c-0.3-0.9-0.3-1.9-0.3-2.8c0-0.8,0.1-1.6,0.1-2.4c0-0.9,0.3-1.8,0.4-2.7
	c0.2-1.3,0.5-2.6,0.8-3.9c0.2-1,0.4-2,0.7-3c0.1-0.5,0.3-1,0.6-1.4c0.4-0.8,0.5-1.6,0.9-2.4c0.2-0.4,0.4-0.8,0.2-1.3
	c-0.2-0.3,0-0.6,0.1-0.9c0.3-0.7,0.7-1.3,1-2c0.7-1.8,1.6-3.5,2.3-5.3c0.2-0.7,0.6-1.3,1-1.9c0.5-0.7,0.8-1.5,1.2-2.3
	c0.7-1.5,1.4-2.9,2.3-4.3c0.5-0.8,1-1.6,1.5-2.4c1-1.6,1.9-3.3,3.1-4.8c0.4-0.6,0.8-1.2,1.3-1.7c0.1-0.1,0.2-0.2,0.3-0.4
	c0.6-1.1,1.4-2,2.2-2.9c0.1-0.1,0.1-0.1,0.1-0.2c0.3-1,1.2-1.7,1.7-2.6c0.2-0.5,0.7-0.6,0.9-1s0.4-0.8,0.9-0.9
	c0.1,0,0.1-0.1,0.2-0.2c0.4-1,1.3-1.6,1.8-2.5c0.1-0.2,0.4-0.4,0.6-0.6c0.2-0.2,0.5-0.3,0.5-0.7c0-0.1,0.1-0.3,0.2-0.3
	c0.6,0,0.5-0.6,0.7-0.9c0.2-0.3,0.4-0.6,0.8-0.9c0.3-0.2,0.6-0.5,0.9-0.8c0.7-0.5,0.9-1.2,0.9-2.1s0.1-1.7,0.1-2.6
	c0-0.4,0.1-0.8,0.1-1.2c0-0.7,0-1.3,0.3-1.9c0.3-0.6,0.3-1.3,0.4-2c0-0.2-0.1-0.5-0.2-0.7c-0.1-0.2-0.2-0.4,0-0.7
	c0-0.1,0.1-0.2,0.1-0.2c-0.2-1,0.2-2.1,0-3.1c-0.1-0.3,0-0.6,0.1-0.9c0-0.6,0.2-1.2,0-1.6c-0.2-0.5,0.1-1-0.1-1.5
	c-0.1-0.5,0.3-1,0.1-1.5v-0.1c-0.1-1.6-0.2-3.2-0.3-4.8c0-0.4-0.1-0.8,0-1.2s0.1-0.9,0.1-1.4c-0.1-0.8-0.2-1.6-0.1-2.5
	c0-0.2,0-0.4,0-0.6c-0.2-0.7,0-1.3,0-2c0-0.6,0-1.2,0-1.8c-0.1-0.8-0.2-1.6-0.3-2.4c-0.1-0.6,0-1.1-0.1-1.7
	c-0.1-0.9-0.2-1.7-0.3-2.6c-0.1-0.7-0.1-1.5-0.3-2.2c-0.1-0.2,0.1-0.5,0.1-0.8C92.8,303.3,93,302.9,92.5,302.5z M-20.9,369.5
	c-0.4,0.2-0.5,0.5-0.4,0.9c0.2,0.4,0.2,0.8,0.2,1.3c0,0.3,0,0.6,0,1c0,0.3,0.3,0.5,0.3,0.8c0,0.9,0.2,1.8,0.6,2.7
	c0.3,0.8,0.2,1.6,0.8,2.3c0,0.1,0.1,0.1,0.1,0.2c0.1,1,0.5,1.8,0.8,2.7c0.3,0.7,0.6,1.3,0.9,2c0.5,1,1.3,1.9,1.9,2.9
	c0.5,0.8,1.1,1.4,1.8,2.1c0.7,0.7,1.6,1,2.6,1.1c0.9,0.1,1.7-0.2,2.6,0c0.1,0,0.3,0,0.5-0.1c0.9-0.4,1.9-0.8,2.7-1.3
	c1.3-0.9,2.7-1.7,3.9-2.8c0.9-0.8,1.7-1.7,2.5-2.6c0.1-0.1,0.2-0.2,0.2-0.3c0.3-0.6,0.6-1.2,0.9-1.8c0.1-0.2,0.2-0.4,0.3-0.6
	c0.5-0.7,0.9-1.5,1-2.2c0.4-1.8,1.4-3.4,1.6-5.2v-0.1c0.3-1,0.8-1.9,1-2.9c0.2-0.9,0.4-1.7,0.5-2.6c0-0.3,0-0.6,0.1-0.8
	c0.4-1,0.7-2.1,1-3.2c0.2-0.7,0.5-1.4,0.6-2.2c0.2-1,0.3-1.9,0.5-2.9c0.2-0.9,0.3-1.9,0.6-2.8c0.1-0.5,0.2-1,0.1-1.4
	c-0.2-0.8-0.1-1.6-0.1-2.5c0-1.3-0.1-2.7-0.1-4c0-0.7-0.1-1.3-0.2-2c-0.1-1.4-0.1-2.8-0.3-4.1c-0.1-0.5-0.2-0.9-0.2-1.4
	c0-1.2-0.2-2.4-0.4-3.5c-0.2-0.9-0.3-1.8-0.4-2.7c0-0.3-0.1-0.6-0.1-0.8c-0.5-1.4-0.7-2.9-1.1-4.4c-0.7-2.5-1.5-5-2.6-7.3
	c-0.1-0.2-0.1-0.4-0.2-0.6c-0.4-1.1-0.7-2.2-1.1-3.3c-0.4-1-0.8-2-1.2-3c-0.3-0.6-0.5-1.2-0.8-1.8c-0.9-2.5-1.9-5-3.3-7.3
	c-0.2,0.3-0.4,0.5-0.6,0.8c-0.2,0.3-0.3,0.6-0.4,0.8c-0.2,0.3-0.4,0.6-0.7,0.9c-0.1,0.1-0.1,0.2-0.1,0.3c0.1,0.4-0.2,0.7-0.4,0.9
	c-0.1,0.1-0.3,0.3-0.4,0.5c-0.1,0.9-0.6,1.5-1,2.3c-0.3,0.6-0.7,1.1-0.9,1.6s-0.6,1-0.9,1.5c-0.1,0.1-0.2,0.2-0.3,0.4
	c-0.5,1-0.9,2.1-1.4,3.1c-0.4,0.7-0.7,1.4-0.7,2.2c-1,0.5-1.3,1.3-1.6,2.2c-0.2,0.6-0.4,1.1-0.7,1.6c-0.2,0.2-0.3,0.5-0.3,0.8
	c-0.1,0.3,0,0.6-0.3,0.9c-0.3,0.2-0.1,0.7-0.5,0.9c-0.5,0.9-1.3,1.6-1.4,2.7c0,0.3-0.2,0.5-0.3,0.8c-0.6,1.4-0.9,2.9-1.3,4.4
	c-0.2,0.8-0.3,1.6-0.6,2.4c-0.3,0.7-0.2,1.6-0.7,2.2v0.2c-0.1,0.7-0.1,1.4-0.2,2.1c-0.1,0.8-0.4,1.5-0.8,2.2c-0.3,0.5-0.3,1-0.2,1.5
	c0,0.3,0.1,0.6,0.1,0.8c-0.2,1-0.4,2-0.4,3.1c0,0.6-0.2,1.1-0.2,1.7c0,0.7-0.1,1.4-0.3,2.1c-0.3,1-0.4,2-0.2,3
	c0.2,1.5-0.2,3.1-0.5,4.6c-0.1,0.8,0,1.6-0.3,2.4c0,0.1,0,0.2,0,0.2c0.3,0.5,0.1,1.1,0,1.6c0,0.6-0.2,1.3,0,1.9
	c0.1,0.3,0.1,0.7,0.1,1.1C-21.6,368.3-21.4,368.8-20.9,369.5z M89.2,359.4c-0.8,0.2-1.2,0.7-1.4,1.4c-0.4,1.1-0.6,1.4-1.5,2.3
	c-0.4,0.4-0.6,0.9-1,1.3c-0.5,0.5-0.8,1.2-1.1,1.9c-0.1,0.3-0.2,0.5-0.3,0.8c-0.5,1.5-1.6,2.6-2.1,4.1c-0.1,0.3-0.4,0.5-0.6,0.8
	c-0.1,0.1-0.3,0.3-0.3,0.4c0.1,0.5-0.2,0.7-0.5,1c-0.1,0.2-0.3,0.3-0.3,0.5c-0.3,1.2-1.2,2.1-1.3,3.3c0,0.1-0.2,0.3-0.2,0.4
	c-0.4,0.8-1,1.5-1.3,2.4c-0.3,0.7-0.5,1.5-0.9,2.2c-0.1,0.2-0.1,0.5-0.2,0.7c-0.2,0.9-0.4,1.9-0.7,2.8c-0.2,0.7-0.1,1.4-0.5,2.1
	c0,0.1,0,0.2,0,0.3c0,0.3,0,0.6,0,0.9c0,0.4-0.1,0.9,0,1.3c0,0.5,0.2,1.1,0,1.6c-0.1,0.1,0,0.4,0.1,0.6c0.2,0.6,0.5,1.1,0.9,1.5
	c0.1,0.1,0.3,0.3,0.5,0.3c1,0.3,1.9,0.5,2.9,0.7c1.5,0.3,3,0.3,4.2-0.9c0.1-0.1,0.1-0.1,0.2-0.1c0.8-0.5,1.5-1,1.8-2
	c0-0.1,0.1-0.1,0.1-0.2c0.8-0.8,1.2-1.9,1.7-2.9c0.8-1.7,1.2-3.5,1.9-5.2c0.2-0.4,0.3-0.8,0.4-1.3c0.1-0.4,0.2-0.8,0.3-1.2
	c0.1-0.7,0.1-1.5,0.4-2.1c0.1-0.1,0.1-0.2,0.1-0.3c-0.2-0.5,0.3-0.9,0.1-1.4c-0.1-0.4,0.1-1,0-1.4c-0.1-0.7-0.3-1.2,0.4-1.7
	c0.1,0,0.1-0.2,0.1-0.3c-0.1-0.2,0-0.4,0.1-0.6c0.2-0.3,0.2-0.7,0.3-1c0.1-0.5,0.3-1.1,0.2-1.5c-0.2-0.6,0.1-1.1,0.1-1.6
	c0-0.6,0.1-1.2,0.1-1.8c0-1.1,0.3-2.2,0.2-3.3c0.3-0.6-0.1-1.2,0.1-1.8c0.1-0.3,0.2-0.6,0.2-0.9c0-1.2,0-2.4,0.1-3.7
	c0-0.3-0.1-0.7,0.1-1c0.1-0.4,0-0.9,0-1.4c-0.9,0.8-1.8,1.4-2.2,2.6c0,0.1-0.1,0.1-0.2,0.2C89.5,358.3,89.4,358.8,89.2,359.4z
	 M50.3,298.6c-1.5,0-3,0-4.5,0c-0.6-0.3-1-1-1.7-0.9H44c-0.5-0.5-1.2-0.5-1.7-0.9c-0.3-0.2-0.6-0.3-0.8-0.5c-0.6-0.7-1.5-1-2-1.8
	c-0.3-0.4-0.7-0.7-0.9-1.1c-0.5-0.9-1.3-1.5-1.6-2.5c-0.1-0.4-0.8-0.5-0.8-1c0.1-0.5-0.3-0.8-0.5-1.2c-0.2-0.5-0.5-0.9-0.8-1.3
	c-0.6-1.1-1-2.3-1.6-3.4c-0.5-0.9-0.8-1.8-1.1-2.7c-0.1-0.3-0.2-0.6-0.4-0.9c-0.4-0.5-0.7-1.1-0.8-1.7c0-0.1-0.2-0.2-0.3-0.4
	c-0.2,0.9-0.3,1.7-0.5,2.5c-0.4,1.3-0.4,2.6-0.7,4c-0.2,0.9-0.1,1.9-0.3,2.8c-0.2,1.1,0,2.1,0.2,3.1c0.4,1.5,0.6,3.1,1.2,4.6
	c0.1,0.1,0,0.3,0.1,0.5c0.1,0.4,0.2,0.8,0.2,1.2c0.1,0.7,0.5,1.2,0.4,1.9c0,0.1,0,0.2,0.1,0.3c0.5,1.2,0.6,2.5,0.7,3.7
	c0,0.3,0.2,0.5,0.3,0.8c0.4,1.1,0.9,2.2,1.4,3.2c0.1,0.2,0.3,0.4,0.4,0.6c0.2,0.2,0.4,0.3,0.4,0.6c0,0.4,0.4,0.2,0.5,0.4
	c-0.1,0.2-0.2,0.3-0.2,0.5c0.7,0.6,0.9,1.5,1.6,2.1c0.7,0.6,1.2,1.3,1.9,2c0.6,0,1.4-0.3,2-0.1c1.5,0.4,2.5-0.5,3.6-1.1
	c0.3-0.5,0.8-0.6,1.2-0.9c0.3-0.2,0.7-0.5,0.9-0.8c0.4-0.5,0.7-1,1-1.6c0.3-0.5,0.5-1.1,0.8-1.7c0.5-1,0.8-2.1,1.3-3.1
	c0.4-0.8,0.6-1.7,0.7-2.6c0-0.3,0.2-0.6,0.2-0.9c0-0.2,0.1-0.4,0.1-0.6C50.2,299.4,50.3,299.1,50.3,298.6z M49.9,287.7
	c0.4-1,0.4-1,0-1.9c-0.1-0.1-0.1-0.3,0-0.5c0.3-0.8,0.2-1.5,0-2.3c-0.1-0.2-0.1-0.5-0.1-0.7c-0.1-0.5-0.1-1-0.2-1.5
	c-0.2-1.3-0.5-2.6-0.5-3.9c0-0.2,0-0.5-0.3-0.6c-0.2-0.1-0.3-0.2-0.2-0.4c0.3-0.5,0.1-1-0.2-1.5c-0.4-0.6-0.5-1.4-0.7-2.1
	c-0.2-1-0.3-2-0.6-3c-0.2-0.7-0.4-1.4-0.4-2.1c0-0.1,0-0.2,0-0.2c-0.2-0.7-0.5-1.4-0.8-2.1c-0.2-0.7-0.4-1.4-1-2
	c-0.1-0.1-0.2-0.2-0.2-0.3c0-0.4-0.2-0.7-0.6-1c-0.1-0.1-0.3-0.3-0.3-0.5c-0.2-0.6-0.7-1.1-0.8-1.8c-0.1-0.4-0.3-0.8-0.6-1
	c-0.9-0.8-1.8-1.6-2.8-2.4c-0.1-0.1-0.3-0.2-0.5-0.3c-0.4-0.2-0.6-0.1-0.8,0.3c-0.3,0.6-0.5,1.3-0.8,1.9c-0.3,0.6-0.4,1.2-0.5,1.8
	c-0.2,0.8-0.4,1.6-0.5,2.4c0,1.7,0.2,3.3,0.6,5c0.3,1.1,0.6,2.2,0.9,3.3c0.1,0.4,0.3,0.8,0.4,1.2c0.1,0.3,0.3,0.6,0.3,0.9
	c0.1,0.6,0.2,1.2,0.4,1.7c0.2,0.6,0.5,1.2,0.6,1.8c0.3,2.1,1.2,3.9,2.2,5.7c0.7,1.2,1.2,2.5,2.2,3.5c0.2,0.7,0.8,1.1,1.4,1.3
	c0.7,0.3,1.5,0.6,2.2,0.9C48.4,287.7,49.1,287.9,49.9,287.7z M164.4,348.6c-1.2,1-1.8,2-2.1,3.3c-0.1,0.3,0.1,0.6,0.3,0.7
	c0.3,0.1,0.5,0.1,0.6-0.1c0.5-0.6,1.2-1,1-2C164.6,350,164.4,349.4,164.4,348.6z M204.8,367c0.2,0.6,0.2,0.6,0.7,0.8
	c0.3-0.7,0.3-0.7,0-1.5C205.2,366.5,205,366.7,204.8,367z M34,308.5C34.1,308.5,34.1,308.5,34,308.5c0-0.1-0.1-0.1-0.1-0.1
	C34,308.5,34,308.5,34,308.5C34,308.6,34,308.5,34,308.5z"/>
<path d="M420.9,181c0.2,0,0.4,0,0.7,0.1c0,0,0.1,0.1,0.1,0.2c0,0.1-0.1,0.1-0.2,0.1C421.2,181.3,421,181.4,420.9,181z"/>
<path d="M56.5,400c-0.1,0.1-0.2,0.2-0.3,0.2c-0.1,0-0.2-0.1-0.3-0.2c0.1-0.1,0.1-0.2,0.2-0.2C56.2,399.8,56.3,399.9,56.5,400z"/>
<path d="M461.5,180.1c-0.1,0-0.1,0-0.2,0.1c0,0,0-0.1-0.1-0.1C461.3,180.1,461.4,180.1,461.5,180.1
	C461.5,180,461.5,180.1,461.5,180.1z"/>
<polygon points="375.2,377.5 375.1,377.4 375.2,377.4 "/>
<path d="M381.8,256.2c-0.1,0-0.1,0-0.2,0.1c0,0,0,0-0.1-0.1C381.6,256.2,381.6,256.2,381.8,256.2
	C381.7,256.2,381.7,256.2,381.8,256.2z"/>
<path d="M202.3,216.5l-0.1,0.1c0,0-0.1,0-0.1-0.1C202.2,216.6,202.2,216.5,202.3,216.5L202.3,216.5z"/>
</svg>
