<?xml version="1.0" encoding="utf-8"?>
<!-- Generator: Adobe Illustrator 19.1.0, SVG Export Plug-In . SVG Version: 6.00 Build 0)  -->
<svg version="1.1" id="Layer_1" xmlns="http://www.w3.org/2000/svg" xmlns:xlink="http://www.w3.org/1999/xlink" x="0px" y="0px"
	 viewBox="0 0 200 170" style="enable-background:new 0 0 200 170;" xml:space="preserve">
<style type="text/css">
	.st0{fill:#FFFDF9;}
</style>
<path class="st0" d="M189.2,90.1c-4.8-3.4-9.3-7.2-14-10.9c-10.8-8.5-21.3-17.2-30.3-27.7c-5-5.9-9.2-12.7-13.4-19.1
	c-3.6-5.5-6.1-12-7.7-18.3c-0.3-1.2-0.3-5.9-2-6c-1.4-0.1-2.1,2.8-2.5,3.7c-1.9,4.4-2.7,9.7-2.9,14.5c-0.6,11.9,4.1,22.9,10.1,32.9
	c3.2,5.3,6.7,10.9,11.4,15c-5.3,1.8-11.9,1.4-17.6,2.3c-1.9,0.3-4.9,1.5-6.8,0.8c-1.9-0.7-2.7-3.3-3.7-4.8c-2.1-3-4.7-6.2-7.5-8.6
	c-4.5-4-9.8-5.9-15.4-7.8c-4.9-1.7-9.5-3.4-14.8-4c-5-0.6-10.4,0.4-15.2,1.6c-2.4,0.6-4.9,1.3-6.7,3c-2,1.9-3.9,4.4-5.3,6.8
	c-1,1.8-1.4,3.8-3.5,4.7c-3.9,1.7-8.7,1.7-12.8,3.1c-2.1,0.7-4.8,2.4-7.1,2c-2-0.4-3.4-2.5-5-3.6C12.9,67.3,9.2,66,5,65.7
	c0.8,3.2,4.9,3.1,7.6,4.4c2.1,1,3.6,2.7,5.5,4c-2.8,3.7-5.9,6.5-5.8,11.6c0.1,3.9,4.5,7.9,8.5,6.3c2.4-1,3.8-4.3,3.6-6.8
	c-0.1-1.3-0.9-3-0.3-4.3c0.5-1.2,2.1-1.8,3.2-2.3c3-1.5,6.2-2.4,9.5-2.9c1.5-0.2,4-0.7,5.3,0.2c2,1.5,1.7,5.2,3.2,7.2
	c2.2,2.9,6.4,5,10,5.1c8,0.3,10.9-9.4,7.1-15.5c-2.5-4-7.2-4.5-11.2-6.1c2.3-2.1,4.6-4.5,7.6-5.6c6-2.2,11.9-1,17.8,0.9
	c7.6,2.4,14.6,5.1,20.7,10.6c3,2.7,4.5,5.9,6.9,8.9C93.2,87.3,85,95.5,82.8,108c-1.4,7.9,5.6,18.3,14.2,17.7
	c8.7-0.6,15.5-11.4,18.1-18.9c0.8-2.2,0.1-6.3,2.1-7.9c1.4-1.2,4.2-1.1,5.9-1.2c5.1-0.3,10.1,0.8,15.1,0.6
	c-15.1,18.6-30.3,40-29.6,65.3c3.6-0.8,4.7-4.7,6.5-7.5c4.5-7.3,9.1-14,14.5-20.7c11.3-14.2,26.8-26.5,43.3-33.8
	c6.5-2.9,13.5-5.6,20.7-5.8C193.6,92.9,191.4,91.6,189.2,90.1z M17.8,87.1c1-2,1.9-3.4,3.9-4.4C21.9,86,21.7,88.9,17.8,87.1z
	 M53.2,75.5c5.6,2.7,1,9.7-2.8,5.1c-0.6-0.7-0.9-1.6-1.1-2.5c-0.3-1.3-0.3-2.5-0.1-3.8C50.5,74.6,51.9,74.9,53.2,75.5z M103.4,109.1
	c-0.7,1.5-1.5,2.9-2.5,4.2c-1.5,1.9-7.2,5.6-8,1c-0.3-1.7,0.7-3.5,1.3-5c1.9-4.3,7.1-10.5,12.3-8.7
	C105.1,103.4,104.7,106.4,103.4,109.1z"/>
</svg>
