<?xml version="1.0" encoding="utf-8"?>
<!-- Generator: Adobe Illustrator 19.1.0, SVG Export Plug-In . SVG Version: 6.00 Build 0)  -->
<svg version="1.1" xmlns="http://www.w3.org/2000/svg" xmlns:xlink="http://www.w3.org/1999/xlink" x="0px" y="0px"
	 viewBox="232 -25 1063 650" style="enable-background:new 232 -25 1063 650;" xml:space="preserve">
<style type="text/css">
	.st0{fill:#F4EBDB;}
	.st1{fill:#4C4546;}
</style>
<g id="Layer_2">
	<rect x="212.8" y="-72.1" class="st0" width="1163.6" height="820.4"/>
</g>
<g id="Layer_1">
	<path class="st1" d="M1256-25v2h39v-2H1256 M965,32l12,8c-2.7,1.7-10,11.1-4.7,13.7c7.9,3.9,5.6-13.1,15.3-10.9
		c10.5,2.3,17,13.5,26.4,18.2c9.9,5,23.6,2.7,32.5,7.2c9.8,4.9,12,23.7,25.6,29.4c7.5,3.2,20.9,5,28.9,4c4.6-0.6,10.9-6.2,15-1.6
		c8.9,10.3,8.1,28.1,14.6,40.1c6.3,11.7,21.4,20.8,24.9,34c2,7.7-18.5,4.9-13.8,12.7c3.5,5.8,12-2.9,16.2-0.7
		c9.7,5,7.6,17,14.1,22.1c-0.7-12.3-8.6-16.8-12-27.2c-3.1-9.4-1.6-18.6-8.1-27.4c-10.7-14.4-31.2-37.6-27.7-58.1
		c1.1-6.6,11.4-13.1,15.3-18.7c5.1-7.4,12.3-24.6,2-31c-6.5-4.1-17.6,2.8-21.6,7.9c-6.7,8.8-2.3,24.1-7.8,30.7
		c-13.1,16-48.3-2.3-52.1-18.2c13.5-0.3,25.4-4.6,31.9-17c3.7-6.9,8.4-17.1-2-20.6c-27.3-9.1-27.3,28-45,29.1
		c-9.6,0.6-26.2-0.9-34.4-6.7c-4.3-3.1-5.2-10.2-10-12.4c-6.9-3.2-13.8,1.7-20.4-0.2C974.2,36.5,971.7,31.4,965,32 M961,32l1,1
		L961,32 M817.8,34.7c-1.1-1.1-2.7-1.4-4.1-0.9c-10.3,3.5-15,8.4-21.4,13.5C777.5,59.3,762.2,74.7,750,89
		c-0.5-9.6,10.1-27.4,3.4-36.2c-7.1-9.3-29,14.4-32.7,15.2c-2.3-0.4-7.6-4.6-13.4-5.9c4.9,2.9,11.8,4.8,12.1,7.5
		c-0.5,2-28.1,34.8-10.3,36.7c15.9,1.7,13.8-32.4,14.8-34.2c3.1-2,17.4-12,21.3-9c5.9,4.6-5.4,33.6-7.1,39.9
		c-11.5,41.2-17.2,80.8-40,118c26.7,3.2,27.6-26.2,31.2-46c5.8-32.6,23.3-64.9,45.6-89.1c6.5-7.1,17.6-20.2,28.1-20.8
		c7.8-0.5-1.4,37.8-3.5,43.6c-12.9,35.3-29.6,72.8-37.5,109.3c-2.5,11.6-8.4,25.1-5.9,37c2.3,10.8,15,11.8,24.1,9.3
		c12.7-3.5,31.7-24.7,36-37.3c13.6,1.5,20.8,0.8,30.3-5.4c14.9-9.8,26.2-35.8,38.7-52.6c0,9.4-1,17.5,1,26.4
		c0.5,2.1,2.5,3.4,4.6,3.1c34.7-5.9,36.4-57.6,58.9-78.4c0.4,12.3-3.7,42.8-9.1,54.8c-5.9,13.1-19.6,22.7-26.1,36.1
		c-2.8,5.8-8,22.1,4.1,21.6c24.2-1.1,22.2-39.6,30.3-54.3c4.9-9,19.8-16.1,28.3-21.2c-5.1,19.4-19.7,39.1-16.9,59.9
		c3.2,23.7,41.5,3.4,48.9-5.5c8.1-9.6,12.2-22.2,13.7-34.7c0.6-5.3-0.9-12.7,1.6-17.4c3.4-6.4,15.2-11.3,20.7-16.3
		c-0.2,26.1-11.6,55.1-16.1,81c-1,5.6-8.7,21.1-4.7,25.8c5.3,6.2,14.1-28.7,16.8-34.8c3.6-7.9,10-16.6,14.4-23.1
		c9.7-14.1,22.2-26.7,36.6-35.9c-1.8,30.2-18,61.2-24.1,91c-1.8,9-4.5,18.8-1.6,30.3c17.4,32.4,64.9-2.3,77.9-21.3
		c5-7.3,9.4-20.2,4-28.9c-1.9-3-14.5-2.9-14.5-2.9s-6.2-8.1-8.8-9.3c2.6,4.2,5.2,9.7,5.2,9.7s-8.1,9.8-4.4,13.6
		c3.2,3.3,7.2,2.6,9.2-1.9c1.5-3.3,0.8-7.9,0.8-7.9s7.7-1.4,9.6,2.7c1.6,3.4-2.2,11.6-5.8,17.3c-9.2,14.7-22.7,24.7-38.4,31.7
		c-7.7,3.4-20.6,2.7-22.7-7.1c-6.2-28.5,9.2-65.5,18.2-92.2c5-14.8,13-31,4.8-45.5c-0.8-1.5-2.7-2-4.1-1.2
		c-24.2,13.9-47.3,46.9-57.5,71.6c-1.5-18.3,9.1-41.6,14.2-59c1.1-3.8,7.1-16.5,2.9-19.5c-9.3-6.7-30.8,21.4-37.2,26.5
		c-5.4-32.3-29.7-15.6-41-4.1c-7.5,4-21.3,10.8-29.1,16.7c-2.8-15.1,18.1-56.6,3.8-77.1c-8.2-2.1-10.8,9.8-11.7,15.5
		c-2.8,18.9-13.5,45.9-24.1,61.8c-2.4,3.5-16.6,21.6-21.8,17.2c-5.8-4.9,0.3-24.3,2.3-29.9c9.9-27.3,15.9-56.3,30.3-82
		c2-3.6,7.4-15.9,7.9-25.3c0.2-3.3-5.4-3.4-7.1-0.6c-5.8,9.1-12.7,28.9-15.2,35.6c-14,36.9-30.7,73.9-49.9,108.3
		c-4.8,8.6-15.6,25.8-28.6,25.3c-2-0.1-8.6-3.7-10.6-4.7c2.6-6.5,6.7-14.1,10.6-19.6c4.5-6.4,25.2-41.7,28.8-60.9
		c1.4-5.6,5.8-26.2-4.9-26.4c-10.6-0.2-18.2,12.1-23.9,18.9c-18.6,21.9-22.2,48.6-25.7,76.7c-0.8,6.6-0.5,15.6-0.9,21.3
		c-2.9,6-21.4,26.2-27.9,22.4c-12.3-7.2,3.5-44.2,6.3-53.8c10.7-36.4,22.4-72.2,31.6-109C824.1,61.1,831.9,48.9,817.8,34.7z"/>
	<path class="st0" d="M1075,37.8c-8.3,1.9-24.9,23.9-8,20.2C1077.3,55.7,1092.7,33.7,1075,37.8z"/>
	<path class="st1" d="M369,144.7c-1.8-24-4.5-50.3,18.5-67.2c7-5.2,21.9-3,30.6-6.2c14.8-5.5,25-18.8,41-22.4
		c18.4-4.1,51.4,9.3,70,13.1c16,3.3,39.1,3.1,44-15.9c-4.7,4.4-11,18.4-19.6,13.4c-5.4-3.2,6.8-15-2.7-18.6
		c-6.9-2.7-4.2,20.9-17.7,18.4c-10-1.8,1.4-14.7-8-16.5c-9-1.7-3.8,10.3-10.2,11.2c-16.1,2.3-33.4-8.9-49.8-9.3
		c-22.2-0.6-34.1,12.8-53.4,20.1c-7.4,2.8-15.9,0-23.6,2.3c-0.7-4.1-2-8.1-3.4-12c-9.2-26.2-40.2,8.6-16.6,18.9c2.8,1.2,5.9,1.7,9,2
		c1.4,0.1,2.3,1.6,1.7,2.9C374,88.3,369,97.5,364,107c-3.9-4.2-7.7-6.3-13-8.4c-43.1-17-38.9,57.4-2.3,33.2c3.8-2.5,7.7-6,10.3-9.7
		c5.5,17.6,1.8,58.5-13.7,70.9c-5.5,4.4-19-5.2-22.9,2.9c-5.7,11.9,14.7,11.6,20.6,10.1c0,11.8-23.9,32.8-4,26
		c-0.4,15-8.3,5.8-15.3,12.7c-3.5,3.4,1.2,6.2,4.3,4.3c14.6,7.7,3.3,21-2,32c18.7-13.1,13-41.3,18.9-61c2.1-6.9,0.5-14.5,7.1-19"/>
	<path class="st1" d="M704.9,242.9c0,0-3.8-0.1-9.4,1.1c-19.9,4.3-61.8,17.3-61.6,16.3c2.2-11,13.4-46.2,14-48.1c0-0.1,0-0.2,0-0.2
		c0.3-7.3,21.3-79.4,22-116.9c0-1-0.9-1.8-1.9-1.7c-5.3,0.5-14.1,1.1-16.9,4.6c-4.8,6-3.7,22.5-5.7,30.2
		c-5.4,20.4-14.2,40.8-24.6,59.1c-2.4,4.3-20,32-26,26.1c-9-9-0.8-32.9,0-41.2c0-0.1,0-0.2,0.1-0.3c2.2-7.4,10-39.4,10.1-40
		c0.3-3.4,1.7-10.1-0.1-11.3c-2.5-1.7-9.9,1-11.4,3.3c-8.8,13.6-12.3,25.8-25,37.1c-1.1,0.9-2.7,0.2-2.8-1.2
		c-0.2-5.2,0.2-10.4-1-15.6c-12.7-56-53.5,40.4-10.2,33.5c1.2-0.2,2.2,0.9,1.9,2.1c-2.2,9.3-4,19-6.1,28.4
		c-1.3,6.2-14.6,47.3-25.9,35.9c-13.7-13.8-5.7-66.8,0.8-82.9c2.3-5.6,13.9-21.2,4.7-25.5c-4.1-1.9-11,5-13.8,7.5
		c-9.9,8.7-20,17.8-30.4,25.9c-1.1,0.9-2.8,0-2.7-1.4c0.7-25.4,10.4-66.3,11.8-76.7c0.8-5.8,4.7-13.6,3.5-19.3
		c-1.1-4.9-19.8,1.6-21.8,4.8c-5,8-0.9,24.8-0.4,33.7c1.1,19.6,2.2,55.1-6.2,73c-10.4,22.3-33.9,42.1-49.1,61.4
		c-26.5,33.4-51,75.9-57.5,118.6c-4.3,28.2,17.2,50.8,46.7,39.8c15.8-5.9,20.9-17.2,30.3-29.5c27.8-35.8,31.6-89.4,35.3-133.3
		c2.4-28.7,2.3-61,32.4-74.7c1.3-0.6,2.6,0.5,2.3,1.9c-4.8,22.6-11.9,47.8-4.4,70.8c6.7,20.5,23.6,26.8,38,9.8
		c18.6-21.9,12.3-50.9,21.8-75.6c2.4-6.1,11-14.6,17.4-20.6c1.2-1.1,3.2,0,2.8,1.6c-3.1,14.6-7.4,29.1-10.3,43.8
		c-1.1,5.6-2.8,11.6-0.4,17c3.1,7.2,12,21.7,21.8,19.6c28.4-6,40-49,48.9-77.4c0.7-2.1,3.8-1.2,3.2,0.9c-0.9,3.2-1.9,6.5-2.4,10
		c-3.5,23.1-11,46.2-16.7,68.9c-2.1,8.3-4.4,27.5-7.6,30.9c-6.1,7.6-17,12.4-25.3,17.1c-13.1,7.4-24.2,14-33.8,27.4
		c-5.2,7.3-17,21.5-12.5,31.2c1.3,2.8,4.2,4.6,7.1,5.6c8.4,3,17.7,1,26-2.1c3.9-1.5,7.8-3.2,11.1-5.7c9.4-7.1,15-20.5,19.7-31
		c3-6.9,5.7-14,8.2-21.1c1.2-3.5,2.4-6.9,3.6-10.4c0.9-2.5,1.6-8.1,3.4-9.9c4.4-4.6,5.4-4.3,9.9-6.3c0.9-0.4,62.9-17.7,62.9-17.7
		s-3,8.4,2.9,7.5c3.1-0.4,0.3-8.2,0.3-8.2s12.3-1.4,15.4-3.3"/>
	<path class="st0" d="M711,102c6.1,1.1,11.7-21.8,10.9-29.9c-5.3,1.3-9.3,11.2-11.3,15.7C708,93.9,709,99.4,711,102 M339,105.8
		c-14.8,3.8-15.8,22.4,2,17.9C356.4,119.9,356.6,101.2,339,105.8 M857,112c-25,22.9-36.7,62.7-35.2,93.9c3.9-7.2,8.2-15,12.1-21.2
		C840.1,174.8,865.5,135.4,857,112 M1047,128l1,1L1047,128 M938,139 M549.2,141.4c-7.2,1.3-8,30.3,2.7,28.3
		C562,167.9,555.5,140.3,549.2,141.4 M1002.1,140.9c-3.1,0.5-6.3,1.1-9.7,3.4c-5,3.4-9.1,8.7-9.1,8.7s-2.6,7.8,1.9,10.4
		c3.8,2.2,14.3-0.6,17.8-1.7c3.2-1,10.7-4.5,10.7-4.5S1011.8,137.9,1002.1,140.9 M542.3,141.7"/>
	<path class="st1" d="M660,143l1,1L660,143z"/>
	<path class="st0" d="M539,150 M539,153 M539,150 M1015,163c-7.1,2.1-23.9,4.3-29.3,8.3c-7,5.1-14.8,36.3-5.3,41.5
		C1007,227.2,1018.9,179.7,1015,163 M1145,186c1.4-0.3,2.6-0.6,3.6-1.1c1.4-0.7,0.4-2.8-1-2.2C1146.5,183.3,1145.6,184.2,1145,186
		 M938,189c-7.5,8.1-16.4,19.6-17.8,31c-0.1,1,0.9,1.7,1.8,1.2C931.2,216.3,940,198.6,938,189 M325,196c2.3,6,8.4,7.6,12.7,3.5
		c0.7-0.7,0.3-1.8-0.6-2C333.1,196.5,329.3,196,325,196 M468,201c-36.3,39.7-60.8,83.3-86.3,130.1c-7.6,13.9-7.8,47.7,11.4,53.1
		c17.7,4.9,35.3-16.2,41.7-30.1c16.6-36,22.9-74.9,27.9-114.1C464.1,228.8,471.6,211.7,468,201"/>
	<path class="st1" d="M350,206"/>
	<path class="st0" d="M330,229c2,0.8,2.6,0.7,4-1L330,229 M1133,229c-3.5,1.6-6.5,5.9-4,8C1132.1,239.7,1134.1,233,1133,229
		 M327,245c0.5,1.6,0.4,1.5,2,2C328.2,245.8,328.2,245.8,327,245"/>
	<path class="st0" d="M617.3,277c-0.2,0-0.5,0.1-0.6,0.2c-9.2,7-19,13.3-28,20.5c-4.9,3.9-10.2,6.5-14,11.8
		c-3.9,5.4-6.2,11.9-6,18.6c0,1.8,0.3,3.7,1.1,5.3s2.4,2.9,4.2,3.1c2,0.2,3.9-1.1,5.5-2.4c10.7-8.5,19.4-18.8,26.7-30.4
		c3.4-5.4,6.6-10.9,9.3-16.7c1.3-2.7,3.8-6.9,3.4-10C619,277,617.9,277,617.3,277z"/>
	<path class="st0" d="M486,278c1,3.8,2.4,5.4,6,7C490.3,282,488.9,279.9,486,278z"/>
	<path class="st0" d="M746,292c-1.2,1.2-1.5,1.6-2,3C746,294.2,746.7,294,746,292 M1050,305C1057.7,298.4,1046.8,290.9,1050,305z"/>
	<path class="st0" d="M1046,309l1,1L1046,309"/>
	<path class="st0" d="M936,343"/>
	<path class="st0" d="M376.5,375.5"/>
	<path class="st0" d="M364,382l1,1L364,382z"/>
	<path class="st0" d="M393.5,389.5"/>
	<path class="st0" d="M673,516l1,1L673,516 M621.7,518.3c-0.4,0.4,0.6,0.4,0.7,0.3C622.8,518.2,621.7,518.3,621.7,518.3z"/>
	<path class="st0" d="M706.3,247.7c0,1.1-0.5,2.4-1.3,2.5c-1.1,0.1-1.8-2-1.9-2.6c-0.2-1.7,1-3,1.7-3.2
		C705.9,244,706.2,246.2,706.3,247.7z"/>
	<path class="st0" d="M382,65.2c-1.1,3.4-2.2,6.9-8.1,5.6c-3.9-0.8-8.9-3.4-9.2-6.9c-0.5-5.2,6.4-8.4,10.4-8.4S383.1,61.9,382,65.2z
		"/>
</g>
</svg>
